<?xml version="1.0" encoding="UTF-8" standalone="no"?>
<!-- Created with Inkscape (http://www.inkscape.org/) -->

<svg
   xmlns:dc="http://purl.org/dc/elements/1.1/"
   xmlns:cc="http://creativecommons.org/ns#"
   xmlns:rdf="http://www.w3.org/1999/02/22-rdf-syntax-ns#"
   xmlns:svg="http://www.w3.org/2000/svg"
   xmlns="http://www.w3.org/2000/svg"
   xmlns:sodipodi="http://sodipodi.sourceforge.net/DTD/sodipodi-0.dtd"
   xmlns:inkscape="http://www.inkscape.org/namespaces/inkscape"
   width="744.09448819"
   height="1052.3622047"
   id="svg2"
   version="1.1"
   inkscape:version="0.48.3.1 r9886"
   sodipodi:docname="New document 1">
  <defs
     id="defs4">
    <marker
       inkscape:stockid="Arrow1Mstart"
       orient="auto"
       refY="0.0"
       refX="0.0"
       id="Arrow1Mstart"
       style="overflow:visible">
      <path
         id="path3886"
         d="M 0.0,0.0 L 5.0,-5.0 L -12.5,0.0 L 5.0,5.0 L 0.0,0.0 z "
         style="fill-rule:evenodd;stroke:#000000;stroke-width:1.0pt"
         transform="scale(0.4) translate(10,0)" />
    </marker>
    <marker
       inkscape:stockid="Arrow1Mstart"
       orient="auto"
       refY="0"
       refX="0"
       id="Arrow1Mstart-4"
       style="overflow:visible">
      <path
         inkscape:connector-curvature="0"
         id="path3886-7"
         d="M 0,0 5,-5 -12.5,0 5,5 0,0 z"
         style="fill-rule:evenodd;stroke:#000000;stroke-width:1pt"
         transform="matrix(0.4,0,0,0.4,4,0)" />
    </marker>
    <marker
       inkscape:stockid="Arrow1Mstart"
       orient="auto"
       refY="0"
       refX="0"
       id="Arrow1Mstart-3"
       style="overflow:visible">
      <path
         inkscape:connector-curvature="0"
         id="path3886-0"
         d="M 0,0 5,-5 -12.5,0 5,5 0,0 z"
         style="fill-rule:evenodd;stroke:#000000;stroke-width:1pt"
         transform="matrix(0.4,0,0,0.4,4,0)" />
    </marker>
  </defs>
  <sodipodi:namedview
     id="base"
     pagecolor="#ffffff"
     bordercolor="#666666"
     borderopacity="1.0"
     inkscape:pageopacity="0.0"
     inkscape:pageshadow="2"
     inkscape:zoom="1.979899"
     inkscape:cx="362.03569"
     inkscape:cy="1022.6252"
     inkscape:document-units="px"
     inkscape:current-layer="layer1"
     showgrid="false"
     inkscape:object-paths="true"
     inkscape:snap-global="false"
     inkscape:window-width="1920"
     inkscape:window-height="1056"
     inkscape:window-x="0"
     inkscape:window-y="24"
     inkscape:window-maximized="1" />
  <metadata
     id="metadata7">
    <rdf:RDF>
      <cc:Work
         rdf:about="">
        <dc:format>image/svg+xml</dc:format>
        <dc:type
           rdf:resource="http://purl.org/dc/dcmitype/StillImage" />
        <dc:title></dc:title>
      </cc:Work>
    </rdf:RDF>
  </metadata>
  <g
     inkscape:label="Layer 1"
     inkscape:groupmode="layer"
     id="layer1">
    <path
       style="fill:#ff9955;stroke:#000000;stroke-width:1px;stroke-linecap:butt;stroke-linejoin:miter;stroke-opacity:1;fill-opacity:1"
       d="m 277.79195,353.33662 0,-79.80205 -174.25131,0 0,302.54069 174.25131,0 0,-66.16499 0,0"
       id="path3043"
       inkscape:connector-curvature="0" />
    <flowRoot
       xml:space="preserve"
       id="flowRoot2985"
       style="line-height:125%;letter-spacing:0px;word-spacing:0px;color:#000000;fill:#000000;fill-opacity:1;fill-rule:nonzero;stroke:none;stroke-width:1px;marker:none;visibility:visible;display:inline;overflow:visible;enable-background:accumulate"><flowRegion
         id="flowRegion2987"><rect
           id="rect2989"
           width="277.79196"
           height="49.497475"
           x="11.111678"
           y="10.894908" /></flowRegion><flowPara
         id="flowPara2991">reamer_corner_constraint</flowPara></flowRoot>    <path
       style="fill:none;stroke:#000000;stroke-width:1px;stroke-linecap:butt;stroke-linejoin:miter;stroke-opacity:1"
       d="M -235.87062,152.82134 -103.54064,37.66395 -24.748735,53.826391 -154.55334,178.58023 z"
       id="path2993"
       inkscape:connector-curvature="0" />
    <path
       style="fill:#aa4400;stroke:#000000;stroke-width:1px;stroke-linecap:butt;stroke-linejoin:miter;stroke-opacity:1"
       d="m 44.446712,166.96348 0,26.26396 81.822358,24.24366 -0.50508,-24.24366 z"
       id="path2995"
       inkscape:connector-curvature="0" />
    <path
       style="fill:none;stroke:#000000;stroke-width:1px;stroke-linecap:butt;stroke-linejoin:miter;stroke-opacity:1"
       d="m -163.64471,261.41274 129.804596,-125.25892 -1.51522,29.7995 -127.279226,119.70308 z"
       id="path2997"
       inkscape:connector-curvature="0" />
    <path
       style="fill:none;stroke:#000000;stroke-width:1px;stroke-linecap:butt;stroke-linejoin:miter;stroke-opacity:1"
       d="m -58.588839,131.10307 -35.35534,-10.6066 31.8198,-29.294434 36.36549,9.596454 z"
       id="path2999"
       inkscape:connector-curvature="0" />
    <path
       style="fill:none;stroke:#000000;stroke-width:1px;stroke-linecap:butt;stroke-linejoin:miter;stroke-opacity:1"
       d="m -112.37947,144.99265 -0.50507,14.14214 37.375641,9.09137 0,-13.13198 z"
       id="path3001"
       inkscape:connector-curvature="0"
       sodipodi:nodetypes="ccccc" />
    <path
       style="fill:#803300;stroke:#000000;stroke-width:1px;stroke-linecap:butt;stroke-linejoin:miter;stroke-opacity:1"
       d="m 177.78685,143.22489 -0.25254,11.11168 32.82995,-29.54696 -33.41267,-8.00988 c 0,0 -2.16227,0.16086 -3.20535,0.43374 -1.00128,0.26194 -2.8866,1.14373 -2.8866,1.14373 l -17.82153,16.28139 z"
       id="path3003"
       inkscape:connector-curvature="0"
       sodipodi:nodetypes="ccccaccc" />
    <path
       style="fill:none;stroke:#000000;stroke-width:1px;stroke-linecap:butt;stroke-linejoin:miter;stroke-opacity:1"
       d="m -124.24876,210.90511 -11.11168,-2.0203 31.31473,-29.29442 -0.50507,13.63706 z"
       id="path3005"
       inkscape:connector-curvature="0" />
    <path
       style="fill:#ff9955;stroke:#000000;stroke-width:1px;stroke-linecap:butt;stroke-linejoin:miter;stroke-opacity:1"
       d="m 45.709399,166.96347 c 0,-2.0203 130.814761,-115.662463 130.814761,-115.662463 l 78.28682,16.66752 -44.69925,43.941633 -32.93885,-9.99523 c 0,0 -2.32429,-0.15682 -3.42664,0.14625 -1.19843,0.32948 -3.283,1.76776 -3.283,1.76776 L 147.356,126.93618 c 0,0 -2.27432,2.07243 -2.14657,3.40926 0.1296,1.3561 2.79315,2.98339 2.79315,2.98339 l 29.02666,9.39098 -51.01271,50.00255 z"
       id="path3007"
       inkscape:connector-curvature="0"
       sodipodi:nodetypes="cccccaccacccc" />
    <path
       style="fill:#ff7f2a;stroke:#000000;stroke-width:1px;stroke-linecap:butt;stroke-linejoin:miter;stroke-opacity:1"
       d="m 125.76399,193.73252 52.02286,-50.50763 -0.50508,11.11168 33.84011,-29.7995 -0.50507,-12.62691 44.95178,-43.436557 -1.01015,30.809653 -128.28937,118.692924 z"
       id="path3009"
       inkscape:connector-curvature="0"
       sodipodi:nodetypes="ccccccccc" />
    <path
       style="fill:#ffccaa;fill-opacity:1;stroke:none"
       d="m 150.2327,133.34834 c -1.81629,-0.63134 -2.58642,-1.05037 -3.36924,-1.83318 -0.86905,-0.86905 -0.98958,-1.11817 -0.83937,-1.73487 0.26727,-1.09728 25.11941,-25.80893 26.72573,-26.57464 2.60041,-1.23959 2.15421,-1.33188 20.4851,4.23704 9.14937,2.77957 16.66742,5.08724 16.70677,5.12815 0.0826,0.0859 0.57223,11.40466 0.4977,11.50563 -0.0272,0.0369 -7.558,-1.73479 -16.73508,-3.93702 -16.39047,-3.93323 -16.7161,-4.00009 -18.41034,-3.78007 -0.94861,0.12318 -2.38155,0.47431 -3.18432,0.78029 -1.59256,0.607 -1.21085,0.28296 -12.58749,10.68573 l -6.935,6.34135 -2.35446,-0.81841 0,0 z"
       id="path3011"
       inkscape:connector-curvature="0" />
    <path
       style="fill:#ff9955;stroke:#000000;stroke-width:1px;stroke-linecap:butt;stroke-linejoin:miter;stroke-opacity:1;fill-opacity:1"
       d="m 330.31989,133.37591 c -1.1564,0.40646 -3.2349,1.74861 -3.2349,1.74861 l -23.321,30.04061 c 0,0 -1.11362,2.39925 -0.65694,3.49214 0.56788,1.35902 3.6637,2.47023 3.6637,2.47023 l 215.98319,36.24208 14.64721,-35.86042 -202.62192,-38.94679 c 0,0 -3.03385,0.31249 -4.45934,0.81354 z"
       id="path3013"
       inkscape:connector-curvature="0"
       sodipodi:nodetypes="accacccca" />
    <path
       style="fill:#ffccaa;stroke:#000000;stroke-width:1px;stroke-linecap:butt;stroke-linejoin:miter;stroke-opacity:1;fill-opacity:1"
       d="m 302.92847,169.23632 -0.17857,12.80547 c 0.56226,1.75581 1.38927,2.18789 2.28551,2.27383 l 37.4063,6.38644 -0.50507,13.13198 178.797,28.78935 2.0203,-24.74874 -216.13461,-36.84113 z"
       id="path3015"
       inkscape:connector-curvature="0"
       sodipodi:nodetypes="ccccccccc" />
    <path
       style="fill:#ff7f2a;stroke:#000000;stroke-width:1px;stroke-linecap:butt;stroke-linejoin:miter;stroke-opacity:1;fill-opacity:1"
       d="m 523.00648,207.36958 14.39467,-35.35534 -1.51522,25.25381 -14.89975,35.60788 z"
       id="path3017"
       inkscape:connector-curvature="0"
       sodipodi:nodetypes="ccccc" />
    <path
       style="fill:#803300;stroke:#000000;stroke-width:1px;stroke-linecap:butt;stroke-linejoin:miter;stroke-opacity:1;fill-opacity:1"
       d="m 203.04066,353.33662 74.75129,0 0,156.06857 -74.75129,0 0,0 c 0,0 -6.52371,-0.64479 -9.22663,-2.30045 -3.15448,-1.93226 -5.64835,-5.0548 -7.28388,-8.37284 -1.05326,-2.13678 -1.4197,-7.00438 -1.4197,-7.00438 l 0.40994,-117.56937 c 0,0 -0.23011,-5.42747 0.7063,-7.89988 1.34077,-3.54002 3.71594,-6.86037 6.73566,-9.14306 2.86207,-2.16351 10.07831,-3.77859 10.07831,-3.77859 z"
       id="path3039"
       inkscape:connector-curvature="0"
       sodipodi:nodetypes="cccccaaccaac" />
    <path
       sodipodi:type="arc"
       style="fill:none;fill-opacity:1;stroke:#000000"
       id="path3019"
       sodipodi:cx="203.2932"
       sodipodi:cy="371.77191"
       sodipodi:rx="17.930208"
       sodipodi:ry="17.930208"
       d="m 221.22341,371.77191 a 17.930208,17.930208 0 1 1 -35.86042,0 17.930208,17.930208 0 1 1 35.86042,0 z" />
    <path
       transform="translate(-0.25253592,119.95562)"
       sodipodi:type="arc"
       style="fill:none;stroke:#000000"
       id="path3019-3"
       sodipodi:cx="203.2932"
       sodipodi:cy="371.77191"
       sodipodi:rx="17.930208"
       sodipodi:ry="17.930208"
       d="m 221.22341,371.77191 a 17.930208,17.930208 0 1 1 -35.86042,0 17.930208,17.930208 0 1 1 35.86042,0 z" />
    <path
       style="fill:#ff9955;fill-opacity:1;stroke:#000000;stroke-width:1px;stroke-linecap:butt;stroke-linejoin:miter;stroke-opacity:1"
       d="m 484.74695,355.98827 217.68788,0.50508 0,155.05841 -217.68788,0.50508 0,0 c 0,0 -6.52371,-0.64479 -9.22663,-2.30045 -3.15448,-1.93226 -5.64835,-5.0548 -7.28388,-8.37284 -1.05326,-2.13678 -1.4197,-7.00438 -1.4197,-7.00438 l 0.40994,-117.56937 c 0,0 -0.23011,-5.42747 0.7063,-7.89988 1.34077,-3.54002 3.71594,-6.86037 6.73566,-9.14306 2.86207,-2.16351 10.07831,-3.77859 10.07831,-3.77859 z"
       id="path3039-0"
       inkscape:connector-curvature="0"
       sodipodi:nodetypes="cccccaaccaac" />
    <path
       transform="translate(281.70629,2.6516443)"
       sodipodi:type="arc"
       style="fill:none;stroke:#000000"
       id="path3019-6"
       sodipodi:cx="203.2932"
       sodipodi:cy="371.77191"
       sodipodi:rx="17.930208"
       sodipodi:ry="17.930208"
       d="m 221.22341,371.77191 a 17.930208,17.930208 0 1 1 -35.86042,0 17.930208,17.930208 0 1 1 35.86042,0 z" />
    <path
       transform="translate(281.45375,122.60726)"
       sodipodi:type="arc"
       style="fill:none;stroke:#000000"
       id="path3019-3-5"
       sodipodi:cx="203.2932"
       sodipodi:cy="371.77191"
       sodipodi:rx="17.930208"
       sodipodi:ry="17.930208"
       d="m 221.22341,371.77191 a 17.930208,17.930208 0 1 1 -35.86042,0 17.930208,17.930208 0 1 1 35.86042,0 z" />
    <flowRoot
       xml:space="preserve"
       id="flowRoot3096"
       style="line-height:125%;letter-spacing:0px;word-spacing:0px;color:#000000;fill:#000000;fill-opacity:1;fill-rule:nonzero;stroke:none;stroke-width:1px;marker:none;visibility:visible;display:inline;overflow:visible;enable-background:accumulate"
       transform="translate(-14.142136,-24.243661)"><flowRegion
         id="flowRegion3098"><rect
           id="rect3100"
           width="187.3833"
           height="26.769043"
           x="315.1676"
           y="298.28329" /></flowRegion><flowPara
         id="flowPara3102">reamer_diameter</flowPara></flowRoot>    <path
       style="fill:none;stroke:#000000;stroke-width:1px;stroke-linecap:butt;stroke-linejoin:miter;stroke-opacity:1;marker-start:url(#Arrow1Mstart)"
       d="M 224.25387,363.43815 306.5813,291.71732"
       id="path3104"
       inkscape:connector-curvature="0" />
    <path
       style="fill:none;stroke:#000000;stroke-width:1px;stroke-linecap:butt;stroke-linejoin:miter;stroke-opacity:1;marker-start:url(#Arrow1Mstart)"
       d="M 226.27417,485.16153 318.70313,293.73762"
       id="path3106"
       inkscape:connector-curvature="0" />
    <flowRoot
       xml:space="preserve"
       id="flowRoot4320"
       style="line-height:125%;letter-spacing:0px;word-spacing:0px;color:#000000;fill:#000000;fill-opacity:1;fill-rule:nonzero;stroke:none;stroke-width:1px;marker:none;visibility:visible;display:inline;overflow:visible;enable-background:accumulate"
       transform="translate(-40.911178,16.162441)"><flowRegion
         id="flowRegion4322"><rect
           id="rect4324"
           width="265.16504"
           height="65.154861"
           x="361.12955"
           y="540.21484" /></flowRegion><flowPara
         id="flowPara4326">The extremities of the plank must be milled to fit the reamer diameter contraint.</flowPara></flowRoot>    <path
       style="fill:none;stroke:#000000;stroke-width:1px;stroke-linecap:butt;stroke-linejoin:miter;stroke-opacity:1;marker-start:url(#Arrow1Mstart)"
       d="m 458.26431,381.18853 -57.5787,173.74625"
       id="path3106-0"
       inkscape:connector-curvature="0"
       sodipodi:nodetypes="cc" />
    <path
       style="fill:none;stroke:#000000;stroke-width:1px;stroke-linecap:butt;stroke-linejoin:miter;stroke-opacity:1;marker-start:url(#Arrow1Mstart)"
       d="m 467.08918,511.49119 -62.12438,44.9518"
       id="path3106-0-0"
       inkscape:connector-curvature="0"
       sodipodi:nodetypes="cc" />
  </g>
</svg>
