  0
SECTION
  2
BLOCKS
  0
ENDSEC
  0
SECTION
  2
ENTITIES
  0
LINE
  8
0
 10
0
 11
0
 20
7.071
 21
268.929
  0
LINE
  8
0
 10
0
 11
7.071
 20
268.929
 21
276
  0
LINE
  8
0
 10
7.071
 11
239.929
 20
276
 21
276
  0
LINE
  8
0
 10
239.929
 11
247
 20
276
 21
268.929
  0
LINE
  8
0
 10
247
 11
247
 20
268.929
 21
7.071
  0
LINE
  8
0
 10
247
 11
239.929
 20
7.071
 21
0
  0
LINE
  8
0
 10
239.929
 11
7.071
 20
0
 21
0
  0
LINE
  8
0
 10
7.071
 11
0
 20
0
 21
7.071
  0
LINE
  8
0
 10
0
 11
0
 20
507.071
 21
742.929
  0
LINE
  8
0
 10
0
 11
7.071
 20
742.929
 21
750
  0
LINE
  8
0
 10
7.071
 11
192.929
 20
750
 21
750
  0
LINE
  8
0
 10
192.929
 11
200
 20
750
 21
742.929
  0
LINE
  8
0
 10
200
 11
200
 20
742.929
 21
507.071
  0
LINE
  8
0
 10
200
 11
192.929
 20
507.071
 21
500
  0
LINE
  8
0
 10
192.929
 11
7.071
 20
500
 21
500
  0
LINE
  8
0
 10
7.071
 11
0
 20
500
 21
507.071
  0
LINE
  8
0
 10
230
 11
230
 20
507.071
 21
742.929
  0
LINE
  8
0
 10
230
 11
237.071
 20
742.929
 21
750
  0
LINE
  8
0
 10
237.071
 11
422.929
 20
750
 21
750
  0
LINE
  8
0
 10
422.929
 11
430
 20
750
 21
742.929
  0
LINE
  8
0
 10
430
 11
430
 20
742.929
 21
507.071
  0
LINE
  8
0
 10
430
 11
422.929
 20
507.071
 21
500
  0
LINE
  8
0
 10
422.929
 11
237.071
 20
500
 21
500
  0
LINE
  8
0
 10
237.071
 11
230
 20
500
 21
507.071
  0
LINE
  8
0
 10
277
 11
277
 20
7.071
 21
268.929
  0
LINE
  8
0
 10
277
 11
284.071
 20
268.929
 21
276
  0
LINE
  8
0
 10
284.071
 11
516.929
 20
276
 21
276
  0
LINE
  8
0
 10
516.929
 11
524
 20
276
 21
268.929
  0
LINE
  8
0
 10
524
 11
524
 20
268.929
 21
7.071
  0
LINE
  8
0
 10
524
 11
516.929
 20
7.071
 21
0
  0
LINE
  8
0
 10
516.929
 11
284.071
 20
0
 21
0
  0
LINE
  8
0
 10
284.071
 11
277
 20
0
 21
7.071
  0
LINE
  8
0
 10
554
 11
554
 20
7.071
 21
268.929
  0
LINE
  8
0
 10
554
 11
561.071
 20
268.929
 21
276
  0
LINE
  8
0
 10
561.071
 11
793.929
 20
276
 21
276
  0
LINE
  8
0
 10
793.929
 11
801
 20
276
 21
268.929
  0
LINE
  8
0
 10
801
 11
801
 20
268.929
 21
7.071
  0
LINE
  8
0
 10
801
 11
793.929
 20
7.071
 21
0
  0
LINE
  8
0
 10
793.929
 11
561.071
 20
0
 21
0
  0
LINE
  8
0
 10
561.071
 11
554
 20
0
 21
7.071
  0
LINE
  8
0
 10
831
 11
831
 20
7.071
 21
268.929
  0
LINE
  8
0
 10
831
 11
838.071
 20
268.929
 21
276
  0
LINE
  8
0
 10
838.071
 11
1070.93
 20
276
 21
276
  0
LINE
  8
0
 10
1070.93
 11
1078
 20
276
 21
268.929
  0
LINE
  8
0
 10
1078
 11
1078
 20
268.929
 21
7.071
  0
LINE
  8
0
 10
1078
 11
1070.93
 20
7.071
 21
0
  0
LINE
  8
0
 10
1070.93
 11
838.071
 20
0
 21
0
  0
LINE
  8
0
 10
838.071
 11
831
 20
0
 21
7.071
  0
LINE
  8
0
 10
1000
 11
1000
 20
507.071
 21
742.929
  0
LINE
  8
0
 10
1000
 11
1007.07
 20
742.929
 21
750
  0
LINE
  8
0
 10
1007.07
 11
1262.93
 20
750
 21
750
  0
LINE
  8
0
 10
1262.93
 11
1270
 20
750
 21
742.929
  0
LINE
  8
0
 10
1270
 11
1270
 20
742.929
 21
507.071
  0
LINE
  8
0
 10
1270
 11
1262.93
 20
507.071
 21
500
  0
LINE
  8
0
 10
1262.93
 11
1007.07
 20
500
 21
500
  0
LINE
  8
0
 10
1007.07
 11
1000
 20
500
 21
507.071
  0
LINE
  8
0
 10
1300
 11
1300
 20
507.071
 21
742.929
  0
LINE
  8
0
 10
1300
 11
1307.07
 20
742.929
 21
750
  0
LINE
  8
0
 10
1307.07
 11
1562.93
 20
750
 21
750
  0
LINE
  8
0
 10
1562.93
 11
1570
 20
750
 21
742.929
  0
LINE
  8
0
 10
1570
 11
1570
 20
742.929
 21
507.071
  0
LINE
  8
0
 10
1570
 11
1562.93
 20
507.071
 21
500
  0
LINE
  8
0
 10
1562.93
 11
1307.07
 20
500
 21
500
  0
LINE
  8
0
 10
1307.07
 11
1300
 20
500
 21
507.071
  0
ENDSEC
  0
SECTION
  2
OBJECTS
  0
DICTIONARY
  0
ENDSEC
  0
EOF
