  0
SECTION
  2
BLOCKS
  0
ENDSEC
  0
SECTION
  2
ENTITIES
  0
LINE
  8
0
 10
0
 11
0
 20
0
 21
100
  0
LINE
  8
0
 10
0
 11
94.226
 20
100
 21
100
  0
LINE
  8
0
 10
94.226
 11
94.226
 20
100
 21
99.945
  0
LINE
  8
0
 10
94.226
 11
95.272
 20
99.945
 21
99.945
  0
LINE
  8
0
 10
95.272
 11
97.317
 20
99.945
 21
99.511
  0
LINE
  8
0
 10
97.317
 11
99.226
 20
99.511
 21
98.66
  0
LINE
  8
0
 10
99.226
 11
100.918
 20
98.66
 21
97.431
  0
LINE
  8
0
 10
100.918
 11
102.317
 20
97.431
 21
95.878
  0
LINE
  8
0
 10
102.317
 11
102.823
 20
95.878
 21
95
  0
LINE
  8
0
 10
102.823
 11
102.887
 20
95
 21
95
  0
LINE
  8
0
 10
102.887
 11
114.434
 20
95
 21
75
  0
LINE
  8
0
 10
114.434
 11
114.497
 20
75
 21
75
  0
LINE
  8
0
 10
114.497
 11
115.004
 20
75
 21
74.122
  0
LINE
  8
0
 10
115.004
 11
116.403
 20
74.122
 21
72.569
  0
LINE
  8
0
 10
116.403
 11
118.094
 20
72.569
 21
71.34
  0
LINE
  8
0
 10
118.094
 11
120.004
 20
71.34
 21
70.489
  0
LINE
  8
0
 10
120.004
 11
122.049
 20
70.489
 21
70.055
  0
LINE
  8
0
 10
122.049
 11
123.094
 20
70.055
 21
70.055
  0
LINE
  8
0
 10
123.094
 11
123.094
 20
70.055
 21
70
  0
LINE
  8
0
 10
123.094
 11
276.906
 20
70
 21
70
  0
LINE
  8
0
 10
276.906
 11
276.906
 20
70
 21
70.055
  0
LINE
  8
0
 10
276.906
 11
277.951
 20
70.055
 21
70.055
  0
LINE
  8
0
 10
277.951
 11
279.996
 20
70.055
 21
70.489
  0
LINE
  8
0
 10
279.996
 11
281.906
 20
70.489
 21
71.34
  0
LINE
  8
0
 10
281.906
 11
283.597
 20
71.34
 21
72.569
  0
LINE
  8
0
 10
283.597
 11
284.996
 20
72.569
 21
74.122
  0
LINE
  8
0
 10
284.996
 11
285.503
 20
74.122
 21
75
  0
LINE
  8
0
 10
285.503
 11
285.566
 20
75
 21
75
  0
LINE
  8
0
 10
285.566
 11
297.113
 20
75
 21
95
  0
LINE
  8
0
 10
297.113
 11
297.177
 20
95
 21
95
  0
LINE
  8
0
 10
297.177
 11
297.683
 20
95
 21
95.878
  0
LINE
  8
0
 10
297.683
 11
299.082
 20
95.878
 21
97.431
  0
LINE
  8
0
 10
299.082
 11
300.774
 20
97.431
 21
98.66
  0
LINE
  8
0
 10
300.774
 11
302.683
 20
98.66
 21
99.511
  0
LINE
  8
0
 10
302.683
 11
304.728
 20
99.511
 21
99.945
  0
LINE
  8
0
 10
304.728
 11
305.774
 20
99.945
 21
99.945
  0
LINE
  8
0
 10
305.774
 11
305.774
 20
99.945
 21
100
  0
LINE
  8
0
 10
305.774
 11
494.226
 20
100
 21
100
  0
LINE
  8
0
 10
494.226
 11
494.226
 20
100
 21
99.945
  0
LINE
  8
0
 10
494.226
 11
495.272
 20
99.945
 21
99.945
  0
LINE
  8
0
 10
495.272
 11
497.317
 20
99.945
 21
99.511
  0
LINE
  8
0
 10
497.317
 11
499.226
 20
99.511
 21
98.66
  0
LINE
  8
0
 10
499.226
 11
500.918
 20
98.66
 21
97.431
  0
LINE
  8
0
 10
500.918
 11
502.317
 20
97.431
 21
95.878
  0
LINE
  8
0
 10
502.317
 11
502.823
 20
95.878
 21
95
  0
LINE
  8
0
 10
502.823
 11
502.887
 20
95
 21
95
  0
LINE
  8
0
 10
502.887
 11
514.434
 20
95
 21
75
  0
LINE
  8
0
 10
514.434
 11
514.497
 20
75
 21
75
  0
LINE
  8
0
 10
514.497
 11
515.004
 20
75
 21
74.122
  0
LINE
  8
0
 10
515.004
 11
516.403
 20
74.122
 21
72.569
  0
LINE
  8
0
 10
516.403
 11
518.094
 20
72.569
 21
71.34
  0
LINE
  8
0
 10
518.094
 11
520.004
 20
71.34
 21
70.489
  0
LINE
  8
0
 10
520.004
 11
522.049
 20
70.489
 21
70.055
  0
LINE
  8
0
 10
522.049
 11
523.094
 20
70.055
 21
70.055
  0
LINE
  8
0
 10
523.094
 11
523.094
 20
70.055
 21
70
  0
LINE
  8
0
 10
523.094
 11
676.906
 20
70
 21
70
  0
LINE
  8
0
 10
676.906
 11
676.906
 20
70
 21
70.055
  0
LINE
  8
0
 10
676.906
 11
677.951
 20
70.055
 21
70.055
  0
LINE
  8
0
 10
677.951
 11
679.996
 20
70.055
 21
70.489
  0
LINE
  8
0
 10
679.996
 11
681.906
 20
70.489
 21
71.34
  0
LINE
  8
0
 10
681.906
 11
683.597
 20
71.34
 21
72.569
  0
LINE
  8
0
 10
683.597
 11
684.996
 20
72.569
 21
74.122
  0
LINE
  8
0
 10
684.996
 11
685.503
 20
74.122
 21
75
  0
LINE
  8
0
 10
685.503
 11
685.566
 20
75
 21
75
  0
LINE
  8
0
 10
685.566
 11
697.113
 20
75
 21
95
  0
LINE
  8
0
 10
697.113
 11
697.177
 20
95
 21
95
  0
LINE
  8
0
 10
697.177
 11
697.683
 20
95
 21
95.878
  0
LINE
  8
0
 10
697.683
 11
699.082
 20
95.878
 21
97.431
  0
LINE
  8
0
 10
699.082
 11
700.774
 20
97.431
 21
98.66
  0
LINE
  8
0
 10
700.774
 11
702.683
 20
98.66
 21
99.511
  0
LINE
  8
0
 10
702.683
 11
704.728
 20
99.511
 21
99.945
  0
LINE
  8
0
 10
704.728
 11
705.774
 20
99.945
 21
99.945
  0
LINE
  8
0
 10
705.774
 11
705.774
 20
99.945
 21
100
  0
LINE
  8
0
 10
705.774
 11
800
 20
100
 21
100
  0
LINE
  8
0
 10
800
 11
800
 20
100
 21
0
  0
LINE
  8
0
 10
800
 11
0
 20
0
 21
0
  0
LINE
  8
0
 10
0
 11
0
 20
200
 21
270
  0
LINE
  8
0
 10
0
 11
94.226
 20
270
 21
270
  0
LINE
  8
0
 10
94.226
 11
94.226
 20
270
 21
270.055
  0
LINE
  8
0
 10
94.226
 11
95.272
 20
270.055
 21
270.055
  0
LINE
  8
0
 10
95.272
 11
97.317
 20
270.055
 21
270.489
  0
LINE
  8
0
 10
97.317
 11
99.226
 20
270.489
 21
271.34
  0
LINE
  8
0
 10
99.226
 11
100.918
 20
271.34
 21
272.569
  0
LINE
  8
0
 10
100.918
 11
102.317
 20
272.569
 21
274.122
  0
LINE
  8
0
 10
102.317
 11
102.823
 20
274.122
 21
275
  0
LINE
  8
0
 10
102.823
 11
102.887
 20
275
 21
275
  0
LINE
  8
0
 10
102.887
 11
114.434
 20
275
 21
295
  0
LINE
  8
0
 10
114.434
 11
114.497
 20
295
 21
295
  0
LINE
  8
0
 10
114.497
 11
115.004
 20
295
 21
295.878
  0
LINE
  8
0
 10
115.004
 11
116.403
 20
295.878
 21
297.431
  0
LINE
  8
0
 10
116.403
 11
118.094
 20
297.431
 21
298.66
  0
LINE
  8
0
 10
118.094
 11
120.004
 20
298.66
 21
299.511
  0
LINE
  8
0
 10
120.004
 11
122.049
 20
299.511
 21
299.945
  0
LINE
  8
0
 10
122.049
 11
123.094
 20
299.945
 21
299.945
  0
LINE
  8
0
 10
123.094
 11
123.094
 20
299.945
 21
300
  0
LINE
  8
0
 10
123.094
 11
276.906
 20
300
 21
300
  0
LINE
  8
0
 10
276.906
 11
276.906
 20
300
 21
299.945
  0
LINE
  8
0
 10
276.906
 11
277.951
 20
299.945
 21
299.945
  0
LINE
  8
0
 10
277.951
 11
279.996
 20
299.945
 21
299.511
  0
LINE
  8
0
 10
279.996
 11
281.906
 20
299.511
 21
298.66
  0
LINE
  8
0
 10
281.906
 11
283.597
 20
298.66
 21
297.431
  0
LINE
  8
0
 10
283.597
 11
284.996
 20
297.431
 21
295.878
  0
LINE
  8
0
 10
284.996
 11
285.503
 20
295.878
 21
295
  0
LINE
  8
0
 10
285.503
 11
285.566
 20
295
 21
295
  0
LINE
  8
0
 10
285.566
 11
297.113
 20
295
 21
275
  0
LINE
  8
0
 10
297.113
 11
297.177
 20
275
 21
275
  0
LINE
  8
0
 10
297.177
 11
297.683
 20
275
 21
274.122
  0
LINE
  8
0
 10
297.683
 11
299.082
 20
274.122
 21
272.569
  0
LINE
  8
0
 10
299.082
 11
300.774
 20
272.569
 21
271.34
  0
LINE
  8
0
 10
300.774
 11
302.683
 20
271.34
 21
270.489
  0
LINE
  8
0
 10
302.683
 11
304.728
 20
270.489
 21
270.055
  0
LINE
  8
0
 10
304.728
 11
305.774
 20
270.055
 21
270.055
  0
LINE
  8
0
 10
305.774
 11
305.774
 20
270.055
 21
270
  0
LINE
  8
0
 10
305.774
 11
494.226
 20
270
 21
270
  0
LINE
  8
0
 10
494.226
 11
494.226
 20
270
 21
270.055
  0
LINE
  8
0
 10
494.226
 11
495.272
 20
270.055
 21
270.055
  0
LINE
  8
0
 10
495.272
 11
497.317
 20
270.055
 21
270.489
  0
LINE
  8
0
 10
497.317
 11
499.226
 20
270.489
 21
271.34
  0
LINE
  8
0
 10
499.226
 11
500.918
 20
271.34
 21
272.569
  0
LINE
  8
0
 10
500.918
 11
502.317
 20
272.569
 21
274.122
  0
LINE
  8
0
 10
502.317
 11
502.823
 20
274.122
 21
275
  0
LINE
  8
0
 10
502.823
 11
502.887
 20
275
 21
275
  0
LINE
  8
0
 10
502.887
 11
514.434
 20
275
 21
295
  0
LINE
  8
0
 10
514.434
 11
514.497
 20
295
 21
295
  0
LINE
  8
0
 10
514.497
 11
515.004
 20
295
 21
295.878
  0
LINE
  8
0
 10
515.004
 11
516.403
 20
295.878
 21
297.431
  0
LINE
  8
0
 10
516.403
 11
518.094
 20
297.431
 21
298.66
  0
LINE
  8
0
 10
518.094
 11
520.004
 20
298.66
 21
299.511
  0
LINE
  8
0
 10
520.004
 11
522.049
 20
299.511
 21
299.945
  0
LINE
  8
0
 10
522.049
 11
523.094
 20
299.945
 21
299.945
  0
LINE
  8
0
 10
523.094
 11
523.094
 20
299.945
 21
300
  0
LINE
  8
0
 10
523.094
 11
676.906
 20
300
 21
300
  0
LINE
  8
0
 10
676.906
 11
676.906
 20
300
 21
299.945
  0
LINE
  8
0
 10
676.906
 11
677.951
 20
299.945
 21
299.945
  0
LINE
  8
0
 10
677.951
 11
679.996
 20
299.945
 21
299.511
  0
LINE
  8
0
 10
679.996
 11
681.906
 20
299.511
 21
298.66
  0
LINE
  8
0
 10
681.906
 11
683.597
 20
298.66
 21
297.431
  0
LINE
  8
0
 10
683.597
 11
684.996
 20
297.431
 21
295.878
  0
LINE
  8
0
 10
684.996
 11
685.503
 20
295.878
 21
295
  0
LINE
  8
0
 10
685.503
 11
685.566
 20
295
 21
295
  0
LINE
  8
0
 10
685.566
 11
697.113
 20
295
 21
275
  0
LINE
  8
0
 10
697.113
 11
697.177
 20
275
 21
275
  0
LINE
  8
0
 10
697.177
 11
697.683
 20
275
 21
274.122
  0
LINE
  8
0
 10
697.683
 11
699.082
 20
274.122
 21
272.569
  0
LINE
  8
0
 10
699.082
 11
700.774
 20
272.569
 21
271.34
  0
LINE
  8
0
 10
700.774
 11
702.683
 20
271.34
 21
270.489
  0
LINE
  8
0
 10
702.683
 11
704.728
 20
270.489
 21
270.055
  0
LINE
  8
0
 10
704.728
 11
705.774
 20
270.055
 21
270.055
  0
LINE
  8
0
 10
705.774
 11
705.774
 20
270.055
 21
270
  0
LINE
  8
0
 10
705.774
 11
800
 20
270
 21
270
  0
LINE
  8
0
 10
800
 11
800
 20
270
 21
200
  0
LINE
  8
0
 10
800
 11
0
 20
200
 21
200
  0
LINE
  8
0
 10
0
 11
0
 20
410
 21
492.929
  0
LINE
  8
0
 10
0
 11
7.071
 20
492.929
 21
500
  0
LINE
  8
0
 10
7.071
 11
302.929
 20
500
 21
500
  0
LINE
  8
0
 10
302.929
 11
310
 20
500
 21
492.929
  0
LINE
  8
0
 10
310
 11
310
 20
492.929
 21
410
  0
LINE
  8
0
 10
310
 11
270
 20
410
 21
410
  0
LINE
  8
0
 10
270
 11
270
 20
410
 21
400
  0
LINE
  8
0
 10
270
 11
40
 20
400
 21
400
  0
LINE
  8
0
 10
40
 11
40
 20
400
 21
410
  0
LINE
  8
0
 10
40
 11
0
 20
410
 21
410
  0
LINE
  8
0
 10
0
 11
0
 20
607.071
 21
692.929
  0
LINE
  8
0
 10
0
 11
7.071
 20
692.929
 21
700
  0
LINE
  8
0
 10
7.071
 11
302.929
 20
700
 21
700
  0
LINE
  8
0
 10
302.929
 11
310
 20
700
 21
692.929
  0
LINE
  8
0
 10
310
 11
310
 20
692.929
 21
607.071
  0
LINE
  8
0
 10
310
 11
302.929
 20
607.071
 21
600
  0
LINE
  8
0
 10
302.929
 11
7.071
 20
600
 21
600
  0
LINE
  8
0
 10
7.071
 11
0
 20
600
 21
607.071
  0
LINE
  8
0
 10
0
 11
0
 20
800
 21
900
  0
LINE
  8
0
 10
0
 11
94.226
 20
900
 21
900
  0
LINE
  8
0
 10
94.226
 11
94.226
 20
900
 21
899.945
  0
LINE
  8
0
 10
94.226
 11
95.272
 20
899.945
 21
899.945
  0
LINE
  8
0
 10
95.272
 11
97.317
 20
899.945
 21
899.511
  0
LINE
  8
0
 10
97.317
 11
99.226
 20
899.511
 21
898.66
  0
LINE
  8
0
 10
99.226
 11
100.918
 20
898.66
 21
897.431
  0
LINE
  8
0
 10
100.918
 11
102.317
 20
897.431
 21
895.878
  0
LINE
  8
0
 10
102.317
 11
102.823
 20
895.878
 21
895
  0
LINE
  8
0
 10
102.823
 11
102.887
 20
895
 21
895
  0
LINE
  8
0
 10
102.887
 11
114.434
 20
895
 21
875
  0
LINE
  8
0
 10
114.434
 11
114.497
 20
875
 21
875
  0
LINE
  8
0
 10
114.497
 11
115.004
 20
875
 21
874.122
  0
LINE
  8
0
 10
115.004
 11
116.403
 20
874.122
 21
872.569
  0
LINE
  8
0
 10
116.403
 11
118.094
 20
872.569
 21
871.34
  0
LINE
  8
0
 10
118.094
 11
120.004
 20
871.34
 21
870.489
  0
LINE
  8
0
 10
120.004
 11
122.049
 20
870.489
 21
870.055
  0
LINE
  8
0
 10
122.049
 11
123.094
 20
870.055
 21
870.055
  0
LINE
  8
0
 10
123.094
 11
123.094
 20
870.055
 21
870
  0
LINE
  8
0
 10
123.094
 11
276.906
 20
870
 21
870
  0
LINE
  8
0
 10
276.906
 11
276.906
 20
870
 21
870.055
  0
LINE
  8
0
 10
276.906
 11
277.951
 20
870.055
 21
870.055
  0
LINE
  8
0
 10
277.951
 11
279.996
 20
870.055
 21
870.489
  0
LINE
  8
0
 10
279.996
 11
281.906
 20
870.489
 21
871.34
  0
LINE
  8
0
 10
281.906
 11
283.597
 20
871.34
 21
872.569
  0
LINE
  8
0
 10
283.597
 11
284.996
 20
872.569
 21
874.122
  0
LINE
  8
0
 10
284.996
 11
285.503
 20
874.122
 21
875
  0
LINE
  8
0
 10
285.503
 11
285.566
 20
875
 21
875
  0
LINE
  8
0
 10
285.566
 11
297.113
 20
875
 21
895
  0
LINE
  8
0
 10
297.113
 11
297.177
 20
895
 21
895
  0
LINE
  8
0
 10
297.177
 11
297.683
 20
895
 21
895.878
  0
LINE
  8
0
 10
297.683
 11
299.082
 20
895.878
 21
897.431
  0
LINE
  8
0
 10
299.082
 11
300.774
 20
897.431
 21
898.66
  0
LINE
  8
0
 10
300.774
 11
302.683
 20
898.66
 21
899.511
  0
LINE
  8
0
 10
302.683
 11
304.728
 20
899.511
 21
899.945
  0
LINE
  8
0
 10
304.728
 11
305.774
 20
899.945
 21
899.945
  0
LINE
  8
0
 10
305.774
 11
305.774
 20
899.945
 21
900
  0
LINE
  8
0
 10
305.774
 11
494.226
 20
900
 21
900
  0
LINE
  8
0
 10
494.226
 11
494.226
 20
900
 21
899.945
  0
LINE
  8
0
 10
494.226
 11
495.272
 20
899.945
 21
899.945
  0
LINE
  8
0
 10
495.272
 11
497.317
 20
899.945
 21
899.511
  0
LINE
  8
0
 10
497.317
 11
499.226
 20
899.511
 21
898.66
  0
LINE
  8
0
 10
499.226
 11
500.918
 20
898.66
 21
897.431
  0
LINE
  8
0
 10
500.918
 11
502.317
 20
897.431
 21
895.878
  0
LINE
  8
0
 10
502.317
 11
502.823
 20
895.878
 21
895
  0
LINE
  8
0
 10
502.823
 11
502.887
 20
895
 21
895
  0
LINE
  8
0
 10
502.887
 11
514.434
 20
895
 21
875
  0
LINE
  8
0
 10
514.434
 11
514.497
 20
875
 21
875
  0
LINE
  8
0
 10
514.497
 11
515.004
 20
875
 21
874.122
  0
LINE
  8
0
 10
515.004
 11
516.403
 20
874.122
 21
872.569
  0
LINE
  8
0
 10
516.403
 11
518.094
 20
872.569
 21
871.34
  0
LINE
  8
0
 10
518.094
 11
520.004
 20
871.34
 21
870.489
  0
LINE
  8
0
 10
520.004
 11
522.049
 20
870.489
 21
870.055
  0
LINE
  8
0
 10
522.049
 11
523.094
 20
870.055
 21
870.055
  0
LINE
  8
0
 10
523.094
 11
523.094
 20
870.055
 21
870
  0
LINE
  8
0
 10
523.094
 11
676.906
 20
870
 21
870
  0
LINE
  8
0
 10
676.906
 11
676.906
 20
870
 21
870.055
  0
LINE
  8
0
 10
676.906
 11
677.951
 20
870.055
 21
870.055
  0
LINE
  8
0
 10
677.951
 11
679.996
 20
870.055
 21
870.489
  0
LINE
  8
0
 10
679.996
 11
681.906
 20
870.489
 21
871.34
  0
LINE
  8
0
 10
681.906
 11
683.597
 20
871.34
 21
872.569
  0
LINE
  8
0
 10
683.597
 11
684.996
 20
872.569
 21
874.122
  0
LINE
  8
0
 10
684.996
 11
685.503
 20
874.122
 21
875
  0
LINE
  8
0
 10
685.503
 11
685.566
 20
875
 21
875
  0
LINE
  8
0
 10
685.566
 11
697.113
 20
875
 21
895
  0
LINE
  8
0
 10
697.113
 11
697.177
 20
895
 21
895
  0
LINE
  8
0
 10
697.177
 11
697.683
 20
895
 21
895.878
  0
LINE
  8
0
 10
697.683
 11
699.082
 20
895.878
 21
897.431
  0
LINE
  8
0
 10
699.082
 11
700.774
 20
897.431
 21
898.66
  0
LINE
  8
0
 10
700.774
 11
702.683
 20
898.66
 21
899.511
  0
LINE
  8
0
 10
702.683
 11
704.728
 20
899.511
 21
899.945
  0
LINE
  8
0
 10
704.728
 11
705.774
 20
899.945
 21
899.945
  0
LINE
  8
0
 10
705.774
 11
705.774
 20
899.945
 21
900
  0
LINE
  8
0
 10
705.774
 11
800
 20
900
 21
900
  0
LINE
  8
0
 10
800
 11
800
 20
900
 21
800
  0
LINE
  8
0
 10
800
 11
0
 20
800
 21
800
  0
LINE
  8
0
 10
0
 11
0
 20
1000
 21
1070
  0
LINE
  8
0
 10
0
 11
94.226
 20
1070
 21
1070
  0
LINE
  8
0
 10
94.226
 11
94.226
 20
1070
 21
1070.06
  0
LINE
  8
0
 10
94.226
 11
95.272
 20
1070.06
 21
1070.06
  0
LINE
  8
0
 10
95.272
 11
97.317
 20
1070.06
 21
1070.49
  0
LINE
  8
0
 10
97.317
 11
99.226
 20
1070.49
 21
1071.34
  0
LINE
  8
0
 10
99.226
 11
100.918
 20
1071.34
 21
1072.57
  0
LINE
  8
0
 10
100.918
 11
102.317
 20
1072.57
 21
1074.12
  0
LINE
  8
0
 10
102.317
 11
102.823
 20
1074.12
 21
1075
  0
LINE
  8
0
 10
102.823
 11
102.887
 20
1075
 21
1075
  0
LINE
  8
0
 10
102.887
 11
114.434
 20
1075
 21
1095
  0
LINE
  8
0
 10
114.434
 11
114.497
 20
1095
 21
1095
  0
LINE
  8
0
 10
114.497
 11
115.004
 20
1095
 21
1095.88
  0
LINE
  8
0
 10
115.004
 11
116.403
 20
1095.88
 21
1097.43
  0
LINE
  8
0
 10
116.403
 11
118.094
 20
1097.43
 21
1098.66
  0
LINE
  8
0
 10
118.094
 11
120.004
 20
1098.66
 21
1099.51
  0
LINE
  8
0
 10
120.004
 11
122.049
 20
1099.51
 21
1099.94
  0
LINE
  8
0
 10
122.049
 11
123.094
 20
1099.94
 21
1099.94
  0
LINE
  8
0
 10
123.094
 11
123.094
 20
1099.94
 21
1100
  0
LINE
  8
0
 10
123.094
 11
276.906
 20
1100
 21
1100
  0
LINE
  8
0
 10
276.906
 11
276.906
 20
1100
 21
1099.94
  0
LINE
  8
0
 10
276.906
 11
277.951
 20
1099.94
 21
1099.94
  0
LINE
  8
0
 10
277.951
 11
279.996
 20
1099.94
 21
1099.51
  0
LINE
  8
0
 10
279.996
 11
281.906
 20
1099.51
 21
1098.66
  0
LINE
  8
0
 10
281.906
 11
283.597
 20
1098.66
 21
1097.43
  0
LINE
  8
0
 10
283.597
 11
284.996
 20
1097.43
 21
1095.88
  0
LINE
  8
0
 10
284.996
 11
285.503
 20
1095.88
 21
1095
  0
LINE
  8
0
 10
285.503
 11
285.566
 20
1095
 21
1095
  0
LINE
  8
0
 10
285.566
 11
297.113
 20
1095
 21
1075
  0
LINE
  8
0
 10
297.113
 11
297.177
 20
1075
 21
1075
  0
LINE
  8
0
 10
297.177
 11
297.683
 20
1075
 21
1074.12
  0
LINE
  8
0
 10
297.683
 11
299.082
 20
1074.12
 21
1072.57
  0
LINE
  8
0
 10
299.082
 11
300.774
 20
1072.57
 21
1071.34
  0
LINE
  8
0
 10
300.774
 11
302.683
 20
1071.34
 21
1070.49
  0
LINE
  8
0
 10
302.683
 11
304.728
 20
1070.49
 21
1070.06
  0
LINE
  8
0
 10
304.728
 11
305.774
 20
1070.06
 21
1070.06
  0
LINE
  8
0
 10
305.774
 11
305.774
 20
1070.06
 21
1070
  0
LINE
  8
0
 10
305.774
 11
494.226
 20
1070
 21
1070
  0
LINE
  8
0
 10
494.226
 11
494.226
 20
1070
 21
1070.06
  0
LINE
  8
0
 10
494.226
 11
495.272
 20
1070.06
 21
1070.06
  0
LINE
  8
0
 10
495.272
 11
497.317
 20
1070.06
 21
1070.49
  0
LINE
  8
0
 10
497.317
 11
499.226
 20
1070.49
 21
1071.34
  0
LINE
  8
0
 10
499.226
 11
500.918
 20
1071.34
 21
1072.57
  0
LINE
  8
0
 10
500.918
 11
502.317
 20
1072.57
 21
1074.12
  0
LINE
  8
0
 10
502.317
 11
502.823
 20
1074.12
 21
1075
  0
LINE
  8
0
 10
502.823
 11
502.887
 20
1075
 21
1075
  0
LINE
  8
0
 10
502.887
 11
514.434
 20
1075
 21
1095
  0
LINE
  8
0
 10
514.434
 11
514.497
 20
1095
 21
1095
  0
LINE
  8
0
 10
514.497
 11
515.004
 20
1095
 21
1095.88
  0
LINE
  8
0
 10
515.004
 11
516.403
 20
1095.88
 21
1097.43
  0
LINE
  8
0
 10
516.403
 11
518.094
 20
1097.43
 21
1098.66
  0
LINE
  8
0
 10
518.094
 11
520.004
 20
1098.66
 21
1099.51
  0
LINE
  8
0
 10
520.004
 11
522.049
 20
1099.51
 21
1099.94
  0
LINE
  8
0
 10
522.049
 11
523.094
 20
1099.94
 21
1099.94
  0
LINE
  8
0
 10
523.094
 11
523.094
 20
1099.94
 21
1100
  0
LINE
  8
0
 10
523.094
 11
676.906
 20
1100
 21
1100
  0
LINE
  8
0
 10
676.906
 11
676.906
 20
1100
 21
1099.94
  0
LINE
  8
0
 10
676.906
 11
677.951
 20
1099.94
 21
1099.94
  0
LINE
  8
0
 10
677.951
 11
679.996
 20
1099.94
 21
1099.51
  0
LINE
  8
0
 10
679.996
 11
681.906
 20
1099.51
 21
1098.66
  0
LINE
  8
0
 10
681.906
 11
683.597
 20
1098.66
 21
1097.43
  0
LINE
  8
0
 10
683.597
 11
684.996
 20
1097.43
 21
1095.88
  0
LINE
  8
0
 10
684.996
 11
685.503
 20
1095.88
 21
1095
  0
LINE
  8
0
 10
685.503
 11
685.566
 20
1095
 21
1095
  0
LINE
  8
0
 10
685.566
 11
697.113
 20
1095
 21
1075
  0
LINE
  8
0
 10
697.113
 11
697.177
 20
1075
 21
1075
  0
LINE
  8
0
 10
697.177
 11
697.683
 20
1075
 21
1074.12
  0
LINE
  8
0
 10
697.683
 11
699.082
 20
1074.12
 21
1072.57
  0
LINE
  8
0
 10
699.082
 11
700.774
 20
1072.57
 21
1071.34
  0
LINE
  8
0
 10
700.774
 11
702.683
 20
1071.34
 21
1070.49
  0
LINE
  8
0
 10
702.683
 11
704.728
 20
1070.49
 21
1070.06
  0
LINE
  8
0
 10
704.728
 11
705.774
 20
1070.06
 21
1070.06
  0
LINE
  8
0
 10
705.774
 11
705.774
 20
1070.06
 21
1070
  0
LINE
  8
0
 10
705.774
 11
800
 20
1070
 21
1070
  0
LINE
  8
0
 10
800
 11
800
 20
1070
 21
1000
  0
LINE
  8
0
 10
800
 11
0
 20
1000
 21
1000
  0
LINE
  8
0
 10
0
 11
0
 20
1210
 21
1292.93
  0
LINE
  8
0
 10
0
 11
7.071
 20
1292.93
 21
1300
  0
LINE
  8
0
 10
7.071
 11
302.929
 20
1300
 21
1300
  0
LINE
  8
0
 10
302.929
 11
310
 20
1300
 21
1292.93
  0
LINE
  8
0
 10
310
 11
310
 20
1292.93
 21
1210
  0
LINE
  8
0
 10
310
 11
270
 20
1210
 21
1210
  0
LINE
  8
0
 10
270
 11
270
 20
1210
 21
1200
  0
LINE
  8
0
 10
270
 11
40
 20
1200
 21
1200
  0
LINE
  8
0
 10
40
 11
40
 20
1200
 21
1210
  0
LINE
  8
0
 10
40
 11
0
 20
1210
 21
1210
  0
LINE
  8
0
 10
0
 11
0
 20
1407.07
 21
1492.93
  0
LINE
  8
0
 10
0
 11
7.071
 20
1492.93
 21
1500
  0
LINE
  8
0
 10
7.071
 11
302.929
 20
1500
 21
1500
  0
LINE
  8
0
 10
302.929
 11
310
 20
1500
 21
1492.93
  0
LINE
  8
0
 10
310
 11
310
 20
1492.93
 21
1407.07
  0
LINE
  8
0
 10
310
 11
302.929
 20
1407.07
 21
1400
  0
LINE
  8
0
 10
302.929
 11
7.071
 20
1400
 21
1400
  0
LINE
  8
0
 10
7.071
 11
0
 20
1400
 21
1407.07
  0
LINE
  8
0
 10
0
 11
0
 20
1600
 21
1700
  0
LINE
  8
0
 10
0
 11
84.226
 20
1700
 21
1700
  0
LINE
  8
0
 10
84.226
 11
84.226
 20
1700
 21
1699.94
  0
LINE
  8
0
 10
84.226
 11
85.272
 20
1699.94
 21
1699.94
  0
LINE
  8
0
 10
85.272
 11
87.317
 20
1699.94
 21
1699.51
  0
LINE
  8
0
 10
87.317
 11
89.226
 20
1699.51
 21
1698.66
  0
LINE
  8
0
 10
89.226
 11
90.918
 20
1698.66
 21
1697.43
  0
LINE
  8
0
 10
90.918
 11
92.317
 20
1697.43
 21
1695.88
  0
LINE
  8
0
 10
92.317
 11
92.823
 20
1695.88
 21
1695
  0
LINE
  8
0
 10
92.823
 11
92.887
 20
1695
 21
1695
  0
LINE
  8
0
 10
92.887
 11
104.434
 20
1695
 21
1675
  0
LINE
  8
0
 10
104.434
 11
104.497
 20
1675
 21
1675
  0
LINE
  8
0
 10
104.497
 11
105.004
 20
1675
 21
1674.12
  0
LINE
  8
0
 10
105.004
 11
106.403
 20
1674.12
 21
1672.57
  0
LINE
  8
0
 10
106.403
 11
108.094
 20
1672.57
 21
1671.34
  0
LINE
  8
0
 10
108.094
 11
110.004
 20
1671.34
 21
1670.49
  0
LINE
  8
0
 10
110.004
 11
112.049
 20
1670.49
 21
1670.06
  0
LINE
  8
0
 10
112.049
 11
113.094
 20
1670.06
 21
1670.06
  0
LINE
  8
0
 10
113.094
 11
113.094
 20
1670.06
 21
1670
  0
LINE
  8
0
 10
113.094
 11
266.906
 20
1670
 21
1670
  0
LINE
  8
0
 10
266.906
 11
266.906
 20
1670
 21
1670.06
  0
LINE
  8
0
 10
266.906
 11
267.951
 20
1670.06
 21
1670.06
  0
LINE
  8
0
 10
267.951
 11
269.996
 20
1670.06
 21
1670.49
  0
LINE
  8
0
 10
269.996
 11
271.906
 20
1670.49
 21
1671.34
  0
LINE
  8
0
 10
271.906
 11
273.597
 20
1671.34
 21
1672.57
  0
LINE
  8
0
 10
273.597
 11
274.996
 20
1672.57
 21
1674.12
  0
LINE
  8
0
 10
274.996
 11
275.503
 20
1674.12
 21
1675
  0
LINE
  8
0
 10
275.503
 11
275.566
 20
1675
 21
1675
  0
LINE
  8
0
 10
275.566
 11
287.113
 20
1675
 21
1695
  0
LINE
  8
0
 10
287.113
 11
287.177
 20
1695
 21
1695
  0
LINE
  8
0
 10
287.177
 11
287.683
 20
1695
 21
1695.88
  0
LINE
  8
0
 10
287.683
 11
289.082
 20
1695.88
 21
1697.43
  0
LINE
  8
0
 10
289.082
 11
290.774
 20
1697.43
 21
1698.66
  0
LINE
  8
0
 10
290.774
 11
292.683
 20
1698.66
 21
1699.51
  0
LINE
  8
0
 10
292.683
 11
294.728
 20
1699.51
 21
1699.94
  0
LINE
  8
0
 10
294.728
 11
295.774
 20
1699.94
 21
1699.94
  0
LINE
  8
0
 10
295.774
 11
295.774
 20
1699.94
 21
1700
  0
LINE
  8
0
 10
295.774
 11
380
 20
1700
 21
1700
  0
LINE
  8
0
 10
380
 11
380
 20
1700
 21
1600
  0
LINE
  8
0
 10
380
 11
0
 20
1600
 21
1600
  0
LINE
  8
0
 10
0
 11
0
 20
1800
 21
1870
  0
LINE
  8
0
 10
0
 11
84.226
 20
1870
 21
1870
  0
LINE
  8
0
 10
84.226
 11
84.226
 20
1870
 21
1870.06
  0
LINE
  8
0
 10
84.226
 11
85.272
 20
1870.06
 21
1870.06
  0
LINE
  8
0
 10
85.272
 11
87.317
 20
1870.06
 21
1870.49
  0
LINE
  8
0
 10
87.317
 11
89.226
 20
1870.49
 21
1871.34
  0
LINE
  8
0
 10
89.226
 11
90.918
 20
1871.34
 21
1872.57
  0
LINE
  8
0
 10
90.918
 11
92.317
 20
1872.57
 21
1874.12
  0
LINE
  8
0
 10
92.317
 11
92.823
 20
1874.12
 21
1875
  0
LINE
  8
0
 10
92.823
 11
92.887
 20
1875
 21
1875
  0
LINE
  8
0
 10
92.887
 11
104.434
 20
1875
 21
1895
  0
LINE
  8
0
 10
104.434
 11
104.497
 20
1895
 21
1895
  0
LINE
  8
0
 10
104.497
 11
105.004
 20
1895
 21
1895.88
  0
LINE
  8
0
 10
105.004
 11
106.403
 20
1895.88
 21
1897.43
  0
LINE
  8
0
 10
106.403
 11
108.094
 20
1897.43
 21
1898.66
  0
LINE
  8
0
 10
108.094
 11
110.004
 20
1898.66
 21
1899.51
  0
LINE
  8
0
 10
110.004
 11
112.049
 20
1899.51
 21
1899.94
  0
LINE
  8
0
 10
112.049
 11
113.094
 20
1899.94
 21
1899.94
  0
LINE
  8
0
 10
113.094
 11
113.094
 20
1899.94
 21
1900
  0
LINE
  8
0
 10
113.094
 11
266.906
 20
1900
 21
1900
  0
LINE
  8
0
 10
266.906
 11
266.906
 20
1900
 21
1899.94
  0
LINE
  8
0
 10
266.906
 11
267.951
 20
1899.94
 21
1899.94
  0
LINE
  8
0
 10
267.951
 11
269.996
 20
1899.94
 21
1899.51
  0
LINE
  8
0
 10
269.996
 11
271.906
 20
1899.51
 21
1898.66
  0
LINE
  8
0
 10
271.906
 11
273.597
 20
1898.66
 21
1897.43
  0
LINE
  8
0
 10
273.597
 11
274.996
 20
1897.43
 21
1895.88
  0
LINE
  8
0
 10
274.996
 11
275.503
 20
1895.88
 21
1895
  0
LINE
  8
0
 10
275.503
 11
275.566
 20
1895
 21
1895
  0
LINE
  8
0
 10
275.566
 11
287.113
 20
1895
 21
1875
  0
LINE
  8
0
 10
287.113
 11
287.177
 20
1875
 21
1875
  0
LINE
  8
0
 10
287.177
 11
287.683
 20
1875
 21
1874.12
  0
LINE
  8
0
 10
287.683
 11
289.082
 20
1874.12
 21
1872.57
  0
LINE
  8
0
 10
289.082
 11
290.774
 20
1872.57
 21
1871.34
  0
LINE
  8
0
 10
290.774
 11
292.683
 20
1871.34
 21
1870.49
  0
LINE
  8
0
 10
292.683
 11
294.728
 20
1870.49
 21
1870.06
  0
LINE
  8
0
 10
294.728
 11
295.774
 20
1870.06
 21
1870.06
  0
LINE
  8
0
 10
295.774
 11
295.774
 20
1870.06
 21
1870
  0
LINE
  8
0
 10
295.774
 11
380
 20
1870
 21
1870
  0
LINE
  8
0
 10
380
 11
380
 20
1870
 21
1800
  0
LINE
  8
0
 10
380
 11
0
 20
1800
 21
1800
  0
LINE
  8
0
 10
0
 11
0
 20
2008
 21
2092.93
  0
LINE
  8
0
 10
0
 11
7.071
 20
2092.93
 21
2100
  0
LINE
  8
0
 10
7.071
 11
302.929
 20
2100
 21
2100
  0
LINE
  8
0
 10
302.929
 11
310
 20
2100
 21
2092.93
  0
LINE
  8
0
 10
310
 11
310
 20
2092.93
 21
2008
  0
LINE
  8
0
 10
310
 11
270
 20
2008
 21
2008
  0
LINE
  8
0
 10
270
 11
270
 20
2008
 21
2000
  0
LINE
  8
0
 10
270
 11
40
 20
2000
 21
2000
  0
LINE
  8
0
 10
40
 11
40
 20
2000
 21
2008
  0
LINE
  8
0
 10
40
 11
0
 20
2008
 21
2008
  0
LINE
  8
0
 10
0
 11
0
 20
2200
 21
2249
  0
LINE
  8
0
 10
0
 11
71.226
 20
2249
 21
2249
  0
LINE
  8
0
 10
71.226
 11
71.226
 20
2249
 21
2248.95
  0
LINE
  8
0
 10
71.226
 11
72.272
 20
2248.95
 21
2248.95
  0
LINE
  8
0
 10
72.272
 11
74.317
 20
2248.95
 21
2248.51
  0
LINE
  8
0
 10
74.317
 11
76.226
 20
2248.51
 21
2247.66
  0
LINE
  8
0
 10
76.226
 11
77.918
 20
2247.66
 21
2246.43
  0
LINE
  8
0
 10
77.918
 11
79.317
 20
2246.43
 21
2244.88
  0
LINE
  8
0
 10
79.317
 11
79.823
 20
2244.88
 21
2244
  0
LINE
  8
0
 10
79.823
 11
79.887
 20
2244
 21
2244
  0
LINE
  8
0
 10
79.887
 11
91.434
 20
2244
 21
2224
  0
LINE
  8
0
 10
91.434
 11
91.497
 20
2224
 21
2224
  0
LINE
  8
0
 10
91.497
 11
92.004
 20
2224
 21
2223.12
  0
LINE
  8
0
 10
92.004
 11
93.403
 20
2223.12
 21
2221.57
  0
LINE
  8
0
 10
93.403
 11
95.094
 20
2221.57
 21
2220.34
  0
LINE
  8
0
 10
95.094
 11
97.004
 20
2220.34
 21
2219.49
  0
LINE
  8
0
 10
97.004
 11
99.049
 20
2219.49
 21
2219.05
  0
LINE
  8
0
 10
99.049
 11
100.094
 20
2219.05
 21
2219.05
  0
LINE
  8
0
 10
100.094
 11
100.094
 20
2219.05
 21
2219
  0
LINE
  8
0
 10
100.094
 11
253.906
 20
2219
 21
2219
  0
LINE
  8
0
 10
253.906
 11
253.906
 20
2219
 21
2219.05
  0
LINE
  8
0
 10
253.906
 11
254.951
 20
2219.05
 21
2219.05
  0
LINE
  8
0
 10
254.951
 11
256.996
 20
2219.05
 21
2219.49
  0
LINE
  8
0
 10
256.996
 11
258.906
 20
2219.49
 21
2220.34
  0
LINE
  8
0
 10
258.906
 11
260.597
 20
2220.34
 21
2221.57
  0
LINE
  8
0
 10
260.597
 11
261.996
 20
2221.57
 21
2223.12
  0
LINE
  8
0
 10
261.996
 11
262.503
 20
2223.12
 21
2224
  0
LINE
  8
0
 10
262.503
 11
262.566
 20
2224
 21
2224
  0
LINE
  8
0
 10
262.566
 11
274.113
 20
2224
 21
2244
  0
LINE
  8
0
 10
274.113
 11
274.177
 20
2244
 21
2244
  0
LINE
  8
0
 10
274.177
 11
274.683
 20
2244
 21
2244.88
  0
LINE
  8
0
 10
274.683
 11
276.082
 20
2244.88
 21
2246.43
  0
LINE
  8
0
 10
276.082
 11
277.774
 20
2246.43
 21
2247.66
  0
LINE
  8
0
 10
277.774
 11
279.683
 20
2247.66
 21
2248.51
  0
LINE
  8
0
 10
279.683
 11
281.728
 20
2248.51
 21
2248.95
  0
LINE
  8
0
 10
281.728
 11
282.774
 20
2248.95
 21
2248.95
  0
LINE
  8
0
 10
282.774
 11
282.774
 20
2248.95
 21
2249
  0
LINE
  8
0
 10
282.774
 11
354
 20
2249
 21
2249
  0
LINE
  8
0
 10
354
 11
354
 20
2249
 21
2200
  0
LINE
  8
0
 10
354
 11
0
 20
2200
 21
2200
  0
LINE
  8
0
 10
0
 11
0
 20
2400
 21
2419
  0
LINE
  8
0
 10
0
 11
71.226
 20
2419
 21
2419
  0
LINE
  8
0
 10
71.226
 11
71.226
 20
2419
 21
2419.05
  0
LINE
  8
0
 10
71.226
 11
72.272
 20
2419.05
 21
2419.05
  0
LINE
  8
0
 10
72.272
 11
74.317
 20
2419.05
 21
2419.49
  0
LINE
  8
0
 10
74.317
 11
76.226
 20
2419.49
 21
2420.34
  0
LINE
  8
0
 10
76.226
 11
77.918
 20
2420.34
 21
2421.57
  0
LINE
  8
0
 10
77.918
 11
79.317
 20
2421.57
 21
2423.12
  0
LINE
  8
0
 10
79.317
 11
79.823
 20
2423.12
 21
2424
  0
LINE
  8
0
 10
79.823
 11
79.887
 20
2424
 21
2424
  0
LINE
  8
0
 10
79.887
 11
91.434
 20
2424
 21
2444
  0
LINE
  8
0
 10
91.434
 11
91.497
 20
2444
 21
2444
  0
LINE
  8
0
 10
91.497
 11
92.004
 20
2444
 21
2444.88
  0
LINE
  8
0
 10
92.004
 11
93.403
 20
2444.88
 21
2446.43
  0
LINE
  8
0
 10
93.403
 11
95.094
 20
2446.43
 21
2447.66
  0
LINE
  8
0
 10
95.094
 11
97.004
 20
2447.66
 21
2448.51
  0
LINE
  8
0
 10
97.004
 11
99.049
 20
2448.51
 21
2448.95
  0
LINE
  8
0
 10
99.049
 11
100.094
 20
2448.95
 21
2448.95
  0
LINE
  8
0
 10
100.094
 11
100.094
 20
2448.95
 21
2449
  0
LINE
  8
0
 10
100.094
 11
253.906
 20
2449
 21
2449
  0
LINE
  8
0
 10
253.906
 11
253.906
 20
2449
 21
2448.95
  0
LINE
  8
0
 10
253.906
 11
254.951
 20
2448.95
 21
2448.95
  0
LINE
  8
0
 10
254.951
 11
256.996
 20
2448.95
 21
2448.51
  0
LINE
  8
0
 10
256.996
 11
258.906
 20
2448.51
 21
2447.66
  0
LINE
  8
0
 10
258.906
 11
260.597
 20
2447.66
 21
2446.43
  0
LINE
  8
0
 10
260.597
 11
261.996
 20
2446.43
 21
2444.88
  0
LINE
  8
0
 10
261.996
 11
262.503
 20
2444.88
 21
2444
  0
LINE
  8
0
 10
262.503
 11
262.566
 20
2444
 21
2444
  0
LINE
  8
0
 10
262.566
 11
274.113
 20
2444
 21
2424
  0
LINE
  8
0
 10
274.113
 11
274.177
 20
2424
 21
2424
  0
LINE
  8
0
 10
274.177
 11
274.683
 20
2424
 21
2423.12
  0
LINE
  8
0
 10
274.683
 11
276.082
 20
2423.12
 21
2421.57
  0
LINE
  8
0
 10
276.082
 11
277.774
 20
2421.57
 21
2420.34
  0
LINE
  8
0
 10
277.774
 11
279.683
 20
2420.34
 21
2419.49
  0
LINE
  8
0
 10
279.683
 11
281.728
 20
2419.49
 21
2419.05
  0
LINE
  8
0
 10
281.728
 11
282.774
 20
2419.05
 21
2419.05
  0
LINE
  8
0
 10
282.774
 11
282.774
 20
2419.05
 21
2419
  0
LINE
  8
0
 10
282.774
 11
354
 20
2419
 21
2419
  0
LINE
  8
0
 10
354
 11
354
 20
2419
 21
2400
  0
LINE
  8
0
 10
354
 11
0
 20
2400
 21
2400
  0
LINE
  8
0
 10
0
 11
0
 20
2600
 21
2649
  0
LINE
  8
0
 10
0
 11
296
 20
2649
 21
2649
  0
LINE
  8
0
 10
296
 11
296
 20
2649
 21
2600
  0
LINE
  8
0
 10
296
 11
0
 20
2600
 21
2600
  0
LINE
  8
0
 10
0
 11
0
 20
2800
 21
2849
  0
LINE
  8
0
 10
0
 11
754
 20
2849
 21
2849
  0
LINE
  8
0
 10
754
 11
754
 20
2849
 21
2800
  0
LINE
  8
0
 10
754
 11
0
 20
2800
 21
2800
  0
LINE
  8
0
 10
0
 11
0
 20
3000
 21
3049
  0
LINE
  8
0
 10
0
 11
754
 20
3049
 21
3049
  0
LINE
  8
0
 10
754
 11
754
 20
3049
 21
3000
  0
LINE
  8
0
 10
754
 11
0
 20
3000
 21
3000
  0
LINE
  8
0
 10
0
 11
0
 20
3200
 21
3292.93
  0
LINE
  8
0
 10
0
 11
7.071
 20
3292.93
 21
3300
  0
LINE
  8
0
 10
7.071
 11
288.929
 20
3300
 21
3300
  0
LINE
  8
0
 10
288.929
 11
296
 20
3300
 21
3292.93
  0
LINE
  8
0
 10
296
 11
296
 20
3292.93
 21
3200
  0
LINE
  8
0
 10
296
 11
0
 20
3200
 21
3200
  0
LINE
  8
0
 10
0
 11
0
 20
3400
 21
3492.93
  0
LINE
  8
0
 10
0
 11
7.071
 20
3492.93
 21
3500
  0
LINE
  8
0
 10
7.071
 11
288.929
 20
3500
 21
3500
  0
LINE
  8
0
 10
288.929
 11
296
 20
3500
 21
3492.93
  0
LINE
  8
0
 10
296
 11
296
 20
3492.93
 21
3400
  0
LINE
  8
0
 10
296
 11
0
 20
3400
 21
3400
  0
LINE
  8
0
 10
0
 11
0
 20
3607.07
 21
3692.93
  0
LINE
  8
0
 10
0
 11
7.071
 20
3692.93
 21
3700
  0
LINE
  8
0
 10
7.071
 11
288.929
 20
3700
 21
3700
  0
LINE
  8
0
 10
288.929
 11
296
 20
3700
 21
3692.93
  0
LINE
  8
0
 10
296
 11
296
 20
3692.93
 21
3607.07
  0
LINE
  8
0
 10
296
 11
288.929
 20
3607.07
 21
3600
  0
LINE
  8
0
 10
288.929
 11
7.071
 20
3600
 21
3600
  0
LINE
  8
0
 10
7.071
 11
0
 20
3600
 21
3607.07
  0
LINE
  8
0
 10
0
 11
0
 20
3807.07
 21
3892.93
  0
LINE
  8
0
 10
0
 11
7.071
 20
3892.93
 21
3900
  0
LINE
  8
0
 10
7.071
 11
288.929
 20
3900
 21
3900
  0
LINE
  8
0
 10
288.929
 11
296
 20
3900
 21
3892.93
  0
LINE
  8
0
 10
296
 11
296
 20
3892.93
 21
3807.07
  0
LINE
  8
0
 10
296
 11
288.929
 20
3807.07
 21
3800
  0
LINE
  8
0
 10
288.929
 11
7.071
 20
3800
 21
3800
  0
LINE
  8
0
 10
7.071
 11
0
 20
3800
 21
3807.07
  0
LINE
  8
0
 10
326
 11
326
 20
2600
 21
2649
  0
LINE
  8
0
 10
326
 11
622
 20
2649
 21
2649
  0
LINE
  8
0
 10
622
 11
622
 20
2649
 21
2600
  0
LINE
  8
0
 10
622
 11
326
 20
2600
 21
2600
  0
LINE
  8
0
 10
326
 11
326
 20
3200
 21
3292.93
  0
LINE
  8
0
 10
326
 11
333.071
 20
3292.93
 21
3300
  0
LINE
  8
0
 10
333.071
 11
614.929
 20
3300
 21
3300
  0
LINE
  8
0
 10
614.929
 11
622
 20
3300
 21
3292.93
  0
LINE
  8
0
 10
622
 11
622
 20
3292.93
 21
3200
  0
LINE
  8
0
 10
622
 11
326
 20
3200
 21
3200
  0
LINE
  8
0
 10
326
 11
326
 20
3400
 21
3492.93
  0
LINE
  8
0
 10
326
 11
333.071
 20
3492.93
 21
3500
  0
LINE
  8
0
 10
333.071
 11
614.929
 20
3500
 21
3500
  0
LINE
  8
0
 10
614.929
 11
622
 20
3500
 21
3492.93
  0
LINE
  8
0
 10
622
 11
622
 20
3492.93
 21
3400
  0
LINE
  8
0
 10
622
 11
326
 20
3400
 21
3400
  0
LINE
  8
0
 10
340
 11
340
 20
410
 21
492.929
  0
LINE
  8
0
 10
340
 11
347.071
 20
492.929
 21
500
  0
LINE
  8
0
 10
347.071
 11
642.929
 20
500
 21
500
  0
LINE
  8
0
 10
642.929
 11
650
 20
500
 21
492.929
  0
LINE
  8
0
 10
650
 11
650
 20
492.929
 21
410
  0
LINE
  8
0
 10
650
 11
610
 20
410
 21
410
  0
LINE
  8
0
 10
610
 11
610
 20
410
 21
400
  0
LINE
  8
0
 10
610
 11
380
 20
400
 21
400
  0
LINE
  8
0
 10
380
 11
380
 20
400
 21
410
  0
LINE
  8
0
 10
380
 11
340
 20
410
 21
410
  0
LINE
  8
0
 10
340
 11
340
 20
1210
 21
1292.93
  0
LINE
  8
0
 10
340
 11
347.071
 20
1292.93
 21
1300
  0
LINE
  8
0
 10
347.071
 11
642.929
 20
1300
 21
1300
  0
LINE
  8
0
 10
642.929
 11
650
 20
1300
 21
1292.93
  0
LINE
  8
0
 10
650
 11
650
 20
1292.93
 21
1210
  0
LINE
  8
0
 10
650
 11
610
 20
1210
 21
1210
  0
LINE
  8
0
 10
610
 11
610
 20
1210
 21
1200
  0
LINE
  8
0
 10
610
 11
380
 20
1200
 21
1200
  0
LINE
  8
0
 10
380
 11
380
 20
1200
 21
1210
  0
LINE
  8
0
 10
380
 11
340
 20
1210
 21
1210
  0
LINE
  8
0
 10
340
 11
340
 20
2008
 21
2092.93
  0
LINE
  8
0
 10
340
 11
347.071
 20
2092.93
 21
2100
  0
LINE
  8
0
 10
347.071
 11
642.929
 20
2100
 21
2100
  0
LINE
  8
0
 10
642.929
 11
650
 20
2100
 21
2092.93
  0
LINE
  8
0
 10
650
 11
650
 20
2092.93
 21
2008
  0
LINE
  8
0
 10
650
 11
610
 20
2008
 21
2008
  0
LINE
  8
0
 10
610
 11
610
 20
2008
 21
2000
  0
LINE
  8
0
 10
610
 11
380
 20
2000
 21
2000
  0
LINE
  8
0
 10
380
 11
380
 20
2000
 21
2008
  0
LINE
  8
0
 10
380
 11
340
 20
2008
 21
2008
  0
LINE
  8
0
 10
410
 11
410
 20
1600
 21
1700
  0
LINE
  8
0
 10
410
 11
494.226
 20
1700
 21
1700
  0
LINE
  8
0
 10
494.226
 11
494.226
 20
1700
 21
1699.94
  0
LINE
  8
0
 10
494.226
 11
495.272
 20
1699.94
 21
1699.94
  0
LINE
  8
0
 10
495.272
 11
497.317
 20
1699.94
 21
1699.51
  0
LINE
  8
0
 10
497.317
 11
499.226
 20
1699.51
 21
1698.66
  0
LINE
  8
0
 10
499.226
 11
500.918
 20
1698.66
 21
1697.43
  0
LINE
  8
0
 10
500.918
 11
502.317
 20
1697.43
 21
1695.88
  0
LINE
  8
0
 10
502.317
 11
502.823
 20
1695.88
 21
1695
  0
LINE
  8
0
 10
502.823
 11
502.887
 20
1695
 21
1695
  0
LINE
  8
0
 10
502.887
 11
514.434
 20
1695
 21
1675
  0
LINE
  8
0
 10
514.434
 11
514.497
 20
1675
 21
1675
  0
LINE
  8
0
 10
514.497
 11
515.004
 20
1675
 21
1674.12
  0
LINE
  8
0
 10
515.004
 11
516.403
 20
1674.12
 21
1672.57
  0
LINE
  8
0
 10
516.403
 11
518.094
 20
1672.57
 21
1671.34
  0
LINE
  8
0
 10
518.094
 11
520.004
 20
1671.34
 21
1670.49
  0
LINE
  8
0
 10
520.004
 11
522.049
 20
1670.49
 21
1670.06
  0
LINE
  8
0
 10
522.049
 11
523.094
 20
1670.06
 21
1670.06
  0
LINE
  8
0
 10
523.094
 11
523.094
 20
1670.06
 21
1670
  0
LINE
  8
0
 10
523.094
 11
676.906
 20
1670
 21
1670
  0
LINE
  8
0
 10
676.906
 11
676.906
 20
1670
 21
1670.06
  0
LINE
  8
0
 10
676.906
 11
677.951
 20
1670.06
 21
1670.06
  0
LINE
  8
0
 10
677.951
 11
679.996
 20
1670.06
 21
1670.49
  0
LINE
  8
0
 10
679.996
 11
681.906
 20
1670.49
 21
1671.34
  0
LINE
  8
0
 10
681.906
 11
683.597
 20
1671.34
 21
1672.57
  0
LINE
  8
0
 10
683.597
 11
684.996
 20
1672.57
 21
1674.12
  0
LINE
  8
0
 10
684.996
 11
685.503
 20
1674.12
 21
1675
  0
LINE
  8
0
 10
685.503
 11
685.566
 20
1675
 21
1675
  0
LINE
  8
0
 10
685.566
 11
697.113
 20
1675
 21
1695
  0
LINE
  8
0
 10
697.113
 11
697.177
 20
1695
 21
1695
  0
LINE
  8
0
 10
697.177
 11
697.683
 20
1695
 21
1695.88
  0
LINE
  8
0
 10
697.683
 11
699.082
 20
1695.88
 21
1697.43
  0
LINE
  8
0
 10
699.082
 11
700.774
 20
1697.43
 21
1698.66
  0
LINE
  8
0
 10
700.774
 11
702.683
 20
1698.66
 21
1699.51
  0
LINE
  8
0
 10
702.683
 11
704.728
 20
1699.51
 21
1699.94
  0
LINE
  8
0
 10
704.728
 11
705.774
 20
1699.94
 21
1699.94
  0
LINE
  8
0
 10
705.774
 11
705.774
 20
1699.94
 21
1700
  0
LINE
  8
0
 10
705.774
 11
790
 20
1700
 21
1700
  0
LINE
  8
0
 10
790
 11
790
 20
1700
 21
1600
  0
LINE
  8
0
 10
790
 11
410
 20
1600
 21
1600
  0
LINE
  8
0
 10
410
 11
410
 20
1800
 21
1870
  0
LINE
  8
0
 10
410
 11
494.226
 20
1870
 21
1870
  0
LINE
  8
0
 10
494.226
 11
494.226
 20
1870
 21
1870.06
  0
LINE
  8
0
 10
494.226
 11
495.272
 20
1870.06
 21
1870.06
  0
LINE
  8
0
 10
495.272
 11
497.317
 20
1870.06
 21
1870.49
  0
LINE
  8
0
 10
497.317
 11
499.226
 20
1870.49
 21
1871.34
  0
LINE
  8
0
 10
499.226
 11
500.918
 20
1871.34
 21
1872.57
  0
LINE
  8
0
 10
500.918
 11
502.317
 20
1872.57
 21
1874.12
  0
LINE
  8
0
 10
502.317
 11
502.823
 20
1874.12
 21
1875
  0
LINE
  8
0
 10
502.823
 11
502.887
 20
1875
 21
1875
  0
LINE
  8
0
 10
502.887
 11
514.434
 20
1875
 21
1895
  0
LINE
  8
0
 10
514.434
 11
514.497
 20
1895
 21
1895
  0
LINE
  8
0
 10
514.497
 11
515.004
 20
1895
 21
1895.88
  0
LINE
  8
0
 10
515.004
 11
516.403
 20
1895.88
 21
1897.43
  0
LINE
  8
0
 10
516.403
 11
518.094
 20
1897.43
 21
1898.66
  0
LINE
  8
0
 10
518.094
 11
520.004
 20
1898.66
 21
1899.51
  0
LINE
  8
0
 10
520.004
 11
522.049
 20
1899.51
 21
1899.94
  0
LINE
  8
0
 10
522.049
 11
523.094
 20
1899.94
 21
1899.94
  0
LINE
  8
0
 10
523.094
 11
523.094
 20
1899.94
 21
1900
  0
LINE
  8
0
 10
523.094
 11
676.906
 20
1900
 21
1900
  0
LINE
  8
0
 10
676.906
 11
676.906
 20
1900
 21
1899.94
  0
LINE
  8
0
 10
676.906
 11
677.951
 20
1899.94
 21
1899.94
  0
LINE
  8
0
 10
677.951
 11
679.996
 20
1899.94
 21
1899.51
  0
LINE
  8
0
 10
679.996
 11
681.906
 20
1899.51
 21
1898.66
  0
LINE
  8
0
 10
681.906
 11
683.597
 20
1898.66
 21
1897.43
  0
LINE
  8
0
 10
683.597
 11
684.996
 20
1897.43
 21
1895.88
  0
LINE
  8
0
 10
684.996
 11
685.503
 20
1895.88
 21
1895
  0
LINE
  8
0
 10
685.503
 11
685.566
 20
1895
 21
1895
  0
LINE
  8
0
 10
685.566
 11
697.113
 20
1895
 21
1875
  0
LINE
  8
0
 10
697.113
 11
697.177
 20
1875
 21
1875
  0
LINE
  8
0
 10
697.177
 11
697.683
 20
1875
 21
1874.12
  0
LINE
  8
0
 10
697.683
 11
699.082
 20
1874.12
 21
1872.57
  0
LINE
  8
0
 10
699.082
 11
700.774
 20
1872.57
 21
1871.34
  0
LINE
  8
0
 10
700.774
 11
702.683
 20
1871.34
 21
1870.49
  0
LINE
  8
0
 10
702.683
 11
704.728
 20
1870.49
 21
1870.06
  0
LINE
  8
0
 10
704.728
 11
705.774
 20
1870.06
 21
1870.06
  0
LINE
  8
0
 10
705.774
 11
705.774
 20
1870.06
 21
1870
  0
LINE
  8
0
 10
705.774
 11
790
 20
1870
 21
1870
  0
LINE
  8
0
 10
790
 11
790
 20
1870
 21
1800
  0
LINE
  8
0
 10
790
 11
410
 20
1800
 21
1800
  0
LINE
  8
0
 10
680
 11
680
 20
2008
 21
2092.93
  0
LINE
  8
0
 10
680
 11
687.071
 20
2092.93
 21
2100
  0
LINE
  8
0
 10
687.071
 11
982.929
 20
2100
 21
2100
  0
LINE
  8
0
 10
982.929
 11
990
 20
2100
 21
2092.93
  0
LINE
  8
0
 10
990
 11
990
 20
2092.93
 21
2008
  0
LINE
  8
0
 10
990
 11
950
 20
2008
 21
2008
  0
LINE
  8
0
 10
950
 11
950
 20
2008
 21
2000
  0
LINE
  8
0
 10
950
 11
720
 20
2000
 21
2000
  0
LINE
  8
0
 10
720
 11
720
 20
2000
 21
2008
  0
LINE
  8
0
 10
720
 11
680
 20
2008
 21
2008
  0
LINE
  8
0
 10
784
 11
784
 20
2800
 21
2849
  0
LINE
  8
0
 10
784
 11
1538
 20
2849
 21
2849
  0
LINE
  8
0
 10
1538
 11
1538
 20
2849
 21
2800
  0
LINE
  8
0
 10
1538
 11
784
 20
2800
 21
2800
  0
LINE
  8
0
 10
784
 11
784
 20
3000
 21
3049
  0
LINE
  8
0
 10
784
 11
1538
 20
3049
 21
3049
  0
LINE
  8
0
 10
1538
 11
1538
 20
3049
 21
3000
  0
LINE
  8
0
 10
1538
 11
784
 20
3000
 21
3000
  0
LINE
  8
0
 10
1020
 11
1020
 20
2008
 21
2092.93
  0
LINE
  8
0
 10
1020
 11
1027.07
 20
2092.93
 21
2100
  0
LINE
  8
0
 10
1027.07
 11
1322.93
 20
2100
 21
2100
  0
LINE
  8
0
 10
1322.93
 11
1330
 20
2100
 21
2092.93
  0
LINE
  8
0
 10
1330
 11
1330
 20
2092.93
 21
2008
  0
LINE
  8
0
 10
1330
 11
1290
 20
2008
 21
2008
  0
LINE
  8
0
 10
1290
 11
1290
 20
2008
 21
2000
  0
LINE
  8
0
 10
1290
 11
1060
 20
2000
 21
2000
  0
LINE
  8
0
 10
1060
 11
1060
 20
2000
 21
2008
  0
LINE
  8
0
 10
1060
 11
1020
 20
2008
 21
2008
  0
ENDSEC
  0
SECTION
  2
OBJECTS
  0
DICTIONARY
  0
ENDSEC
  0
EOF
