solid OpenSCAD_Model
  facet normal -1 0 0
    outer loop
      vertex 0 0 28
      vertex 0 49 28
      vertex 0 0 0
    endloop
  endfacet
  facet normal -1 0 0
    outer loop
      vertex 0 0 0
      vertex 0 49 28
      vertex 0 49 0
    endloop
  endfacet
  facet normal 0 0 1
    outer loop
      vertex 0 0 28
      vertex 296 0 28
      vertex 296 49 28
    endloop
  endfacet
  facet normal 0 0 1
    outer loop
      vertex 0 49 28
      vertex 0 0 28
      vertex 296 49 28
    endloop
  endfacet
  facet normal 0 -1 0
    outer loop
      vertex 0 0 0
      vertex 296 0 0
      vertex 296 0 28
    endloop
  endfacet
  facet normal 0 -1 0
    outer loop
      vertex 0 0 28
      vertex 0 0 0
      vertex 296 0 28
    endloop
  endfacet
  facet normal 0 0 -1
    outer loop
      vertex 0 49 0
      vertex 296 49 0
      vertex 0 0 0
    endloop
  endfacet
  facet normal 0 0 -1
    outer loop
      vertex 0 0 0
      vertex 296 49 0
      vertex 296 0 0
    endloop
  endfacet
  facet normal 0 1 0
    outer loop
      vertex 0 49 28
      vertex 296 49 28
      vertex 0 49 0
    endloop
  endfacet
  facet normal 0 1 0
    outer loop
      vertex 0 49 0
      vertex 296 49 28
      vertex 296 49 0
    endloop
  endfacet
  facet normal 1 0 0
    outer loop
      vertex 296 0 0
      vertex 296 49 0
      vertex 296 49 28
    endloop
  endfacet
  facet normal 1 0 0
    outer loop
      vertex 296 0 28
      vertex 296 0 0
      vertex 296 49 28
    endloop
  endfacet
endsolid OpenSCAD_Model
