  0
SECTION
  2
BLOCKS
  0
ENDSEC
  0
SECTION
  2
ENTITIES
  0
LINE
  8
0
 10
0
 11
0
 20
127
 21
141
  0
LINE
  8
0
 10
0
 11
100
 20
141
 21
141
  0
LINE
  8
0
 10
100
 11
100
 20
141
 21
150
  0
LINE
  8
0
 10
100
 11
327
 20
150
 21
150
  0
LINE
  8
0
 10
327
 11
327
 20
150
 21
141
  0
LINE
  8
0
 10
327
 11
427
 20
141
 21
141
  0
LINE
  8
0
 10
427
 11
427
 20
141
 21
150
  0
LINE
  8
0
 10
427
 11
654
 20
150
 21
150
  0
LINE
  8
0
 10
654
 11
654
 20
150
 21
141
  0
LINE
  8
0
 10
654
 11
754
 20
141
 21
141
  0
LINE
  8
0
 10
754
 11
754
 20
141
 21
127
  0
LINE
  8
0
 10
754
 11
391
 20
127
 21
127
  0
LINE
  8
0
 10
391
 11
391
 20
127
 21
132
  0
LINE
  8
0
 10
391
 11
363
 20
132
 21
132
  0
LINE
  8
0
 10
363
 11
363
 20
132
 21
127
  0
LINE
  8
0
 10
363
 11
0
 20
127
 21
127
  0
LINE
  8
0
 10
0
 11
0
 20
205
 21
219
  0
LINE
  8
0
 10
0
 11
100
 20
219
 21
219
  0
LINE
  8
0
 10
100
 11
100
 20
219
 21
228
  0
LINE
  8
0
 10
100
 11
327
 20
228
 21
228
  0
LINE
  8
0
 10
327
 11
327
 20
228
 21
219
  0
LINE
  8
0
 10
327
 11
427
 20
219
 21
219
  0
LINE
  8
0
 10
427
 11
427
 20
219
 21
228
  0
LINE
  8
0
 10
427
 11
654
 20
228
 21
228
  0
LINE
  8
0
 10
654
 11
654
 20
228
 21
219
  0
LINE
  8
0
 10
654
 11
754
 20
219
 21
219
  0
LINE
  8
0
 10
754
 11
754
 20
219
 21
205
  0
LINE
  8
0
 10
754
 11
391
 20
205
 21
205
  0
LINE
  8
0
 10
391
 11
391
 20
205
 21
210
  0
LINE
  8
0
 10
391
 11
363
 20
210
 21
210
  0
LINE
  8
0
 10
363
 11
363
 20
210
 21
205
  0
LINE
  8
0
 10
363
 11
0
 20
205
 21
205
  0
LINE
  8
0
 10
0
 11
0
 20
283
 21
297
  0
LINE
  8
0
 10
0
 11
100
 20
297
 21
297
  0
LINE
  8
0
 10
100
 11
100
 20
297
 21
311
  0
LINE
  8
0
 10
100
 11
327
 20
311
 21
311
  0
LINE
  8
0
 10
327
 11
327
 20
311
 21
297
  0
LINE
  8
0
 10
327
 11
427
 20
297
 21
297
  0
LINE
  8
0
 10
427
 11
427
 20
297
 21
311
  0
LINE
  8
0
 10
427
 11
654
 20
311
 21
311
  0
LINE
  8
0
 10
654
 11
654
 20
311
 21
297
  0
LINE
  8
0
 10
654
 11
754
 20
297
 21
297
  0
LINE
  8
0
 10
754
 11
754
 20
297
 21
283
  0
LINE
  8
0
 10
754
 11
391
 20
283
 21
283
  0
LINE
  8
0
 10
391
 11
391
 20
283
 21
288
  0
LINE
  8
0
 10
391
 11
363
 20
288
 21
288
  0
LINE
  8
0
 10
363
 11
363
 20
288
 21
283
  0
LINE
  8
0
 10
363
 11
0
 20
283
 21
283
  0
LINE
  8
0
 10
0
 11
0
 20
361
 21
377
  0
LINE
  8
0
 10
0
 11
5
 20
377
 21
377
  0
LINE
  8
0
 10
5
 11
5
 20
377
 21
389
  0
LINE
  8
0
 10
5
 11
363
 20
389
 21
389
  0
LINE
  8
0
 10
363
 11
363
 20
389
 21
384
  0
LINE
  8
0
 10
363
 11
391
 20
384
 21
384
  0
LINE
  8
0
 10
391
 11
391
 20
384
 21
389
  0
LINE
  8
0
 10
391
 11
749
 20
389
 21
389
  0
LINE
  8
0
 10
749
 11
749
 20
389
 21
377
  0
LINE
  8
0
 10
749
 11
754
 20
377
 21
377
  0
LINE
  8
0
 10
754
 11
754
 20
377
 21
361
  0
LINE
  8
0
 10
754
 11
391
 20
361
 21
361
  0
LINE
  8
0
 10
391
 11
391
 20
361
 21
366
  0
LINE
  8
0
 10
391
 11
363
 20
366
 21
366
  0
LINE
  8
0
 10
363
 11
363
 20
366
 21
361
  0
LINE
  8
0
 10
363
 11
0
 20
361
 21
361
  0
LINE
  8
0
 10
0
 11
0
 20
439
 21
455
  0
LINE
  8
0
 10
0
 11
5
 20
455
 21
455
  0
LINE
  8
0
 10
5
 11
5
 20
455
 21
467
  0
LINE
  8
0
 10
5
 11
363
 20
467
 21
467
  0
LINE
  8
0
 10
363
 11
363
 20
467
 21
462
  0
LINE
  8
0
 10
363
 11
391
 20
462
 21
462
  0
LINE
  8
0
 10
391
 11
391
 20
462
 21
467
  0
LINE
  8
0
 10
391
 11
749
 20
467
 21
467
  0
LINE
  8
0
 10
749
 11
749
 20
467
 21
455
  0
LINE
  8
0
 10
749
 11
754
 20
455
 21
455
  0
LINE
  8
0
 10
754
 11
754
 20
455
 21
439
  0
LINE
  8
0
 10
754
 11
391
 20
439
 21
439
  0
LINE
  8
0
 10
391
 11
391
 20
439
 21
444
  0
LINE
  8
0
 10
391
 11
363
 20
444
 21
444
  0
LINE
  8
0
 10
363
 11
363
 20
444
 21
439
  0
LINE
  8
0
 10
363
 11
0
 20
439
 21
439
  0
LINE
  8
0
 10
0
 11
0
 20
1303
 21
1352
  0
LINE
  8
0
 10
0
 11
754
 20
1352
 21
1352
  0
LINE
  8
0
 10
754
 11
754
 20
1352
 21
1303
  0
LINE
  8
0
 10
754
 11
0
 20
1303
 21
1303
  0
LINE
  8
0
 10
0
 11
0
 20
1402
 21
1451
  0
LINE
  8
0
 10
0
 11
754
 20
1451
 21
1451
  0
LINE
  8
0
 10
754
 11
754
 20
1451
 21
1402
  0
LINE
  8
0
 10
754
 11
0
 20
1402
 21
1402
  0
LINE
  8
0
 10
0
 11
0
 20
1501
 21
1550
  0
LINE
  8
0
 10
0
 11
363
 20
1550
 21
1550
  0
LINE
  8
0
 10
363
 11
363
 20
1550
 21
1501
  0
LINE
  8
0
 10
363
 11
0
 20
1501
 21
1501
  0
LINE
  8
0
 10
0
 11
0
 20
1600
 21
1649
  0
LINE
  8
0
 10
0
 11
363
 20
1649
 21
1649
  0
LINE
  8
0
 10
363
 11
363
 20
1649
 21
1600
  0
LINE
  8
0
 10
363
 11
0
 20
1600
 21
1600
  0
LINE
  8
0
 10
5
 11
5
 20
1026
 21
1050
  0
LINE
  8
0
 10
5
 11
77
 20
1050
 21
1050
  0
LINE
  8
0
 10
77
 11
77
 20
1050
 21
1055
  0
LINE
  8
0
 10
77
 11
327
 20
1055
 21
1055
  0
LINE
  8
0
 10
327
 11
327
 20
1055
 21
1050
  0
LINE
  8
0
 10
327
 11
363
 20
1050
 21
1050
  0
LINE
  8
0
 10
363
 11
363
 20
1050
 21
1026
  0
LINE
  8
0
 10
363
 11
327
 20
1026
 21
1026
  0
LINE
  8
0
 10
327
 11
327
 20
1026
 21
1016
  0
LINE
  8
0
 10
327
 11
100
 20
1016
 21
1016
  0
LINE
  8
0
 10
100
 11
100
 20
1016
 21
1026
  0
LINE
  8
0
 10
100
 11
5
 20
1026
 21
1026
  0
LINE
  8
0
 10
5
 11
5
 20
1125
 21
1149
  0
LINE
  8
0
 10
5
 11
77
 20
1149
 21
1149
  0
LINE
  8
0
 10
77
 11
77
 20
1149
 21
1154
  0
LINE
  8
0
 10
77
 11
327
 20
1154
 21
1154
  0
LINE
  8
0
 10
327
 11
327
 20
1154
 21
1149
  0
LINE
  8
0
 10
327
 11
363
 20
1149
 21
1149
  0
LINE
  8
0
 10
363
 11
363
 20
1149
 21
1125
  0
LINE
  8
0
 10
363
 11
327
 20
1125
 21
1125
  0
LINE
  8
0
 10
327
 11
327
 20
1125
 21
1115
  0
LINE
  8
0
 10
327
 11
100
 20
1115
 21
1115
  0
LINE
  8
0
 10
100
 11
100
 20
1115
 21
1125
  0
LINE
  8
0
 10
100
 11
5
 20
1125
 21
1125
  0
LINE
  8
0
 10
5
 11
5
 20
1224
 21
1248
  0
LINE
  8
0
 10
5
 11
77
 20
1248
 21
1248
  0
LINE
  8
0
 10
77
 11
77
 20
1248
 21
1253
  0
LINE
  8
0
 10
77
 11
327
 20
1253
 21
1253
  0
LINE
  8
0
 10
327
 11
327
 20
1253
 21
1248
  0
LINE
  8
0
 10
327
 11
427
 20
1248
 21
1248
  0
LINE
  8
0
 10
427
 11
427
 20
1248
 21
1253
  0
LINE
  8
0
 10
427
 11
677
 20
1253
 21
1253
  0
LINE
  8
0
 10
677
 11
677
 20
1253
 21
1248
  0
LINE
  8
0
 10
677
 11
749
 20
1248
 21
1248
  0
LINE
  8
0
 10
749
 11
749
 20
1248
 21
1224
  0
LINE
  8
0
 10
749
 11
654
 20
1224
 21
1224
  0
LINE
  8
0
 10
654
 11
654
 20
1224
 21
1204
  0
LINE
  8
0
 10
654
 11
427
 20
1204
 21
1204
  0
LINE
  8
0
 10
427
 11
427
 20
1204
 21
1224
  0
LINE
  8
0
 10
427
 11
327
 20
1224
 21
1224
  0
LINE
  8
0
 10
327
 11
327
 20
1224
 21
1204
  0
LINE
  8
0
 10
327
 11
100
 20
1204
 21
1204
  0
LINE
  8
0
 10
100
 11
100
 20
1204
 21
1224
  0
LINE
  8
0
 10
100
 11
5
 20
1224
 21
1224
  0
LINE
  8
0
 10
12.1
 11
12.1
 20
20
 21
49
  0
LINE
  8
0
 10
12.1
 11
28.1
 20
49
 21
49
  0
LINE
  8
0
 10
28.1
 11
28.1
 20
49
 21
0
  0
LINE
  8
0
 10
28.1
 11
14.1
 20
0
 21
0
  0
LINE
  8
0
 10
14.1
 11
14.1
 20
0
 21
20
  0
LINE
  8
0
 10
14.1
 11
12.1
 20
20
 21
20
  0
LINE
  8
0
 10
33.1
 11
33.1
 20
20
 21
44
  0
LINE
  8
0
 10
33.1
 11
45.1
 20
44
 21
44
  0
LINE
  8
0
 10
45.1
 11
45.1
 20
44
 21
49
  0
LINE
  8
0
 10
45.1
 11
61.1
 20
49
 21
49
  0
LINE
  8
0
 10
61.1
 11
61.1
 20
49
 21
0
  0
LINE
  8
0
 10
61.1
 11
47.1
 20
0
 21
0
  0
LINE
  8
0
 10
47.1
 11
47.1
 20
0
 21
20
  0
LINE
  8
0
 10
47.1
 11
33.1
 20
20
 21
20
  0
LINE
  8
0
 10
66.1
 11
66.1
 20
20
 21
44
  0
LINE
  8
0
 10
66.1
 11
78.1
 20
44
 21
44
  0
LINE
  8
0
 10
78.1
 11
78.1
 20
44
 21
49
  0
LINE
  8
0
 10
78.1
 11
94.1
 20
49
 21
49
  0
LINE
  8
0
 10
94.1
 11
94.1
 20
49
 21
0
  0
LINE
  8
0
 10
94.1
 11
80.1
 20
0
 21
0
  0
LINE
  8
0
 10
80.1
 11
80.1
 20
0
 21
20
  0
LINE
  8
0
 10
80.1
 11
66.1
 20
20
 21
20
  0
LINE
  8
0
 10
99.1
 11
99.1
 20
20
 21
49
  0
LINE
  8
0
 10
99.1
 11
127.1
 20
49
 21
49
  0
LINE
  8
0
 10
127.1
 11
127.1
 20
49
 21
0
  0
LINE
  8
0
 10
127.1
 11
113.1
 20
0
 21
0
  0
LINE
  8
0
 10
113.1
 11
113.1
 20
0
 21
20
  0
LINE
  8
0
 10
113.1
 11
99.1
 20
20
 21
20
  0
LINE
  8
0
 10
132.1
 11
132.1
 20
10
 21
49
  0
LINE
  8
0
 10
132.1
 11
160.1
 20
49
 21
49
  0
LINE
  8
0
 10
160.1
 11
160.1
 20
49
 21
0
  0
LINE
  8
0
 10
160.1
 11
137.1
 20
0
 21
0
  0
LINE
  8
0
 10
137.1
 11
137.1
 20
0
 21
10
  0
LINE
  8
0
 10
137.1
 11
132.1
 20
10
 21
10
  0
LINE
  8
0
 10
165.1
 11
165.1
 20
10
 21
49
  0
LINE
  8
0
 10
165.1
 11
193.1
 20
49
 21
49
  0
LINE
  8
0
 10
193.1
 11
193.1
 20
49
 21
0
  0
LINE
  8
0
 10
193.1
 11
170.1
 20
0
 21
0
  0
LINE
  8
0
 10
170.1
 11
170.1
 20
0
 21
10
  0
LINE
  8
0
 10
170.1
 11
165.1
 20
10
 21
10
  0
LINE
  8
0
 10
198.1
 11
198.1
 20
10
 21
49
  0
LINE
  8
0
 10
198.1
 11
226.1
 20
49
 21
49
  0
LINE
  8
0
 10
226.1
 11
226.1
 20
49
 21
0
  0
LINE
  8
0
 10
226.1
 11
203.1
 20
0
 21
0
  0
LINE
  8
0
 10
203.1
 11
203.1
 20
0
 21
10
  0
LINE
  8
0
 10
203.1
 11
198.1
 20
10
 21
10
  0
LINE
  8
0
 10
231.1
 11
231.1
 20
10
 21
49
  0
LINE
  8
0
 10
231.1
 11
259.1
 20
49
 21
49
  0
LINE
  8
0
 10
259.1
 11
259.1
 20
49
 21
0
  0
LINE
  8
0
 10
259.1
 11
236.1
 20
0
 21
0
  0
LINE
  8
0
 10
236.1
 11
236.1
 20
0
 21
10
  0
LINE
  8
0
 10
236.1
 11
231.1
 20
10
 21
10
  0
LINE
  8
0
 10
264.1
 11
264.1
 20
10
 21
49
  0
LINE
  8
0
 10
264.1
 11
292.1
 20
49
 21
49
  0
LINE
  8
0
 10
292.1
 11
292.1
 20
49
 21
0
  0
LINE
  8
0
 10
292.1
 11
269.1
 20
0
 21
0
  0
LINE
  8
0
 10
269.1
 11
269.1
 20
0
 21
10
  0
LINE
  8
0
 10
269.1
 11
264.1
 20
10
 21
10
  0
LINE
  8
0
 10
297.1
 11
297.1
 20
10
 21
49
  0
LINE
  8
0
 10
297.1
 11
325.1
 20
49
 21
49
  0
LINE
  8
0
 10
325.1
 11
325.1
 20
49
 21
0
  0
LINE
  8
0
 10
325.1
 11
302.1
 20
0
 21
0
  0
LINE
  8
0
 10
302.1
 11
302.1
 20
0
 21
10
  0
LINE
  8
0
 10
302.1
 11
297.1
 20
10
 21
10
  0
LINE
  8
0
 10
330.1
 11
330.1
 20
20
 21
44
  0
LINE
  8
0
 10
330.1
 11
342.1
 20
44
 21
44
  0
LINE
  8
0
 10
342.1
 11
342.1
 20
44
 21
49
  0
LINE
  8
0
 10
342.1
 11
358.1
 20
49
 21
49
  0
LINE
  8
0
 10
358.1
 11
358.1
 20
49
 21
0
  0
LINE
  8
0
 10
358.1
 11
344.1
 20
0
 21
0
  0
LINE
  8
0
 10
344.1
 11
344.1
 20
0
 21
20
  0
LINE
  8
0
 10
344.1
 11
330.1
 20
20
 21
20
  0
LINE
  8
0
 10
368.1
 11
368.1
 20
20
 21
44
  0
LINE
  8
0
 10
368.1
 11
375.1
 20
44
 21
44
  0
LINE
  8
0
 10
375.1
 11
375.1
 20
44
 21
49
  0
LINE
  8
0
 10
375.1
 11
386.1
 20
49
 21
49
  0
LINE
  8
0
 10
386.1
 11
386.1
 20
49
 21
0
  0
LINE
  8
0
 10
386.1
 11
377.1
 20
0
 21
0
  0
LINE
  8
0
 10
377.1
 11
377.1
 20
0
 21
20
  0
LINE
  8
0
 10
377.1
 11
368.1
 20
20
 21
20
  0
LINE
  8
0
 10
391
 11
391
 20
1026
 21
1050
  0
LINE
  8
0
 10
391
 11
427
 20
1050
 21
1050
  0
LINE
  8
0
 10
427
 11
427
 20
1050
 21
1055
  0
LINE
  8
0
 10
427
 11
677
 20
1055
 21
1055
  0
LINE
  8
0
 10
677
 11
677
 20
1055
 21
1050
  0
LINE
  8
0
 10
677
 11
749
 20
1050
 21
1050
  0
LINE
  8
0
 10
749
 11
749
 20
1050
 21
1026
  0
LINE
  8
0
 10
749
 11
654
 20
1026
 21
1026
  0
LINE
  8
0
 10
654
 11
654
 20
1026
 21
1016
  0
LINE
  8
0
 10
654
 11
427
 20
1016
 21
1016
  0
LINE
  8
0
 10
427
 11
427
 20
1016
 21
1026
  0
LINE
  8
0
 10
427
 11
391
 20
1026
 21
1026
  0
LINE
  8
0
 10
391
 11
391
 20
1125
 21
1149
  0
LINE
  8
0
 10
391
 11
427
 20
1149
 21
1149
  0
LINE
  8
0
 10
427
 11
427
 20
1149
 21
1154
  0
LINE
  8
0
 10
427
 11
677
 20
1154
 21
1154
  0
LINE
  8
0
 10
677
 11
677
 20
1154
 21
1149
  0
LINE
  8
0
 10
677
 11
749
 20
1149
 21
1149
  0
LINE
  8
0
 10
749
 11
749
 20
1149
 21
1125
  0
LINE
  8
0
 10
749
 11
654
 20
1125
 21
1125
  0
LINE
  8
0
 10
654
 11
654
 20
1125
 21
1115
  0
LINE
  8
0
 10
654
 11
427
 20
1115
 21
1115
  0
LINE
  8
0
 10
427
 11
427
 20
1115
 21
1125
  0
LINE
  8
0
 10
427
 11
391
 20
1125
 21
1125
  0
LINE
  8
0
 10
391
 11
391
 20
1501
 21
1550
  0
LINE
  8
0
 10
391
 11
754
 20
1550
 21
1550
  0
LINE
  8
0
 10
754
 11
754
 20
1550
 21
1501
  0
LINE
  8
0
 10
754
 11
391
 20
1501
 21
1501
  0
LINE
  8
0
 10
391
 11
391
 20
1600
 21
1649
  0
LINE
  8
0
 10
391
 11
754
 20
1649
 21
1649
  0
LINE
  8
0
 10
754
 11
754
 20
1649
 21
1600
  0
LINE
  8
0
 10
754
 11
391
 20
1600
 21
1600
  0
LINE
  8
0
 10
396.1
 11
396.1
 20
20
 21
44
  0
LINE
  8
0
 10
396.1
 11
408.1
 20
44
 21
44
  0
LINE
  8
0
 10
408.1
 11
408.1
 20
44
 21
49
  0
LINE
  8
0
 10
408.1
 11
424.1
 20
49
 21
49
  0
LINE
  8
0
 10
424.1
 11
424.1
 20
49
 21
0
  0
LINE
  8
0
 10
424.1
 11
410.1
 20
0
 21
0
  0
LINE
  8
0
 10
410.1
 11
410.1
 20
0
 21
20
  0
LINE
  8
0
 10
410.1
 11
396.1
 20
20
 21
20
  0
LINE
  8
0
 10
429.1
 11
429.1
 20
10
 21
49
  0
LINE
  8
0
 10
429.1
 11
457.1
 20
49
 21
49
  0
LINE
  8
0
 10
457.1
 11
457.1
 20
49
 21
0
  0
LINE
  8
0
 10
457.1
 11
434.1
 20
0
 21
0
  0
LINE
  8
0
 10
434.1
 11
434.1
 20
0
 21
10
  0
LINE
  8
0
 10
434.1
 11
429.1
 20
10
 21
10
  0
LINE
  8
0
 10
462.1
 11
462.1
 20
10
 21
49
  0
LINE
  8
0
 10
462.1
 11
490.1
 20
49
 21
49
  0
LINE
  8
0
 10
490.1
 11
490.1
 20
49
 21
0
  0
LINE
  8
0
 10
490.1
 11
467.1
 20
0
 21
0
  0
LINE
  8
0
 10
467.1
 11
467.1
 20
0
 21
10
  0
LINE
  8
0
 10
467.1
 11
462.1
 20
10
 21
10
  0
LINE
  8
0
 10
495.1
 11
495.1
 20
10
 21
49
  0
LINE
  8
0
 10
495.1
 11
523.1
 20
49
 21
49
  0
LINE
  8
0
 10
523.1
 11
523.1
 20
49
 21
0
  0
LINE
  8
0
 10
523.1
 11
500.1
 20
0
 21
0
  0
LINE
  8
0
 10
500.1
 11
500.1
 20
0
 21
10
  0
LINE
  8
0
 10
500.1
 11
495.1
 20
10
 21
10
  0
LINE
  8
0
 10
528.1
 11
528.1
 20
10
 21
49
  0
LINE
  8
0
 10
528.1
 11
556.1
 20
49
 21
49
  0
LINE
  8
0
 10
556.1
 11
556.1
 20
49
 21
0
  0
LINE
  8
0
 10
556.1
 11
533.1
 20
0
 21
0
  0
LINE
  8
0
 10
533.1
 11
533.1
 20
0
 21
10
  0
LINE
  8
0
 10
533.1
 11
528.1
 20
10
 21
10
  0
LINE
  8
0
 10
561.1
 11
561.1
 20
10
 21
49
  0
LINE
  8
0
 10
561.1
 11
589.1
 20
49
 21
49
  0
LINE
  8
0
 10
589.1
 11
589.1
 20
49
 21
0
  0
LINE
  8
0
 10
589.1
 11
566.1
 20
0
 21
0
  0
LINE
  8
0
 10
566.1
 11
566.1
 20
0
 21
10
  0
LINE
  8
0
 10
566.1
 11
561.1
 20
10
 21
10
  0
LINE
  8
0
 10
594.1
 11
594.1
 20
10
 21
49
  0
LINE
  8
0
 10
594.1
 11
622.1
 20
49
 21
49
  0
LINE
  8
0
 10
622.1
 11
622.1
 20
49
 21
0
  0
LINE
  8
0
 10
622.1
 11
599.1
 20
0
 21
0
  0
LINE
  8
0
 10
599.1
 11
599.1
 20
0
 21
10
  0
LINE
  8
0
 10
599.1
 11
594.1
 20
10
 21
10
  0
LINE
  8
0
 10
627.1
 11
627.1
 20
10
 21
49
  0
LINE
  8
0
 10
627.1
 11
655.1
 20
49
 21
49
  0
LINE
  8
0
 10
655.1
 11
655.1
 20
49
 21
0
  0
LINE
  8
0
 10
655.1
 11
632.1
 20
0
 21
0
  0
LINE
  8
0
 10
632.1
 11
632.1
 20
0
 21
10
  0
LINE
  8
0
 10
632.1
 11
627.1
 20
10
 21
10
  0
LINE
  8
0
 10
660.1
 11
660.1
 20
20
 21
49
  0
LINE
  8
0
 10
660.1
 11
688.1
 20
49
 21
49
  0
LINE
  8
0
 10
688.1
 11
688.1
 20
49
 21
0
  0
LINE
  8
0
 10
688.1
 11
674.1
 20
0
 21
0
  0
LINE
  8
0
 10
674.1
 11
674.1
 20
0
 21
20
  0
LINE
  8
0
 10
674.1
 11
660.1
 20
20
 21
20
  0
LINE
  8
0
 10
693.1
 11
693.1
 20
20
 21
44
  0
LINE
  8
0
 10
693.1
 11
705.1
 20
44
 21
44
  0
LINE
  8
0
 10
705.1
 11
705.1
 20
44
 21
49
  0
LINE
  8
0
 10
705.1
 11
721.1
 20
49
 21
49
  0
LINE
  8
0
 10
721.1
 11
721.1
 20
49
 21
0
  0
LINE
  8
0
 10
721.1
 11
707.1
 20
0
 21
0
  0
LINE
  8
0
 10
707.1
 11
707.1
 20
0
 21
20
  0
LINE
  8
0
 10
707.1
 11
693.1
 20
20
 21
20
  0
LINE
  8
0
 10
726.1
 11
726.1
 20
20
 21
44
  0
LINE
  8
0
 10
726.1
 11
738.1
 20
44
 21
44
  0
LINE
  8
0
 10
738.1
 11
738.1
 20
44
 21
49
  0
LINE
  8
0
 10
738.1
 11
754.1
 20
49
 21
49
  0
LINE
  8
0
 10
754.1
 11
754.1
 20
49
 21
0
  0
LINE
  8
0
 10
754.1
 11
740.1
 20
0
 21
0
  0
LINE
  8
0
 10
740.1
 11
740.1
 20
0
 21
20
  0
LINE
  8
0
 10
740.1
 11
726.1
 20
20
 21
20
  0
ENDSEC
  0
SECTION
  2
OBJECTS
  0
DICTIONARY
  0
ENDSEC
  0
EOF
