  0
SECTION
  2
BLOCKS
  0
ENDSEC
  0
SECTION
  2
ENTITIES
  0
LINE
  8
0
 10
0
 11
0
 20
196
 21
206
  0
LINE
  8
0
 10
0
 11
800
 20
206
 21
206
  0
LINE
  8
0
 10
800
 11
800
 20
206
 21
196
  0
LINE
  8
0
 10
800
 11
790
 20
196
 21
196
  0
LINE
  8
0
 10
790
 11
790
 20
196
 21
192
  0
LINE
  8
0
 10
790
 11
700
 20
192
 21
192
  0
LINE
  8
0
 10
700
 11
700
 20
192
 21
178
  0
LINE
  8
0
 10
700
 11
690
 20
178
 21
178
  0
LINE
  8
0
 10
690
 11
690
 20
178
 21
198
  0
LINE
  8
0
 10
690
 11
670
 20
198
 21
198
  0
LINE
  8
0
 10
670
 11
670
 20
198
 21
178
  0
LINE
  8
0
 10
670
 11
480
 20
178
 21
178
  0
LINE
  8
0
 10
480
 11
480
 20
178
 21
198
  0
LINE
  8
0
 10
480
 11
460
 20
198
 21
198
  0
LINE
  8
0
 10
460
 11
460
 20
198
 21
178
  0
LINE
  8
0
 10
460
 11
450
 20
178
 21
178
  0
LINE
  8
0
 10
450
 11
450
 20
178
 21
192
  0
LINE
  8
0
 10
450
 11
350
 20
192
 21
192
  0
LINE
  8
0
 10
350
 11
350
 20
192
 21
178
  0
LINE
  8
0
 10
350
 11
340
 20
178
 21
178
  0
LINE
  8
0
 10
340
 11
340
 20
178
 21
198
  0
LINE
  8
0
 10
340
 11
320
 20
198
 21
198
  0
LINE
  8
0
 10
320
 11
320
 20
198
 21
178
  0
LINE
  8
0
 10
320
 11
130
 20
178
 21
178
  0
LINE
  8
0
 10
130
 11
130
 20
178
 21
198
  0
LINE
  8
0
 10
130
 11
110
 20
198
 21
198
  0
LINE
  8
0
 10
110
 11
110
 20
198
 21
178
  0
LINE
  8
0
 10
110
 11
100
 20
178
 21
178
  0
LINE
  8
0
 10
100
 11
100
 20
178
 21
192
  0
LINE
  8
0
 10
100
 11
10
 20
192
 21
192
  0
LINE
  8
0
 10
10
 11
10
 20
192
 21
196
  0
LINE
  8
0
 10
10
 11
0
 20
196
 21
196
  0
LINE
  8
0
 10
0
 11
0
 20
274
 21
284
  0
LINE
  8
0
 10
0
 11
800
 20
284
 21
284
  0
LINE
  8
0
 10
800
 11
800
 20
284
 21
274
  0
LINE
  8
0
 10
800
 11
790
 20
274
 21
274
  0
LINE
  8
0
 10
790
 11
790
 20
274
 21
270
  0
LINE
  8
0
 10
790
 11
700
 20
270
 21
270
  0
LINE
  8
0
 10
700
 11
700
 20
270
 21
256
  0
LINE
  8
0
 10
700
 11
450
 20
256
 21
256
  0
LINE
  8
0
 10
450
 11
450
 20
256
 21
270
  0
LINE
  8
0
 10
450
 11
350
 20
270
 21
270
  0
LINE
  8
0
 10
350
 11
350
 20
270
 21
256
  0
LINE
  8
0
 10
350
 11
100
 20
256
 21
256
  0
LINE
  8
0
 10
100
 11
100
 20
256
 21
270
  0
LINE
  8
0
 10
100
 11
10
 20
270
 21
270
  0
LINE
  8
0
 10
10
 11
10
 20
270
 21
274
  0
LINE
  8
0
 10
10
 11
0
 20
274
 21
274
  0
LINE
  8
0
 10
0
 11
0
 20
352
 21
362
  0
LINE
  8
0
 10
0
 11
800
 20
362
 21
362
  0
LINE
  8
0
 10
800
 11
800
 20
362
 21
352
  0
LINE
  8
0
 10
800
 11
790
 20
352
 21
352
  0
LINE
  8
0
 10
790
 11
790
 20
352
 21
348
  0
LINE
  8
0
 10
790
 11
700
 20
348
 21
348
  0
LINE
  8
0
 10
700
 11
700
 20
348
 21
334
  0
LINE
  8
0
 10
700
 11
450
 20
334
 21
334
  0
LINE
  8
0
 10
450
 11
450
 20
334
 21
348
  0
LINE
  8
0
 10
450
 11
350
 20
348
 21
348
  0
LINE
  8
0
 10
350
 11
350
 20
348
 21
334
  0
LINE
  8
0
 10
350
 11
100
 20
334
 21
334
  0
LINE
  8
0
 10
100
 11
100
 20
334
 21
348
  0
LINE
  8
0
 10
100
 11
10
 20
348
 21
348
  0
LINE
  8
0
 10
10
 11
10
 20
348
 21
352
  0
LINE
  8
0
 10
10
 11
0
 20
352
 21
352
  0
LINE
  8
0
 10
0
 11
0
 20
430
 21
440
  0
LINE
  8
0
 10
0
 11
800
 20
440
 21
440
  0
LINE
  8
0
 10
800
 11
800
 20
440
 21
430
  0
LINE
  8
0
 10
800
 11
790
 20
430
 21
430
  0
LINE
  8
0
 10
790
 11
790
 20
430
 21
426
  0
LINE
  8
0
 10
790
 11
700
 20
426
 21
426
  0
LINE
  8
0
 10
700
 11
700
 20
426
 21
417
  0
LINE
  8
0
 10
700
 11
450
 20
417
 21
417
  0
LINE
  8
0
 10
450
 11
450
 20
417
 21
426
  0
LINE
  8
0
 10
450
 11
350
 20
426
 21
426
  0
LINE
  8
0
 10
350
 11
350
 20
426
 21
417
  0
LINE
  8
0
 10
350
 11
100
 20
417
 21
417
  0
LINE
  8
0
 10
100
 11
100
 20
417
 21
426
  0
LINE
  8
0
 10
100
 11
10
 20
426
 21
426
  0
LINE
  8
0
 10
10
 11
10
 20
426
 21
430
  0
LINE
  8
0
 10
10
 11
0
 20
430
 21
430
  0
LINE
  8
0
 10
0
 11
0
 20
508
 21
518
  0
LINE
  8
0
 10
0
 11
800
 20
518
 21
518
  0
LINE
  8
0
 10
800
 11
800
 20
518
 21
508
  0
LINE
  8
0
 10
800
 11
790
 20
508
 21
508
  0
LINE
  8
0
 10
790
 11
790
 20
508
 21
504
  0
LINE
  8
0
 10
790
 11
700
 20
504
 21
504
  0
LINE
  8
0
 10
700
 11
700
 20
504
 21
495
  0
LINE
  8
0
 10
700
 11
450
 20
495
 21
495
  0
LINE
  8
0
 10
450
 11
450
 20
495
 21
504
  0
LINE
  8
0
 10
450
 11
350
 20
504
 21
504
  0
LINE
  8
0
 10
350
 11
350
 20
504
 21
495
  0
LINE
  8
0
 10
350
 11
100
 20
495
 21
495
  0
LINE
  8
0
 10
100
 11
100
 20
495
 21
504
  0
LINE
  8
0
 10
100
 11
10
 20
504
 21
504
  0
LINE
  8
0
 10
10
 11
10
 20
504
 21
508
  0
LINE
  8
0
 10
10
 11
0
 20
508
 21
508
  0
LINE
  8
0
 10
0
 11
0
 20
586
 21
596
  0
LINE
  8
0
 10
0
 11
800
 20
596
 21
596
  0
LINE
  8
0
 10
800
 11
800
 20
596
 21
586
  0
LINE
  8
0
 10
800
 11
790
 20
586
 21
586
  0
LINE
  8
0
 10
790
 11
790
 20
586
 21
578
  0
LINE
  8
0
 10
790
 11
772
 20
578
 21
578
  0
LINE
  8
0
 10
772
 11
772
 20
578
 21
573
  0
LINE
  8
0
 10
772
 11
28
 20
573
 21
573
  0
LINE
  8
0
 10
28
 11
28
 20
573
 21
578
  0
LINE
  8
0
 10
28
 11
10
 20
578
 21
578
  0
LINE
  8
0
 10
10
 11
10
 20
578
 21
586
  0
LINE
  8
0
 10
10
 11
0
 20
586
 21
586
  0
LINE
  8
0
 10
0
 11
0
 20
664
 21
674
  0
LINE
  8
0
 10
0
 11
800
 20
674
 21
674
  0
LINE
  8
0
 10
800
 11
800
 20
674
 21
664
  0
LINE
  8
0
 10
800
 11
790
 20
664
 21
664
  0
LINE
  8
0
 10
790
 11
790
 20
664
 21
656
  0
LINE
  8
0
 10
790
 11
772
 20
656
 21
656
  0
LINE
  8
0
 10
772
 11
772
 20
656
 21
646
  0
LINE
  8
0
 10
772
 11
414
 20
646
 21
646
  0
LINE
  8
0
 10
414
 11
414
 20
646
 21
651
  0
LINE
  8
0
 10
414
 11
386
 20
651
 21
651
  0
LINE
  8
0
 10
386
 11
386
 20
651
 21
646
  0
LINE
  8
0
 10
386
 11
28
 20
646
 21
646
  0
LINE
  8
0
 10
28
 11
28
 20
646
 21
656
  0
LINE
  8
0
 10
28
 11
10
 20
656
 21
656
  0
LINE
  8
0
 10
10
 11
10
 20
656
 21
664
  0
LINE
  8
0
 10
10
 11
0
 20
664
 21
664
  0
LINE
  8
0
 10
0
 11
0
 20
742
 21
752
  0
LINE
  8
0
 10
0
 11
800
 20
752
 21
752
  0
LINE
  8
0
 10
800
 11
800
 20
752
 21
742
  0
LINE
  8
0
 10
800
 11
790
 20
742
 21
742
  0
LINE
  8
0
 10
790
 11
790
 20
742
 21
734
  0
LINE
  8
0
 10
790
 11
772
 20
734
 21
734
  0
LINE
  8
0
 10
772
 11
772
 20
734
 21
724
  0
LINE
  8
0
 10
772
 11
414
 20
724
 21
724
  0
LINE
  8
0
 10
414
 11
414
 20
724
 21
729
  0
LINE
  8
0
 10
414
 11
386
 20
729
 21
729
  0
LINE
  8
0
 10
386
 11
386
 20
729
 21
724
  0
LINE
  8
0
 10
386
 11
28
 20
724
 21
724
  0
LINE
  8
0
 10
28
 11
28
 20
724
 21
734
  0
LINE
  8
0
 10
28
 11
10
 20
734
 21
734
  0
LINE
  8
0
 10
10
 11
10
 20
734
 21
742
  0
LINE
  8
0
 10
10
 11
0
 20
742
 21
742
  0
LINE
  8
0
 10
0
 11
0
 20
820
 21
830
  0
LINE
  8
0
 10
0
 11
111.547
 20
830
 21
830
  0
LINE
  8
0
 10
111.547
 11
111.547
 20
830
 21
802
  0
LINE
  8
0
 10
111.547
 11
28
 20
802
 21
802
  0
LINE
  8
0
 10
28
 11
28
 20
802
 21
812
  0
LINE
  8
0
 10
28
 11
10
 20
812
 21
812
  0
LINE
  8
0
 10
10
 11
10
 20
812
 21
820
  0
LINE
  8
0
 10
10
 11
0
 20
820
 21
820
  0
LINE
  8
0
 10
0
 11
0
 20
898
 21
908
  0
LINE
  8
0
 10
0
 11
105.774
 20
908
 21
908
  0
LINE
  8
0
 10
105.774
 11
105.774
 20
908
 21
880
  0
LINE
  8
0
 10
105.774
 11
28
 20
880
 21
880
  0
LINE
  8
0
 10
28
 11
28
 20
880
 21
890
  0
LINE
  8
0
 10
28
 11
10
 20
890
 21
890
  0
LINE
  8
0
 10
10
 11
10
 20
890
 21
898
  0
LINE
  8
0
 10
10
 11
0
 20
898
 21
898
  0
LINE
  8
0
 10
0
 11
0
 20
976
 21
986
  0
LINE
  8
0
 10
0
 11
101.306
 20
986
 21
986
  0
LINE
  8
0
 10
101.306
 11
101.306
 20
986
 21
958
  0
LINE
  8
0
 10
101.306
 11
28
 20
958
 21
958
  0
LINE
  8
0
 10
28
 11
28
 20
958
 21
968
  0
LINE
  8
0
 10
28
 11
10
 20
968
 21
968
  0
LINE
  8
0
 10
10
 11
10
 20
968
 21
976
  0
LINE
  8
0
 10
10
 11
0
 20
976
 21
976
  0
LINE
  8
0
 10
0
 11
0
 20
1108
 21
1208
  0
LINE
  8
0
 10
0
 11
94.226
 20
1208
 21
1208
  0
LINE
  8
0
 10
94.226
 11
94.226
 20
1208
 21
1207.94
  0
LINE
  8
0
 10
94.226
 11
95.272
 20
1207.94
 21
1207.94
  0
LINE
  8
0
 10
95.272
 11
97.317
 20
1207.94
 21
1207.51
  0
LINE
  8
0
 10
97.317
 11
99.226
 20
1207.51
 21
1206.66
  0
LINE
  8
0
 10
99.226
 11
100.918
 20
1206.66
 21
1205.43
  0
LINE
  8
0
 10
100.918
 11
102.317
 20
1205.43
 21
1203.88
  0
LINE
  8
0
 10
102.317
 11
102.823
 20
1203.88
 21
1203
  0
LINE
  8
0
 10
102.823
 11
102.887
 20
1203
 21
1203
  0
LINE
  8
0
 10
102.887
 11
114.434
 20
1203
 21
1183
  0
LINE
  8
0
 10
114.434
 11
114.497
 20
1183
 21
1183
  0
LINE
  8
0
 10
114.497
 11
115.004
 20
1183
 21
1182.12
  0
LINE
  8
0
 10
115.004
 11
116.403
 20
1182.12
 21
1180.57
  0
LINE
  8
0
 10
116.403
 11
118.094
 20
1180.57
 21
1179.34
  0
LINE
  8
0
 10
118.094
 11
120.004
 20
1179.34
 21
1178.49
  0
LINE
  8
0
 10
120.004
 11
122.049
 20
1178.49
 21
1178.06
  0
LINE
  8
0
 10
122.049
 11
123.094
 20
1178.06
 21
1178.06
  0
LINE
  8
0
 10
123.094
 11
123.094
 20
1178.06
 21
1178
  0
LINE
  8
0
 10
123.094
 11
276.906
 20
1178
 21
1178
  0
LINE
  8
0
 10
276.906
 11
276.906
 20
1178
 21
1178.06
  0
LINE
  8
0
 10
276.906
 11
277.951
 20
1178.06
 21
1178.06
  0
LINE
  8
0
 10
277.951
 11
279.996
 20
1178.06
 21
1178.49
  0
LINE
  8
0
 10
279.996
 11
281.906
 20
1178.49
 21
1179.34
  0
LINE
  8
0
 10
281.906
 11
283.597
 20
1179.34
 21
1180.57
  0
LINE
  8
0
 10
283.597
 11
284.996
 20
1180.57
 21
1182.12
  0
LINE
  8
0
 10
284.996
 11
285.503
 20
1182.12
 21
1183
  0
LINE
  8
0
 10
285.503
 11
285.566
 20
1183
 21
1183
  0
LINE
  8
0
 10
285.566
 11
297.113
 20
1183
 21
1203
  0
LINE
  8
0
 10
297.113
 11
297.177
 20
1203
 21
1203
  0
LINE
  8
0
 10
297.177
 11
297.683
 20
1203
 21
1203.88
  0
LINE
  8
0
 10
297.683
 11
299.082
 20
1203.88
 21
1205.43
  0
LINE
  8
0
 10
299.082
 11
300.774
 20
1205.43
 21
1206.66
  0
LINE
  8
0
 10
300.774
 11
302.683
 20
1206.66
 21
1207.51
  0
LINE
  8
0
 10
302.683
 11
304.728
 20
1207.51
 21
1207.94
  0
LINE
  8
0
 10
304.728
 11
305.774
 20
1207.94
 21
1207.94
  0
LINE
  8
0
 10
305.774
 11
305.774
 20
1207.94
 21
1208
  0
LINE
  8
0
 10
305.774
 11
494.226
 20
1208
 21
1208
  0
LINE
  8
0
 10
494.226
 11
494.226
 20
1208
 21
1207.94
  0
LINE
  8
0
 10
494.226
 11
495.272
 20
1207.94
 21
1207.94
  0
LINE
  8
0
 10
495.272
 11
497.317
 20
1207.94
 21
1207.51
  0
LINE
  8
0
 10
497.317
 11
499.226
 20
1207.51
 21
1206.66
  0
LINE
  8
0
 10
499.226
 11
500.918
 20
1206.66
 21
1205.43
  0
LINE
  8
0
 10
500.918
 11
502.317
 20
1205.43
 21
1203.88
  0
LINE
  8
0
 10
502.317
 11
502.823
 20
1203.88
 21
1203
  0
LINE
  8
0
 10
502.823
 11
502.887
 20
1203
 21
1203
  0
LINE
  8
0
 10
502.887
 11
514.434
 20
1203
 21
1183
  0
LINE
  8
0
 10
514.434
 11
514.497
 20
1183
 21
1183
  0
LINE
  8
0
 10
514.497
 11
515.004
 20
1183
 21
1182.12
  0
LINE
  8
0
 10
515.004
 11
516.403
 20
1182.12
 21
1180.57
  0
LINE
  8
0
 10
516.403
 11
518.094
 20
1180.57
 21
1179.34
  0
LINE
  8
0
 10
518.094
 11
520.004
 20
1179.34
 21
1178.49
  0
LINE
  8
0
 10
520.004
 11
522.049
 20
1178.49
 21
1178.06
  0
LINE
  8
0
 10
522.049
 11
523.094
 20
1178.06
 21
1178.06
  0
LINE
  8
0
 10
523.094
 11
523.094
 20
1178.06
 21
1178
  0
LINE
  8
0
 10
523.094
 11
676.906
 20
1178
 21
1178
  0
LINE
  8
0
 10
676.906
 11
676.906
 20
1178
 21
1178.06
  0
LINE
  8
0
 10
676.906
 11
677.951
 20
1178.06
 21
1178.06
  0
LINE
  8
0
 10
677.951
 11
679.996
 20
1178.06
 21
1178.49
  0
LINE
  8
0
 10
679.996
 11
681.906
 20
1178.49
 21
1179.34
  0
LINE
  8
0
 10
681.906
 11
683.597
 20
1179.34
 21
1180.57
  0
LINE
  8
0
 10
683.597
 11
684.996
 20
1180.57
 21
1182.12
  0
LINE
  8
0
 10
684.996
 11
685.503
 20
1182.12
 21
1183
  0
LINE
  8
0
 10
685.503
 11
685.566
 20
1183
 21
1183
  0
LINE
  8
0
 10
685.566
 11
697.113
 20
1183
 21
1203
  0
LINE
  8
0
 10
697.113
 11
697.177
 20
1203
 21
1203
  0
LINE
  8
0
 10
697.177
 11
697.683
 20
1203
 21
1203.88
  0
LINE
  8
0
 10
697.683
 11
699.082
 20
1203.88
 21
1205.43
  0
LINE
  8
0
 10
699.082
 11
700.774
 20
1205.43
 21
1206.66
  0
LINE
  8
0
 10
700.774
 11
702.683
 20
1206.66
 21
1207.51
  0
LINE
  8
0
 10
702.683
 11
704.728
 20
1207.51
 21
1207.94
  0
LINE
  8
0
 10
704.728
 11
705.774
 20
1207.94
 21
1207.94
  0
LINE
  8
0
 10
705.774
 11
705.774
 20
1207.94
 21
1208
  0
LINE
  8
0
 10
705.774
 11
800
 20
1208
 21
1208
  0
LINE
  8
0
 10
800
 11
800
 20
1208
 21
1108
  0
LINE
  8
0
 10
800
 11
0
 20
1108
 21
1108
  0
LINE
  8
0
 10
0
 11
0
 20
1258
 21
1358
  0
LINE
  8
0
 10
0
 11
94.226
 20
1358
 21
1358
  0
LINE
  8
0
 10
94.226
 11
94.226
 20
1358
 21
1357.94
  0
LINE
  8
0
 10
94.226
 11
95.272
 20
1357.94
 21
1357.94
  0
LINE
  8
0
 10
95.272
 11
97.317
 20
1357.94
 21
1357.51
  0
LINE
  8
0
 10
97.317
 11
99.226
 20
1357.51
 21
1356.66
  0
LINE
  8
0
 10
99.226
 11
100.918
 20
1356.66
 21
1355.43
  0
LINE
  8
0
 10
100.918
 11
102.317
 20
1355.43
 21
1353.88
  0
LINE
  8
0
 10
102.317
 11
102.823
 20
1353.88
 21
1353
  0
LINE
  8
0
 10
102.823
 11
102.887
 20
1353
 21
1353
  0
LINE
  8
0
 10
102.887
 11
114.434
 20
1353
 21
1333
  0
LINE
  8
0
 10
114.434
 11
114.497
 20
1333
 21
1333
  0
LINE
  8
0
 10
114.497
 11
115.004
 20
1333
 21
1332.12
  0
LINE
  8
0
 10
115.004
 11
116.403
 20
1332.12
 21
1330.57
  0
LINE
  8
0
 10
116.403
 11
118.094
 20
1330.57
 21
1329.34
  0
LINE
  8
0
 10
118.094
 11
120.004
 20
1329.34
 21
1328.49
  0
LINE
  8
0
 10
120.004
 11
122.049
 20
1328.49
 21
1328.06
  0
LINE
  8
0
 10
122.049
 11
123.094
 20
1328.06
 21
1328.06
  0
LINE
  8
0
 10
123.094
 11
123.094
 20
1328.06
 21
1328
  0
LINE
  8
0
 10
123.094
 11
276.906
 20
1328
 21
1328
  0
LINE
  8
0
 10
276.906
 11
276.906
 20
1328
 21
1328.06
  0
LINE
  8
0
 10
276.906
 11
277.951
 20
1328.06
 21
1328.06
  0
LINE
  8
0
 10
277.951
 11
279.996
 20
1328.06
 21
1328.49
  0
LINE
  8
0
 10
279.996
 11
281.906
 20
1328.49
 21
1329.34
  0
LINE
  8
0
 10
281.906
 11
283.597
 20
1329.34
 21
1330.57
  0
LINE
  8
0
 10
283.597
 11
284.996
 20
1330.57
 21
1332.12
  0
LINE
  8
0
 10
284.996
 11
285.503
 20
1332.12
 21
1333
  0
LINE
  8
0
 10
285.503
 11
285.566
 20
1333
 21
1333
  0
LINE
  8
0
 10
285.566
 11
297.113
 20
1333
 21
1353
  0
LINE
  8
0
 10
297.113
 11
297.177
 20
1353
 21
1353
  0
LINE
  8
0
 10
297.177
 11
297.683
 20
1353
 21
1353.88
  0
LINE
  8
0
 10
297.683
 11
299.082
 20
1353.88
 21
1355.43
  0
LINE
  8
0
 10
299.082
 11
300.774
 20
1355.43
 21
1356.66
  0
LINE
  8
0
 10
300.774
 11
302.683
 20
1356.66
 21
1357.51
  0
LINE
  8
0
 10
302.683
 11
304.728
 20
1357.51
 21
1357.94
  0
LINE
  8
0
 10
304.728
 11
305.774
 20
1357.94
 21
1357.94
  0
LINE
  8
0
 10
305.774
 11
305.774
 20
1357.94
 21
1358
  0
LINE
  8
0
 10
305.774
 11
494.226
 20
1358
 21
1358
  0
LINE
  8
0
 10
494.226
 11
494.226
 20
1358
 21
1357.94
  0
LINE
  8
0
 10
494.226
 11
495.272
 20
1357.94
 21
1357.94
  0
LINE
  8
0
 10
495.272
 11
497.317
 20
1357.94
 21
1357.51
  0
LINE
  8
0
 10
497.317
 11
499.226
 20
1357.51
 21
1356.66
  0
LINE
  8
0
 10
499.226
 11
500.918
 20
1356.66
 21
1355.43
  0
LINE
  8
0
 10
500.918
 11
502.317
 20
1355.43
 21
1353.88
  0
LINE
  8
0
 10
502.317
 11
502.823
 20
1353.88
 21
1353
  0
LINE
  8
0
 10
502.823
 11
502.887
 20
1353
 21
1353
  0
LINE
  8
0
 10
502.887
 11
514.434
 20
1353
 21
1333
  0
LINE
  8
0
 10
514.434
 11
514.497
 20
1333
 21
1333
  0
LINE
  8
0
 10
514.497
 11
515.004
 20
1333
 21
1332.12
  0
LINE
  8
0
 10
515.004
 11
516.403
 20
1332.12
 21
1330.57
  0
LINE
  8
0
 10
516.403
 11
518.094
 20
1330.57
 21
1329.34
  0
LINE
  8
0
 10
518.094
 11
520.004
 20
1329.34
 21
1328.49
  0
LINE
  8
0
 10
520.004
 11
522.049
 20
1328.49
 21
1328.06
  0
LINE
  8
0
 10
522.049
 11
523.094
 20
1328.06
 21
1328.06
  0
LINE
  8
0
 10
523.094
 11
523.094
 20
1328.06
 21
1328
  0
LINE
  8
0
 10
523.094
 11
676.906
 20
1328
 21
1328
  0
LINE
  8
0
 10
676.906
 11
676.906
 20
1328
 21
1328.06
  0
LINE
  8
0
 10
676.906
 11
677.951
 20
1328.06
 21
1328.06
  0
LINE
  8
0
 10
677.951
 11
679.996
 20
1328.06
 21
1328.49
  0
LINE
  8
0
 10
679.996
 11
681.906
 20
1328.49
 21
1329.34
  0
LINE
  8
0
 10
681.906
 11
683.597
 20
1329.34
 21
1330.57
  0
LINE
  8
0
 10
683.597
 11
684.996
 20
1330.57
 21
1332.12
  0
LINE
  8
0
 10
684.996
 11
685.503
 20
1332.12
 21
1333
  0
LINE
  8
0
 10
685.503
 11
685.566
 20
1333
 21
1333
  0
LINE
  8
0
 10
685.566
 11
697.113
 20
1333
 21
1353
  0
LINE
  8
0
 10
697.113
 11
697.177
 20
1353
 21
1353
  0
LINE
  8
0
 10
697.177
 11
697.683
 20
1353
 21
1353.88
  0
LINE
  8
0
 10
697.683
 11
699.082
 20
1353.88
 21
1355.43
  0
LINE
  8
0
 10
699.082
 11
700.774
 20
1355.43
 21
1356.66
  0
LINE
  8
0
 10
700.774
 11
702.683
 20
1356.66
 21
1357.51
  0
LINE
  8
0
 10
702.683
 11
704.728
 20
1357.51
 21
1357.94
  0
LINE
  8
0
 10
704.728
 11
705.774
 20
1357.94
 21
1357.94
  0
LINE
  8
0
 10
705.774
 11
705.774
 20
1357.94
 21
1358
  0
LINE
  8
0
 10
705.774
 11
800
 20
1358
 21
1358
  0
LINE
  8
0
 10
800
 11
800
 20
1358
 21
1258
  0
LINE
  8
0
 10
800
 11
0
 20
1258
 21
1258
  0
LINE
  8
0
 10
0.1
 11
0.1
 20
0
 21
100
  0
LINE
  8
0
 10
0.1
 11
10.1
 20
100
 21
100
  0
LINE
  8
0
 10
10.1
 11
10.1
 20
100
 21
0
  0
LINE
  8
0
 10
10.1
 11
0.1
 20
0
 21
0
  0
LINE
  8
0
 10
10
 11
10
 20
1408
 21
1508
  0
LINE
  8
0
 10
10
 11
94.226
 20
1508
 21
1508
  0
LINE
  8
0
 10
94.226
 11
94.226
 20
1508
 21
1507.94
  0
LINE
  8
0
 10
94.226
 11
95.272
 20
1507.94
 21
1507.94
  0
LINE
  8
0
 10
95.272
 11
97.317
 20
1507.94
 21
1507.51
  0
LINE
  8
0
 10
97.317
 11
99.226
 20
1507.51
 21
1506.66
  0
LINE
  8
0
 10
99.226
 11
100.918
 20
1506.66
 21
1505.43
  0
LINE
  8
0
 10
100.918
 11
102.317
 20
1505.43
 21
1503.88
  0
LINE
  8
0
 10
102.317
 11
102.823
 20
1503.88
 21
1503
  0
LINE
  8
0
 10
102.823
 11
102.887
 20
1503
 21
1503
  0
LINE
  8
0
 10
102.887
 11
114.434
 20
1503
 21
1483
  0
LINE
  8
0
 10
114.434
 11
114.497
 20
1483
 21
1483
  0
LINE
  8
0
 10
114.497
 11
115.004
 20
1483
 21
1482.12
  0
LINE
  8
0
 10
115.004
 11
116.403
 20
1482.12
 21
1480.57
  0
LINE
  8
0
 10
116.403
 11
118.094
 20
1480.57
 21
1479.34
  0
LINE
  8
0
 10
118.094
 11
120.004
 20
1479.34
 21
1478.49
  0
LINE
  8
0
 10
120.004
 11
122.049
 20
1478.49
 21
1478.06
  0
LINE
  8
0
 10
122.049
 11
123.094
 20
1478.06
 21
1478.06
  0
LINE
  8
0
 10
123.094
 11
123.094
 20
1478.06
 21
1478
  0
LINE
  8
0
 10
123.094
 11
276.906
 20
1478
 21
1478
  0
LINE
  8
0
 10
276.906
 11
276.906
 20
1478
 21
1478.06
  0
LINE
  8
0
 10
276.906
 11
277.951
 20
1478.06
 21
1478.06
  0
LINE
  8
0
 10
277.951
 11
279.996
 20
1478.06
 21
1478.49
  0
LINE
  8
0
 10
279.996
 11
281.906
 20
1478.49
 21
1479.34
  0
LINE
  8
0
 10
281.906
 11
283.597
 20
1479.34
 21
1480.57
  0
LINE
  8
0
 10
283.597
 11
284.996
 20
1480.57
 21
1482.12
  0
LINE
  8
0
 10
284.996
 11
285.503
 20
1482.12
 21
1483
  0
LINE
  8
0
 10
285.503
 11
285.566
 20
1483
 21
1483
  0
LINE
  8
0
 10
285.566
 11
297.113
 20
1483
 21
1503
  0
LINE
  8
0
 10
297.113
 11
297.177
 20
1503
 21
1503
  0
LINE
  8
0
 10
297.177
 11
297.683
 20
1503
 21
1503.88
  0
LINE
  8
0
 10
297.683
 11
299.082
 20
1503.88
 21
1505.43
  0
LINE
  8
0
 10
299.082
 11
300.774
 20
1505.43
 21
1506.66
  0
LINE
  8
0
 10
300.774
 11
302.683
 20
1506.66
 21
1507.51
  0
LINE
  8
0
 10
302.683
 11
304.728
 20
1507.51
 21
1507.94
  0
LINE
  8
0
 10
304.728
 11
305.774
 20
1507.94
 21
1507.94
  0
LINE
  8
0
 10
305.774
 11
305.774
 20
1507.94
 21
1508
  0
LINE
  8
0
 10
305.774
 11
494.226
 20
1508
 21
1508
  0
LINE
  8
0
 10
494.226
 11
494.226
 20
1508
 21
1507.94
  0
LINE
  8
0
 10
494.226
 11
495.272
 20
1507.94
 21
1507.94
  0
LINE
  8
0
 10
495.272
 11
497.317
 20
1507.94
 21
1507.51
  0
LINE
  8
0
 10
497.317
 11
499.226
 20
1507.51
 21
1506.66
  0
LINE
  8
0
 10
499.226
 11
500.918
 20
1506.66
 21
1505.43
  0
LINE
  8
0
 10
500.918
 11
502.317
 20
1505.43
 21
1503.88
  0
LINE
  8
0
 10
502.317
 11
502.823
 20
1503.88
 21
1503
  0
LINE
  8
0
 10
502.823
 11
502.887
 20
1503
 21
1503
  0
LINE
  8
0
 10
502.887
 11
514.434
 20
1503
 21
1483
  0
LINE
  8
0
 10
514.434
 11
514.497
 20
1483
 21
1483
  0
LINE
  8
0
 10
514.497
 11
515.004
 20
1483
 21
1482.12
  0
LINE
  8
0
 10
515.004
 11
516.403
 20
1482.12
 21
1480.57
  0
LINE
  8
0
 10
516.403
 11
518.094
 20
1480.57
 21
1479.34
  0
LINE
  8
0
 10
518.094
 11
520.004
 20
1479.34
 21
1478.49
  0
LINE
  8
0
 10
520.004
 11
522.049
 20
1478.49
 21
1478.06
  0
LINE
  8
0
 10
522.049
 11
523.094
 20
1478.06
 21
1478.06
  0
LINE
  8
0
 10
523.094
 11
523.094
 20
1478.06
 21
1478
  0
LINE
  8
0
 10
523.094
 11
676.906
 20
1478
 21
1478
  0
LINE
  8
0
 10
676.906
 11
676.906
 20
1478
 21
1478.06
  0
LINE
  8
0
 10
676.906
 11
677.951
 20
1478.06
 21
1478.06
  0
LINE
  8
0
 10
677.951
 11
679.996
 20
1478.06
 21
1478.49
  0
LINE
  8
0
 10
679.996
 11
681.906
 20
1478.49
 21
1479.34
  0
LINE
  8
0
 10
681.906
 11
683.597
 20
1479.34
 21
1480.57
  0
LINE
  8
0
 10
683.597
 11
684.996
 20
1480.57
 21
1482.12
  0
LINE
  8
0
 10
684.996
 11
685.503
 20
1482.12
 21
1483
  0
LINE
  8
0
 10
685.503
 11
685.566
 20
1483
 21
1483
  0
LINE
  8
0
 10
685.566
 11
697.113
 20
1483
 21
1503
  0
LINE
  8
0
 10
697.113
 11
697.177
 20
1503
 21
1503
  0
LINE
  8
0
 10
697.177
 11
697.683
 20
1503
 21
1503.88
  0
LINE
  8
0
 10
697.683
 11
699.082
 20
1503.88
 21
1505.43
  0
LINE
  8
0
 10
699.082
 11
700.774
 20
1505.43
 21
1506.66
  0
LINE
  8
0
 10
700.774
 11
702.683
 20
1506.66
 21
1507.51
  0
LINE
  8
0
 10
702.683
 11
704.728
 20
1507.51
 21
1507.94
  0
LINE
  8
0
 10
704.728
 11
705.774
 20
1507.94
 21
1507.94
  0
LINE
  8
0
 10
705.774
 11
705.774
 20
1507.94
 21
1508
  0
LINE
  8
0
 10
705.774
 11
790
 20
1508
 21
1508
  0
LINE
  8
0
 10
790
 11
790
 20
1508
 21
1408
  0
LINE
  8
0
 10
790
 11
690
 20
1408
 21
1408
  0
LINE
  8
0
 10
690
 11
690
 20
1408
 21
1413
  0
LINE
  8
0
 10
690
 11
670
 20
1413
 21
1413
  0
LINE
  8
0
 10
670
 11
670
 20
1413
 21
1408
  0
LINE
  8
0
 10
670
 11
480
 20
1408
 21
1408
  0
LINE
  8
0
 10
480
 11
480
 20
1408
 21
1413
  0
LINE
  8
0
 10
480
 11
460
 20
1413
 21
1413
  0
LINE
  8
0
 10
460
 11
460
 20
1413
 21
1408
  0
LINE
  8
0
 10
460
 11
340
 20
1408
 21
1408
  0
LINE
  8
0
 10
340
 11
340
 20
1408
 21
1413
  0
LINE
  8
0
 10
340
 11
320
 20
1413
 21
1413
  0
LINE
  8
0
 10
320
 11
320
 20
1413
 21
1408
  0
LINE
  8
0
 10
320
 11
130
 20
1408
 21
1408
  0
LINE
  8
0
 10
130
 11
130
 20
1408
 21
1413
  0
LINE
  8
0
 10
130
 11
110
 20
1413
 21
1413
  0
LINE
  8
0
 10
110
 11
110
 20
1413
 21
1408
  0
LINE
  8
0
 10
110
 11
10
 20
1408
 21
1408
  0
LINE
  8
0
 10
10
 11
10
 20
1598
 21
1658
  0
LINE
  8
0
 10
10
 11
94.226
 20
1658
 21
1658
  0
LINE
  8
0
 10
94.226
 11
94.226
 20
1658
 21
1657.94
  0
LINE
  8
0
 10
94.226
 11
95.272
 20
1657.94
 21
1657.94
  0
LINE
  8
0
 10
95.272
 11
97.317
 20
1657.94
 21
1657.51
  0
LINE
  8
0
 10
97.317
 11
99.226
 20
1657.51
 21
1656.66
  0
LINE
  8
0
 10
99.226
 11
100.918
 20
1656.66
 21
1655.43
  0
LINE
  8
0
 10
100.918
 11
102.317
 20
1655.43
 21
1653.88
  0
LINE
  8
0
 10
102.317
 11
102.823
 20
1653.88
 21
1653
  0
LINE
  8
0
 10
102.823
 11
102.887
 20
1653
 21
1653
  0
LINE
  8
0
 10
102.887
 11
114.434
 20
1653
 21
1633
  0
LINE
  8
0
 10
114.434
 11
114.497
 20
1633
 21
1633
  0
LINE
  8
0
 10
114.497
 11
115.004
 20
1633
 21
1632.12
  0
LINE
  8
0
 10
115.004
 11
116.403
 20
1632.12
 21
1630.57
  0
LINE
  8
0
 10
116.403
 11
118.094
 20
1630.57
 21
1629.34
  0
LINE
  8
0
 10
118.094
 11
120.004
 20
1629.34
 21
1628.49
  0
LINE
  8
0
 10
120.004
 11
122.049
 20
1628.49
 21
1628.06
  0
LINE
  8
0
 10
122.049
 11
123.094
 20
1628.06
 21
1628.06
  0
LINE
  8
0
 10
123.094
 11
123.094
 20
1628.06
 21
1628
  0
LINE
  8
0
 10
123.094
 11
276.906
 20
1628
 21
1628
  0
LINE
  8
0
 10
276.906
 11
276.906
 20
1628
 21
1628.06
  0
LINE
  8
0
 10
276.906
 11
277.951
 20
1628.06
 21
1628.06
  0
LINE
  8
0
 10
277.951
 11
279.996
 20
1628.06
 21
1628.49
  0
LINE
  8
0
 10
279.996
 11
281.906
 20
1628.49
 21
1629.34
  0
LINE
  8
0
 10
281.906
 11
283.597
 20
1629.34
 21
1630.57
  0
LINE
  8
0
 10
283.597
 11
284.996
 20
1630.57
 21
1632.12
  0
LINE
  8
0
 10
284.996
 11
285.503
 20
1632.12
 21
1633
  0
LINE
  8
0
 10
285.503
 11
285.566
 20
1633
 21
1633
  0
LINE
  8
0
 10
285.566
 11
297.113
 20
1633
 21
1653
  0
LINE
  8
0
 10
297.113
 11
297.177
 20
1653
 21
1653
  0
LINE
  8
0
 10
297.177
 11
297.683
 20
1653
 21
1653.88
  0
LINE
  8
0
 10
297.683
 11
299.082
 20
1653.88
 21
1655.43
  0
LINE
  8
0
 10
299.082
 11
300.774
 20
1655.43
 21
1656.66
  0
LINE
  8
0
 10
300.774
 11
302.683
 20
1656.66
 21
1657.51
  0
LINE
  8
0
 10
302.683
 11
304.728
 20
1657.51
 21
1657.94
  0
LINE
  8
0
 10
304.728
 11
305.774
 20
1657.94
 21
1657.94
  0
LINE
  8
0
 10
305.774
 11
305.774
 20
1657.94
 21
1658
  0
LINE
  8
0
 10
305.774
 11
494.226
 20
1658
 21
1658
  0
LINE
  8
0
 10
494.226
 11
494.226
 20
1658
 21
1657.94
  0
LINE
  8
0
 10
494.226
 11
495.272
 20
1657.94
 21
1657.94
  0
LINE
  8
0
 10
495.272
 11
497.317
 20
1657.94
 21
1657.51
  0
LINE
  8
0
 10
497.317
 11
499.226
 20
1657.51
 21
1656.66
  0
LINE
  8
0
 10
499.226
 11
500.918
 20
1656.66
 21
1655.43
  0
LINE
  8
0
 10
500.918
 11
502.317
 20
1655.43
 21
1653.88
  0
LINE
  8
0
 10
502.317
 11
502.823
 20
1653.88
 21
1653
  0
LINE
  8
0
 10
502.823
 11
502.887
 20
1653
 21
1653
  0
LINE
  8
0
 10
502.887
 11
514.434
 20
1653
 21
1633
  0
LINE
  8
0
 10
514.434
 11
514.497
 20
1633
 21
1633
  0
LINE
  8
0
 10
514.497
 11
515.004
 20
1633
 21
1632.12
  0
LINE
  8
0
 10
515.004
 11
516.403
 20
1632.12
 21
1630.57
  0
LINE
  8
0
 10
516.403
 11
518.094
 20
1630.57
 21
1629.34
  0
LINE
  8
0
 10
518.094
 11
520.004
 20
1629.34
 21
1628.49
  0
LINE
  8
0
 10
520.004
 11
522.049
 20
1628.49
 21
1628.06
  0
LINE
  8
0
 10
522.049
 11
523.094
 20
1628.06
 21
1628.06
  0
LINE
  8
0
 10
523.094
 11
523.094
 20
1628.06
 21
1628
  0
LINE
  8
0
 10
523.094
 11
676.906
 20
1628
 21
1628
  0
LINE
  8
0
 10
676.906
 11
676.906
 20
1628
 21
1628.06
  0
LINE
  8
0
 10
676.906
 11
677.951
 20
1628.06
 21
1628.06
  0
LINE
  8
0
 10
677.951
 11
679.996
 20
1628.06
 21
1628.49
  0
LINE
  8
0
 10
679.996
 11
681.906
 20
1628.49
 21
1629.34
  0
LINE
  8
0
 10
681.906
 11
683.597
 20
1629.34
 21
1630.57
  0
LINE
  8
0
 10
683.597
 11
684.996
 20
1630.57
 21
1632.12
  0
LINE
  8
0
 10
684.996
 11
685.503
 20
1632.12
 21
1633
  0
LINE
  8
0
 10
685.503
 11
685.566
 20
1633
 21
1633
  0
LINE
  8
0
 10
685.566
 11
697.113
 20
1633
 21
1653
  0
LINE
  8
0
 10
697.113
 11
697.177
 20
1653
 21
1653
  0
LINE
  8
0
 10
697.177
 11
697.683
 20
1653
 21
1653.88
  0
LINE
  8
0
 10
697.683
 11
699.082
 20
1653.88
 21
1655.43
  0
LINE
  8
0
 10
699.082
 11
700.774
 20
1655.43
 21
1656.66
  0
LINE
  8
0
 10
700.774
 11
702.683
 20
1656.66
 21
1657.51
  0
LINE
  8
0
 10
702.683
 11
704.728
 20
1657.51
 21
1657.94
  0
LINE
  8
0
 10
704.728
 11
705.774
 20
1657.94
 21
1657.94
  0
LINE
  8
0
 10
705.774
 11
705.774
 20
1657.94
 21
1658
  0
LINE
  8
0
 10
705.774
 11
790
 20
1658
 21
1658
  0
LINE
  8
0
 10
790
 11
790
 20
1658
 21
1598
  0
LINE
  8
0
 10
790
 11
700
 20
1598
 21
1598
  0
LINE
  8
0
 10
700
 11
700
 20
1598
 21
1558
  0
LINE
  8
0
 10
700
 11
690
 20
1558
 21
1558
  0
LINE
  8
0
 10
690
 11
690
 20
1558
 21
1563
  0
LINE
  8
0
 10
690
 11
670
 20
1563
 21
1563
  0
LINE
  8
0
 10
670
 11
670
 20
1563
 21
1558
  0
LINE
  8
0
 10
670
 11
480
 20
1558
 21
1558
  0
LINE
  8
0
 10
480
 11
480
 20
1558
 21
1563
  0
LINE
  8
0
 10
480
 11
460
 20
1563
 21
1563
  0
LINE
  8
0
 10
460
 11
460
 20
1563
 21
1558
  0
LINE
  8
0
 10
460
 11
450
 20
1558
 21
1558
  0
LINE
  8
0
 10
450
 11
450
 20
1558
 21
1598
  0
LINE
  8
0
 10
450
 11
350
 20
1598
 21
1598
  0
LINE
  8
0
 10
350
 11
350
 20
1598
 21
1558
  0
LINE
  8
0
 10
350
 11
340
 20
1558
 21
1558
  0
LINE
  8
0
 10
340
 11
340
 20
1558
 21
1563
  0
LINE
  8
0
 10
340
 11
320
 20
1563
 21
1563
  0
LINE
  8
0
 10
320
 11
320
 20
1563
 21
1558
  0
LINE
  8
0
 10
320
 11
130
 20
1558
 21
1558
  0
LINE
  8
0
 10
130
 11
130
 20
1558
 21
1563
  0
LINE
  8
0
 10
130
 11
110
 20
1563
 21
1563
  0
LINE
  8
0
 10
110
 11
110
 20
1563
 21
1558
  0
LINE
  8
0
 10
110
 11
100
 20
1558
 21
1558
  0
LINE
  8
0
 10
100
 11
100
 20
1558
 21
1598
  0
LINE
  8
0
 10
100
 11
10
 20
1598
 21
1598
  0
LINE
  8
0
 10
28
 11
28
 20
1748
 21
1808
  0
LINE
  8
0
 10
28
 11
94.226
 20
1808
 21
1808
  0
LINE
  8
0
 10
94.226
 11
94.226
 20
1808
 21
1807.94
  0
LINE
  8
0
 10
94.226
 11
95.272
 20
1807.94
 21
1807.94
  0
LINE
  8
0
 10
95.272
 11
97.317
 20
1807.94
 21
1807.51
  0
LINE
  8
0
 10
97.317
 11
99.226
 20
1807.51
 21
1806.66
  0
LINE
  8
0
 10
99.226
 11
100.918
 20
1806.66
 21
1805.43
  0
LINE
  8
0
 10
100.918
 11
102.317
 20
1805.43
 21
1803.88
  0
LINE
  8
0
 10
102.317
 11
102.823
 20
1803.88
 21
1803
  0
LINE
  8
0
 10
102.823
 11
102.887
 20
1803
 21
1803
  0
LINE
  8
0
 10
102.887
 11
114.434
 20
1803
 21
1783
  0
LINE
  8
0
 10
114.434
 11
114.497
 20
1783
 21
1783
  0
LINE
  8
0
 10
114.497
 11
115.004
 20
1783
 21
1782.12
  0
LINE
  8
0
 10
115.004
 11
116.403
 20
1782.12
 21
1780.57
  0
LINE
  8
0
 10
116.403
 11
118.094
 20
1780.57
 21
1779.34
  0
LINE
  8
0
 10
118.094
 11
120.004
 20
1779.34
 21
1778.49
  0
LINE
  8
0
 10
120.004
 11
122.049
 20
1778.49
 21
1778.06
  0
LINE
  8
0
 10
122.049
 11
123.094
 20
1778.06
 21
1778.06
  0
LINE
  8
0
 10
123.094
 11
123.094
 20
1778.06
 21
1778
  0
LINE
  8
0
 10
123.094
 11
276.906
 20
1778
 21
1778
  0
LINE
  8
0
 10
276.906
 11
276.906
 20
1778
 21
1778.06
  0
LINE
  8
0
 10
276.906
 11
277.951
 20
1778.06
 21
1778.06
  0
LINE
  8
0
 10
277.951
 11
279.996
 20
1778.06
 21
1778.49
  0
LINE
  8
0
 10
279.996
 11
281.906
 20
1778.49
 21
1779.34
  0
LINE
  8
0
 10
281.906
 11
283.597
 20
1779.34
 21
1780.57
  0
LINE
  8
0
 10
283.597
 11
284.996
 20
1780.57
 21
1782.12
  0
LINE
  8
0
 10
284.996
 11
285.503
 20
1782.12
 21
1783
  0
LINE
  8
0
 10
285.503
 11
285.566
 20
1783
 21
1783
  0
LINE
  8
0
 10
285.566
 11
297.113
 20
1783
 21
1803
  0
LINE
  8
0
 10
297.113
 11
297.177
 20
1803
 21
1803
  0
LINE
  8
0
 10
297.177
 11
297.683
 20
1803
 21
1803.88
  0
LINE
  8
0
 10
297.683
 11
299.082
 20
1803.88
 21
1805.43
  0
LINE
  8
0
 10
299.082
 11
300.774
 20
1805.43
 21
1806.66
  0
LINE
  8
0
 10
300.774
 11
302.683
 20
1806.66
 21
1807.51
  0
LINE
  8
0
 10
302.683
 11
304.728
 20
1807.51
 21
1807.94
  0
LINE
  8
0
 10
304.728
 11
305.774
 20
1807.94
 21
1807.94
  0
LINE
  8
0
 10
305.774
 11
305.774
 20
1807.94
 21
1808
  0
LINE
  8
0
 10
305.774
 11
494.226
 20
1808
 21
1808
  0
LINE
  8
0
 10
494.226
 11
494.226
 20
1808
 21
1807.94
  0
LINE
  8
0
 10
494.226
 11
495.272
 20
1807.94
 21
1807.94
  0
LINE
  8
0
 10
495.272
 11
497.317
 20
1807.94
 21
1807.51
  0
LINE
  8
0
 10
497.317
 11
499.226
 20
1807.51
 21
1806.66
  0
LINE
  8
0
 10
499.226
 11
500.918
 20
1806.66
 21
1805.43
  0
LINE
  8
0
 10
500.918
 11
502.317
 20
1805.43
 21
1803.88
  0
LINE
  8
0
 10
502.317
 11
502.823
 20
1803.88
 21
1803
  0
LINE
  8
0
 10
502.823
 11
502.887
 20
1803
 21
1803
  0
LINE
  8
0
 10
502.887
 11
514.434
 20
1803
 21
1783
  0
LINE
  8
0
 10
514.434
 11
514.497
 20
1783
 21
1783
  0
LINE
  8
0
 10
514.497
 11
515.004
 20
1783
 21
1782.12
  0
LINE
  8
0
 10
515.004
 11
516.403
 20
1782.12
 21
1780.57
  0
LINE
  8
0
 10
516.403
 11
518.094
 20
1780.57
 21
1779.34
  0
LINE
  8
0
 10
518.094
 11
520.004
 20
1779.34
 21
1778.49
  0
LINE
  8
0
 10
520.004
 11
522.049
 20
1778.49
 21
1778.06
  0
LINE
  8
0
 10
522.049
 11
523.094
 20
1778.06
 21
1778.06
  0
LINE
  8
0
 10
523.094
 11
523.094
 20
1778.06
 21
1778
  0
LINE
  8
0
 10
523.094
 11
676.906
 20
1778
 21
1778
  0
LINE
  8
0
 10
676.906
 11
676.906
 20
1778
 21
1778.06
  0
LINE
  8
0
 10
676.906
 11
677.951
 20
1778.06
 21
1778.06
  0
LINE
  8
0
 10
677.951
 11
679.996
 20
1778.06
 21
1778.49
  0
LINE
  8
0
 10
679.996
 11
681.906
 20
1778.49
 21
1779.34
  0
LINE
  8
0
 10
681.906
 11
683.597
 20
1779.34
 21
1780.57
  0
LINE
  8
0
 10
683.597
 11
684.996
 20
1780.57
 21
1782.12
  0
LINE
  8
0
 10
684.996
 11
685.503
 20
1782.12
 21
1783
  0
LINE
  8
0
 10
685.503
 11
685.566
 20
1783
 21
1783
  0
LINE
  8
0
 10
685.566
 11
697.113
 20
1783
 21
1803
  0
LINE
  8
0
 10
697.113
 11
697.177
 20
1803
 21
1803
  0
LINE
  8
0
 10
697.177
 11
697.683
 20
1803
 21
1803.88
  0
LINE
  8
0
 10
697.683
 11
699.082
 20
1803.88
 21
1805.43
  0
LINE
  8
0
 10
699.082
 11
700.774
 20
1805.43
 21
1806.66
  0
LINE
  8
0
 10
700.774
 11
702.683
 20
1806.66
 21
1807.51
  0
LINE
  8
0
 10
702.683
 11
704.728
 20
1807.51
 21
1807.94
  0
LINE
  8
0
 10
704.728
 11
705.774
 20
1807.94
 21
1807.94
  0
LINE
  8
0
 10
705.774
 11
705.774
 20
1807.94
 21
1808
  0
LINE
  8
0
 10
705.774
 11
772
 20
1808
 21
1808
  0
LINE
  8
0
 10
772
 11
772
 20
1808
 21
1748
  0
LINE
  8
0
 10
772
 11
700
 20
1748
 21
1748
  0
LINE
  8
0
 10
700
 11
700
 20
1748
 21
1708
  0
LINE
  8
0
 10
700
 11
690
 20
1708
 21
1708
  0
LINE
  8
0
 10
690
 11
690
 20
1708
 21
1713
  0
LINE
  8
0
 10
690
 11
670
 20
1713
 21
1713
  0
LINE
  8
0
 10
670
 11
670
 20
1713
 21
1708
  0
LINE
  8
0
 10
670
 11
480
 20
1708
 21
1708
  0
LINE
  8
0
 10
480
 11
480
 20
1708
 21
1713
  0
LINE
  8
0
 10
480
 11
460
 20
1713
 21
1713
  0
LINE
  8
0
 10
460
 11
460
 20
1713
 21
1708
  0
LINE
  8
0
 10
460
 11
450
 20
1708
 21
1708
  0
LINE
  8
0
 10
450
 11
450
 20
1708
 21
1748
  0
LINE
  8
0
 10
450
 11
350
 20
1748
 21
1748
  0
LINE
  8
0
 10
350
 11
350
 20
1748
 21
1708
  0
LINE
  8
0
 10
350
 11
340
 20
1708
 21
1708
  0
LINE
  8
0
 10
340
 11
340
 20
1708
 21
1713
  0
LINE
  8
0
 10
340
 11
320
 20
1713
 21
1713
  0
LINE
  8
0
 10
320
 11
320
 20
1713
 21
1708
  0
LINE
  8
0
 10
320
 11
130
 20
1708
 21
1708
  0
LINE
  8
0
 10
130
 11
130
 20
1708
 21
1713
  0
LINE
  8
0
 10
130
 11
110
 20
1713
 21
1713
  0
LINE
  8
0
 10
110
 11
110
 20
1713
 21
1708
  0
LINE
  8
0
 10
110
 11
100
 20
1708
 21
1708
  0
LINE
  8
0
 10
100
 11
100
 20
1708
 21
1748
  0
LINE
  8
0
 10
100
 11
28
 20
1748
 21
1748
  0
LINE
  8
0
 10
28
 11
28
 20
1914
 21
1958
  0
LINE
  8
0
 10
28
 11
94.226
 20
1958
 21
1958
  0
LINE
  8
0
 10
94.226
 11
94.226
 20
1958
 21
1957.94
  0
LINE
  8
0
 10
94.226
 11
95.272
 20
1957.94
 21
1957.94
  0
LINE
  8
0
 10
95.272
 11
97.317
 20
1957.94
 21
1957.51
  0
LINE
  8
0
 10
97.317
 11
99.226
 20
1957.51
 21
1956.66
  0
LINE
  8
0
 10
99.226
 11
100.918
 20
1956.66
 21
1955.43
  0
LINE
  8
0
 10
100.918
 11
102.317
 20
1955.43
 21
1953.88
  0
LINE
  8
0
 10
102.317
 11
102.823
 20
1953.88
 21
1953
  0
LINE
  8
0
 10
102.823
 11
102.887
 20
1953
 21
1953
  0
LINE
  8
0
 10
102.887
 11
114.434
 20
1953
 21
1933
  0
LINE
  8
0
 10
114.434
 11
114.497
 20
1933
 21
1933
  0
LINE
  8
0
 10
114.497
 11
115.004
 20
1933
 21
1932.12
  0
LINE
  8
0
 10
115.004
 11
116.403
 20
1932.12
 21
1930.57
  0
LINE
  8
0
 10
116.403
 11
118.094
 20
1930.57
 21
1929.34
  0
LINE
  8
0
 10
118.094
 11
120.004
 20
1929.34
 21
1928.49
  0
LINE
  8
0
 10
120.004
 11
122.049
 20
1928.49
 21
1928.06
  0
LINE
  8
0
 10
122.049
 11
123.094
 20
1928.06
 21
1928.06
  0
LINE
  8
0
 10
123.094
 11
123.094
 20
1928.06
 21
1928
  0
LINE
  8
0
 10
123.094
 11
276.906
 20
1928
 21
1928
  0
LINE
  8
0
 10
276.906
 11
276.906
 20
1928
 21
1928.06
  0
LINE
  8
0
 10
276.906
 11
277.951
 20
1928.06
 21
1928.06
  0
LINE
  8
0
 10
277.951
 11
279.996
 20
1928.06
 21
1928.49
  0
LINE
  8
0
 10
279.996
 11
281.906
 20
1928.49
 21
1929.34
  0
LINE
  8
0
 10
281.906
 11
283.597
 20
1929.34
 21
1930.57
  0
LINE
  8
0
 10
283.597
 11
284.996
 20
1930.57
 21
1932.12
  0
LINE
  8
0
 10
284.996
 11
285.503
 20
1932.12
 21
1933
  0
LINE
  8
0
 10
285.503
 11
285.566
 20
1933
 21
1933
  0
LINE
  8
0
 10
285.566
 11
297.113
 20
1933
 21
1953
  0
LINE
  8
0
 10
297.113
 11
297.177
 20
1953
 21
1953
  0
LINE
  8
0
 10
297.177
 11
297.683
 20
1953
 21
1953.88
  0
LINE
  8
0
 10
297.683
 11
299.082
 20
1953.88
 21
1955.43
  0
LINE
  8
0
 10
299.082
 11
300.774
 20
1955.43
 21
1956.66
  0
LINE
  8
0
 10
300.774
 11
302.683
 20
1956.66
 21
1957.51
  0
LINE
  8
0
 10
302.683
 11
304.728
 20
1957.51
 21
1957.94
  0
LINE
  8
0
 10
304.728
 11
305.774
 20
1957.94
 21
1957.94
  0
LINE
  8
0
 10
305.774
 11
305.774
 20
1957.94
 21
1958
  0
LINE
  8
0
 10
305.774
 11
386
 20
1958
 21
1958
  0
LINE
  8
0
 10
386
 11
386
 20
1958
 21
1914
  0
LINE
  8
0
 10
386
 11
28
 20
1914
 21
1914
  0
LINE
  8
0
 10
28
 11
28
 20
2064
 21
2108
  0
LINE
  8
0
 10
28
 11
94.226
 20
2108
 21
2108
  0
LINE
  8
0
 10
94.226
 11
94.226
 20
2108
 21
2107.95
  0
LINE
  8
0
 10
94.226
 11
95.272
 20
2107.95
 21
2107.95
  0
LINE
  8
0
 10
95.272
 11
97.317
 20
2107.95
 21
2107.51
  0
LINE
  8
0
 10
97.317
 11
99.226
 20
2107.51
 21
2106.66
  0
LINE
  8
0
 10
99.226
 11
100.918
 20
2106.66
 21
2105.43
  0
LINE
  8
0
 10
100.918
 11
102.317
 20
2105.43
 21
2103.88
  0
LINE
  8
0
 10
102.317
 11
102.823
 20
2103.88
 21
2103
  0
LINE
  8
0
 10
102.823
 11
102.887
 20
2103
 21
2103
  0
LINE
  8
0
 10
102.887
 11
114.434
 20
2103
 21
2083
  0
LINE
  8
0
 10
114.434
 11
114.497
 20
2083
 21
2083
  0
LINE
  8
0
 10
114.497
 11
115.004
 20
2083
 21
2082.12
  0
LINE
  8
0
 10
115.004
 11
116.403
 20
2082.12
 21
2080.57
  0
LINE
  8
0
 10
116.403
 11
118.094
 20
2080.57
 21
2079.34
  0
LINE
  8
0
 10
118.094
 11
120.004
 20
2079.34
 21
2078.49
  0
LINE
  8
0
 10
120.004
 11
122.049
 20
2078.49
 21
2078.05
  0
LINE
  8
0
 10
122.049
 11
123.094
 20
2078.05
 21
2078.05
  0
LINE
  8
0
 10
123.094
 11
123.094
 20
2078.05
 21
2078
  0
LINE
  8
0
 10
123.094
 11
276.906
 20
2078
 21
2078
  0
LINE
  8
0
 10
276.906
 11
276.906
 20
2078
 21
2078.05
  0
LINE
  8
0
 10
276.906
 11
277.951
 20
2078.05
 21
2078.05
  0
LINE
  8
0
 10
277.951
 11
279.996
 20
2078.05
 21
2078.49
  0
LINE
  8
0
 10
279.996
 11
281.906
 20
2078.49
 21
2079.34
  0
LINE
  8
0
 10
281.906
 11
283.597
 20
2079.34
 21
2080.57
  0
LINE
  8
0
 10
283.597
 11
284.996
 20
2080.57
 21
2082.12
  0
LINE
  8
0
 10
284.996
 11
285.503
 20
2082.12
 21
2083
  0
LINE
  8
0
 10
285.503
 11
285.566
 20
2083
 21
2083
  0
LINE
  8
0
 10
285.566
 11
297.113
 20
2083
 21
2103
  0
LINE
  8
0
 10
297.113
 11
297.177
 20
2103
 21
2103
  0
LINE
  8
0
 10
297.177
 11
297.683
 20
2103
 21
2103.88
  0
LINE
  8
0
 10
297.683
 11
299.082
 20
2103.88
 21
2105.43
  0
LINE
  8
0
 10
299.082
 11
300.774
 20
2105.43
 21
2106.66
  0
LINE
  8
0
 10
300.774
 11
302.683
 20
2106.66
 21
2107.51
  0
LINE
  8
0
 10
302.683
 11
304.728
 20
2107.51
 21
2107.95
  0
LINE
  8
0
 10
304.728
 11
305.774
 20
2107.95
 21
2107.95
  0
LINE
  8
0
 10
305.774
 11
305.774
 20
2107.95
 21
2108
  0
LINE
  8
0
 10
305.774
 11
386
 20
2108
 21
2108
  0
LINE
  8
0
 10
386
 11
386
 20
2108
 21
2064
  0
LINE
  8
0
 10
386
 11
28
 20
2064
 21
2064
  0
LINE
  8
0
 10
33.1
 11
33.1
 20
0
 21
100
  0
LINE
  8
0
 10
33.1
 11
61.1
 20
100
 21
100
  0
LINE
  8
0
 10
61.1
 11
61.1
 20
100
 21
56
  0
LINE
  8
0
 10
61.1
 11
56.1
 20
56
 21
56
  0
LINE
  8
0
 10
56.1
 11
56.1
 20
56
 21
40
  0
LINE
  8
0
 10
56.1
 11
47.1
 20
40
 21
40
  0
LINE
  8
0
 10
47.1
 11
47.1
 20
40
 21
0
  0
LINE
  8
0
 10
47.1
 11
33.1
 20
0
 21
0
  0
LINE
  8
0
 10
66.1
 11
66.1
 20
0
 21
100
  0
LINE
  8
0
 10
66.1
 11
94.1
 20
100
 21
100
  0
LINE
  8
0
 10
94.1
 11
94.1
 20
100
 21
56
  0
LINE
  8
0
 10
94.1
 11
89.1
 20
56
 21
56
  0
LINE
  8
0
 10
89.1
 11
89.1
 20
56
 21
40
  0
LINE
  8
0
 10
89.1
 11
80.1
 20
40
 21
40
  0
LINE
  8
0
 10
80.1
 11
80.1
 20
40
 21
0
  0
LINE
  8
0
 10
80.1
 11
66.1
 20
0
 21
0
  0
LINE
  8
0
 10
99.1
 11
99.1
 20
0
 21
98.717
  0
LINE
  8
0
 10
99.1
 11
127.1
 20
98.717
 21
98.717
  0
LINE
  8
0
 10
127.1
 11
127.1
 20
98.717
 21
56
  0
LINE
  8
0
 10
127.1
 11
122.1
 20
56
 21
56
  0
LINE
  8
0
 10
122.1
 11
122.1
 20
56
 21
40
  0
LINE
  8
0
 10
122.1
 11
113.1
 20
40
 21
40
  0
LINE
  8
0
 10
113.1
 11
113.1
 20
40
 21
0
  0
LINE
  8
0
 10
113.1
 11
99.1
 20
0
 21
0
  0
LINE
  8
0
 10
100
 11
100
 20
1858
 21
1886
  0
LINE
  8
0
 10
100
 11
350
 20
1886
 21
1886
  0
LINE
  8
0
 10
350
 11
350
 20
1886
 21
1858
  0
LINE
  8
0
 10
350
 11
340
 20
1858
 21
1858
  0
LINE
  8
0
 10
340
 11
340
 20
1858
 21
1863
  0
LINE
  8
0
 10
340
 11
320
 20
1863
 21
1863
  0
LINE
  8
0
 10
320
 11
320
 20
1863
 21
1858
  0
LINE
  8
0
 10
320
 11
130
 20
1858
 21
1858
  0
LINE
  8
0
 10
130
 11
130
 20
1858
 21
1863
  0
LINE
  8
0
 10
130
 11
110
 20
1863
 21
1863
  0
LINE
  8
0
 10
110
 11
110
 20
1863
 21
1858
  0
LINE
  8
0
 10
110
 11
100
 20
1858
 21
1858
  0
LINE
  8
0
 10
100
 11
100
 20
2008
 21
2036
  0
LINE
  8
0
 10
100
 11
350
 20
2036
 21
2036
  0
LINE
  8
0
 10
350
 11
350
 20
2036
 21
2008
  0
LINE
  8
0
 10
350
 11
340
 20
2008
 21
2008
  0
LINE
  8
0
 10
340
 11
340
 20
2008
 21
2013
  0
LINE
  8
0
 10
340
 11
320
 20
2013
 21
2013
  0
LINE
  8
0
 10
320
 11
320
 20
2013
 21
2008
  0
LINE
  8
0
 10
320
 11
130
 20
2008
 21
2008
  0
LINE
  8
0
 10
130
 11
130
 20
2008
 21
2013
  0
LINE
  8
0
 10
130
 11
110
 20
2013
 21
2013
  0
LINE
  8
0
 10
110
 11
110
 20
2013
 21
2008
  0
LINE
  8
0
 10
110
 11
100
 20
2008
 21
2008
  0
LINE
  8
0
 10
132.1
 11
132.1
 20
0
 21
70
  0
LINE
  8
0
 10
132.1
 11
160.1
 20
70
 21
70
  0
LINE
  8
0
 10
160.1
 11
160.1
 20
70
 21
56
  0
LINE
  8
0
 10
160.1
 11
155.1
 20
56
 21
56
  0
LINE
  8
0
 10
155.1
 11
155.1
 20
56
 21
28
  0
LINE
  8
0
 10
155.1
 11
160.1
 20
28
 21
28
  0
LINE
  8
0
 10
160.1
 11
160.1
 20
28
 21
0
  0
LINE
  8
0
 10
160.1
 11
132.1
 20
0
 21
0
  0
LINE
  8
0
 10
165.1
 11
165.1
 20
0
 21
70
  0
LINE
  8
0
 10
165.1
 11
193.1
 20
70
 21
70
  0
LINE
  8
0
 10
193.1
 11
193.1
 20
70
 21
56
  0
LINE
  8
0
 10
193.1
 11
188.1
 20
56
 21
56
  0
LINE
  8
0
 10
188.1
 11
188.1
 20
56
 21
28
  0
LINE
  8
0
 10
188.1
 11
193.1
 20
28
 21
28
  0
LINE
  8
0
 10
193.1
 11
193.1
 20
28
 21
0
  0
LINE
  8
0
 10
193.1
 11
165.1
 20
0
 21
0
  0
LINE
  8
0
 10
198.1
 11
198.1
 20
0
 21
70
  0
LINE
  8
0
 10
198.1
 11
226.1
 20
70
 21
70
  0
LINE
  8
0
 10
226.1
 11
226.1
 20
70
 21
56
  0
LINE
  8
0
 10
226.1
 11
221.1
 20
56
 21
56
  0
LINE
  8
0
 10
221.1
 11
221.1
 20
56
 21
28
  0
LINE
  8
0
 10
221.1
 11
226.1
 20
28
 21
28
  0
LINE
  8
0
 10
226.1
 11
226.1
 20
28
 21
0
  0
LINE
  8
0
 10
226.1
 11
198.1
 20
0
 21
0
  0
LINE
  8
0
 10
231.1
 11
231.1
 20
0
 21
70
  0
LINE
  8
0
 10
231.1
 11
259.1
 20
70
 21
70
  0
LINE
  8
0
 10
259.1
 11
259.1
 20
70
 21
56
  0
LINE
  8
0
 10
259.1
 11
254.1
 20
56
 21
56
  0
LINE
  8
0
 10
254.1
 11
254.1
 20
56
 21
28
  0
LINE
  8
0
 10
254.1
 11
259.1
 20
28
 21
28
  0
LINE
  8
0
 10
259.1
 11
259.1
 20
28
 21
0
  0
LINE
  8
0
 10
259.1
 11
231.1
 20
0
 21
0
  0
LINE
  8
0
 10
264.1
 11
264.1
 20
0
 21
70
  0
LINE
  8
0
 10
264.1
 11
292.1
 20
70
 21
70
  0
LINE
  8
0
 10
292.1
 11
292.1
 20
70
 21
56
  0
LINE
  8
0
 10
292.1
 11
287.1
 20
56
 21
56
  0
LINE
  8
0
 10
287.1
 11
287.1
 20
56
 21
28
  0
LINE
  8
0
 10
287.1
 11
292.1
 20
28
 21
28
  0
LINE
  8
0
 10
292.1
 11
292.1
 20
28
 21
0
  0
LINE
  8
0
 10
292.1
 11
264.1
 20
0
 21
0
  0
LINE
  8
0
 10
288.453
 11
288.453
 20
802
 21
830
  0
LINE
  8
0
 10
288.453
 11
511.547
 20
830
 21
830
  0
LINE
  8
0
 10
511.547
 11
511.547
 20
830
 21
802
  0
LINE
  8
0
 10
511.547
 11
414
 20
802
 21
802
  0
LINE
  8
0
 10
414
 11
414
 20
802
 21
807
  0
LINE
  8
0
 10
414
 11
386
 20
807
 21
807
  0
LINE
  8
0
 10
386
 11
386
 20
807
 21
802
  0
LINE
  8
0
 10
386
 11
288.453
 20
802
 21
802
  0
LINE
  8
0
 10
294.226
 11
294.226
 20
880
 21
908
  0
LINE
  8
0
 10
294.226
 11
505.774
 20
908
 21
908
  0
LINE
  8
0
 10
505.774
 11
505.774
 20
908
 21
880
  0
LINE
  8
0
 10
505.774
 11
414
 20
880
 21
880
  0
LINE
  8
0
 10
414
 11
414
 20
880
 21
885
  0
LINE
  8
0
 10
414
 11
386
 20
885
 21
885
  0
LINE
  8
0
 10
386
 11
386
 20
885
 21
880
  0
LINE
  8
0
 10
386
 11
294.226
 20
880
 21
880
  0
LINE
  8
0
 10
297.1
 11
297.1
 20
0
 21
94.977
  0
LINE
  8
0
 10
297.1
 11
325.1
 20
94.977
 21
94.977
  0
LINE
  8
0
 10
325.1
 11
325.1
 20
94.977
 21
56
  0
LINE
  8
0
 10
325.1
 11
320.1
 20
56
 21
56
  0
LINE
  8
0
 10
320.1
 11
320.1
 20
56
 21
28
  0
LINE
  8
0
 10
320.1
 11
325.1
 20
28
 21
28
  0
LINE
  8
0
 10
325.1
 11
325.1
 20
28
 21
0
  0
LINE
  8
0
 10
325.1
 11
297.1
 20
0
 21
0
  0
LINE
  8
0
 10
298.694
 11
298.694
 20
958
 21
986
  0
LINE
  8
0
 10
298.694
 11
501.306
 20
986
 21
986
  0
LINE
  8
0
 10
501.306
 11
501.306
 20
986
 21
958
  0
LINE
  8
0
 10
501.306
 11
414
 20
958
 21
958
  0
LINE
  8
0
 10
414
 11
414
 20
958
 21
963
  0
LINE
  8
0
 10
414
 11
386
 20
963
 21
963
  0
LINE
  8
0
 10
386
 11
386
 20
963
 21
958
  0
LINE
  8
0
 10
386
 11
298.694
 20
958
 21
958
  0
LINE
  8
0
 10
330.1
 11
330.1
 20
0
 21
100
  0
LINE
  8
0
 10
330.1
 11
358.1
 20
100
 21
100
  0
LINE
  8
0
 10
358.1
 11
358.1
 20
100
 21
56
  0
LINE
  8
0
 10
358.1
 11
353.1
 20
56
 21
56
  0
LINE
  8
0
 10
353.1
 11
353.1
 20
56
 21
28
  0
LINE
  8
0
 10
353.1
 11
358.1
 20
28
 21
28
  0
LINE
  8
0
 10
358.1
 11
358.1
 20
28
 21
5
  0
LINE
  8
0
 10
358.1
 11
338.1
 20
5
 21
5
  0
LINE
  8
0
 10
338.1
 11
338.1
 20
5
 21
0
  0
LINE
  8
0
 10
338.1
 11
330.1
 20
0
 21
0
  0
LINE
  8
0
 10
363.1
 11
363.1
 20
0
 21
100
  0
LINE
  8
0
 10
363.1
 11
391.1
 20
100
 21
100
  0
LINE
  8
0
 10
391.1
 11
391.1
 20
100
 21
56
  0
LINE
  8
0
 10
391.1
 11
386.1
 20
56
 21
56
  0
LINE
  8
0
 10
386.1
 11
386.1
 20
56
 21
40
  0
LINE
  8
0
 10
386.1
 11
377.1
 20
40
 21
40
  0
LINE
  8
0
 10
377.1
 11
377.1
 20
40
 21
0
  0
LINE
  8
0
 10
377.1
 11
363.1
 20
0
 21
0
  0
LINE
  8
0
 10
396.1
 11
396.1
 20
0
 21
100
  0
LINE
  8
0
 10
396.1
 11
419.1
 20
100
 21
100
  0
LINE
  8
0
 10
419.1
 11
419.1
 20
100
 21
40
  0
LINE
  8
0
 10
419.1
 11
410.1
 20
40
 21
40
  0
LINE
  8
0
 10
410.1
 11
410.1
 20
40
 21
0
  0
LINE
  8
0
 10
410.1
 11
396.1
 20
0
 21
0
  0
LINE
  8
0
 10
414
 11
414
 20
1914
 21
1958
  0
LINE
  8
0
 10
414
 11
494.226
 20
1958
 21
1958
  0
LINE
  8
0
 10
494.226
 11
494.226
 20
1958
 21
1957.94
  0
LINE
  8
0
 10
494.226
 11
495.272
 20
1957.94
 21
1957.94
  0
LINE
  8
0
 10
495.272
 11
497.317
 20
1957.94
 21
1957.51
  0
LINE
  8
0
 10
497.317
 11
499.226
 20
1957.51
 21
1956.66
  0
LINE
  8
0
 10
499.226
 11
500.918
 20
1956.66
 21
1955.43
  0
LINE
  8
0
 10
500.918
 11
502.317
 20
1955.43
 21
1953.88
  0
LINE
  8
0
 10
502.317
 11
502.823
 20
1953.88
 21
1953
  0
LINE
  8
0
 10
502.823
 11
502.887
 20
1953
 21
1953
  0
LINE
  8
0
 10
502.887
 11
514.434
 20
1953
 21
1933
  0
LINE
  8
0
 10
514.434
 11
514.497
 20
1933
 21
1933
  0
LINE
  8
0
 10
514.497
 11
515.004
 20
1933
 21
1932.12
  0
LINE
  8
0
 10
515.004
 11
516.403
 20
1932.12
 21
1930.57
  0
LINE
  8
0
 10
516.403
 11
518.094
 20
1930.57
 21
1929.34
  0
LINE
  8
0
 10
518.094
 11
520.004
 20
1929.34
 21
1928.49
  0
LINE
  8
0
 10
520.004
 11
522.049
 20
1928.49
 21
1928.06
  0
LINE
  8
0
 10
522.049
 11
523.094
 20
1928.06
 21
1928.06
  0
LINE
  8
0
 10
523.094
 11
523.094
 20
1928.06
 21
1928
  0
LINE
  8
0
 10
523.094
 11
676.906
 20
1928
 21
1928
  0
LINE
  8
0
 10
676.906
 11
676.906
 20
1928
 21
1928.06
  0
LINE
  8
0
 10
676.906
 11
677.951
 20
1928.06
 21
1928.06
  0
LINE
  8
0
 10
677.951
 11
679.996
 20
1928.06
 21
1928.49
  0
LINE
  8
0
 10
679.996
 11
681.906
 20
1928.49
 21
1929.34
  0
LINE
  8
0
 10
681.906
 11
683.597
 20
1929.34
 21
1930.57
  0
LINE
  8
0
 10
683.597
 11
684.996
 20
1930.57
 21
1932.12
  0
LINE
  8
0
 10
684.996
 11
685.503
 20
1932.12
 21
1933
  0
LINE
  8
0
 10
685.503
 11
685.566
 20
1933
 21
1933
  0
LINE
  8
0
 10
685.566
 11
697.113
 20
1933
 21
1953
  0
LINE
  8
0
 10
697.113
 11
697.177
 20
1953
 21
1953
  0
LINE
  8
0
 10
697.177
 11
697.683
 20
1953
 21
1953.88
  0
LINE
  8
0
 10
697.683
 11
699.082
 20
1953.88
 21
1955.43
  0
LINE
  8
0
 10
699.082
 11
700.774
 20
1955.43
 21
1956.66
  0
LINE
  8
0
 10
700.774
 11
702.683
 20
1956.66
 21
1957.51
  0
LINE
  8
0
 10
702.683
 11
704.728
 20
1957.51
 21
1957.94
  0
LINE
  8
0
 10
704.728
 11
705.774
 20
1957.94
 21
1957.94
  0
LINE
  8
0
 10
705.774
 11
705.774
 20
1957.94
 21
1958
  0
LINE
  8
0
 10
705.774
 11
772
 20
1958
 21
1958
  0
LINE
  8
0
 10
772
 11
772
 20
1958
 21
1914
  0
LINE
  8
0
 10
772
 11
414
 20
1914
 21
1914
  0
LINE
  8
0
 10
414
 11
414
 20
2064
 21
2108
  0
LINE
  8
0
 10
414
 11
494.226
 20
2108
 21
2108
  0
LINE
  8
0
 10
494.226
 11
494.226
 20
2108
 21
2107.95
  0
LINE
  8
0
 10
494.226
 11
495.272
 20
2107.95
 21
2107.95
  0
LINE
  8
0
 10
495.272
 11
497.317
 20
2107.95
 21
2107.51
  0
LINE
  8
0
 10
497.317
 11
499.226
 20
2107.51
 21
2106.66
  0
LINE
  8
0
 10
499.226
 11
500.918
 20
2106.66
 21
2105.43
  0
LINE
  8
0
 10
500.918
 11
502.317
 20
2105.43
 21
2103.88
  0
LINE
  8
0
 10
502.317
 11
502.823
 20
2103.88
 21
2103
  0
LINE
  8
0
 10
502.823
 11
502.887
 20
2103
 21
2103
  0
LINE
  8
0
 10
502.887
 11
514.434
 20
2103
 21
2083
  0
LINE
  8
0
 10
514.434
 11
514.497
 20
2083
 21
2083
  0
LINE
  8
0
 10
514.497
 11
515.004
 20
2083
 21
2082.12
  0
LINE
  8
0
 10
515.004
 11
516.403
 20
2082.12
 21
2080.57
  0
LINE
  8
0
 10
516.403
 11
518.094
 20
2080.57
 21
2079.34
  0
LINE
  8
0
 10
518.094
 11
520.004
 20
2079.34
 21
2078.49
  0
LINE
  8
0
 10
520.004
 11
522.049
 20
2078.49
 21
2078.05
  0
LINE
  8
0
 10
522.049
 11
523.094
 20
2078.05
 21
2078.05
  0
LINE
  8
0
 10
523.094
 11
523.094
 20
2078.05
 21
2078
  0
LINE
  8
0
 10
523.094
 11
676.906
 20
2078
 21
2078
  0
LINE
  8
0
 10
676.906
 11
676.906
 20
2078
 21
2078.05
  0
LINE
  8
0
 10
676.906
 11
677.951
 20
2078.05
 21
2078.05
  0
LINE
  8
0
 10
677.951
 11
679.996
 20
2078.05
 21
2078.49
  0
LINE
  8
0
 10
679.996
 11
681.906
 20
2078.49
 21
2079.34
  0
LINE
  8
0
 10
681.906
 11
683.597
 20
2079.34
 21
2080.57
  0
LINE
  8
0
 10
683.597
 11
684.996
 20
2080.57
 21
2082.12
  0
LINE
  8
0
 10
684.996
 11
685.503
 20
2082.12
 21
2083
  0
LINE
  8
0
 10
685.503
 11
685.566
 20
2083
 21
2083
  0
LINE
  8
0
 10
685.566
 11
697.113
 20
2083
 21
2103
  0
LINE
  8
0
 10
697.113
 11
697.177
 20
2103
 21
2103
  0
LINE
  8
0
 10
697.177
 11
697.683
 20
2103
 21
2103.88
  0
LINE
  8
0
 10
697.683
 11
699.082
 20
2103.88
 21
2105.43
  0
LINE
  8
0
 10
699.082
 11
700.774
 20
2105.43
 21
2106.66
  0
LINE
  8
0
 10
700.774
 11
702.683
 20
2106.66
 21
2107.51
  0
LINE
  8
0
 10
702.683
 11
704.728
 20
2107.51
 21
2107.95
  0
LINE
  8
0
 10
704.728
 11
705.774
 20
2107.95
 21
2107.95
  0
LINE
  8
0
 10
705.774
 11
705.774
 20
2107.95
 21
2108
  0
LINE
  8
0
 10
705.774
 11
772
 20
2108
 21
2108
  0
LINE
  8
0
 10
772
 11
772
 20
2108
 21
2064
  0
LINE
  8
0
 10
772
 11
414
 20
2064
 21
2064
  0
LINE
  8
0
 10
429.1
 11
429.1
 20
0
 21
100
  0
LINE
  8
0
 10
429.1
 11
457.1
 20
100
 21
100
  0
LINE
  8
0
 10
457.1
 11
457.1
 20
100
 21
56
  0
LINE
  8
0
 10
457.1
 11
452.1
 20
56
 21
56
  0
LINE
  8
0
 10
452.1
 11
452.1
 20
56
 21
40
  0
LINE
  8
0
 10
452.1
 11
443.1
 20
40
 21
40
  0
LINE
  8
0
 10
443.1
 11
443.1
 20
40
 21
0
  0
LINE
  8
0
 10
443.1
 11
429.1
 20
0
 21
0
  0
LINE
  8
0
 10
450
 11
450
 20
1858
 21
1886
  0
LINE
  8
0
 10
450
 11
700
 20
1886
 21
1886
  0
LINE
  8
0
 10
700
 11
700
 20
1886
 21
1858
  0
LINE
  8
0
 10
700
 11
690
 20
1858
 21
1858
  0
LINE
  8
0
 10
690
 11
690
 20
1858
 21
1863
  0
LINE
  8
0
 10
690
 11
670
 20
1863
 21
1863
  0
LINE
  8
0
 10
670
 11
670
 20
1863
 21
1858
  0
LINE
  8
0
 10
670
 11
480
 20
1858
 21
1858
  0
LINE
  8
0
 10
480
 11
480
 20
1858
 21
1863
  0
LINE
  8
0
 10
480
 11
460
 20
1863
 21
1863
  0
LINE
  8
0
 10
460
 11
460
 20
1863
 21
1858
  0
LINE
  8
0
 10
460
 11
450
 20
1858
 21
1858
  0
LINE
  8
0
 10
450
 11
450
 20
2008
 21
2036
  0
LINE
  8
0
 10
450
 11
700
 20
2036
 21
2036
  0
LINE
  8
0
 10
700
 11
700
 20
2036
 21
2008
  0
LINE
  8
0
 10
700
 11
690
 20
2008
 21
2008
  0
LINE
  8
0
 10
690
 11
690
 20
2008
 21
2013
  0
LINE
  8
0
 10
690
 11
670
 20
2013
 21
2013
  0
LINE
  8
0
 10
670
 11
670
 20
2013
 21
2008
  0
LINE
  8
0
 10
670
 11
480
 20
2008
 21
2008
  0
LINE
  8
0
 10
480
 11
480
 20
2008
 21
2013
  0
LINE
  8
0
 10
480
 11
460
 20
2013
 21
2013
  0
LINE
  8
0
 10
460
 11
460
 20
2013
 21
2008
  0
LINE
  8
0
 10
460
 11
450
 20
2008
 21
2008
  0
LINE
  8
0
 10
462.1
 11
462.1
 20
0
 21
100
  0
LINE
  8
0
 10
462.1
 11
490.1
 20
100
 21
100
  0
LINE
  8
0
 10
490.1
 11
490.1
 20
100
 21
56
  0
LINE
  8
0
 10
490.1
 11
485.1
 20
56
 21
56
  0
LINE
  8
0
 10
485.1
 11
485.1
 20
56
 21
28
  0
LINE
  8
0
 10
485.1
 11
490.1
 20
28
 21
28
  0
LINE
  8
0
 10
490.1
 11
490.1
 20
28
 21
5
  0
LINE
  8
0
 10
490.1
 11
470.1
 20
5
 21
5
  0
LINE
  8
0
 10
470.1
 11
470.1
 20
5
 21
0
  0
LINE
  8
0
 10
470.1
 11
462.1
 20
0
 21
0
  0
LINE
  8
0
 10
495.1
 11
495.1
 20
0
 21
99.945
  0
LINE
  8
0
 10
495.1
 11
523.1
 20
99.945
 21
99.945
  0
LINE
  8
0
 10
523.1
 11
523.1
 20
99.945
 21
56
  0
LINE
  8
0
 10
523.1
 11
518.1
 20
56
 21
56
  0
LINE
  8
0
 10
518.1
 11
518.1
 20
56
 21
28
  0
LINE
  8
0
 10
518.1
 11
523.1
 20
28
 21
28
  0
LINE
  8
0
 10
523.1
 11
523.1
 20
28
 21
0
  0
LINE
  8
0
 10
523.1
 11
495.1
 20
0
 21
0
  0
LINE
  8
0
 10
528.1
 11
528.1
 20
0
 21
70
  0
LINE
  8
0
 10
528.1
 11
556.1
 20
70
 21
70
  0
LINE
  8
0
 10
556.1
 11
556.1
 20
70
 21
56
  0
LINE
  8
0
 10
556.1
 11
551.1
 20
56
 21
56
  0
LINE
  8
0
 10
551.1
 11
551.1
 20
56
 21
28
  0
LINE
  8
0
 10
551.1
 11
556.1
 20
28
 21
28
  0
LINE
  8
0
 10
556.1
 11
556.1
 20
28
 21
0
  0
LINE
  8
0
 10
556.1
 11
528.1
 20
0
 21
0
  0
LINE
  8
0
 10
561.1
 11
561.1
 20
0
 21
70
  0
LINE
  8
0
 10
561.1
 11
589.1
 20
70
 21
70
  0
LINE
  8
0
 10
589.1
 11
589.1
 20
70
 21
56
  0
LINE
  8
0
 10
589.1
 11
584.1
 20
56
 21
56
  0
LINE
  8
0
 10
584.1
 11
584.1
 20
56
 21
28
  0
LINE
  8
0
 10
584.1
 11
589.1
 20
28
 21
28
  0
LINE
  8
0
 10
589.1
 11
589.1
 20
28
 21
0
  0
LINE
  8
0
 10
589.1
 11
561.1
 20
0
 21
0
  0
LINE
  8
0
 10
594.1
 11
594.1
 20
0
 21
70
  0
LINE
  8
0
 10
594.1
 11
622.1
 20
70
 21
70
  0
LINE
  8
0
 10
622.1
 11
622.1
 20
70
 21
56
  0
LINE
  8
0
 10
622.1
 11
617.1
 20
56
 21
56
  0
LINE
  8
0
 10
617.1
 11
617.1
 20
56
 21
28
  0
LINE
  8
0
 10
617.1
 11
622.1
 20
28
 21
28
  0
LINE
  8
0
 10
622.1
 11
622.1
 20
28
 21
0
  0
LINE
  8
0
 10
622.1
 11
594.1
 20
0
 21
0
  0
LINE
  8
0
 10
627.1
 11
627.1
 20
0
 21
70
  0
LINE
  8
0
 10
627.1
 11
655.1
 20
70
 21
70
  0
LINE
  8
0
 10
655.1
 11
655.1
 20
70
 21
56
  0
LINE
  8
0
 10
655.1
 11
650.1
 20
56
 21
56
  0
LINE
  8
0
 10
650.1
 11
650.1
 20
56
 21
28
  0
LINE
  8
0
 10
650.1
 11
655.1
 20
28
 21
28
  0
LINE
  8
0
 10
655.1
 11
655.1
 20
28
 21
0
  0
LINE
  8
0
 10
655.1
 11
627.1
 20
0
 21
0
  0
LINE
  8
0
 10
660.1
 11
660.1
 20
0
 21
70
  0
LINE
  8
0
 10
660.1
 11
688.1
 20
70
 21
70
  0
LINE
  8
0
 10
688.1
 11
688.1
 20
70
 21
56
  0
LINE
  8
0
 10
688.1
 11
683.1
 20
56
 21
56
  0
LINE
  8
0
 10
683.1
 11
683.1
 20
56
 21
28
  0
LINE
  8
0
 10
683.1
 11
688.1
 20
28
 21
28
  0
LINE
  8
0
 10
688.1
 11
688.1
 20
28
 21
0
  0
LINE
  8
0
 10
688.1
 11
660.1
 20
0
 21
0
  0
LINE
  8
0
 10
688.453
 11
688.453
 20
802
 21
830
  0
LINE
  8
0
 10
688.453
 11
800
 20
830
 21
830
  0
LINE
  8
0
 10
800
 11
800
 20
830
 21
820
  0
LINE
  8
0
 10
800
 11
790
 20
820
 21
820
  0
LINE
  8
0
 10
790
 11
790
 20
820
 21
812
  0
LINE
  8
0
 10
790
 11
772
 20
812
 21
812
  0
LINE
  8
0
 10
772
 11
772
 20
812
 21
802
  0
LINE
  8
0
 10
772
 11
688.453
 20
802
 21
802
  0
LINE
  8
0
 10
693.1
 11
693.1
 20
0
 21
88.049
  0
LINE
  8
0
 10
693.1
 11
721.1
 20
88.049
 21
88.049
  0
LINE
  8
0
 10
721.1
 11
721.1
 20
88.049
 21
56
  0
LINE
  8
0
 10
721.1
 11
716.1
 20
56
 21
56
  0
LINE
  8
0
 10
716.1
 11
716.1
 20
56
 21
28
  0
LINE
  8
0
 10
716.1
 11
721.1
 20
28
 21
28
  0
LINE
  8
0
 10
721.1
 11
721.1
 20
28
 21
0
  0
LINE
  8
0
 10
721.1
 11
693.1
 20
0
 21
0
  0
LINE
  8
0
 10
694.226
 11
694.226
 20
880
 21
908
  0
LINE
  8
0
 10
694.226
 11
800
 20
908
 21
908
  0
LINE
  8
0
 10
800
 11
800
 20
908
 21
898
  0
LINE
  8
0
 10
800
 11
790
 20
898
 21
898
  0
LINE
  8
0
 10
790
 11
790
 20
898
 21
890
  0
LINE
  8
0
 10
790
 11
772
 20
890
 21
890
  0
LINE
  8
0
 10
772
 11
772
 20
890
 21
880
  0
LINE
  8
0
 10
772
 11
694.226
 20
880
 21
880
  0
LINE
  8
0
 10
698.694
 11
698.694
 20
958
 21
986
  0
LINE
  8
0
 10
698.694
 11
800
 20
986
 21
986
  0
LINE
  8
0
 10
800
 11
800
 20
986
 21
976
  0
LINE
  8
0
 10
800
 11
790
 20
976
 21
976
  0
LINE
  8
0
 10
790
 11
790
 20
976
 21
968
  0
LINE
  8
0
 10
790
 11
772
 20
968
 21
968
  0
LINE
  8
0
 10
772
 11
772
 20
968
 21
958
  0
LINE
  8
0
 10
772
 11
698.694
 20
958
 21
958
  0
LINE
  8
0
 10
726.1
 11
726.1
 20
0
 21
100
  0
LINE
  8
0
 10
726.1
 11
754.1
 20
100
 21
100
  0
LINE
  8
0
 10
754.1
 11
754.1
 20
100
 21
56
  0
LINE
  8
0
 10
754.1
 11
749.1
 20
56
 21
56
  0
LINE
  8
0
 10
749.1
 11
749.1
 20
56
 21
40
  0
LINE
  8
0
 10
749.1
 11
740.1
 20
40
 21
40
  0
LINE
  8
0
 10
740.1
 11
740.1
 20
40
 21
0
  0
LINE
  8
0
 10
740.1
 11
726.1
 20
0
 21
0
  0
LINE
  8
0
 10
759.1
 11
759.1
 20
0
 21
100
  0
LINE
  8
0
 10
759.1
 11
787.1
 20
100
 21
100
  0
LINE
  8
0
 10
787.1
 11
787.1
 20
100
 21
56
  0
LINE
  8
0
 10
787.1
 11
782.1
 20
56
 21
56
  0
LINE
  8
0
 10
782.1
 11
782.1
 20
56
 21
40
  0
LINE
  8
0
 10
782.1
 11
773.1
 20
40
 21
40
  0
LINE
  8
0
 10
773.1
 11
773.1
 20
40
 21
0
  0
LINE
  8
0
 10
773.1
 11
759.1
 20
0
 21
0
  0
LINE
  8
0
 10
792.1
 11
792.1
 20
0
 21
100
  0
LINE
  8
0
 10
792.1
 11
802.1
 20
100
 21
100
  0
LINE
  8
0
 10
802.1
 11
802.1
 20
100
 21
0
  0
LINE
  8
0
 10
802.1
 11
792.1
 20
0
 21
0
  0
ENDSEC
  0
SECTION
  2
OBJECTS
  0
DICTIONARY
  0
ENDSEC
  0
EOF
