solid OpenSCAD_Model
  facet normal -1 0 0
    outer loop
      vertex 0 0 12
      vertex 0 0 14
      vertex 0 49 12
    endloop
  endfacet
  facet normal -1 0 0
    outer loop
      vertex 0 49 12
      vertex 0 0 14
      vertex 0 20 14
    endloop
  endfacet
  facet normal -1 0 0
    outer loop
      vertex 0 49 12
      vertex 0 20 14
      vertex 0 20 28
    endloop
  endfacet
  facet normal -1 0 0
    outer loop
      vertex 0 49 12
      vertex 0 20 28
      vertex 0 49 28
    endloop
  endfacet
  facet normal 0 -1 0
    outer loop
      vertex 363 0 5
      vertex 391 0 5
      vertex 0 0 14
    endloop
  endfacet
  facet normal 0 -1 0
    outer loop
      vertex 0 0 14
      vertex 0 0 12
      vertex 5 0 12
    endloop
  endfacet
  facet normal 0 -1 0
    outer loop
      vertex 363 0 0
      vertex 0 0 14
      vertex 5 0 12
    endloop
  endfacet
  facet normal 0 -1 0
    outer loop
      vertex 5 0 0
      vertex 363 0 0
      vertex 5 0 12
    endloop
  endfacet
  facet normal 0 -1 0
    outer loop
      vertex 363 0 0
      vertex 363 0 5
      vertex 0 0 14
    endloop
  endfacet
  facet normal 0 -1 0
    outer loop
      vertex 391 0 5
      vertex 749 0 0
      vertex 0 0 14
    endloop
  endfacet
  facet normal 0 -1 0
    outer loop
      vertex 749 0 12
      vertex 754 0 12
      vertex 0 0 14
    endloop
  endfacet
  facet normal 0 -1 0
    outer loop
      vertex 391 0 0
      vertex 749 0 0
      vertex 391 0 5
    endloop
  endfacet
  facet normal 0 -1 0
    outer loop
      vertex 749 0 0
      vertex 749 0 12
      vertex 0 0 14
    endloop
  endfacet
  facet normal 0 -1 0
    outer loop
      vertex 327 0 14
      vertex 327 0 23
      vertex 100 0 14
    endloop
  endfacet
  facet normal 0 -1 0
    outer loop
      vertex 754 0 12
      vertex 654 0 14
      vertex 427 0 14
    endloop
  endfacet
  facet normal 0 -1 0
    outer loop
      vertex 754 0 12
      vertex 754 0 14
      vertex 654 0 14
    endloop
  endfacet
  facet normal 0 -1 0
    outer loop
      vertex 754 0 12
      vertex 427 0 14
      vertex 327 0 14
    endloop
  endfacet
  facet normal 0 -1 0
    outer loop
      vertex 654 0 14
      vertex 654 0 23
      vertex 427 0 14
    endloop
  endfacet
  facet normal 0 -1 0
    outer loop
      vertex 754 0 12
      vertex 327 0 14
      vertex 100 0 14
    endloop
  endfacet
  facet normal 0 -1 0
    outer loop
      vertex 754 0 12
      vertex 100 0 14
      vertex 0 0 14
    endloop
  endfacet
  facet normal 0 -1 0
    outer loop
      vertex 100 0 23
      vertex 100 0 14
      vertex 327 0 23
    endloop
  endfacet
  facet normal 0 -1 0
    outer loop
      vertex 427 0 23
      vertex 427 0 14
      vertex 654 0 23
    endloop
  endfacet
  facet normal 0 0 -1
    outer loop
      vertex 77 49 12
      vertex 77 44 12
      vertex 0 49 12
    endloop
  endfacet
  facet normal 0 0 -1
    outer loop
      vertex 0 49 12
      vertex 77 44 12
      vertex 5 44 12
    endloop
  endfacet
  facet normal 0 0 -1
    outer loop
      vertex 0 49 12
      vertex 5 44 12
      vertex 5 0 12
    endloop
  endfacet
  facet normal 0 0 -1
    outer loop
      vertex 0 49 12
      vertex 5 0 12
      vertex 0 0 12
    endloop
  endfacet
  facet normal 0 1 0
    outer loop
      vertex 0 49 12
      vertex 0 49 28
      vertex 77 49 12
    endloop
  endfacet
  facet normal 0 1 0
    outer loop
      vertex 77 49 12
      vertex 0 49 28
      vertex 363 49 28
    endloop
  endfacet
  facet normal 0 1 0
    outer loop
      vertex 77 49 12
      vertex 363 49 28
      vertex 363 49 23
    endloop
  endfacet
  facet normal 0 1 0
    outer loop
      vertex 77 49 12
      vertex 363 49 23
      vertex 391 49 23
    endloop
  endfacet
  facet normal 0 1 0
    outer loop
      vertex 391 49 23
      vertex 391 49 28
      vertex 754 49 28
    endloop
  endfacet
  facet normal 0 1 0
    outer loop
      vertex 391 49 23
      vertex 754 49 28
      vertex 77 49 12
    endloop
  endfacet
  facet normal 0 1 0
    outer loop
      vertex 677 49 12
      vertex 754 49 28
      vertex 754 49 12
    endloop
  endfacet
  facet normal 0 1 0
    outer loop
      vertex 77 49 12
      vertex 754 49 28
      vertex 327 49 12
    endloop
  endfacet
  facet normal 0 1 0
    outer loop
      vertex 427 49 12
      vertex 677 49 0
      vertex 427 49 0
    endloop
  endfacet
  facet normal 0 1 0
    outer loop
      vertex 677 49 12
      vertex 677 49 0
      vertex 427 49 12
    endloop
  endfacet
  facet normal 0 1 0
    outer loop
      vertex 677 49 12
      vertex 427 49 12
      vertex 754 49 28
    endloop
  endfacet
  facet normal 0 1 0
    outer loop
      vertex 327 49 0
      vertex 77 49 12
      vertex 327 49 12
    endloop
  endfacet
  facet normal 0 1 0
    outer loop
      vertex 427 49 12
      vertex 327 49 12
      vertex 754 49 28
    endloop
  endfacet
  facet normal 0 1 0
    outer loop
      vertex 77 49 12
      vertex 327 49 0
      vertex 77 49 0
    endloop
  endfacet
  facet normal 0 0 1
    outer loop
      vertex 327 20 28
      vertex 363 20 28
      vertex 0 49 28
    endloop
  endfacet
  facet normal 0 0 1
    outer loop
      vertex 0 49 28
      vertex 0 20 28
      vertex 100 20 28
    endloop
  endfacet
  facet normal 0 0 1
    outer loop
      vertex 327 10 28
      vertex 0 49 28
      vertex 100 20 28
    endloop
  endfacet
  facet normal 0 0 1
    outer loop
      vertex 100 10 28
      vertex 327 10 28
      vertex 100 20 28
    endloop
  endfacet
  facet normal 0 0 1
    outer loop
      vertex 327 10 28
      vertex 327 20 28
      vertex 0 49 28
    endloop
  endfacet
  facet normal 0 0 1
    outer loop
      vertex 363 20 28
      vertex 363 49 28
      vertex 0 49 28
    endloop
  endfacet
  facet normal 0 -1 0
    outer loop
      vertex 100 20 14
      vertex 100 20 28
      vertex 0 20 28
    endloop
  endfacet
  facet normal 0 -1 0
    outer loop
      vertex 0 20 14
      vertex 100 20 14
      vertex 0 20 28
    endloop
  endfacet
  facet normal 0 0 1
    outer loop
      vertex 100 0 14
      vertex 100 20 14
      vertex 0 20 14
    endloop
  endfacet
  facet normal 0 0 1
    outer loop
      vertex 0 0 14
      vertex 100 0 14
      vertex 0 20 14
    endloop
  endfacet
  facet normal -1 0 0
    outer loop
      vertex 100 10 23
      vertex 100 10 28
      vertex 100 20 28
    endloop
  endfacet
  facet normal -1 0 0
    outer loop
      vertex 100 10 23
      vertex 100 20 28
      vertex 100 20 14
    endloop
  endfacet
  facet normal -1 0 0
    outer loop
      vertex 100 10 23
      vertex 100 20 14
      vertex 100 0 23
    endloop
  endfacet
  facet normal -1 0 0
    outer loop
      vertex 100 20 14
      vertex 100 0 14
      vertex 100 0 23
    endloop
  endfacet
  facet normal 0 0 1
    outer loop
      vertex 327 0 23
      vertex 327 10 23
      vertex 100 10 23
    endloop
  endfacet
  facet normal 0 0 1
    outer loop
      vertex 100 0 23
      vertex 327 0 23
      vertex 100 10 23
    endloop
  endfacet
  facet normal 1 0 0
    outer loop
      vertex 327 20 14
      vertex 327 20 28
      vertex 327 10 28
    endloop
  endfacet
  facet normal 1 0 0
    outer loop
      vertex 327 0 23
      vertex 327 20 14
      vertex 327 10 23
    endloop
  endfacet
  facet normal 1 0 0
    outer loop
      vertex 327 10 23
      vertex 327 20 14
      vertex 327 10 28
    endloop
  endfacet
  facet normal 1 0 0
    outer loop
      vertex 327 0 14
      vertex 327 20 14
      vertex 327 0 23
    endloop
  endfacet
  facet normal 0 0 1
    outer loop
      vertex 427 0 14
      vertex 427 20 14
      vertex 327 20 14
    endloop
  endfacet
  facet normal 0 0 1
    outer loop
      vertex 327 0 14
      vertex 427 0 14
      vertex 327 20 14
    endloop
  endfacet
  facet normal -1 0 0
    outer loop
      vertex 427 10 23
      vertex 427 10 28
      vertex 427 20 28
    endloop
  endfacet
  facet normal -1 0 0
    outer loop
      vertex 427 10 23
      vertex 427 20 28
      vertex 427 20 14
    endloop
  endfacet
  facet normal -1 0 0
    outer loop
      vertex 427 10 23
      vertex 427 20 14
      vertex 427 0 23
    endloop
  endfacet
  facet normal -1 0 0
    outer loop
      vertex 427 20 14
      vertex 427 0 14
      vertex 427 0 23
    endloop
  endfacet
  facet normal 0 0 1
    outer loop
      vertex 654 0 23
      vertex 654 10 23
      vertex 427 10 23
    endloop
  endfacet
  facet normal 0 0 1
    outer loop
      vertex 427 0 23
      vertex 654 0 23
      vertex 427 10 23
    endloop
  endfacet
  facet normal 1 0 0
    outer loop
      vertex 654 20 14
      vertex 654 20 28
      vertex 654 10 28
    endloop
  endfacet
  facet normal 1 0 0
    outer loop
      vertex 654 0 23
      vertex 654 20 14
      vertex 654 10 23
    endloop
  endfacet
  facet normal 1 0 0
    outer loop
      vertex 654 10 23
      vertex 654 20 14
      vertex 654 10 28
    endloop
  endfacet
  facet normal 1 0 0
    outer loop
      vertex 654 0 14
      vertex 654 20 14
      vertex 654 0 23
    endloop
  endfacet
  facet normal 0 0 1
    outer loop
      vertex 754 0 14
      vertex 754 20 14
      vertex 654 20 14
    endloop
  endfacet
  facet normal 0 0 1
    outer loop
      vertex 654 0 14
      vertex 754 0 14
      vertex 654 20 14
    endloop
  endfacet
  facet normal 1 0 0
    outer loop
      vertex 754 0 14
      vertex 754 0 12
      vertex 754 49 12
    endloop
  endfacet
  facet normal 1 0 0
    outer loop
      vertex 754 20 14
      vertex 754 0 14
      vertex 754 49 12
    endloop
  endfacet
  facet normal 1 0 0
    outer loop
      vertex 754 49 28
      vertex 754 20 14
      vertex 754 49 12
    endloop
  endfacet
  facet normal 1 0 0
    outer loop
      vertex 754 20 28
      vertex 754 20 14
      vertex 754 49 28
    endloop
  endfacet
  facet normal 0 0 -1
    outer loop
      vertex 677 44 12
      vertex 677 49 12
      vertex 749 44 12
    endloop
  endfacet
  facet normal 0 0 -1
    outer loop
      vertex 754 49 12
      vertex 754 0 12
      vertex 749 44 12
    endloop
  endfacet
  facet normal 0 0 -1
    outer loop
      vertex 754 49 12
      vertex 749 44 12
      vertex 677 49 12
    endloop
  endfacet
  facet normal 0 0 -1
    outer loop
      vertex 749 44 12
      vertex 754 0 12
      vertex 749 0 12
    endloop
  endfacet
  facet normal 1 0 0
    outer loop
      vertex 749 44 0
      vertex 749 44 12
      vertex 749 0 12
    endloop
  endfacet
  facet normal 1 0 0
    outer loop
      vertex 749 0 0
      vertex 749 44 0
      vertex 749 0 12
    endloop
  endfacet
  facet normal 0 0 -1
    outer loop
      vertex 391 0 0
      vertex 391 44 0
      vertex 749 0 0
    endloop
  endfacet
  facet normal 0 0 -1
    outer loop
      vertex 749 0 0
      vertex 391 44 0
      vertex 427 44 0
    endloop
  endfacet
  facet normal 0 0 -1
    outer loop
      vertex 749 0 0
      vertex 427 44 0
      vertex 427 49 0
    endloop
  endfacet
  facet normal 0 0 -1
    outer loop
      vertex 677 44 0
      vertex 427 49 0
      vertex 677 49 0
    endloop
  endfacet
  facet normal 0 0 -1
    outer loop
      vertex 749 0 0
      vertex 427 49 0
      vertex 677 44 0
    endloop
  endfacet
  facet normal 0 0 -1
    outer loop
      vertex 749 44 0
      vertex 749 0 0
      vertex 677 44 0
    endloop
  endfacet
  facet normal -1 0 0
    outer loop
      vertex 391 44 5
      vertex 391 44 0
      vertex 391 0 5
    endloop
  endfacet
  facet normal -1 0 0
    outer loop
      vertex 391 0 5
      vertex 391 44 0
      vertex 391 0 0
    endloop
  endfacet
  facet normal 0 0 -1
    outer loop
      vertex 391 44 5
      vertex 391 0 5
      vertex 363 44 5
    endloop
  endfacet
  facet normal 0 0 -1
    outer loop
      vertex 363 44 5
      vertex 391 0 5
      vertex 363 0 5
    endloop
  endfacet
  facet normal 1 0 0
    outer loop
      vertex 363 44 0
      vertex 363 44 5
      vertex 363 0 5
    endloop
  endfacet
  facet normal 1 0 0
    outer loop
      vertex 363 0 0
      vertex 363 44 0
      vertex 363 0 5
    endloop
  endfacet
  facet normal 0 0 -1
    outer loop
      vertex 5 0 0
      vertex 5 44 0
      vertex 363 0 0
    endloop
  endfacet
  facet normal 0 0 -1
    outer loop
      vertex 363 0 0
      vertex 5 44 0
      vertex 77 44 0
    endloop
  endfacet
  facet normal 0 0 -1
    outer loop
      vertex 363 0 0
      vertex 77 44 0
      vertex 77 49 0
    endloop
  endfacet
  facet normal 0 0 -1
    outer loop
      vertex 327 44 0
      vertex 77 49 0
      vertex 327 49 0
    endloop
  endfacet
  facet normal 0 0 -1
    outer loop
      vertex 363 0 0
      vertex 77 49 0
      vertex 327 44 0
    endloop
  endfacet
  facet normal 0 0 -1
    outer loop
      vertex 363 44 0
      vertex 363 0 0
      vertex 327 44 0
    endloop
  endfacet
  facet normal -1 0 0
    outer loop
      vertex 5 44 12
      vertex 5 44 0
      vertex 5 0 12
    endloop
  endfacet
  facet normal -1 0 0
    outer loop
      vertex 5 0 12
      vertex 5 44 0
      vertex 5 0 0
    endloop
  endfacet
  facet normal 0 1 0
    outer loop
      vertex 77 44 12
      vertex 77 44 0
      vertex 5 44 12
    endloop
  endfacet
  facet normal 0 1 0
    outer loop
      vertex 5 44 12
      vertex 77 44 0
      vertex 5 44 0
    endloop
  endfacet
  facet normal -1 0 0
    outer loop
      vertex 77 49 12
      vertex 77 49 0
      vertex 77 44 12
    endloop
  endfacet
  facet normal -1 0 0
    outer loop
      vertex 77 44 12
      vertex 77 49 0
      vertex 77 44 0
    endloop
  endfacet
  facet normal 1 0 0
    outer loop
      vertex 327 49 0
      vertex 327 49 12
      vertex 327 44 12
    endloop
  endfacet
  facet normal 1 0 0
    outer loop
      vertex 327 44 0
      vertex 327 49 0
      vertex 327 44 12
    endloop
  endfacet
  facet normal 0 0 -1
    outer loop
      vertex 427 49 12
      vertex 427 44 12
      vertex 327 49 12
    endloop
  endfacet
  facet normal 0 0 -1
    outer loop
      vertex 327 49 12
      vertex 427 44 12
      vertex 327 44 12
    endloop
  endfacet
  facet normal -1 0 0
    outer loop
      vertex 427 49 12
      vertex 427 49 0
      vertex 427 44 12
    endloop
  endfacet
  facet normal -1 0 0
    outer loop
      vertex 427 44 12
      vertex 427 49 0
      vertex 427 44 0
    endloop
  endfacet
  facet normal 1 0 0
    outer loop
      vertex 677 49 0
      vertex 677 49 12
      vertex 677 44 12
    endloop
  endfacet
  facet normal 1 0 0
    outer loop
      vertex 677 44 0
      vertex 677 49 0
      vertex 677 44 12
    endloop
  endfacet
  facet normal 0 0 1
    outer loop
      vertex 654 20 28
      vertex 754 20 28
      vertex 391 49 28
    endloop
  endfacet
  facet normal 0 0 1
    outer loop
      vertex 391 49 28
      vertex 391 20 28
      vertex 427 20 28
    endloop
  endfacet
  facet normal 0 0 1
    outer loop
      vertex 654 10 28
      vertex 391 49 28
      vertex 427 20 28
    endloop
  endfacet
  facet normal 0 0 1
    outer loop
      vertex 427 10 28
      vertex 654 10 28
      vertex 427 20 28
    endloop
  endfacet
  facet normal 0 0 1
    outer loop
      vertex 654 10 28
      vertex 654 20 28
      vertex 391 49 28
    endloop
  endfacet
  facet normal 0 0 1
    outer loop
      vertex 754 20 28
      vertex 754 49 28
      vertex 391 49 28
    endloop
  endfacet
  facet normal -1 0 0
    outer loop
      vertex 391 49 28
      vertex 391 49 23
      vertex 391 20 28
    endloop
  endfacet
  facet normal -1 0 0
    outer loop
      vertex 391 20 28
      vertex 391 49 23
      vertex 391 20 23
    endloop
  endfacet
  facet normal 0 0 1
    outer loop
      vertex 391 20 23
      vertex 391 49 23
      vertex 363 49 23
    endloop
  endfacet
  facet normal 0 0 1
    outer loop
      vertex 363 20 23
      vertex 391 20 23
      vertex 363 49 23
    endloop
  endfacet
  facet normal 1 0 0
    outer loop
      vertex 363 49 23
      vertex 363 49 28
      vertex 363 20 28
    endloop
  endfacet
  facet normal 1 0 0
    outer loop
      vertex 363 20 23
      vertex 363 49 23
      vertex 363 20 28
    endloop
  endfacet
  facet normal 0 -1 0
    outer loop
      vertex 427 20 14
      vertex 427 20 28
      vertex 391 20 28
    endloop
  endfacet
  facet normal 0 -1 0
    outer loop
      vertex 363 20 23
      vertex 427 20 14
      vertex 391 20 23
    endloop
  endfacet
  facet normal 0 -1 0
    outer loop
      vertex 391 20 23
      vertex 427 20 14
      vertex 391 20 28
    endloop
  endfacet
  facet normal 0 -1 0
    outer loop
      vertex 327 20 28
      vertex 427 20 14
      vertex 363 20 23
    endloop
  endfacet
  facet normal 0 -1 0
    outer loop
      vertex 327 20 28
      vertex 363 20 23
      vertex 363 20 28
    endloop
  endfacet
  facet normal 0 -1 0
    outer loop
      vertex 327 20 14
      vertex 427 20 14
      vertex 327 20 28
    endloop
  endfacet
  facet normal 0 -1 0
    outer loop
      vertex 327 10 23
      vertex 327 10 28
      vertex 100 10 28
    endloop
  endfacet
  facet normal 0 -1 0
    outer loop
      vertex 100 10 23
      vertex 327 10 23
      vertex 100 10 28
    endloop
  endfacet
  facet normal 0 -1 0
    outer loop
      vertex 654 10 23
      vertex 654 10 28
      vertex 427 10 28
    endloop
  endfacet
  facet normal 0 -1 0
    outer loop
      vertex 427 10 23
      vertex 654 10 23
      vertex 427 10 28
    endloop
  endfacet
  facet normal 0 -1 0
    outer loop
      vertex 754 20 14
      vertex 754 20 28
      vertex 654 20 28
    endloop
  endfacet
  facet normal 0 -1 0
    outer loop
      vertex 654 20 14
      vertex 754 20 14
      vertex 654 20 28
    endloop
  endfacet
  facet normal 0 1 0
    outer loop
      vertex 749 44 12
      vertex 749 44 0
      vertex 677 44 12
    endloop
  endfacet
  facet normal 0 1 0
    outer loop
      vertex 677 44 12
      vertex 749 44 0
      vertex 677 44 0
    endloop
  endfacet
  facet normal 0 1 0
    outer loop
      vertex 363 44 5
      vertex 327 44 12
      vertex 391 44 5
    endloop
  endfacet
  facet normal 0 1 0
    outer loop
      vertex 427 44 12
      vertex 427 44 0
      vertex 391 44 5
    endloop
  endfacet
  facet normal 0 1 0
    outer loop
      vertex 427 44 12
      vertex 391 44 5
      vertex 327 44 12
    endloop
  endfacet
  facet normal 0 1 0
    outer loop
      vertex 327 44 12
      vertex 363 44 5
      vertex 363 44 0
    endloop
  endfacet
  facet normal 0 1 0
    outer loop
      vertex 327 44 12
      vertex 363 44 0
      vertex 327 44 0
    endloop
  endfacet
  facet normal 0 1 0
    outer loop
      vertex 391 44 5
      vertex 427 44 0
      vertex 391 44 0
    endloop
  endfacet
endsolid OpenSCAD_Model
