solid OpenSCAD_Model
  facet normal -1 0 0
    outer loop
      vertex 0 7.07107 0
      vertex 0 7.07107 14
      vertex 0 36 0
    endloop
  endfacet
  facet normal -1 0 0
    outer loop
      vertex 0 36 5
      vertex 0 7.07107 14
      vertex 0 92.9289 14
    endloop
  endfacet
  facet normal -1 0 0
    outer loop
      vertex 0 64 0
      vertex 0 92.9289 14
      vertex 0 92.9289 0
    endloop
  endfacet
  facet normal -1 0 0
    outer loop
      vertex 0 64 5
      vertex 0 92.9289 14
      vertex 0 64 0
    endloop
  endfacet
  facet normal -1 0 0
    outer loop
      vertex 0 36 0
      vertex 0 7.07107 14
      vertex 0 36 5
    endloop
  endfacet
  facet normal -1 0 0
    outer loop
      vertex 0 36 5
      vertex 0 92.9289 14
      vertex 0 64 5
    endloop
  endfacet
  facet normal -0.707107 -0.707107 0
    outer loop
      vertex 7.07107 5.55112e-16 0
      vertex 7.07107 5.55112e-16 14
      vertex 0 7.07107 14
    endloop
  endfacet
  facet normal -0.707107 -0.707107 0
    outer loop
      vertex 0 7.07107 0
      vertex 7.07107 5.55112e-16 0
      vertex 0 7.07107 14
    endloop
  endfacet
  facet normal 0 0 -1
    outer loop
      vertex 0 7.07107 0
      vertex 0 36 0
      vertex 7.07107 5.55112e-16 0
    endloop
  endfacet
  facet normal 0 0 -1
    outer loop
      vertex 7.07107 5.55112e-16 0
      vertex 0 36 0
      vertex 310 36 0
    endloop
  endfacet
  facet normal 0 0 -1
    outer loop
      vertex 7.07107 5.55112e-16 0
      vertex 310 36 0
      vertex 310 7.07107 0
    endloop
  endfacet
  facet normal 0 0 -1
    outer loop
      vertex 7.07107 5.55112e-16 0
      vertex 310 7.07107 0
      vertex 302.929 1.01498e-15 0
    endloop
  endfacet
  facet normal 0 0 -1
    outer loop
      vertex 7.07107 5.55112e-16 0
      vertex 302.929 1.01498e-15 0
      vertex 302.929 0 0
    endloop
  endfacet
  facet normal 0 0 -1
    outer loop
      vertex 7.07107 5.55112e-16 0
      vertex 302.929 0 0
      vertex 7.07107 0 0
    endloop
  endfacet
  facet normal 0 1 0
    outer loop
      vertex 310 36 5
      vertex 310 36 0
      vertex 0 36 5
    endloop
  endfacet
  facet normal 0 1 0
    outer loop
      vertex 0 36 5
      vertex 310 36 0
      vertex 0 36 0
    endloop
  endfacet
  facet normal 0 0 -1
    outer loop
      vertex 310 64 5
      vertex 310 36 5
      vertex 0 64 5
    endloop
  endfacet
  facet normal 0 0 -1
    outer loop
      vertex 0 64 5
      vertex 310 36 5
      vertex 0 36 5
    endloop
  endfacet
  facet normal 0 -1 0
    outer loop
      vertex 310 64 0
      vertex 310 64 5
      vertex 0 64 5
    endloop
  endfacet
  facet normal 0 -1 0
    outer loop
      vertex 0 64 0
      vertex 310 64 0
      vertex 0 64 5
    endloop
  endfacet
  facet normal 0 0 -1
    outer loop
      vertex 0 64 0
      vertex 0 92.9289 0
      vertex 310 64 0
    endloop
  endfacet
  facet normal 0 0 -1
    outer loop
      vertex 310 64 0
      vertex 0 92.9289 0
      vertex 7.07107 100 0
    endloop
  endfacet
  facet normal 0 0 -1
    outer loop
      vertex 310 64 0
      vertex 7.07107 100 0
      vertex 302.929 100 0
    endloop
  endfacet
  facet normal 0 0 -1
    outer loop
      vertex 310 64 0
      vertex 302.929 100 0
      vertex 310 92.9289 0
    endloop
  endfacet
  facet normal -0.707107 0.707107 0
    outer loop
      vertex 7.07107 100 14
      vertex 7.07107 100 0
      vertex 0 92.9289 14
    endloop
  endfacet
  facet normal -0.707107 0.707107 0
    outer loop
      vertex 0 92.9289 14
      vertex 7.07107 100 0
      vertex 0 92.9289 0
    endloop
  endfacet
  facet normal 0 0 1
    outer loop
      vertex 7.07107 5.55112e-16 14
      vertex 7.07107 0 14
      vertex 40 0 14
    endloop
  endfacet
  facet normal 0 0 1
    outer loop
      vertex 40 100 14
      vertex 7.07107 5.55112e-16 14
      vertex 40 0 14
    endloop
  endfacet
  facet normal 0 0 1
    outer loop
      vertex 7.07107 100 14
      vertex 0 92.9289 14
      vertex 0 7.07107 14
    endloop
  endfacet
  facet normal 0 0 1
    outer loop
      vertex 0 7.07107 14
      vertex 40 100 14
      vertex 7.07107 100 14
    endloop
  endfacet
  facet normal 0 0 1
    outer loop
      vertex 0 7.07107 14
      vertex 7.07107 5.55112e-16 14
      vertex 40 100 14
    endloop
  endfacet
  facet normal -0.707107 0.707107 0
    outer loop
      vertex 7.07107 5.55112e-16 14
      vertex 7.07107 5.55112e-16 0
      vertex 7.07107 0 14
    endloop
  endfacet
  facet normal -0.707107 0.707107 0
    outer loop
      vertex 7.07107 0 14
      vertex 7.07107 5.55112e-16 0
      vertex 7.07107 0 0
    endloop
  endfacet
  facet normal 0 -1 0
    outer loop
      vertex 7.07107 0 14
      vertex 7.07107 0 0
      vertex 302.929 0 0
    endloop
  endfacet
  facet normal 0 -1 0
    outer loop
      vertex 40 0 14
      vertex 7.07107 0 14
      vertex 302.929 0 0
    endloop
  endfacet
  facet normal 0 -1 0
    outer loop
      vertex 270 0 14
      vertex 40 0 14
      vertex 302.929 0 0
    endloop
  endfacet
  facet normal 0 -1 0
    outer loop
      vertex 302.929 0 14
      vertex 270 0 14
      vertex 302.929 0 0
    endloop
  endfacet
  facet normal 0 -1 0
    outer loop
      vertex 270 0 28
      vertex 40 0 14
      vertex 270 0 14
    endloop
  endfacet
  facet normal 0 -1 0
    outer loop
      vertex 40 0 28
      vertex 40 0 14
      vertex 270 0 28
    endloop
  endfacet
  facet normal 0.707107 0.707107 0
    outer loop
      vertex 302.929 1.01498e-15 14
      vertex 302.929 0 14
      vertex 302.929 0 0
    endloop
  endfacet
  facet normal 0.707107 0.707107 0
    outer loop
      vertex 302.929 1.01498e-15 0
      vertex 302.929 1.01498e-15 14
      vertex 302.929 0 0
    endloop
  endfacet
  facet normal 0.707107 -0.707107 0
    outer loop
      vertex 310 7.07107 0
      vertex 310 7.07107 14
      vertex 302.929 1.01498e-15 14
    endloop
  endfacet
  facet normal 0.707107 -0.707107 0
    outer loop
      vertex 302.929 1.01498e-15 0
      vertex 310 7.07107 0
      vertex 302.929 1.01498e-15 14
    endloop
  endfacet
  facet normal 1 0 0
    outer loop
      vertex 310 7.07107 14
      vertex 310 7.07107 0
      vertex 310 36 0
    endloop
  endfacet
  facet normal 1 0 0
    outer loop
      vertex 310 64 5
      vertex 310 7.07107 14
      vertex 310 36 5
    endloop
  endfacet
  facet normal 1 0 0
    outer loop
      vertex 310 36 5
      vertex 310 7.07107 14
      vertex 310 36 0
    endloop
  endfacet
  facet normal 1 0 0
    outer loop
      vertex 310 92.9289 14
      vertex 310 7.07107 14
      vertex 310 64 5
    endloop
  endfacet
  facet normal 1 0 0
    outer loop
      vertex 310 92.9289 0
      vertex 310 64 5
      vertex 310 64 0
    endloop
  endfacet
  facet normal 1 0 0
    outer loop
      vertex 310 92.9289 14
      vertex 310 64 5
      vertex 310 92.9289 0
    endloop
  endfacet
  facet normal 0.707107 0.707107 0
    outer loop
      vertex 302.929 100 14
      vertex 310 92.9289 14
      vertex 310 92.9289 0
    endloop
  endfacet
  facet normal 0.707107 0.707107 0
    outer loop
      vertex 302.929 100 0
      vertex 302.929 100 14
      vertex 310 92.9289 0
    endloop
  endfacet
  facet normal 0 1 0
    outer loop
      vertex 7.07107 100 0
      vertex 7.07107 100 14
      vertex 302.929 100 0
    endloop
  endfacet
  facet normal 0 1 0
    outer loop
      vertex 302.929 100 0
      vertex 7.07107 100 14
      vertex 40 100 14
    endloop
  endfacet
  facet normal 0 1 0
    outer loop
      vertex 302.929 100 0
      vertex 40 100 14
      vertex 40 100 28
    endloop
  endfacet
  facet normal 0 1 0
    outer loop
      vertex 270 100 14
      vertex 40 100 28
      vertex 270 100 28
    endloop
  endfacet
  facet normal 0 1 0
    outer loop
      vertex 302.929 100 0
      vertex 40 100 28
      vertex 270 100 14
    endloop
  endfacet
  facet normal 0 1 0
    outer loop
      vertex 302.929 100 14
      vertex 302.929 100 0
      vertex 270 100 14
    endloop
  endfacet
  facet normal -1 0 0
    outer loop
      vertex 40 100 28
      vertex 40 100 14
      vertex 40 0 28
    endloop
  endfacet
  facet normal -1 0 0
    outer loop
      vertex 40 0 28
      vertex 40 100 14
      vertex 40 0 14
    endloop
  endfacet
  facet normal 0 0 1
    outer loop
      vertex 40 100 28
      vertex 40 0 28
      vertex 270 0 28
    endloop
  endfacet
  facet normal 0 0 1
    outer loop
      vertex 270 100 28
      vertex 40 100 28
      vertex 270 0 28
    endloop
  endfacet
  facet normal 1 0 0
    outer loop
      vertex 270 100 14
      vertex 270 100 28
      vertex 270 0 28
    endloop
  endfacet
  facet normal 1 0 0
    outer loop
      vertex 270 0 14
      vertex 270 100 14
      vertex 270 0 28
    endloop
  endfacet
  facet normal 0 0 1
    outer loop
      vertex 310 92.9289 14
      vertex 302.929 1.01498e-15 14
      vertex 310 7.07107 14
    endloop
  endfacet
  facet normal 0 0 1
    outer loop
      vertex 302.929 0 14
      vertex 302.929 1.01498e-15 14
      vertex 270 0 14
    endloop
  endfacet
  facet normal 0 0 1
    outer loop
      vertex 302.929 100 14
      vertex 302.929 1.01498e-15 14
      vertex 310 92.9289 14
    endloop
  endfacet
  facet normal 0 0 1
    outer loop
      vertex 270 100 14
      vertex 302.929 1.01498e-15 14
      vertex 302.929 100 14
    endloop
  endfacet
  facet normal 0 0 1
    outer loop
      vertex 270 0 14
      vertex 302.929 1.01498e-15 14
      vertex 270 100 14
    endloop
  endfacet
endsolid OpenSCAD_Model
