  0
SECTION
  2
BLOCKS
  0
ENDSEC
  0
SECTION
  2
ENTITIES
  0
LINE
  8
0
 10
0
 11
0
 20
178
 21
206
  0
LINE
  8
0
 10
0
 11
354
 20
206
 21
206
  0
LINE
  8
0
 10
354
 11
354
 20
206
 21
178
  0
LINE
  8
0
 10
354
 11
0
 20
178
 21
178
  0
LINE
  8
0
 10
0
 11
0
 20
256
 21
284
  0
LINE
  8
0
 10
0
 11
354
 20
284
 21
284
  0
LINE
  8
0
 10
354
 11
354
 20
284
 21
256
  0
LINE
  8
0
 10
354
 11
0
 20
256
 21
256
  0
LINE
  8
0
 10
0
 11
0
 20
334
 21
362
  0
LINE
  8
0
 10
0
 11
95.857
 20
362
 21
362
  0
LINE
  8
0
 10
95.857
 11
95.857
 20
362
 21
334
  0
LINE
  8
0
 10
95.857
 11
0
 20
334
 21
334
  0
LINE
  8
0
 10
0
 11
0
 20
412
 21
440
  0
LINE
  8
0
 10
0
 11
87.97
 20
440
 21
440
  0
LINE
  8
0
 10
87.97
 11
87.97
 20
440
 21
412
  0
LINE
  8
0
 10
87.97
 11
0
 20
412
 21
412
  0
LINE
  8
0
 10
0
 11
0
 20
490
 21
518
  0
LINE
  8
0
 10
0
 11
82.196
 20
518
 21
518
  0
LINE
  8
0
 10
82.196
 11
82.196
 20
518
 21
490
  0
LINE
  8
0
 10
82.196
 11
0
 20
490
 21
490
  0
LINE
  8
0
 10
0
 11
0
 20
1108
 21
1157
  0
LINE
  8
0
 10
0
 11
71.226
 20
1157
 21
1157
  0
LINE
  8
0
 10
71.226
 11
71.226
 20
1157
 21
1156.94
  0
LINE
  8
0
 10
71.226
 11
72.272
 20
1156.94
 21
1156.94
  0
LINE
  8
0
 10
72.272
 11
74.317
 20
1156.94
 21
1156.51
  0
LINE
  8
0
 10
74.317
 11
76.226
 20
1156.51
 21
1155.66
  0
LINE
  8
0
 10
76.226
 11
77.918
 20
1155.66
 21
1154.43
  0
LINE
  8
0
 10
77.918
 11
79.317
 20
1154.43
 21
1152.88
  0
LINE
  8
0
 10
79.317
 11
79.823
 20
1152.88
 21
1152
  0
LINE
  8
0
 10
79.823
 11
79.887
 20
1152
 21
1152
  0
LINE
  8
0
 10
79.887
 11
91.434
 20
1152
 21
1132
  0
LINE
  8
0
 10
91.434
 11
91.497
 20
1132
 21
1132
  0
LINE
  8
0
 10
91.497
 11
92.004
 20
1132
 21
1131.12
  0
LINE
  8
0
 10
92.004
 11
93.403
 20
1131.12
 21
1129.57
  0
LINE
  8
0
 10
93.403
 11
95.094
 20
1129.57
 21
1128.34
  0
LINE
  8
0
 10
95.094
 11
97.004
 20
1128.34
 21
1127.49
  0
LINE
  8
0
 10
97.004
 11
99.049
 20
1127.49
 21
1127.06
  0
LINE
  8
0
 10
99.049
 11
100.094
 20
1127.06
 21
1127.06
  0
LINE
  8
0
 10
100.094
 11
100.094
 20
1127.06
 21
1127
  0
LINE
  8
0
 10
100.094
 11
253.906
 20
1127
 21
1127
  0
LINE
  8
0
 10
253.906
 11
253.906
 20
1127
 21
1127.06
  0
LINE
  8
0
 10
253.906
 11
254.951
 20
1127.06
 21
1127.06
  0
LINE
  8
0
 10
254.951
 11
256.996
 20
1127.06
 21
1127.49
  0
LINE
  8
0
 10
256.996
 11
258.906
 20
1127.49
 21
1128.34
  0
LINE
  8
0
 10
258.906
 11
260.597
 20
1128.34
 21
1129.57
  0
LINE
  8
0
 10
260.597
 11
261.996
 20
1129.57
 21
1131.12
  0
LINE
  8
0
 10
261.996
 11
262.503
 20
1131.12
 21
1132
  0
LINE
  8
0
 10
262.503
 11
262.566
 20
1132
 21
1132
  0
LINE
  8
0
 10
262.566
 11
274.113
 20
1132
 21
1152
  0
LINE
  8
0
 10
274.113
 11
274.177
 20
1152
 21
1152
  0
LINE
  8
0
 10
274.177
 11
274.683
 20
1152
 21
1152.88
  0
LINE
  8
0
 10
274.683
 11
276.082
 20
1152.88
 21
1154.43
  0
LINE
  8
0
 10
276.082
 11
277.774
 20
1154.43
 21
1155.66
  0
LINE
  8
0
 10
277.774
 11
279.683
 20
1155.66
 21
1156.51
  0
LINE
  8
0
 10
279.683
 11
281.728
 20
1156.51
 21
1156.94
  0
LINE
  8
0
 10
281.728
 11
282.774
 20
1156.94
 21
1156.94
  0
LINE
  8
0
 10
282.774
 11
282.774
 20
1156.94
 21
1157
  0
LINE
  8
0
 10
282.774
 11
354
 20
1157
 21
1157
  0
LINE
  8
0
 10
354
 11
354
 20
1157
 21
1108
  0
LINE
  8
0
 10
354
 11
0
 20
1108
 21
1108
  0
LINE
  8
0
 10
0
 11
0
 20
1258
 21
1307
  0
LINE
  8
0
 10
0
 11
71.226
 20
1307
 21
1307
  0
LINE
  8
0
 10
71.226
 11
71.226
 20
1307
 21
1306.94
  0
LINE
  8
0
 10
71.226
 11
72.272
 20
1306.94
 21
1306.94
  0
LINE
  8
0
 10
72.272
 11
74.317
 20
1306.94
 21
1306.51
  0
LINE
  8
0
 10
74.317
 11
76.226
 20
1306.51
 21
1305.66
  0
LINE
  8
0
 10
76.226
 11
77.918
 20
1305.66
 21
1304.43
  0
LINE
  8
0
 10
77.918
 11
79.317
 20
1304.43
 21
1302.88
  0
LINE
  8
0
 10
79.317
 11
79.823
 20
1302.88
 21
1302
  0
LINE
  8
0
 10
79.823
 11
79.887
 20
1302
 21
1302
  0
LINE
  8
0
 10
79.887
 11
91.434
 20
1302
 21
1282
  0
LINE
  8
0
 10
91.434
 11
91.497
 20
1282
 21
1282
  0
LINE
  8
0
 10
91.497
 11
92.004
 20
1282
 21
1281.12
  0
LINE
  8
0
 10
92.004
 11
93.403
 20
1281.12
 21
1279.57
  0
LINE
  8
0
 10
93.403
 11
95.094
 20
1279.57
 21
1278.34
  0
LINE
  8
0
 10
95.094
 11
97.004
 20
1278.34
 21
1277.49
  0
LINE
  8
0
 10
97.004
 11
99.049
 20
1277.49
 21
1277.06
  0
LINE
  8
0
 10
99.049
 11
100.094
 20
1277.06
 21
1277.06
  0
LINE
  8
0
 10
100.094
 11
100.094
 20
1277.06
 21
1277
  0
LINE
  8
0
 10
100.094
 11
253.906
 20
1277
 21
1277
  0
LINE
  8
0
 10
253.906
 11
253.906
 20
1277
 21
1277.06
  0
LINE
  8
0
 10
253.906
 11
254.951
 20
1277.06
 21
1277.06
  0
LINE
  8
0
 10
254.951
 11
256.996
 20
1277.06
 21
1277.49
  0
LINE
  8
0
 10
256.996
 11
258.906
 20
1277.49
 21
1278.34
  0
LINE
  8
0
 10
258.906
 11
260.597
 20
1278.34
 21
1279.57
  0
LINE
  8
0
 10
260.597
 11
261.996
 20
1279.57
 21
1281.12
  0
LINE
  8
0
 10
261.996
 11
262.503
 20
1281.12
 21
1282
  0
LINE
  8
0
 10
262.503
 11
262.566
 20
1282
 21
1282
  0
LINE
  8
0
 10
262.566
 11
274.113
 20
1282
 21
1302
  0
LINE
  8
0
 10
274.113
 11
274.177
 20
1302
 21
1302
  0
LINE
  8
0
 10
274.177
 11
274.683
 20
1302
 21
1302.88
  0
LINE
  8
0
 10
274.683
 11
276.082
 20
1302.88
 21
1304.43
  0
LINE
  8
0
 10
276.082
 11
277.774
 20
1304.43
 21
1305.66
  0
LINE
  8
0
 10
277.774
 11
279.683
 20
1305.66
 21
1306.51
  0
LINE
  8
0
 10
279.683
 11
281.728
 20
1306.51
 21
1306.94
  0
LINE
  8
0
 10
281.728
 11
282.774
 20
1306.94
 21
1306.94
  0
LINE
  8
0
 10
282.774
 11
282.774
 20
1306.94
 21
1307
  0
LINE
  8
0
 10
282.774
 11
354
 20
1307
 21
1307
  0
LINE
  8
0
 10
354
 11
354
 20
1307
 21
1258
  0
LINE
  8
0
 10
354
 11
0
 20
1258
 21
1258
  0
LINE
  8
0
 10
0
 11
0
 20
1408
 21
1457
  0
LINE
  8
0
 10
0
 11
71.226
 20
1457
 21
1457
  0
LINE
  8
0
 10
71.226
 11
71.226
 20
1457
 21
1456.94
  0
LINE
  8
0
 10
71.226
 11
72.272
 20
1456.94
 21
1456.94
  0
LINE
  8
0
 10
72.272
 11
74.317
 20
1456.94
 21
1456.51
  0
LINE
  8
0
 10
74.317
 11
76.226
 20
1456.51
 21
1455.66
  0
LINE
  8
0
 10
76.226
 11
77.918
 20
1455.66
 21
1454.43
  0
LINE
  8
0
 10
77.918
 11
79.317
 20
1454.43
 21
1452.88
  0
LINE
  8
0
 10
79.317
 11
79.823
 20
1452.88
 21
1452
  0
LINE
  8
0
 10
79.823
 11
79.887
 20
1452
 21
1452
  0
LINE
  8
0
 10
79.887
 11
91.434
 20
1452
 21
1432
  0
LINE
  8
0
 10
91.434
 11
91.497
 20
1432
 21
1432
  0
LINE
  8
0
 10
91.497
 11
92.004
 20
1432
 21
1431.12
  0
LINE
  8
0
 10
92.004
 11
93.403
 20
1431.12
 21
1429.57
  0
LINE
  8
0
 10
93.403
 11
95.094
 20
1429.57
 21
1428.34
  0
LINE
  8
0
 10
95.094
 11
97.004
 20
1428.34
 21
1427.49
  0
LINE
  8
0
 10
97.004
 11
99.049
 20
1427.49
 21
1427.06
  0
LINE
  8
0
 10
99.049
 11
100.094
 20
1427.06
 21
1427.06
  0
LINE
  8
0
 10
100.094
 11
100.094
 20
1427.06
 21
1427
  0
LINE
  8
0
 10
100.094
 11
253.906
 20
1427
 21
1427
  0
LINE
  8
0
 10
253.906
 11
253.906
 20
1427
 21
1427.06
  0
LINE
  8
0
 10
253.906
 11
254.951
 20
1427.06
 21
1427.06
  0
LINE
  8
0
 10
254.951
 11
256.996
 20
1427.06
 21
1427.49
  0
LINE
  8
0
 10
256.996
 11
258.906
 20
1427.49
 21
1428.34
  0
LINE
  8
0
 10
258.906
 11
260.597
 20
1428.34
 21
1429.57
  0
LINE
  8
0
 10
260.597
 11
261.996
 20
1429.57
 21
1431.12
  0
LINE
  8
0
 10
261.996
 11
262.503
 20
1431.12
 21
1432
  0
LINE
  8
0
 10
262.503
 11
262.566
 20
1432
 21
1432
  0
LINE
  8
0
 10
262.566
 11
274.113
 20
1432
 21
1452
  0
LINE
  8
0
 10
274.113
 11
274.177
 20
1452
 21
1452
  0
LINE
  8
0
 10
274.177
 11
274.683
 20
1452
 21
1452.88
  0
LINE
  8
0
 10
274.683
 11
276.082
 20
1452.88
 21
1454.43
  0
LINE
  8
0
 10
276.082
 11
277.774
 20
1454.43
 21
1455.66
  0
LINE
  8
0
 10
277.774
 11
279.683
 20
1455.66
 21
1456.51
  0
LINE
  8
0
 10
279.683
 11
281.728
 20
1456.51
 21
1456.94
  0
LINE
  8
0
 10
281.728
 11
282.774
 20
1456.94
 21
1456.94
  0
LINE
  8
0
 10
282.774
 11
282.774
 20
1456.94
 21
1457
  0
LINE
  8
0
 10
282.774
 11
354
 20
1457
 21
1457
  0
LINE
  8
0
 10
354
 11
354
 20
1457
 21
1408
  0
LINE
  8
0
 10
354
 11
0
 20
1408
 21
1408
  0
LINE
  8
0
 10
0
 11
0
 20
1558
 21
1607
  0
LINE
  8
0
 10
0
 11
71.226
 20
1607
 21
1607
  0
LINE
  8
0
 10
71.226
 11
71.226
 20
1607
 21
1606.94
  0
LINE
  8
0
 10
71.226
 11
72.272
 20
1606.94
 21
1606.94
  0
LINE
  8
0
 10
72.272
 11
74.317
 20
1606.94
 21
1606.51
  0
LINE
  8
0
 10
74.317
 11
76.226
 20
1606.51
 21
1605.66
  0
LINE
  8
0
 10
76.226
 11
77.918
 20
1605.66
 21
1604.43
  0
LINE
  8
0
 10
77.918
 11
79.317
 20
1604.43
 21
1602.88
  0
LINE
  8
0
 10
79.317
 11
79.823
 20
1602.88
 21
1602
  0
LINE
  8
0
 10
79.823
 11
79.887
 20
1602
 21
1602
  0
LINE
  8
0
 10
79.887
 11
91.434
 20
1602
 21
1582
  0
LINE
  8
0
 10
91.434
 11
91.497
 20
1582
 21
1582
  0
LINE
  8
0
 10
91.497
 11
92.004
 20
1582
 21
1581.12
  0
LINE
  8
0
 10
92.004
 11
93.403
 20
1581.12
 21
1579.57
  0
LINE
  8
0
 10
93.403
 11
95.094
 20
1579.57
 21
1578.34
  0
LINE
  8
0
 10
95.094
 11
97.004
 20
1578.34
 21
1577.49
  0
LINE
  8
0
 10
97.004
 11
99.049
 20
1577.49
 21
1577.06
  0
LINE
  8
0
 10
99.049
 11
100.094
 20
1577.06
 21
1577.06
  0
LINE
  8
0
 10
100.094
 11
100.094
 20
1577.06
 21
1577
  0
LINE
  8
0
 10
100.094
 11
253.906
 20
1577
 21
1577
  0
LINE
  8
0
 10
253.906
 11
253.906
 20
1577
 21
1577.06
  0
LINE
  8
0
 10
253.906
 11
254.951
 20
1577.06
 21
1577.06
  0
LINE
  8
0
 10
254.951
 11
256.996
 20
1577.06
 21
1577.49
  0
LINE
  8
0
 10
256.996
 11
258.906
 20
1577.49
 21
1578.34
  0
LINE
  8
0
 10
258.906
 11
260.597
 20
1578.34
 21
1579.57
  0
LINE
  8
0
 10
260.597
 11
261.996
 20
1579.57
 21
1581.12
  0
LINE
  8
0
 10
261.996
 11
262.503
 20
1581.12
 21
1582
  0
LINE
  8
0
 10
262.503
 11
262.566
 20
1582
 21
1582
  0
LINE
  8
0
 10
262.566
 11
274.113
 20
1582
 21
1602
  0
LINE
  8
0
 10
274.113
 11
274.177
 20
1602
 21
1602
  0
LINE
  8
0
 10
274.177
 11
274.683
 20
1602
 21
1602.88
  0
LINE
  8
0
 10
274.683
 11
276.082
 20
1602.88
 21
1604.43
  0
LINE
  8
0
 10
276.082
 11
277.774
 20
1604.43
 21
1605.66
  0
LINE
  8
0
 10
277.774
 11
279.683
 20
1605.66
 21
1606.51
  0
LINE
  8
0
 10
279.683
 11
281.728
 20
1606.51
 21
1606.94
  0
LINE
  8
0
 10
281.728
 11
282.774
 20
1606.94
 21
1606.94
  0
LINE
  8
0
 10
282.774
 11
282.774
 20
1606.94
 21
1607
  0
LINE
  8
0
 10
282.774
 11
354
 20
1607
 21
1607
  0
LINE
  8
0
 10
354
 11
354
 20
1607
 21
1558
  0
LINE
  8
0
 10
354
 11
0
 20
1558
 21
1558
  0
LINE
  8
0
 10
0
 11
0
 20
1708
 21
1757
  0
LINE
  8
0
 10
0
 11
71.226
 20
1757
 21
1757
  0
LINE
  8
0
 10
71.226
 11
71.226
 20
1757
 21
1756.94
  0
LINE
  8
0
 10
71.226
 11
72.272
 20
1756.94
 21
1756.94
  0
LINE
  8
0
 10
72.272
 11
74.317
 20
1756.94
 21
1756.51
  0
LINE
  8
0
 10
74.317
 11
76.226
 20
1756.51
 21
1755.66
  0
LINE
  8
0
 10
76.226
 11
77.918
 20
1755.66
 21
1754.43
  0
LINE
  8
0
 10
77.918
 11
79.317
 20
1754.43
 21
1752.88
  0
LINE
  8
0
 10
79.317
 11
79.823
 20
1752.88
 21
1752
  0
LINE
  8
0
 10
79.823
 11
79.887
 20
1752
 21
1752
  0
LINE
  8
0
 10
79.887
 11
91.434
 20
1752
 21
1732
  0
LINE
  8
0
 10
91.434
 11
91.497
 20
1732
 21
1732
  0
LINE
  8
0
 10
91.497
 11
92.004
 20
1732
 21
1731.12
  0
LINE
  8
0
 10
92.004
 11
93.403
 20
1731.12
 21
1729.57
  0
LINE
  8
0
 10
93.403
 11
95.094
 20
1729.57
 21
1728.34
  0
LINE
  8
0
 10
95.094
 11
97.004
 20
1728.34
 21
1727.49
  0
LINE
  8
0
 10
97.004
 11
99.049
 20
1727.49
 21
1727.06
  0
LINE
  8
0
 10
99.049
 11
100.094
 20
1727.06
 21
1727.06
  0
LINE
  8
0
 10
100.094
 11
100.094
 20
1727.06
 21
1727
  0
LINE
  8
0
 10
100.094
 11
253.906
 20
1727
 21
1727
  0
LINE
  8
0
 10
253.906
 11
253.906
 20
1727
 21
1727.06
  0
LINE
  8
0
 10
253.906
 11
254.951
 20
1727.06
 21
1727.06
  0
LINE
  8
0
 10
254.951
 11
256.996
 20
1727.06
 21
1727.49
  0
LINE
  8
0
 10
256.996
 11
258.906
 20
1727.49
 21
1728.34
  0
LINE
  8
0
 10
258.906
 11
260.597
 20
1728.34
 21
1729.57
  0
LINE
  8
0
 10
260.597
 11
261.996
 20
1729.57
 21
1731.12
  0
LINE
  8
0
 10
261.996
 11
262.503
 20
1731.12
 21
1732
  0
LINE
  8
0
 10
262.503
 11
262.566
 20
1732
 21
1732
  0
LINE
  8
0
 10
262.566
 11
274.113
 20
1732
 21
1752
  0
LINE
  8
0
 10
274.113
 11
274.177
 20
1752
 21
1752
  0
LINE
  8
0
 10
274.177
 11
274.683
 20
1752
 21
1752.88
  0
LINE
  8
0
 10
274.683
 11
276.082
 20
1752.88
 21
1754.43
  0
LINE
  8
0
 10
276.082
 11
277.774
 20
1754.43
 21
1755.66
  0
LINE
  8
0
 10
277.774
 11
279.683
 20
1755.66
 21
1756.51
  0
LINE
  8
0
 10
279.683
 11
281.728
 20
1756.51
 21
1756.94
  0
LINE
  8
0
 10
281.728
 11
282.774
 20
1756.94
 21
1756.94
  0
LINE
  8
0
 10
282.774
 11
282.774
 20
1756.94
 21
1757
  0
LINE
  8
0
 10
282.774
 11
354
 20
1757
 21
1757
  0
LINE
  8
0
 10
354
 11
354
 20
1757
 21
1708
  0
LINE
  8
0
 10
354
 11
0
 20
1708
 21
1708
  0
LINE
  8
0
 10
0
 11
0
 20
1858
 21
1907
  0
LINE
  8
0
 10
0
 11
71.226
 20
1907
 21
1907
  0
LINE
  8
0
 10
71.226
 11
71.226
 20
1907
 21
1906.94
  0
LINE
  8
0
 10
71.226
 11
72.272
 20
1906.94
 21
1906.94
  0
LINE
  8
0
 10
72.272
 11
74.317
 20
1906.94
 21
1906.51
  0
LINE
  8
0
 10
74.317
 11
76.226
 20
1906.51
 21
1905.66
  0
LINE
  8
0
 10
76.226
 11
77.918
 20
1905.66
 21
1904.43
  0
LINE
  8
0
 10
77.918
 11
79.317
 20
1904.43
 21
1902.88
  0
LINE
  8
0
 10
79.317
 11
79.823
 20
1902.88
 21
1902
  0
LINE
  8
0
 10
79.823
 11
79.887
 20
1902
 21
1902
  0
LINE
  8
0
 10
79.887
 11
91.434
 20
1902
 21
1882
  0
LINE
  8
0
 10
91.434
 11
91.497
 20
1882
 21
1882
  0
LINE
  8
0
 10
91.497
 11
92.004
 20
1882
 21
1881.12
  0
LINE
  8
0
 10
92.004
 11
93.403
 20
1881.12
 21
1879.57
  0
LINE
  8
0
 10
93.403
 11
95.094
 20
1879.57
 21
1878.34
  0
LINE
  8
0
 10
95.094
 11
97.004
 20
1878.34
 21
1877.49
  0
LINE
  8
0
 10
97.004
 11
99.049
 20
1877.49
 21
1877.06
  0
LINE
  8
0
 10
99.049
 11
100.094
 20
1877.06
 21
1877.06
  0
LINE
  8
0
 10
100.094
 11
100.094
 20
1877.06
 21
1877
  0
LINE
  8
0
 10
100.094
 11
253.906
 20
1877
 21
1877
  0
LINE
  8
0
 10
253.906
 11
253.906
 20
1877
 21
1877.06
  0
LINE
  8
0
 10
253.906
 11
254.951
 20
1877.06
 21
1877.06
  0
LINE
  8
0
 10
254.951
 11
256.996
 20
1877.06
 21
1877.49
  0
LINE
  8
0
 10
256.996
 11
258.906
 20
1877.49
 21
1878.34
  0
LINE
  8
0
 10
258.906
 11
260.597
 20
1878.34
 21
1879.57
  0
LINE
  8
0
 10
260.597
 11
261.996
 20
1879.57
 21
1881.12
  0
LINE
  8
0
 10
261.996
 11
262.503
 20
1881.12
 21
1882
  0
LINE
  8
0
 10
262.503
 11
262.566
 20
1882
 21
1882
  0
LINE
  8
0
 10
262.566
 11
274.113
 20
1882
 21
1902
  0
LINE
  8
0
 10
274.113
 11
274.177
 20
1902
 21
1902
  0
LINE
  8
0
 10
274.177
 11
274.683
 20
1902
 21
1902.88
  0
LINE
  8
0
 10
274.683
 11
276.082
 20
1902.88
 21
1904.43
  0
LINE
  8
0
 10
276.082
 11
277.774
 20
1904.43
 21
1905.66
  0
LINE
  8
0
 10
277.774
 11
279.683
 20
1905.66
 21
1906.51
  0
LINE
  8
0
 10
279.683
 11
281.728
 20
1906.51
 21
1906.94
  0
LINE
  8
0
 10
281.728
 11
282.774
 20
1906.94
 21
1906.94
  0
LINE
  8
0
 10
282.774
 11
282.774
 20
1906.94
 21
1907
  0
LINE
  8
0
 10
282.774
 11
354
 20
1907
 21
1907
  0
LINE
  8
0
 10
354
 11
354
 20
1907
 21
1858
  0
LINE
  8
0
 10
354
 11
0
 20
1858
 21
1858
  0
LINE
  8
0
 10
0
 11
0
 20
2008
 21
2057
  0
LINE
  8
0
 10
0
 11
71.226
 20
2057
 21
2057
  0
LINE
  8
0
 10
71.226
 11
71.226
 20
2057
 21
2056.95
  0
LINE
  8
0
 10
71.226
 11
72.272
 20
2056.95
 21
2056.95
  0
LINE
  8
0
 10
72.272
 11
74.317
 20
2056.95
 21
2056.51
  0
LINE
  8
0
 10
74.317
 11
76.226
 20
2056.51
 21
2055.66
  0
LINE
  8
0
 10
76.226
 11
77.918
 20
2055.66
 21
2054.43
  0
LINE
  8
0
 10
77.918
 11
79.317
 20
2054.43
 21
2052.88
  0
LINE
  8
0
 10
79.317
 11
79.823
 20
2052.88
 21
2052
  0
LINE
  8
0
 10
79.823
 11
79.887
 20
2052
 21
2052
  0
LINE
  8
0
 10
79.887
 11
91.434
 20
2052
 21
2032
  0
LINE
  8
0
 10
91.434
 11
91.497
 20
2032
 21
2032
  0
LINE
  8
0
 10
91.497
 11
92.004
 20
2032
 21
2031.12
  0
LINE
  8
0
 10
92.004
 11
93.403
 20
2031.12
 21
2029.57
  0
LINE
  8
0
 10
93.403
 11
95.094
 20
2029.57
 21
2028.34
  0
LINE
  8
0
 10
95.094
 11
97.004
 20
2028.34
 21
2027.49
  0
LINE
  8
0
 10
97.004
 11
99.049
 20
2027.49
 21
2027.06
  0
LINE
  8
0
 10
99.049
 11
100.094
 20
2027.06
 21
2027.06
  0
LINE
  8
0
 10
100.094
 11
100.094
 20
2027.06
 21
2027
  0
LINE
  8
0
 10
100.094
 11
253.906
 20
2027
 21
2027
  0
LINE
  8
0
 10
253.906
 11
253.906
 20
2027
 21
2027.06
  0
LINE
  8
0
 10
253.906
 11
254.951
 20
2027.06
 21
2027.06
  0
LINE
  8
0
 10
254.951
 11
256.996
 20
2027.06
 21
2027.49
  0
LINE
  8
0
 10
256.996
 11
258.906
 20
2027.49
 21
2028.34
  0
LINE
  8
0
 10
258.906
 11
260.597
 20
2028.34
 21
2029.57
  0
LINE
  8
0
 10
260.597
 11
261.996
 20
2029.57
 21
2031.12
  0
LINE
  8
0
 10
261.996
 11
262.503
 20
2031.12
 21
2032
  0
LINE
  8
0
 10
262.503
 11
262.566
 20
2032
 21
2032
  0
LINE
  8
0
 10
262.566
 11
274.113
 20
2032
 21
2052
  0
LINE
  8
0
 10
274.113
 11
274.177
 20
2052
 21
2052
  0
LINE
  8
0
 10
274.177
 11
274.683
 20
2052
 21
2052.88
  0
LINE
  8
0
 10
274.683
 11
276.082
 20
2052.88
 21
2054.43
  0
LINE
  8
0
 10
276.082
 11
277.774
 20
2054.43
 21
2055.66
  0
LINE
  8
0
 10
277.774
 11
279.683
 20
2055.66
 21
2056.51
  0
LINE
  8
0
 10
279.683
 11
281.728
 20
2056.51
 21
2056.95
  0
LINE
  8
0
 10
281.728
 11
282.774
 20
2056.95
 21
2056.95
  0
LINE
  8
0
 10
282.774
 11
282.774
 20
2056.95
 21
2057
  0
LINE
  8
0
 10
282.774
 11
354
 20
2057
 21
2057
  0
LINE
  8
0
 10
354
 11
354
 20
2057
 21
2008
  0
LINE
  8
0
 10
354
 11
0
 20
2008
 21
2008
  0
LINE
  8
0
 10
0.1
 11
0.1
 20
0
 21
49
  0
LINE
  8
0
 10
0.1
 11
28.1
 20
49
 21
49
  0
LINE
  8
0
 10
28.1
 11
28.1
 20
49
 21
0
  0
LINE
  8
0
 10
28.1
 11
0.1
 20
0
 21
0
  0
LINE
  8
0
 10
33.1
 11
33.1
 20
0
 21
49
  0
LINE
  8
0
 10
33.1
 11
61.1
 20
49
 21
49
  0
LINE
  8
0
 10
61.1
 11
61.1
 20
49
 21
0
  0
LINE
  8
0
 10
61.1
 11
33.1
 20
0
 21
0
  0
LINE
  8
0
 10
66.1
 11
66.1
 20
0
 21
49
  0
LINE
  8
0
 10
66.1
 11
94.1
 20
49
 21
49
  0
LINE
  8
0
 10
94.1
 11
94.1
 20
49
 21
0
  0
LINE
  8
0
 10
94.1
 11
66.1
 20
0
 21
0
  0
LINE
  8
0
 10
99.1
 11
99.1
 20
0
 21
19.055
  0
LINE
  8
0
 10
99.1
 11
127.1
 20
19.055
 21
19.055
  0
LINE
  8
0
 10
127.1
 11
127.1
 20
19.055
 21
0
  0
LINE
  8
0
 10
127.1
 11
99.1
 20
0
 21
0
  0
LINE
  8
0
 10
132.1
 11
132.1
 20
0
 21
19
  0
LINE
  8
0
 10
132.1
 11
160.1
 20
19
 21
19
  0
LINE
  8
0
 10
160.1
 11
160.1
 20
19
 21
0
  0
LINE
  8
0
 10
160.1
 11
132.1
 20
0
 21
0
  0
LINE
  8
0
 10
165.1
 11
165.1
 20
0
 21
19
  0
LINE
  8
0
 10
165.1
 11
193.1
 20
19
 21
19
  0
LINE
  8
0
 10
193.1
 11
193.1
 20
19
 21
0
  0
LINE
  8
0
 10
193.1
 11
165.1
 20
0
 21
0
  0
LINE
  8
0
 10
198.1
 11
198.1
 20
0
 21
19
  0
LINE
  8
0
 10
198.1
 11
226.1
 20
19
 21
19
  0
LINE
  8
0
 10
226.1
 11
226.1
 20
19
 21
0
  0
LINE
  8
0
 10
226.1
 11
198.1
 20
0
 21
0
  0
LINE
  8
0
 10
231.1
 11
231.1
 20
0
 21
19
  0
LINE
  8
0
 10
231.1
 11
259.1
 20
19
 21
19
  0
LINE
  8
0
 10
259.1
 11
259.1
 20
19
 21
0
  0
LINE
  8
0
 10
259.1
 11
231.1
 20
0
 21
0
  0
LINE
  8
0
 10
258.143
 11
258.143
 20
334
 21
362
  0
LINE
  8
0
 10
258.143
 11
354
 20
362
 21
362
  0
LINE
  8
0
 10
354
 11
354
 20
362
 21
334
  0
LINE
  8
0
 10
354
 11
258.143
 20
334
 21
334
  0
LINE
  8
0
 10
264.1
 11
264.1
 20
0
 21
26.657
  0
LINE
  8
0
 10
264.1
 11
292.1
 20
26.657
 21
26.657
  0
LINE
  8
0
 10
292.1
 11
292.1
 20
26.657
 21
0
  0
LINE
  8
0
 10
292.1
 11
264.1
 20
0
 21
0
  0
LINE
  8
0
 10
266.03
 11
266.03
 20
412
 21
440
  0
LINE
  8
0
 10
266.03
 11
354
 20
440
 21
440
  0
LINE
  8
0
 10
354
 11
354
 20
440
 21
412
  0
LINE
  8
0
 10
354
 11
266.03
 20
412
 21
412
  0
LINE
  8
0
 10
271.804
 11
271.804
 20
490
 21
518
  0
LINE
  8
0
 10
271.804
 11
354
 20
518
 21
518
  0
LINE
  8
0
 10
354
 11
354
 20
518
 21
490
  0
LINE
  8
0
 10
354
 11
271.804
 20
490
 21
490
  0
LINE
  8
0
 10
297.1
 11
297.1
 20
0
 21
49
  0
LINE
  8
0
 10
297.1
 11
325.1
 20
49
 21
49
  0
LINE
  8
0
 10
325.1
 11
325.1
 20
49
 21
0
  0
LINE
  8
0
 10
325.1
 11
297.1
 20
0
 21
0
  0
LINE
  8
0
 10
330.1
 11
330.1
 20
0
 21
49
  0
LINE
  8
0
 10
330.1
 11
358.1
 20
49
 21
49
  0
LINE
  8
0
 10
358.1
 11
358.1
 20
49
 21
0
  0
LINE
  8
0
 10
358.1
 11
330.1
 20
0
 21
0
  0
ENDSEC
  0
SECTION
  2
OBJECTS
  0
DICTIONARY
  0
ENDSEC
  0
EOF
