solid OpenSCAD_Model
  facet normal -1 0 0
    outer loop
      vertex 0 0 0
      vertex 0 0 28
      vertex 0 49 0
    endloop
  endfacet
  facet normal -1 0 0
    outer loop
      vertex 0 49 0
      vertex 0 0 28
      vertex 0 49 28
    endloop
  endfacet
  facet normal 0 -1 0
    outer loop
      vertex 0 0 28
      vertex 0 0 0
      vertex 354 0 0
    endloop
  endfacet
  facet normal 0 -1 0
    outer loop
      vertex 354 0 28
      vertex 0 0 28
      vertex 354 0 0
    endloop
  endfacet
  facet normal 0 0 -1
    outer loop
      vertex 71.2265 48.9452 0
      vertex 0 49 0
      vertex 71.2265 49 0
    endloop
  endfacet
  facet normal 0 0 -1
    outer loop
      vertex 76.2265 47.6603 0
      vertex 0 49 0
      vertex 71.2265 48.9452 0
    endloop
  endfacet
  facet normal 0 0 -1
    outer loop
      vertex 76.2265 47.6603 0
      vertex 71.2265 48.9452 0
      vertex 74.3167 48.5106 0
    endloop
  endfacet
  facet normal 0 0 -1
    outer loop
      vertex 77.9178 46.4314 0
      vertex 0 49 0
      vertex 76.2265 47.6603 0
    endloop
  endfacet
  facet normal 0 0 -1
    outer loop
      vertex 91.4338 24 0
      vertex 0 49 0
      vertex 79.8235 44 0
    endloop
  endfacet
  facet normal 0 0 -1
    outer loop
      vertex 79.3167 44.8779 0
      vertex 0 49 0
      vertex 77.9178 46.4314 0
    endloop
  endfacet
  facet normal 0 0 -1
    outer loop
      vertex 79.8235 44 0
      vertex 0 49 0
      vertex 79.3167 44.8779 0
    endloop
  endfacet
  facet normal 0 0 -1
    outer loop
      vertex 0 0 0
      vertex 0 49 0
      vertex 91.4338 24 0
    endloop
  endfacet
  facet normal 0 0 -1
    outer loop
      vertex 253.906 19 0
      vertex 354 0 0
      vertex 100.094 19 0
    endloop
  endfacet
  facet normal 0 0 -1
    outer loop
      vertex 92.0038 23.1221 0
      vertex 91.4338 24 0
      vertex 91.497 24 0
    endloop
  endfacet
  facet normal 0 0 -1
    outer loop
      vertex 0 0 0
      vertex 91.4338 24 0
      vertex 92.0038 23.1221 0
    endloop
  endfacet
  facet normal 0 0 -1
    outer loop
      vertex 0 0 0
      vertex 92.0038 23.1221 0
      vertex 93.4027 21.5686 0
    endloop
  endfacet
  facet normal 0 0 -1
    outer loop
      vertex 0 0 0
      vertex 93.4027 21.5686 0
      vertex 95.094 20.3397 0
    endloop
  endfacet
  facet normal 0 0 -1
    outer loop
      vertex 0 0 0
      vertex 95.094 20.3397 0
      vertex 97.0038 19.4894 0
    endloop
  endfacet
  facet normal 0 0 -1
    outer loop
      vertex 0 0 0
      vertex 97.0038 19.4894 0
      vertex 99.0487 19.0548 0
    endloop
  endfacet
  facet normal 0 0 -1
    outer loop
      vertex 0 0 0
      vertex 99.0487 19.0548 0
      vertex 354 0 0
    endloop
  endfacet
  facet normal 0 0 -1
    outer loop
      vertex 99.0487 19.0548 0
      vertex 100.094 19.0548 0
      vertex 100.094 19 0
    endloop
  endfacet
  facet normal 0 0 -1
    outer loop
      vertex 99.0487 19.0548 0
      vertex 100.094 19 0
      vertex 354 0 0
    endloop
  endfacet
  facet normal 0 0 -1
    outer loop
      vertex 354 0 0
      vertex 253.906 19 0
      vertex 253.906 19.0548 0
    endloop
  endfacet
  facet normal 0 0 -1
    outer loop
      vertex 354 0 0
      vertex 253.906 19.0548 0
      vertex 254.951 19.0548 0
    endloop
  endfacet
  facet normal 0 0 -1
    outer loop
      vertex 254.951 19.0548 0
      vertex 256.996 19.4894 0
      vertex 354 0 0
    endloop
  endfacet
  facet normal 0 0 -1
    outer loop
      vertex 256.996 19.4894 0
      vertex 258.906 20.3397 0
      vertex 354 0 0
    endloop
  endfacet
  facet normal 0 0 -1
    outer loop
      vertex 258.906 20.3397 0
      vertex 260.597 21.5686 0
      vertex 354 0 0
    endloop
  endfacet
  facet normal 0 0 -1
    outer loop
      vertex 260.597 21.5686 0
      vertex 261.996 23.1221 0
      vertex 354 0 0
    endloop
  endfacet
  facet normal 0 0 -1
    outer loop
      vertex 261.996 23.1221 0
      vertex 262.503 24 0
      vertex 354 0 0
    endloop
  endfacet
  facet normal 0 0 -1
    outer loop
      vertex 354 0 0
      vertex 262.503 24 0
      vertex 262.566 24 0
    endloop
  endfacet
  facet normal 0 0 -1
    outer loop
      vertex 262.566 24 0
      vertex 274.113 44 0
      vertex 354 0 0
    endloop
  endfacet
  facet normal 0 0 -1
    outer loop
      vertex 274.113 44 0
      vertex 274.177 44 0
      vertex 354 0 0
    endloop
  endfacet
  facet normal 0 0 -1
    outer loop
      vertex 274.177 44 0
      vertex 274.683 44.8779 0
      vertex 354 0 0
    endloop
  endfacet
  facet normal 0 0 -1
    outer loop
      vertex 354 0 0
      vertex 274.683 44.8779 0
      vertex 276.082 46.4314 0
    endloop
  endfacet
  facet normal 0 0 -1
    outer loop
      vertex 354 0 0
      vertex 276.082 46.4314 0
      vertex 277.774 47.6603 0
    endloop
  endfacet
  facet normal 0 0 -1
    outer loop
      vertex 354 0 0
      vertex 277.774 47.6603 0
      vertex 279.683 48.5106 0
    endloop
  endfacet
  facet normal 0 0 -1
    outer loop
      vertex 354 0 0
      vertex 279.683 48.5106 0
      vertex 281.728 48.9452 0
    endloop
  endfacet
  facet normal 0 0 -1
    outer loop
      vertex 354 0 0
      vertex 281.728 48.9452 0
      vertex 282.774 48.9452 0
    endloop
  endfacet
  facet normal 0 0 -1
    outer loop
      vertex 282.774 48.9452 0
      vertex 282.774 49 0
      vertex 354 0 0
    endloop
  endfacet
  facet normal 0 0 -1
    outer loop
      vertex 354 0 0
      vertex 282.774 49 0
      vertex 354 49 0
    endloop
  endfacet
  facet normal 0 0 -1
    outer loop
      vertex 91.4338 24 0
      vertex 79.8235 44 0
      vertex 79.8868 44 0
    endloop
  endfacet
  facet normal 0 0 -1
    outer loop
      vertex 72.2718 48.9452 0
      vertex 74.3167 48.5106 0
      vertex 71.2265 48.9452 0
    endloop
  endfacet
  facet normal 0 1 -1.22461e-16
    outer loop
      vertex 0 49 0
      vertex 0 49 28
      vertex 71.2265 49 0
    endloop
  endfacet
  facet normal 0 1 -1.22461e-16
    outer loop
      vertex 71.2265 49 0
      vertex 0 49 28
      vertex 71.2265 49 28
    endloop
  endfacet
  facet normal 0 0 1
    outer loop
      vertex 100.094 19 28
      vertex 0 0 28
      vertex 354 0 28
    endloop
  endfacet
  facet normal 0 0 1
    outer loop
      vertex 354 49 28
      vertex 282.774 49 28
      vertex 354 0 28
    endloop
  endfacet
  facet normal 0 0 1
    outer loop
      vertex 282.774 49 28
      vertex 282.774 48.9452 28
      vertex 354 0 28
    endloop
  endfacet
  facet normal 0 0 1
    outer loop
      vertex 282.774 48.9452 28
      vertex 281.728 48.9452 28
      vertex 354 0 28
    endloop
  endfacet
  facet normal 0 0 1
    outer loop
      vertex 281.728 48.9452 28
      vertex 279.683 48.5106 28
      vertex 354 0 28
    endloop
  endfacet
  facet normal 0 0 1
    outer loop
      vertex 279.683 48.5106 28
      vertex 277.774 47.6603 28
      vertex 354 0 28
    endloop
  endfacet
  facet normal 0 0 1
    outer loop
      vertex 277.774 47.6603 28
      vertex 276.082 46.4314 28
      vertex 354 0 28
    endloop
  endfacet
  facet normal 0 0 1
    outer loop
      vertex 276.082 46.4314 28
      vertex 274.683 44.8779 28
      vertex 354 0 28
    endloop
  endfacet
  facet normal 0 0 1
    outer loop
      vertex 274.683 44.8779 28
      vertex 274.177 44 28
      vertex 354 0 28
    endloop
  endfacet
  facet normal 0 0 1
    outer loop
      vertex 274.177 44 28
      vertex 274.113 44 28
      vertex 354 0 28
    endloop
  endfacet
  facet normal 0 0 1
    outer loop
      vertex 274.113 44 28
      vertex 262.566 24 28
      vertex 354 0 28
    endloop
  endfacet
  facet normal 0 0 1
    outer loop
      vertex 79.8235 44 28
      vertex 79.3167 44.8779 28
      vertex 0 49 28
    endloop
  endfacet
  facet normal 0 0 1
    outer loop
      vertex 262.566 24 28
      vertex 262.503 24 28
      vertex 354 0 28
    endloop
  endfacet
  facet normal 0 0 1
    outer loop
      vertex 77.9178 46.4314 28
      vertex 76.2265 47.6603 28
      vertex 0 49 28
    endloop
  endfacet
  facet normal 0 0 1
    outer loop
      vertex 262.503 24 28
      vertex 261.996 23.1221 28
      vertex 354 0 28
    endloop
  endfacet
  facet normal 0 0 1
    outer loop
      vertex 74.3167 48.5106 28
      vertex 72.2718 48.9452 28
      vertex 71.2265 48.9452 28
    endloop
  endfacet
  facet normal 0 0 1
    outer loop
      vertex 261.996 23.1221 28
      vertex 260.597 21.5686 28
      vertex 354 0 28
    endloop
  endfacet
  facet normal 0 0 1
    outer loop
      vertex 260.597 21.5686 28
      vertex 258.906 20.3397 28
      vertex 354 0 28
    endloop
  endfacet
  facet normal 0 0 1
    outer loop
      vertex 258.906 20.3397 28
      vertex 256.996 19.4894 28
      vertex 354 0 28
    endloop
  endfacet
  facet normal 0 0 1
    outer loop
      vertex 256.996 19.4894 28
      vertex 254.951 19.0548 28
      vertex 354 0 28
    endloop
  endfacet
  facet normal 0 0 1
    outer loop
      vertex 254.951 19.0548 28
      vertex 253.906 19.0548 28
      vertex 354 0 28
    endloop
  endfacet
  facet normal 0 0 1
    outer loop
      vertex 253.906 19.0548 28
      vertex 253.906 19 28
      vertex 354 0 28
    endloop
  endfacet
  facet normal 0 0 1
    outer loop
      vertex 99.0487 19.0548 28
      vertex 0 0 28
      vertex 100.094 19 28
    endloop
  endfacet
  facet normal 0 0 1
    outer loop
      vertex 97.0038 19.4894 28
      vertex 0 0 28
      vertex 99.0487 19.0548 28
    endloop
  endfacet
  facet normal 0 0 1
    outer loop
      vertex 95.094 20.3397 28
      vertex 93.4027 21.5686 28
      vertex 0 49 28
    endloop
  endfacet
  facet normal 0 0 1
    outer loop
      vertex 0 49 28
      vertex 0 0 28
      vertex 97.0038 19.4894 28
    endloop
  endfacet
  facet normal 0 0 1
    outer loop
      vertex 97.0038 19.4894 28
      vertex 95.094 20.3397 28
      vertex 0 49 28
    endloop
  endfacet
  facet normal 0 0 1
    outer loop
      vertex 100.094 19.0548 28
      vertex 99.0487 19.0548 28
      vertex 100.094 19 28
    endloop
  endfacet
  facet normal 0 0 1
    outer loop
      vertex 0 49 28
      vertex 93.4027 21.5686 28
      vertex 92.0038 23.1221 28
    endloop
  endfacet
  facet normal 0 0 1
    outer loop
      vertex 91.4338 24 28
      vertex 92.0038 23.1221 28
      vertex 91.497 24 28
    endloop
  endfacet
  facet normal 0 0 1
    outer loop
      vertex 0 49 28
      vertex 92.0038 23.1221 28
      vertex 91.4338 24 28
    endloop
  endfacet
  facet normal 0 0 1
    outer loop
      vertex 77.9178 46.4314 28
      vertex 0 49 28
      vertex 79.3167 44.8779 28
    endloop
  endfacet
  facet normal 0 0 1
    outer loop
      vertex 76.2265 47.6603 28
      vertex 74.3167 48.5106 28
      vertex 0 49 28
    endloop
  endfacet
  facet normal 0 0 1
    outer loop
      vertex 74.3167 48.5106 28
      vertex 71.2265 48.9452 28
      vertex 0 49 28
    endloop
  endfacet
  facet normal 0 0 1
    outer loop
      vertex 71.2265 48.9452 28
      vertex 71.2265 49 28
      vertex 0 49 28
    endloop
  endfacet
  facet normal 0 0 1
    outer loop
      vertex 253.906 19 28
      vertex 100.094 19 28
      vertex 354 0 28
    endloop
  endfacet
  facet normal 0 0 1
    outer loop
      vertex 91.4338 24 28
      vertex 79.8235 44 28
      vertex 0 49 28
    endloop
  endfacet
  facet normal 0 0 1
    outer loop
      vertex 91.4338 24 28
      vertex 79.8868 44 28
      vertex 79.8235 44 28
    endloop
  endfacet
  facet normal 1 0 0
    outer loop
      vertex 354 0 28
      vertex 354 0 0
      vertex 354 49 0
    endloop
  endfacet
  facet normal 1 0 0
    outer loop
      vertex 354 49 28
      vertex 354 0 28
      vertex 354 49 0
    endloop
  endfacet
  facet normal 0 1 -1.22461e-16
    outer loop
      vertex 282.774 49 0
      vertex 282.774 49 28
      vertex 354 49 0
    endloop
  endfacet
  facet normal 0 1 -1.22461e-16
    outer loop
      vertex 354 49 0
      vertex 282.774 49 28
      vertex 354 49 28
    endloop
  endfacet
  facet normal -1 0 0
    outer loop
      vertex 282.774 49 28
      vertex 282.774 49 0
      vertex 282.774 48.9452 28
    endloop
  endfacet
  facet normal -1 0 0
    outer loop
      vertex 282.774 48.9452 28
      vertex 282.774 49 0
      vertex 282.774 48.9452 0
    endloop
  endfacet
  facet normal 0 1 -2.44921e-16
    outer loop
      vertex 281.728 48.9452 0
      vertex 281.728 48.9452 28
      vertex 282.774 48.9452 0
    endloop
  endfacet
  facet normal 0 1 -2.44921e-16
    outer loop
      vertex 282.774 48.9452 0
      vertex 281.728 48.9452 28
      vertex 282.774 48.9452 28
    endloop
  endfacet
  facet normal -0.207912 0.978148 -2.39569e-16
    outer loop
      vertex 279.683 48.5106 0
      vertex 279.683 48.5106 28
      vertex 281.728 48.9452 0
    endloop
  endfacet
  facet normal -0.207912 0.978148 -2.39569e-16
    outer loop
      vertex 281.728 48.9452 0
      vertex 279.683 48.5106 28
      vertex 281.728 48.9452 28
    endloop
  endfacet
  facet normal -0.406737 0.913545 -2.23747e-16
    outer loop
      vertex 277.774 47.6603 0
      vertex 277.774 47.6603 28
      vertex 279.683 48.5106 0
    endloop
  endfacet
  facet normal -0.406737 0.913545 -2.23747e-16
    outer loop
      vertex 279.683 48.5106 0
      vertex 277.774 47.6603 28
      vertex 279.683 48.5106 28
    endloop
  endfacet
  facet normal -0.587785 0.809017 -1.98145e-16
    outer loop
      vertex 276.082 46.4314 0
      vertex 276.082 46.4314 28
      vertex 277.774 47.6603 0
    endloop
  endfacet
  facet normal -0.587785 0.809017 -1.98145e-16
    outer loop
      vertex 277.774 47.6603 0
      vertex 276.082 46.4314 28
      vertex 277.774 47.6603 28
    endloop
  endfacet
  facet normal -0.743145 0.669131 -1.63884e-16
    outer loop
      vertex 274.683 44.8779 0
      vertex 274.683 44.8779 28
      vertex 276.082 46.4314 0
    endloop
  endfacet
  facet normal -0.743145 0.669131 -1.63884e-16
    outer loop
      vertex 276.082 46.4314 0
      vertex 274.683 44.8779 28
      vertex 276.082 46.4314 28
    endloop
  endfacet
  facet normal -0.866025 0.5 -1.22461e-16
    outer loop
      vertex 274.177 44 0
      vertex 274.177 44 28
      vertex 274.683 44.8779 0
    endloop
  endfacet
  facet normal -0.866025 0.5 -1.22461e-16
    outer loop
      vertex 274.683 44.8779 0
      vertex 274.177 44 28
      vertex 274.683 44.8779 28
    endloop
  endfacet
  facet normal 0 1 -2.44921e-16
    outer loop
      vertex 274.177 44 0
      vertex 274.113 44 0
      vertex 274.177 44 28
    endloop
  endfacet
  facet normal 0 1 -2.44921e-16
    outer loop
      vertex 274.177 44 28
      vertex 274.113 44 0
      vertex 274.113 44 28
    endloop
  endfacet
  facet normal -0.866025 0.5 -2.33483e-16
    outer loop
      vertex 274.113 44 28
      vertex 274.113 44 0
      vertex 262.566 24 28
    endloop
  endfacet
  facet normal -0.866025 0.5 -2.33483e-16
    outer loop
      vertex 262.566 24 28
      vertex 274.113 44 0
      vertex 262.566 24 0
    endloop
  endfacet
  facet normal -2.22045e-16 1 -4.66966e-16
    outer loop
      vertex 262.566 24 28
      vertex 262.566 24 0
      vertex 262.503 24 28
    endloop
  endfacet
  facet normal -2.22045e-16 1 -4.66966e-16
    outer loop
      vertex 262.503 24 28
      vertex 262.566 24 0
      vertex 262.503 24 0
    endloop
  endfacet
  facet normal -0.866025 0.5 -1.22461e-16
    outer loop
      vertex 262.503 24 28
      vertex 262.503 24 0
      vertex 261.996 23.1221 28
    endloop
  endfacet
  facet normal -0.866025 0.5 -1.22461e-16
    outer loop
      vertex 261.996 23.1221 28
      vertex 262.503 24 0
      vertex 261.996 23.1221 0
    endloop
  endfacet
  facet normal -0.743145 0.669131 -1.63884e-16
    outer loop
      vertex 261.996 23.1221 28
      vertex 261.996 23.1221 0
      vertex 260.597 21.5686 28
    endloop
  endfacet
  facet normal -0.743145 0.669131 -1.63884e-16
    outer loop
      vertex 260.597 21.5686 28
      vertex 261.996 23.1221 0
      vertex 260.597 21.5686 0
    endloop
  endfacet
  facet normal -0.587785 0.809017 -1.98145e-16
    outer loop
      vertex 260.597 21.5686 28
      vertex 260.597 21.5686 0
      vertex 258.906 20.3397 28
    endloop
  endfacet
  facet normal -0.587785 0.809017 -1.98145e-16
    outer loop
      vertex 258.906 20.3397 28
      vertex 260.597 21.5686 0
      vertex 258.906 20.3397 0
    endloop
  endfacet
  facet normal -0.406737 0.913545 -2.23747e-16
    outer loop
      vertex 258.906 20.3397 28
      vertex 258.906 20.3397 0
      vertex 256.996 19.4894 28
    endloop
  endfacet
  facet normal -0.406737 0.913545 -2.23747e-16
    outer loop
      vertex 256.996 19.4894 28
      vertex 258.906 20.3397 0
      vertex 256.996 19.4894 0
    endloop
  endfacet
  facet normal -0.207912 0.978148 -2.39569e-16
    outer loop
      vertex 256.996 19.4894 28
      vertex 256.996 19.4894 0
      vertex 254.951 19.0548 28
    endloop
  endfacet
  facet normal -0.207912 0.978148 -2.39569e-16
    outer loop
      vertex 254.951 19.0548 28
      vertex 256.996 19.4894 0
      vertex 254.951 19.0548 0
    endloop
  endfacet
  facet normal 0 1 -2.44921e-16
    outer loop
      vertex 254.951 19.0548 28
      vertex 254.951 19.0548 0
      vertex 253.906 19.0548 28
    endloop
  endfacet
  facet normal 0 1 -2.44921e-16
    outer loop
      vertex 253.906 19.0548 28
      vertex 254.951 19.0548 0
      vertex 253.906 19.0548 0
    endloop
  endfacet
  facet normal -1 0 0
    outer loop
      vertex 253.906 19 28
      vertex 253.906 19.0548 28
      vertex 253.906 19 14
    endloop
  endfacet
  facet normal -1 0 0
    outer loop
      vertex 253.906 19 14
      vertex 253.906 19.0548 28
      vertex 253.906 19.0548 0
    endloop
  endfacet
  facet normal -1 0 0
    outer loop
      vertex 253.906 19 14
      vertex 253.906 19.0548 0
      vertex 253.906 19 0
    endloop
  endfacet
  facet normal 0 1 0
    outer loop
      vertex 253.906 19 14
      vertex 253.906 19 0
      vertex 100.094 19 14
    endloop
  endfacet
  facet normal 0 1 0
    outer loop
      vertex 100.094 19 14
      vertex 253.906 19 0
      vertex 100.094 19 0
    endloop
  endfacet
  facet normal 1 0 0
    outer loop
      vertex 100.094 19.0548 0
      vertex 100.094 19.0548 28
      vertex 100.094 19 28
    endloop
  endfacet
  facet normal 1 0 0
    outer loop
      vertex 100.094 19 0
      vertex 100.094 19.0548 0
      vertex 100.094 19 14
    endloop
  endfacet
  facet normal 1 0 0
    outer loop
      vertex 100.094 19 14
      vertex 100.094 19.0548 0
      vertex 100.094 19 28
    endloop
  endfacet
  facet normal 0 1 -2.44921e-16
    outer loop
      vertex 100.094 19.0548 28
      vertex 100.094 19.0548 0
      vertex 99.0487 19.0548 28
    endloop
  endfacet
  facet normal 0 1 -2.44921e-16
    outer loop
      vertex 99.0487 19.0548 28
      vertex 100.094 19.0548 0
      vertex 99.0487 19.0548 0
    endloop
  endfacet
  facet normal 0.207912 0.978148 -2.39569e-16
    outer loop
      vertex 99.0487 19.0548 28
      vertex 99.0487 19.0548 0
      vertex 97.0038 19.4894 28
    endloop
  endfacet
  facet normal 0.207912 0.978148 -2.39569e-16
    outer loop
      vertex 97.0038 19.4894 28
      vertex 99.0487 19.0548 0
      vertex 97.0038 19.4894 0
    endloop
  endfacet
  facet normal 0.406737 0.913545 -2.23747e-16
    outer loop
      vertex 97.0038 19.4894 28
      vertex 97.0038 19.4894 0
      vertex 95.094 20.3397 28
    endloop
  endfacet
  facet normal 0.406737 0.913545 -2.23747e-16
    outer loop
      vertex 95.094 20.3397 28
      vertex 97.0038 19.4894 0
      vertex 95.094 20.3397 0
    endloop
  endfacet
  facet normal 0.587785 0.809017 -1.98145e-16
    outer loop
      vertex 95.094 20.3397 28
      vertex 95.094 20.3397 0
      vertex 93.4027 21.5686 28
    endloop
  endfacet
  facet normal 0.587785 0.809017 -1.98145e-16
    outer loop
      vertex 93.4027 21.5686 28
      vertex 95.094 20.3397 0
      vertex 93.4027 21.5686 0
    endloop
  endfacet
  facet normal 0.743145 0.669131 -1.63884e-16
    outer loop
      vertex 92.0038 23.1221 28
      vertex 93.4027 21.5686 28
      vertex 93.4027 21.5686 0
    endloop
  endfacet
  facet normal 0.743145 0.669131 -1.63884e-16
    outer loop
      vertex 92.0038 23.1221 0
      vertex 92.0038 23.1221 28
      vertex 93.4027 21.5686 0
    endloop
  endfacet
  facet normal 0.866025 0.5 -1.22461e-16
    outer loop
      vertex 92.0038 23.1221 28
      vertex 92.0038 23.1221 0
      vertex 91.497 24 0
    endloop
  endfacet
  facet normal 0.866025 0.5 -1.22461e-16
    outer loop
      vertex 91.497 24 28
      vertex 92.0038 23.1221 28
      vertex 91.497 24 0
    endloop
  endfacet
  facet normal -2.22045e-16 1 -4.66966e-16
    outer loop
      vertex 91.497 24 28
      vertex 91.497 24 0
      vertex 91.4338 24 28
    endloop
  endfacet
  facet normal -2.22045e-16 1 -4.66966e-16
    outer loop
      vertex 91.4338 24 28
      vertex 91.497 24 0
      vertex 91.4338 24 0
    endloop
  endfacet
  facet normal 0.866025 0.5 -2.33483e-16
    outer loop
      vertex 79.8868 44 28
      vertex 91.4338 24 28
      vertex 91.4338 24 0
    endloop
  endfacet
  facet normal 0.866025 0.5 -2.33483e-16
    outer loop
      vertex 79.8868 44 0
      vertex 79.8868 44 28
      vertex 91.4338 24 0
    endloop
  endfacet
  facet normal 0 1 -2.44921e-16
    outer loop
      vertex 79.8868 44 28
      vertex 79.8868 44 0
      vertex 79.8235 44 28
    endloop
  endfacet
  facet normal 0 1 -2.44921e-16
    outer loop
      vertex 79.8235 44 28
      vertex 79.8868 44 0
      vertex 79.8235 44 0
    endloop
  endfacet
  facet normal 0.866025 0.5 -1.22461e-16
    outer loop
      vertex 79.8235 44 0
      vertex 79.3167 44.8779 0
      vertex 79.3167 44.8779 28
    endloop
  endfacet
  facet normal 0.866025 0.5 -1.22461e-16
    outer loop
      vertex 79.8235 44 28
      vertex 79.8235 44 0
      vertex 79.3167 44.8779 28
    endloop
  endfacet
  facet normal 0.743145 0.669131 -1.63884e-16
    outer loop
      vertex 79.3167 44.8779 0
      vertex 77.9178 46.4314 0
      vertex 77.9178 46.4314 28
    endloop
  endfacet
  facet normal 0.743145 0.669131 -1.63884e-16
    outer loop
      vertex 79.3167 44.8779 28
      vertex 79.3167 44.8779 0
      vertex 77.9178 46.4314 28
    endloop
  endfacet
  facet normal 0.587785 0.809017 -1.98145e-16
    outer loop
      vertex 76.2265 47.6603 0
      vertex 76.2265 47.6603 28
      vertex 77.9178 46.4314 0
    endloop
  endfacet
  facet normal 0.587785 0.809017 -1.98145e-16
    outer loop
      vertex 77.9178 46.4314 0
      vertex 76.2265 47.6603 28
      vertex 77.9178 46.4314 28
    endloop
  endfacet
  facet normal 0.406737 0.913545 -2.23747e-16
    outer loop
      vertex 74.3167 48.5106 0
      vertex 74.3167 48.5106 28
      vertex 76.2265 47.6603 0
    endloop
  endfacet
  facet normal 0.406737 0.913545 -2.23747e-16
    outer loop
      vertex 76.2265 47.6603 0
      vertex 74.3167 48.5106 28
      vertex 76.2265 47.6603 28
    endloop
  endfacet
  facet normal 0.207912 0.978148 -2.39569e-16
    outer loop
      vertex 72.2718 48.9452 0
      vertex 72.2718 48.9452 28
      vertex 74.3167 48.5106 0
    endloop
  endfacet
  facet normal 0.207912 0.978148 -2.39569e-16
    outer loop
      vertex 74.3167 48.5106 0
      vertex 72.2718 48.9452 28
      vertex 74.3167 48.5106 28
    endloop
  endfacet
  facet normal 0 1 -2.44921e-16
    outer loop
      vertex 71.2265 48.9452 0
      vertex 71.2265 48.9452 28
      vertex 72.2718 48.9452 0
    endloop
  endfacet
  facet normal 0 1 -2.44921e-16
    outer loop
      vertex 72.2718 48.9452 0
      vertex 71.2265 48.9452 28
      vertex 72.2718 48.9452 28
    endloop
  endfacet
  facet normal 1 0 0
    outer loop
      vertex 71.2265 49 0
      vertex 71.2265 49 28
      vertex 71.2265 48.9452 28
    endloop
  endfacet
  facet normal 1 0 0
    outer loop
      vertex 71.2265 48.9452 0
      vertex 71.2265 49 0
      vertex 71.2265 48.9452 28
    endloop
  endfacet
  facet normal 0 1 -2.44921e-16
    outer loop
      vertex 253.906 19 28
      vertex 253.906 19 14
      vertex 100.094 19 28
    endloop
  endfacet
  facet normal 0 1 -2.44921e-16
    outer loop
      vertex 100.094 19 28
      vertex 253.906 19 14
      vertex 100.094 19 14
    endloop
  endfacet
endsolid OpenSCAD_Model
