solid OpenSCAD_Model
  facet normal -1 0 0
    outer loop
      vertex 0 0 0
      vertex 0 0 10
      vertex 0 70 0
    endloop
  endfacet
  facet normal -1 0 0
    outer loop
      vertex 0 70 0
      vertex 0 0 10
      vertex 0 70 10
    endloop
  endfacet
  facet normal 0 -1 0
    outer loop
      vertex 0 0 10
      vertex 0 0 0
      vertex 90 0 0
    endloop
  endfacet
  facet normal 0 -1 0
    outer loop
      vertex 290 0 7
      vertex 0 0 10
      vertex 90 0 7
    endloop
  endfacet
  facet normal 0 -1 0
    outer loop
      vertex 90 0 7
      vertex 0 0 10
      vertex 90 0 0
    endloop
  endfacet
  facet normal 0 -1 0
    outer loop
      vertex 372 0 10
      vertex 8 0 10
      vertex 290 0 7
    endloop
  endfacet
  facet normal 0 -1 0
    outer loop
      vertex 380 0 0
      vertex 290 0 7
      vertex 290 0 0
    endloop
  endfacet
  facet normal 0 -1 0
    outer loop
      vertex 380 0 10
      vertex 290 0 7
      vertex 380 0 0
    endloop
  endfacet
  facet normal 0 -1 0
    outer loop
      vertex 8 0 10
      vertex 0 0 10
      vertex 290 0 7
    endloop
  endfacet
  facet normal 0 -1 0
    outer loop
      vertex 380 0 10
      vertex 372 0 10
      vertex 290 0 7
    endloop
  endfacet
  facet normal 0 -1 0
    outer loop
      vertex 280 0 28
      vertex 100 0 14
      vertex 280 0 14
    endloop
  endfacet
  facet normal 0 -1 0
    outer loop
      vertex 372 0 14
      vertex 8 0 10
      vertex 372 0 10
    endloop
  endfacet
  facet normal 0 -1 0
    outer loop
      vertex 280 0 14
      vertex 8 0 10
      vertex 372 0 14
    endloop
  endfacet
  facet normal 0 -1 0
    outer loop
      vertex 100 0 28
      vertex 100 0 14
      vertex 280 0 28
    endloop
  endfacet
  facet normal 0 -1 0
    outer loop
      vertex 100 0 14
      vertex 8 0 10
      vertex 280 0 14
    endloop
  endfacet
  facet normal 0 -1 0
    outer loop
      vertex 8 0 14
      vertex 8 0 10
      vertex 100 0 14
    endloop
  endfacet
  facet normal 0 0 -1
    outer loop
      vertex 0 0 0
      vertex 0 70 0
      vertex 90 0 0
    endloop
  endfacet
  facet normal 0 0 -1
    outer loop
      vertex 90 0 0
      vertex 0 70 0
      vertex 84.2265 70 0
    endloop
  endfacet
  facet normal 0 0 -1
    outer loop
      vertex 90 0 0
      vertex 84.2265 70 0
      vertex 84.2265 70.0548 0
    endloop
  endfacet
  facet normal 0 0 -1
    outer loop
      vertex 90 0 0
      vertex 84.2265 70.0548 0
      vertex 85.2718 70.0548 0
    endloop
  endfacet
  facet normal 0 0 -1
    outer loop
      vertex 90 0 0
      vertex 85.2718 70.0548 0
      vertex 87.3167 70.4894 0
    endloop
  endfacet
  facet normal 0 0 -1
    outer loop
      vertex 87.3167 70.4894 0
      vertex 89.2265 71.3397 0
      vertex 90 0 0
    endloop
  endfacet
  facet normal 0 0 -1
    outer loop
      vertex 113.094 99.9452 0
      vertex 113.094 100 0
      vertex 266.906 100 0
    endloop
  endfacet
  facet normal 0 0 -1
    outer loop
      vertex 290 0 0
      vertex 380 70 0
      vertex 380 0 0
    endloop
  endfacet
  facet normal 0 0 -1
    outer loop
      vertex 290 10 0
      vertex 380 70 0
      vertex 290 0 0
    endloop
  endfacet
  facet normal 0 0 -1
    outer loop
      vertex 89.2265 71.3397 0
      vertex 90.9178 72.5686 0
      vertex 90 10 0
    endloop
  endfacet
  facet normal 0 0 -1
    outer loop
      vertex 89.2265 71.3397 0
      vertex 90 10 0
      vertex 90 0 0
    endloop
  endfacet
  facet normal 0 0 -1
    outer loop
      vertex 90 10 0
      vertex 90.9178 72.5686 0
      vertex 92.3167 74.1221 0
    endloop
  endfacet
  facet normal 0 0 -1
    outer loop
      vertex 90 10 0
      vertex 92.3167 74.1221 0
      vertex 92.8235 75 0
    endloop
  endfacet
  facet normal 0 0 -1
    outer loop
      vertex 90 10 0
      vertex 92.8235 75 0
      vertex 92.8868 75 0
    endloop
  endfacet
  facet normal 0 0 -1
    outer loop
      vertex 90 10 0
      vertex 92.8868 75 0
      vertex 104.434 95 0
    endloop
  endfacet
  facet normal 0 0 -1
    outer loop
      vertex 90 10 0
      vertex 104.434 95 0
      vertex 104.497 95 0
    endloop
  endfacet
  facet normal 0 0 -1
    outer loop
      vertex 90 10 0
      vertex 104.497 95 0
      vertex 105.004 95.8779 0
    endloop
  endfacet
  facet normal 0 0 -1
    outer loop
      vertex 90 10 0
      vertex 105.004 95.8779 0
      vertex 106.403 97.4314 0
    endloop
  endfacet
  facet normal 0 0 -1
    outer loop
      vertex 90 10 0
      vertex 106.403 97.4314 0
      vertex 108.094 98.6603 0
    endloop
  endfacet
  facet normal 0 0 -1
    outer loop
      vertex 90 10 0
      vertex 108.094 98.6603 0
      vertex 110.004 99.5106 0
    endloop
  endfacet
  facet normal 0 0 -1
    outer loop
      vertex 90 10 0
      vertex 110.004 99.5106 0
      vertex 112.049 99.9452 0
    endloop
  endfacet
  facet normal 0 0 -1
    outer loop
      vertex 90 10 0
      vertex 112.049 99.9452 0
      vertex 113.094 99.9452 0
    endloop
  endfacet
  facet normal 0 0 -1
    outer loop
      vertex 90 10 0
      vertex 113.094 99.9452 0
      vertex 266.906 100 0
    endloop
  endfacet
  facet normal 0 0 -1
    outer loop
      vertex 90 10 0
      vertex 266.906 100 0
      vertex 266.906 99.9452 0
    endloop
  endfacet
  facet normal 0 0 -1
    outer loop
      vertex 90 10 0
      vertex 266.906 99.9452 0
      vertex 267.951 99.9452 0
    endloop
  endfacet
  facet normal 0 0 -1
    outer loop
      vertex 90 10 0
      vertex 267.951 99.9452 0
      vertex 269.996 99.5106 0
    endloop
  endfacet
  facet normal 0 0 -1
    outer loop
      vertex 90 10 0
      vertex 269.996 99.5106 0
      vertex 271.906 98.6603 0
    endloop
  endfacet
  facet normal 0 0 -1
    outer loop
      vertex 90 10 0
      vertex 271.906 98.6603 0
      vertex 273.597 97.4314 0
    endloop
  endfacet
  facet normal 0 0 -1
    outer loop
      vertex 90 10 0
      vertex 273.597 97.4314 0
      vertex 274.996 95.8779 0
    endloop
  endfacet
  facet normal 0 0 -1
    outer loop
      vertex 90 10 0
      vertex 274.996 95.8779 0
      vertex 275.503 95 0
    endloop
  endfacet
  facet normal 0 0 -1
    outer loop
      vertex 90 10 0
      vertex 275.503 95 0
      vertex 275.566 95 0
    endloop
  endfacet
  facet normal 0 0 -1
    outer loop
      vertex 90 10 0
      vertex 275.566 95 0
      vertex 287.113 75 0
    endloop
  endfacet
  facet normal 0 0 -1
    outer loop
      vertex 90 10 0
      vertex 287.113 75 0
      vertex 287.177 75 0
    endloop
  endfacet
  facet normal 0 0 -1
    outer loop
      vertex 90 10 0
      vertex 287.177 75 0
      vertex 287.683 74.1221 0
    endloop
  endfacet
  facet normal 0 0 -1
    outer loop
      vertex 90 10 0
      vertex 287.683 74.1221 0
      vertex 289.082 72.5686 0
    endloop
  endfacet
  facet normal 0 0 -1
    outer loop
      vertex 90 10 0
      vertex 289.082 72.5686 0
      vertex 290.774 71.3397 0
    endloop
  endfacet
  facet normal 0 0 -1
    outer loop
      vertex 90 10 0
      vertex 290.774 71.3397 0
      vertex 292.683 70.4894 0
    endloop
  endfacet
  facet normal 0 0 -1
    outer loop
      vertex 90 10 0
      vertex 292.683 70.4894 0
      vertex 294.728 70.0548 0
    endloop
  endfacet
  facet normal 0 0 -1
    outer loop
      vertex 90 10 0
      vertex 294.728 70.0548 0
      vertex 295.774 70.0548 0
    endloop
  endfacet
  facet normal 0 0 -1
    outer loop
      vertex 90 10 0
      vertex 295.774 70.0548 0
      vertex 295.774 70 0
    endloop
  endfacet
  facet normal 0 0 -1
    outer loop
      vertex 90 10 0
      vertex 295.774 70 0
      vertex 380 70 0
    endloop
  endfacet
  facet normal 0 0 -1
    outer loop
      vertex 90 10 0
      vertex 380 70 0
      vertex 290 10 0
    endloop
  endfacet
  facet normal 0 1 0
    outer loop
      vertex 8 70 10
      vertex 8 70 28
      vertex 84.2265 70 28
    endloop
  endfacet
  facet normal 0 1 0
    outer loop
      vertex 8 70 10
      vertex 84.2265 70 28
      vertex 84.2265 70 0
    endloop
  endfacet
  facet normal 0 1 0
    outer loop
      vertex 8 70 10
      vertex 84.2265 70 0
      vertex 0 70 10
    endloop
  endfacet
  facet normal 0 1 0
    outer loop
      vertex 84.2265 70 0
      vertex 0 70 0
      vertex 0 70 10
    endloop
  endfacet
  facet normal 0 0 1
    outer loop
      vertex 8 0 10
      vertex 8 70 10
      vertex 0 70 10
    endloop
  endfacet
  facet normal 0 0 1
    outer loop
      vertex 0 0 10
      vertex 8 0 10
      vertex 0 70 10
    endloop
  endfacet
  facet normal -1 0 0
    outer loop
      vertex 8 40 14
      vertex 8 40 28
      vertex 8 70 28
    endloop
  endfacet
  facet normal -1 0 0
    outer loop
      vertex 8 40 14
      vertex 8 70 28
      vertex 8 70 10
    endloop
  endfacet
  facet normal -1 0 0
    outer loop
      vertex 8 40 14
      vertex 8 70 10
      vertex 8 0 14
    endloop
  endfacet
  facet normal -1 0 0
    outer loop
      vertex 8 70 10
      vertex 8 0 10
      vertex 8 0 14
    endloop
  endfacet
  facet normal 0 0 1
    outer loop
      vertex 100 0 14
      vertex 100 40 14
      vertex 8 40 14
    endloop
  endfacet
  facet normal 0 0 1
    outer loop
      vertex 8 0 14
      vertex 100 0 14
      vertex 8 40 14
    endloop
  endfacet
  facet normal -1 0 0
    outer loop
      vertex 100 28 28
      vertex 100 28 23
      vertex 100 0 28
    endloop
  endfacet
  facet normal -1 0 0
    outer loop
      vertex 100 40 14
      vertex 100 28 23
      vertex 100 40 23
    endloop
  endfacet
  facet normal -1 0 0
    outer loop
      vertex 100 0 28
      vertex 100 28 23
      vertex 100 40 14
    endloop
  endfacet
  facet normal -1 0 0
    outer loop
      vertex 100 0 28
      vertex 100 40 14
      vertex 100 0 14
    endloop
  endfacet
  facet normal 0 0 1
    outer loop
      vertex 100 28 28
      vertex 100 0 28
      vertex 280 0 28
    endloop
  endfacet
  facet normal 0 0 1
    outer loop
      vertex 280 28 28
      vertex 100 28 28
      vertex 280 0 28
    endloop
  endfacet
  facet normal 1 0 0
    outer loop
      vertex 280 40 14
      vertex 280 40 23
      vertex 280 28 23
    endloop
  endfacet
  facet normal 1 0 0
    outer loop
      vertex 280 0 28
      vertex 280 40 14
      vertex 280 28 23
    endloop
  endfacet
  facet normal 1 0 0
    outer loop
      vertex 280 28 28
      vertex 280 0 28
      vertex 280 28 23
    endloop
  endfacet
  facet normal 1 0 0
    outer loop
      vertex 280 0 28
      vertex 280 0 14
      vertex 280 40 14
    endloop
  endfacet
  facet normal 0 0 1
    outer loop
      vertex 372 0 14
      vertex 372 40 14
      vertex 280 40 14
    endloop
  endfacet
  facet normal 0 0 1
    outer loop
      vertex 280 0 14
      vertex 372 0 14
      vertex 280 40 14
    endloop
  endfacet
  facet normal 1 0 0
    outer loop
      vertex 372 70 10
      vertex 372 70 28
      vertex 372 40 28
    endloop
  endfacet
  facet normal 1 0 0
    outer loop
      vertex 372 0 14
      vertex 372 70 10
      vertex 372 40 14
    endloop
  endfacet
  facet normal 1 0 0
    outer loop
      vertex 372 40 14
      vertex 372 70 10
      vertex 372 40 28
    endloop
  endfacet
  facet normal 1 0 0
    outer loop
      vertex 372 0 10
      vertex 372 70 10
      vertex 372 0 14
    endloop
  endfacet
  facet normal 0 0 1
    outer loop
      vertex 380 0 10
      vertex 380 70 10
      vertex 372 70 10
    endloop
  endfacet
  facet normal 0 0 1
    outer loop
      vertex 372 0 10
      vertex 380 0 10
      vertex 372 70 10
    endloop
  endfacet
  facet normal 1 0 0
    outer loop
      vertex 380 0 10
      vertex 380 0 0
      vertex 380 70 0
    endloop
  endfacet
  facet normal 1 0 0
    outer loop
      vertex 380 70 10
      vertex 380 0 10
      vertex 380 70 0
    endloop
  endfacet
  facet normal -1 0 0
    outer loop
      vertex 290 10 7
      vertex 290 10 0
      vertex 290 0 7
    endloop
  endfacet
  facet normal -1 0 0
    outer loop
      vertex 290 0 7
      vertex 290 10 0
      vertex 290 0 0
    endloop
  endfacet
  facet normal 0 0 -1
    outer loop
      vertex 290 10 7
      vertex 290 0 7
      vertex 90 10 7
    endloop
  endfacet
  facet normal 0 0 -1
    outer loop
      vertex 90 10 7
      vertex 290 0 7
      vertex 90 0 7
    endloop
  endfacet
  facet normal 1 0 0
    outer loop
      vertex 90 10 0
      vertex 90 10 7
      vertex 90 0 7
    endloop
  endfacet
  facet normal 1 0 0
    outer loop
      vertex 90 0 0
      vertex 90 10 0
      vertex 90 0 7
    endloop
  endfacet
  facet normal 0 -1 0
    outer loop
      vertex 290 10 0
      vertex 290 10 7
      vertex 90 10 7
    endloop
  endfacet
  facet normal 0 -1 0
    outer loop
      vertex 90 10 0
      vertex 290 10 0
      vertex 90 10 7
    endloop
  endfacet
  facet normal 0 1 0
    outer loop
      vertex 372 70 28
      vertex 372 70 10
      vertex 295.774 70 28
    endloop
  endfacet
  facet normal 0 1 0
    outer loop
      vertex 380 70 0
      vertex 372 70 10
      vertex 380 70 10
    endloop
  endfacet
  facet normal 0 1 0
    outer loop
      vertex 295.774 70 28
      vertex 372 70 10
      vertex 380 70 0
    endloop
  endfacet
  facet normal 0 1 0
    outer loop
      vertex 295.774 70 28
      vertex 380 70 0
      vertex 295.774 70 0
    endloop
  endfacet
  facet normal 1 0 0
    outer loop
      vertex 295.774 70 28
      vertex 295.774 70 0
      vertex 295.774 70.0548 0
    endloop
  endfacet
  facet normal 1 0 0
    outer loop
      vertex 295.774 70.0548 28
      vertex 295.774 70 28
      vertex 295.774 70.0548 0
    endloop
  endfacet
  facet normal 0 1 -1.22461e-16
    outer loop
      vertex 295.774 70.0548 28
      vertex 295.774 70.0548 0
      vertex 294.728 70.0548 28
    endloop
  endfacet
  facet normal 0 1 -1.22461e-16
    outer loop
      vertex 294.728 70.0548 28
      vertex 295.774 70.0548 0
      vertex 294.728 70.0548 0
    endloop
  endfacet
  facet normal 0.207912 0.978148 -1.19785e-16
    outer loop
      vertex 294.728 70.0548 28
      vertex 294.728 70.0548 0
      vertex 292.683 70.4894 28
    endloop
  endfacet
  facet normal 0.207912 0.978148 -1.19785e-16
    outer loop
      vertex 292.683 70.4894 28
      vertex 294.728 70.0548 0
      vertex 292.683 70.4894 0
    endloop
  endfacet
  facet normal 0.406737 0.913545 -1.11873e-16
    outer loop
      vertex 292.683 70.4894 28
      vertex 292.683 70.4894 0
      vertex 290.774 71.3397 28
    endloop
  endfacet
  facet normal 0.406737 0.913545 -1.11873e-16
    outer loop
      vertex 290.774 71.3397 28
      vertex 292.683 70.4894 0
      vertex 290.774 71.3397 0
    endloop
  endfacet
  facet normal 0.587785 0.809017 -9.90727e-17
    outer loop
      vertex 290.774 71.3397 28
      vertex 290.774 71.3397 0
      vertex 289.082 72.5686 28
    endloop
  endfacet
  facet normal 0.587785 0.809017 -9.90727e-17
    outer loop
      vertex 289.082 72.5686 28
      vertex 290.774 71.3397 0
      vertex 289.082 72.5686 0
    endloop
  endfacet
  facet normal 0.743145 0.669131 -8.19422e-17
    outer loop
      vertex 287.683 74.1221 28
      vertex 289.082 72.5686 28
      vertex 289.082 72.5686 0
    endloop
  endfacet
  facet normal 0.743145 0.669131 -8.19422e-17
    outer loop
      vertex 287.683 74.1221 0
      vertex 287.683 74.1221 28
      vertex 289.082 72.5686 0
    endloop
  endfacet
  facet normal 0.866025 0.5 -6.12303e-17
    outer loop
      vertex 287.177 75 28
      vertex 287.683 74.1221 28
      vertex 287.683 74.1221 0
    endloop
  endfacet
  facet normal 0.866025 0.5 -6.12303e-17
    outer loop
      vertex 287.177 75 0
      vertex 287.177 75 28
      vertex 287.683 74.1221 0
    endloop
  endfacet
  facet normal 0 1 -1.22461e-16
    outer loop
      vertex 287.113 75 0
      vertex 287.113 75 28
      vertex 287.177 75 0
    endloop
  endfacet
  facet normal 0 1 -1.22461e-16
    outer loop
      vertex 287.177 75 0
      vertex 287.113 75 28
      vertex 287.177 75 28
    endloop
  endfacet
  facet normal 0.866025 0.5 -1.72253e-16
    outer loop
      vertex 287.113 75 0
      vertex 275.566 95 0
      vertex 275.566 95 28
    endloop
  endfacet
  facet normal 0.866025 0.5 -1.72253e-16
    outer loop
      vertex 287.113 75 28
      vertex 287.113 75 0
      vertex 275.566 95 28
    endloop
  endfacet
  facet normal 2.22045e-16 1 -3.44505e-16
    outer loop
      vertex 275.503 95 28
      vertex 275.566 95 28
      vertex 275.503 95 0
    endloop
  endfacet
  facet normal 2.22045e-16 1 -3.44505e-16
    outer loop
      vertex 275.503 95 0
      vertex 275.566 95 28
      vertex 275.566 95 0
    endloop
  endfacet
  facet normal 0.866025 0.5 -6.12303e-17
    outer loop
      vertex 275.503 95 0
      vertex 274.996 95.8779 0
      vertex 274.996 95.8779 28
    endloop
  endfacet
  facet normal 0.866025 0.5 -6.12303e-17
    outer loop
      vertex 275.503 95 28
      vertex 275.503 95 0
      vertex 274.996 95.8779 28
    endloop
  endfacet
  facet normal 0.743145 0.669131 -8.19422e-17
    outer loop
      vertex 274.996 95.8779 0
      vertex 273.597 97.4314 0
      vertex 273.597 97.4314 28
    endloop
  endfacet
  facet normal 0.743145 0.669131 -8.19422e-17
    outer loop
      vertex 274.996 95.8779 28
      vertex 274.996 95.8779 0
      vertex 273.597 97.4314 28
    endloop
  endfacet
  facet normal 0.587785 0.809017 -9.90727e-17
    outer loop
      vertex 271.906 98.6603 0
      vertex 271.906 98.6603 28
      vertex 273.597 97.4314 0
    endloop
  endfacet
  facet normal 0.587785 0.809017 -9.90727e-17
    outer loop
      vertex 273.597 97.4314 0
      vertex 271.906 98.6603 28
      vertex 273.597 97.4314 28
    endloop
  endfacet
  facet normal 0.406737 0.913545 -1.11873e-16
    outer loop
      vertex 269.996 99.5106 0
      vertex 269.996 99.5106 28
      vertex 271.906 98.6603 0
    endloop
  endfacet
  facet normal 0.406737 0.913545 -1.11873e-16
    outer loop
      vertex 271.906 98.6603 0
      vertex 269.996 99.5106 28
      vertex 271.906 98.6603 28
    endloop
  endfacet
  facet normal 0.207912 0.978148 -1.19785e-16
    outer loop
      vertex 267.951 99.9452 0
      vertex 267.951 99.9452 28
      vertex 269.996 99.5106 0
    endloop
  endfacet
  facet normal 0.207912 0.978148 -1.19785e-16
    outer loop
      vertex 269.996 99.5106 0
      vertex 267.951 99.9452 28
      vertex 269.996 99.5106 28
    endloop
  endfacet
  facet normal 0 1 -1.22461e-16
    outer loop
      vertex 266.906 99.9452 0
      vertex 266.906 99.9452 28
      vertex 267.951 99.9452 0
    endloop
  endfacet
  facet normal 0 1 -1.22461e-16
    outer loop
      vertex 267.951 99.9452 0
      vertex 266.906 99.9452 28
      vertex 267.951 99.9452 28
    endloop
  endfacet
  facet normal 1 0 0
    outer loop
      vertex 266.906 99.9452 28
      vertex 266.906 99.9452 0
      vertex 266.906 100 0
    endloop
  endfacet
  facet normal 1 0 0
    outer loop
      vertex 266.906 100 28
      vertex 266.906 99.9452 28
      vertex 266.906 100 0
    endloop
  endfacet
  facet normal 0 1 -1.22461e-16
    outer loop
      vertex 113.094 100 0
      vertex 113.094 100 28
      vertex 266.906 100 0
    endloop
  endfacet
  facet normal 0 1 -1.22461e-16
    outer loop
      vertex 266.906 100 0
      vertex 113.094 100 28
      vertex 266.906 100 28
    endloop
  endfacet
  facet normal -1 0 0
    outer loop
      vertex 113.094 99.9452 0
      vertex 113.094 99.9452 28
      vertex 113.094 100 0
    endloop
  endfacet
  facet normal -1 0 0
    outer loop
      vertex 113.094 100 0
      vertex 113.094 99.9452 28
      vertex 113.094 100 28
    endloop
  endfacet
  facet normal 0 1 -1.22461e-16
    outer loop
      vertex 112.049 99.9452 0
      vertex 112.049 99.9452 28
      vertex 113.094 99.9452 0
    endloop
  endfacet
  facet normal 0 1 -1.22461e-16
    outer loop
      vertex 113.094 99.9452 0
      vertex 112.049 99.9452 28
      vertex 113.094 99.9452 28
    endloop
  endfacet
  facet normal -0.207912 0.978148 -1.19785e-16
    outer loop
      vertex 110.004 99.5106 0
      vertex 110.004 99.5106 28
      vertex 112.049 99.9452 0
    endloop
  endfacet
  facet normal -0.207912 0.978148 -1.19785e-16
    outer loop
      vertex 112.049 99.9452 0
      vertex 110.004 99.5106 28
      vertex 112.049 99.9452 28
    endloop
  endfacet
  facet normal -0.406737 0.913545 -1.11873e-16
    outer loop
      vertex 108.094 98.6603 0
      vertex 108.094 98.6603 28
      vertex 110.004 99.5106 0
    endloop
  endfacet
  facet normal -0.406737 0.913545 -1.11873e-16
    outer loop
      vertex 110.004 99.5106 0
      vertex 108.094 98.6603 28
      vertex 110.004 99.5106 28
    endloop
  endfacet
  facet normal -0.587785 0.809017 -9.90727e-17
    outer loop
      vertex 106.403 97.4314 0
      vertex 106.403 97.4314 28
      vertex 108.094 98.6603 0
    endloop
  endfacet
  facet normal -0.587785 0.809017 -9.90727e-17
    outer loop
      vertex 108.094 98.6603 0
      vertex 106.403 97.4314 28
      vertex 108.094 98.6603 28
    endloop
  endfacet
  facet normal -0.743145 0.669131 -8.19422e-17
    outer loop
      vertex 105.004 95.8779 0
      vertex 105.004 95.8779 28
      vertex 106.403 97.4314 0
    endloop
  endfacet
  facet normal -0.743145 0.669131 -8.19422e-17
    outer loop
      vertex 106.403 97.4314 0
      vertex 105.004 95.8779 28
      vertex 106.403 97.4314 28
    endloop
  endfacet
  facet normal -0.866025 0.5 -6.12303e-17
    outer loop
      vertex 104.497 95 0
      vertex 104.497 95 28
      vertex 105.004 95.8779 0
    endloop
  endfacet
  facet normal -0.866025 0.5 -6.12303e-17
    outer loop
      vertex 105.004 95.8779 0
      vertex 104.497 95 28
      vertex 105.004 95.8779 28
    endloop
  endfacet
  facet normal 2.22045e-16 1 -3.44505e-16
    outer loop
      vertex 104.434 95 0
      vertex 104.434 95 28
      vertex 104.497 95 0
    endloop
  endfacet
  facet normal 2.22045e-16 1 -3.44505e-16
    outer loop
      vertex 104.497 95 0
      vertex 104.434 95 28
      vertex 104.497 95 28
    endloop
  endfacet
  facet normal -0.866025 0.5 -1.72253e-16
    outer loop
      vertex 92.8868 75 28
      vertex 104.434 95 28
      vertex 92.8868 75 0
    endloop
  endfacet
  facet normal -0.866025 0.5 -1.72253e-16
    outer loop
      vertex 92.8868 75 0
      vertex 104.434 95 28
      vertex 104.434 95 0
    endloop
  endfacet
  facet normal 0 1 -1.22461e-16
    outer loop
      vertex 92.8235 75 0
      vertex 92.8235 75 28
      vertex 92.8868 75 0
    endloop
  endfacet
  facet normal 0 1 -1.22461e-16
    outer loop
      vertex 92.8868 75 0
      vertex 92.8235 75 28
      vertex 92.8868 75 28
    endloop
  endfacet
  facet normal -0.866025 0.5 -6.12303e-17
    outer loop
      vertex 92.8235 75 28
      vertex 92.8235 75 0
      vertex 92.3167 74.1221 28
    endloop
  endfacet
  facet normal -0.866025 0.5 -6.12303e-17
    outer loop
      vertex 92.3167 74.1221 28
      vertex 92.8235 75 0
      vertex 92.3167 74.1221 0
    endloop
  endfacet
  facet normal -0.743145 0.669131 -8.19422e-17
    outer loop
      vertex 92.3167 74.1221 28
      vertex 92.3167 74.1221 0
      vertex 90.9178 72.5686 28
    endloop
  endfacet
  facet normal -0.743145 0.669131 -8.19422e-17
    outer loop
      vertex 90.9178 72.5686 28
      vertex 92.3167 74.1221 0
      vertex 90.9178 72.5686 0
    endloop
  endfacet
  facet normal -0.587785 0.809017 -9.90727e-17
    outer loop
      vertex 90.9178 72.5686 28
      vertex 90.9178 72.5686 0
      vertex 89.2265 71.3397 28
    endloop
  endfacet
  facet normal -0.587785 0.809017 -9.90727e-17
    outer loop
      vertex 89.2265 71.3397 28
      vertex 90.9178 72.5686 0
      vertex 89.2265 71.3397 0
    endloop
  endfacet
  facet normal -0.406737 0.913545 -1.11873e-16
    outer loop
      vertex 89.2265 71.3397 28
      vertex 89.2265 71.3397 0
      vertex 87.3167 70.4894 28
    endloop
  endfacet
  facet normal -0.406737 0.913545 -1.11873e-16
    outer loop
      vertex 87.3167 70.4894 28
      vertex 89.2265 71.3397 0
      vertex 87.3167 70.4894 0
    endloop
  endfacet
  facet normal -0.207912 0.978148 -1.19785e-16
    outer loop
      vertex 87.3167 70.4894 28
      vertex 87.3167 70.4894 0
      vertex 85.2718 70.0548 28
    endloop
  endfacet
  facet normal -0.207912 0.978148 -1.19785e-16
    outer loop
      vertex 85.2718 70.0548 28
      vertex 87.3167 70.4894 0
      vertex 85.2718 70.0548 0
    endloop
  endfacet
  facet normal 0 1 -1.22461e-16
    outer loop
      vertex 85.2718 70.0548 28
      vertex 85.2718 70.0548 0
      vertex 84.2265 70.0548 28
    endloop
  endfacet
  facet normal 0 1 -1.22461e-16
    outer loop
      vertex 84.2265 70.0548 28
      vertex 85.2718 70.0548 0
      vertex 84.2265 70.0548 0
    endloop
  endfacet
  facet normal -1 0 0
    outer loop
      vertex 84.2265 70 0
      vertex 84.2265 70 28
      vertex 84.2265 70.0548 0
    endloop
  endfacet
  facet normal -1 0 0
    outer loop
      vertex 84.2265 70.0548 0
      vertex 84.2265 70 28
      vertex 84.2265 70.0548 28
    endloop
  endfacet
  facet normal 0 0 1
    outer loop
      vertex 8 70 28
      vertex 8 40 28
      vertex 13 40 28
    endloop
  endfacet
  facet normal 0 0 1
    outer loop
      vertex 367 56 28
      vertex 8 70 28
      vertex 13 56 28
    endloop
  endfacet
  facet normal 0 0 1
    outer loop
      vertex 13 56 28
      vertex 8 70 28
      vertex 13 40 28
    endloop
  endfacet
  facet normal 0 0 1
    outer loop
      vertex 295.774 70 28
      vertex 84.2265 70 28
      vertex 367 56 28
    endloop
  endfacet
  facet normal 0 0 1
    outer loop
      vertex 372 40 28
      vertex 367 56 28
      vertex 367 40 28
    endloop
  endfacet
  facet normal 0 0 1
    outer loop
      vertex 372 70 28
      vertex 367 56 28
      vertex 372 40 28
    endloop
  endfacet
  facet normal 0 0 1
    outer loop
      vertex 84.2265 70 28
      vertex 8 70 28
      vertex 367 56 28
    endloop
  endfacet
  facet normal 0 0 1
    outer loop
      vertex 372 70 28
      vertex 295.774 70 28
      vertex 367 56 28
    endloop
  endfacet
  facet normal 0 0 1
    outer loop
      vertex 294.728 70.0548 28
      vertex 84.2265 70 28
      vertex 295.774 70.0548 28
    endloop
  endfacet
  facet normal 0 0 1
    outer loop
      vertex 85.2718 70.0548 28
      vertex 84.2265 70 28
      vertex 294.728 70.0548 28
    endloop
  endfacet
  facet normal 0 0 1
    outer loop
      vertex 92.8235 75 28
      vertex 92.3167 74.1221 28
      vertex 92.8868 75 28
    endloop
  endfacet
  facet normal 0 0 1
    outer loop
      vertex 89.2265 71.3397 28
      vertex 289.082 72.5686 28
      vertex 287.683 74.1221 28
    endloop
  endfacet
  facet normal 0 0 1
    outer loop
      vertex 87.3167 70.4894 28
      vertex 85.2718 70.0548 28
      vertex 292.683 70.4894 28
    endloop
  endfacet
  facet normal 0 0 1
    outer loop
      vertex 90.9178 72.5686 28
      vertex 89.2265 71.3397 28
      vertex 287.177 75 28
    endloop
  endfacet
  facet normal 0 0 1
    outer loop
      vertex 104.497 95 28
      vertex 266.906 99.9452 28
      vertex 266.906 100 28
    endloop
  endfacet
  facet normal 0 0 1
    outer loop
      vertex 266.906 100 28
      vertex 113.094 100 28
      vertex 113.094 99.9452 28
    endloop
  endfacet
  facet normal 0 0 1
    outer loop
      vertex 108.094 98.6603 28
      vertex 106.403 97.4314 28
      vertex 113.094 99.9452 28
    endloop
  endfacet
  facet normal 0 0 1
    outer loop
      vertex 110.004 99.5106 28
      vertex 108.094 98.6603 28
      vertex 112.049 99.9452 28
    endloop
  endfacet
  facet normal 0 0 1
    outer loop
      vertex 266.906 100 28
      vertex 113.094 99.9452 28
      vertex 106.403 97.4314 28
    endloop
  endfacet
  facet normal 0 0 1
    outer loop
      vertex 266.906 100 28
      vertex 106.403 97.4314 28
      vertex 105.004 95.8779 28
    endloop
  endfacet
  facet normal 0 0 1
    outer loop
      vertex 266.906 100 28
      vertex 105.004 95.8779 28
      vertex 104.497 95 28
    endloop
  endfacet
  facet normal 0 0 1
    outer loop
      vertex 287.113 75 28
      vertex 275.566 95 28
      vertex 92.8868 75 28
    endloop
  endfacet
  facet normal 0 0 1
    outer loop
      vertex 90.9178 72.5686 28
      vertex 287.177 75 28
      vertex 287.113 75 28
    endloop
  endfacet
  facet normal 0 0 1
    outer loop
      vertex 287.113 75 28
      vertex 92.8868 75 28
      vertex 92.3167 74.1221 28
    endloop
  endfacet
  facet normal 0 0 1
    outer loop
      vertex 89.2265 71.3397 28
      vertex 87.3167 70.4894 28
      vertex 289.082 72.5686 28
    endloop
  endfacet
  facet normal 0 0 1
    outer loop
      vertex 287.113 75 28
      vertex 92.3167 74.1221 28
      vertex 90.9178 72.5686 28
    endloop
  endfacet
  facet normal 0 0 1
    outer loop
      vertex 87.3167 70.4894 28
      vertex 292.683 70.4894 28
      vertex 290.774 71.3397 28
    endloop
  endfacet
  facet normal 0 0 1
    outer loop
      vertex 287.683 74.1221 28
      vertex 287.177 75 28
      vertex 89.2265 71.3397 28
    endloop
  endfacet
  facet normal 0 0 1
    outer loop
      vertex 84.2265 70.0548 28
      vertex 84.2265 70 28
      vertex 85.2718 70.0548 28
    endloop
  endfacet
  facet normal 0 0 1
    outer loop
      vertex 290.774 71.3397 28
      vertex 289.082 72.5686 28
      vertex 87.3167 70.4894 28
    endloop
  endfacet
  facet normal 0 0 1
    outer loop
      vertex 294.728 70.0548 28
      vertex 292.683 70.4894 28
      vertex 85.2718 70.0548 28
    endloop
  endfacet
  facet normal 0 0 1
    outer loop
      vertex 295.774 70.0548 28
      vertex 84.2265 70 28
      vertex 295.774 70 28
    endloop
  endfacet
  facet normal 0 0 1
    outer loop
      vertex 113.094 99.9452 28
      vertex 112.049 99.9452 28
      vertex 108.094 98.6603 28
    endloop
  endfacet
  facet normal 0 0 1
    outer loop
      vertex 104.497 95 28
      vertex 267.951 99.9452 28
      vertex 266.906 99.9452 28
    endloop
  endfacet
  facet normal 0 0 1
    outer loop
      vertex 104.497 95 28
      vertex 269.996 99.5106 28
      vertex 267.951 99.9452 28
    endloop
  endfacet
  facet normal 0 0 1
    outer loop
      vertex 104.497 95 28
      vertex 271.906 98.6603 28
      vertex 269.996 99.5106 28
    endloop
  endfacet
  facet normal 0 0 1
    outer loop
      vertex 104.497 95 28
      vertex 273.597 97.4314 28
      vertex 271.906 98.6603 28
    endloop
  endfacet
  facet normal 0 0 1
    outer loop
      vertex 104.497 95 28
      vertex 274.996 95.8779 28
      vertex 273.597 97.4314 28
    endloop
  endfacet
  facet normal 0 0 1
    outer loop
      vertex 104.497 95 28
      vertex 275.503 95 28
      vertex 274.996 95.8779 28
    endloop
  endfacet
  facet normal 0 0 1
    outer loop
      vertex 275.503 95 28
      vertex 92.8868 75 28
      vertex 275.566 95 28
    endloop
  endfacet
  facet normal 0 0 1
    outer loop
      vertex 104.497 95 28
      vertex 92.8868 75 28
      vertex 275.503 95 28
    endloop
  endfacet
  facet normal 0 0 1
    outer loop
      vertex 104.434 95 28
      vertex 92.8868 75 28
      vertex 104.497 95 28
    endloop
  endfacet
  facet normal 0 -1 0
    outer loop
      vertex 100 40 14
      vertex 100 40 23
      vertex 13 40 23
    endloop
  endfacet
  facet normal 0 -1 0
    outer loop
      vertex 8 40 14
      vertex 100 40 14
      vertex 13 40 23
    endloop
  endfacet
  facet normal 0 -1 0
    outer loop
      vertex 13 40 28
      vertex 8 40 28
      vertex 13 40 23
    endloop
  endfacet
  facet normal 0 -1 0
    outer loop
      vertex 8 40 28
      vertex 8 40 14
      vertex 13 40 23
    endloop
  endfacet
  facet normal 0 0 1
    outer loop
      vertex 100 40 23
      vertex 100 28 23
      vertex 280 28 23
    endloop
  endfacet
  facet normal 0 0 1
    outer loop
      vertex 367 56 23
      vertex 100 40 23
      vertex 280 40 23
    endloop
  endfacet
  facet normal 0 0 1
    outer loop
      vertex 280 40 23
      vertex 100 40 23
      vertex 280 28 23
    endloop
  endfacet
  facet normal 0 0 1
    outer loop
      vertex 367 56 23
      vertex 280 40 23
      vertex 367 40 23
    endloop
  endfacet
  facet normal 0 0 1
    outer loop
      vertex 13 56 23
      vertex 100 40 23
      vertex 367 56 23
    endloop
  endfacet
  facet normal 0 0 1
    outer loop
      vertex 13 40 23
      vertex 100 40 23
      vertex 13 56 23
    endloop
  endfacet
  facet normal 0 1 0
    outer loop
      vertex 280 28 28
      vertex 280 28 23
      vertex 100 28 28
    endloop
  endfacet
  facet normal 0 1 0
    outer loop
      vertex 100 28 28
      vertex 280 28 23
      vertex 100 28 23
    endloop
  endfacet
  facet normal 0 -1 0
    outer loop
      vertex 372 40 14
      vertex 372 40 28
      vertex 367 40 28
    endloop
  endfacet
  facet normal 0 -1 0
    outer loop
      vertex 280 40 23
      vertex 372 40 14
      vertex 367 40 23
    endloop
  endfacet
  facet normal 0 -1 0
    outer loop
      vertex 367 40 23
      vertex 372 40 14
      vertex 367 40 28
    endloop
  endfacet
  facet normal 0 -1 0
    outer loop
      vertex 280 40 14
      vertex 372 40 14
      vertex 280 40 23
    endloop
  endfacet
  facet normal -1 0 0
    outer loop
      vertex 367 56 28
      vertex 367 56 23
      vertex 367 40 28
    endloop
  endfacet
  facet normal -1 0 0
    outer loop
      vertex 367 40 28
      vertex 367 56 23
      vertex 367 40 23
    endloop
  endfacet
  facet normal 0 -1 0
    outer loop
      vertex 367 56 23
      vertex 367 56 28
      vertex 13 56 28
    endloop
  endfacet
  facet normal 0 -1 0
    outer loop
      vertex 13 56 23
      vertex 367 56 23
      vertex 13 56 28
    endloop
  endfacet
  facet normal 1 0 0
    outer loop
      vertex 13 56 23
      vertex 13 56 28
      vertex 13 40 28
    endloop
  endfacet
  facet normal 1 0 0
    outer loop
      vertex 13 40 23
      vertex 13 56 23
      vertex 13 40 28
    endloop
  endfacet
endsolid OpenSCAD_Model
