solid OpenSCAD_Model
  facet normal -1 0 0
    outer loop
      vertex 0 0 0
      vertex 0 0 10
      vertex 0 70 0
    endloop
  endfacet
  facet normal -1 0 0
    outer loop
      vertex 0 70 0
      vertex 0 0 10
      vertex 0 70 10
    endloop
  endfacet
  facet normal 0 -1 0
    outer loop
      vertex 0 0 10
      vertex 0 0 0
      vertex 90 0 0
    endloop
  endfacet
  facet normal 0 -1 0
    outer loop
      vertex 360 0 7
      vertex 0 0 10
      vertex 90 0 7
    endloop
  endfacet
  facet normal 0 -1 0
    outer loop
      vertex 90 0 7
      vertex 0 0 10
      vertex 90 0 0
    endloop
  endfacet
  facet normal 0 -1 0
    outer loop
      vertex 440 0 7
      vertex 0 0 10
      vertex 360 0 7
    endloop
  endfacet
  facet normal 0 -1 0
    outer loop
      vertex 440 0 0
      vertex 360 0 7
      vertex 360 0 0
    endloop
  endfacet
  facet normal 0 -1 0
    outer loop
      vertex 440 0 7
      vertex 360 0 7
      vertex 440 0 0
    endloop
  endfacet
  facet normal 0 -1 0
    outer loop
      vertex 760 0 7
      vertex 0 0 10
      vertex 440 0 7
    endloop
  endfacet
  facet normal 0 -1 0
    outer loop
      vertex 840 0 7
      vertex 0 0 10
      vertex 760 0 7
    endloop
  endfacet
  facet normal 0 -1 0
    outer loop
      vertex 840 0 0
      vertex 760 0 7
      vertex 760 0 0
    endloop
  endfacet
  facet normal 0 -1 0
    outer loop
      vertex 840 0 7
      vertex 760 0 7
      vertex 840 0 0
    endloop
  endfacet
  facet normal 0 -1 0
    outer loop
      vertex 1110 0 7
      vertex 0 0 10
      vertex 840 0 7
    endloop
  endfacet
  facet normal 0 -1 0
    outer loop
      vertex 1190 0 10
      vertex 10 0 10
      vertex 1110 0 7
    endloop
  endfacet
  facet normal 0 -1 0
    outer loop
      vertex 1200 0 0
      vertex 1110 0 7
      vertex 1110 0 0
    endloop
  endfacet
  facet normal 0 -1 0
    outer loop
      vertex 1200 0 10
      vertex 1110 0 7
      vertex 1200 0 0
    endloop
  endfacet
  facet normal 0 -1 0
    outer loop
      vertex 10 0 10
      vertex 0 0 10
      vertex 1110 0 7
    endloop
  endfacet
  facet normal 0 -1 0
    outer loop
      vertex 1200 0 10
      vertex 1190 0 10
      vertex 1110 0 7
    endloop
  endfacet
  facet normal 0 -1 0
    outer loop
      vertex 450 0 14
      vertex 10 0 10
      vertex 750 0 14
    endloop
  endfacet
  facet normal 0 -1 0
    outer loop
      vertex 1100 0 28
      vertex 850 0 14
      vertex 1100 0 14
    endloop
  endfacet
  facet normal 0 -1 0
    outer loop
      vertex 750 0 14
      vertex 10 0 10
      vertex 850 0 14
    endloop
  endfacet
  facet normal 0 -1 0
    outer loop
      vertex 850 0 14
      vertex 10 0 10
      vertex 1100 0 14
    endloop
  endfacet
  facet normal 0 -1 0
    outer loop
      vertex 350 0 14
      vertex 350 0 28
      vertex 100 0 14
    endloop
  endfacet
  facet normal 0 -1 0
    outer loop
      vertex 750 0 14
      vertex 750 0 28
      vertex 450 0 14
    endloop
  endfacet
  facet normal 0 -1 0
    outer loop
      vertex 1100 0 14
      vertex 10 0 10
      vertex 1190 0 14
    endloop
  endfacet
  facet normal 0 -1 0
    outer loop
      vertex 1190 0 14
      vertex 10 0 10
      vertex 1190 0 10
    endloop
  endfacet
  facet normal 0 -1 0
    outer loop
      vertex 100 0 28
      vertex 100 0 14
      vertex 350 0 28
    endloop
  endfacet
  facet normal 0 -1 0
    outer loop
      vertex 450 0 28
      vertex 450 0 14
      vertex 750 0 28
    endloop
  endfacet
  facet normal 0 -1 0
    outer loop
      vertex 850 0 28
      vertex 850 0 14
      vertex 1100 0 28
    endloop
  endfacet
  facet normal 0 -1 0
    outer loop
      vertex 350 0 14
      vertex 10 0 10
      vertex 450 0 14
    endloop
  endfacet
  facet normal 0 -1 0
    outer loop
      vertex 100 0 14
      vertex 10 0 10
      vertex 350 0 14
    endloop
  endfacet
  facet normal 0 -1 0
    outer loop
      vertex 10 0 14
      vertex 10 0 10
      vertex 100 0 14
    endloop
  endfacet
  facet normal 0 0 -1
    outer loop
      vertex 0 0 0
      vertex 0 70 0
      vertex 90 0 0
    endloop
  endfacet
  facet normal 0 0 -1
    outer loop
      vertex 90 10 0
      vertex 0 70 0
      vertex 94.2265 70 0
    endloop
  endfacet
  facet normal 0 0 -1
    outer loop
      vertex 94.2265 70 0
      vertex 94.2265 70.0548 0
      vertex 95.2718 70.0548 0
    endloop
  endfacet
  facet normal 0 0 -1
    outer loop
      vertex 123.094 99.9452 0
      vertex 123.094 100 0
      vertex 276.906 100 0
    endloop
  endfacet
  facet normal 0 0 -1
    outer loop
      vertex 494.226 70 0
      vertex 494.226 70.0548 0
      vertex 495.272 70.0548 0
    endloop
  endfacet
  facet normal 0 0 -1
    outer loop
      vertex 497.317 70.4894 0
      vertex 676.906 100 0
      vertex 495.272 70.0548 0
    endloop
  endfacet
  facet normal 0 0 -1
    outer loop
      vertex 499.226 71.3397 0
      vertex 676.906 100 0
      vertex 497.317 70.4894 0
    endloop
  endfacet
  facet normal 0 0 -1
    outer loop
      vertex 500.918 72.5686 0
      vertex 676.906 100 0
      vertex 499.226 71.3397 0
    endloop
  endfacet
  facet normal 0 0 -1
    outer loop
      vertex 502.317 74.1221 0
      vertex 502.823 75 0
      vertex 502.887 75 0
    endloop
  endfacet
  facet normal 0 0 -1
    outer loop
      vertex 514.434 95 0
      vertex 514.497 95 0
      vertex 502.887 75 0
    endloop
  endfacet
  facet normal 0 0 -1
    outer loop
      vertex 514.497 95 0
      vertex 515.004 95.8779 0
      vertex 516.403 97.4314 0
    endloop
  endfacet
  facet normal 0 0 -1
    outer loop
      vertex 514.497 95 0
      vertex 516.403 97.4314 0
      vertex 502.887 75 0
    endloop
  endfacet
  facet normal 0 0 -1
    outer loop
      vertex 502.887 75 0
      vertex 516.403 97.4314 0
      vertex 518.094 98.6603 0
    endloop
  endfacet
  facet normal 0 0 -1
    outer loop
      vertex 502.887 75 0
      vertex 518.094 98.6603 0
      vertex 520.004 99.5106 0
    endloop
  endfacet
  facet normal 0 0 -1
    outer loop
      vertex 502.887 75 0
      vertex 520.004 99.5106 0
      vertex 502.317 74.1221 0
    endloop
  endfacet
  facet normal 0 0 -1
    outer loop
      vertex 502.317 74.1221 0
      vertex 520.004 99.5106 0
      vertex 522.049 99.9452 0
    endloop
  endfacet
  facet normal 0 0 -1
    outer loop
      vertex 502.317 74.1221 0
      vertex 522.049 99.9452 0
      vertex 523.094 99.9452 0
    endloop
  endfacet
  facet normal 0 0 -1
    outer loop
      vertex 502.317 74.1221 0
      vertex 676.906 100 0
      vertex 500.918 72.5686 0
    endloop
  endfacet
  facet normal 0 0 -1
    outer loop
      vertex 523.094 99.9452 0
      vertex 523.094 100 0
      vertex 676.906 100 0
    endloop
  endfacet
  facet normal 0 0 -1
    outer loop
      vertex 523.094 99.9452 0
      vertex 676.906 100 0
      vertex 502.317 74.1221 0
    endloop
  endfacet
  facet normal 0 0 -1
    outer loop
      vertex 894.226 70 0
      vertex 894.226 70.0548 0
      vertex 895.272 70.0548 0
    endloop
  endfacet
  facet normal 0 0 -1
    outer loop
      vertex 897.317 70.4894 0
      vertex 1076.91 100 0
      vertex 895.272 70.0548 0
    endloop
  endfacet
  facet normal 0 0 -1
    outer loop
      vertex 899.226 71.3397 0
      vertex 1076.91 100 0
      vertex 897.317 70.4894 0
    endloop
  endfacet
  facet normal 0 0 -1
    outer loop
      vertex 900.918 72.5686 0
      vertex 1076.91 100 0
      vertex 899.226 71.3397 0
    endloop
  endfacet
  facet normal 0 0 -1
    outer loop
      vertex 902.317 74.1221 0
      vertex 902.823 75 0
      vertex 902.887 75 0
    endloop
  endfacet
  facet normal 0 0 -1
    outer loop
      vertex 914.434 95 0
      vertex 914.497 95 0
      vertex 902.887 75 0
    endloop
  endfacet
  facet normal 0 0 -1
    outer loop
      vertex 914.497 95 0
      vertex 915.004 95.8779 0
      vertex 916.403 97.4314 0
    endloop
  endfacet
  facet normal 0 0 -1
    outer loop
      vertex 914.497 95 0
      vertex 916.403 97.4314 0
      vertex 902.887 75 0
    endloop
  endfacet
  facet normal 0 0 -1
    outer loop
      vertex 902.887 75 0
      vertex 916.403 97.4314 0
      vertex 918.094 98.6603 0
    endloop
  endfacet
  facet normal 0 0 -1
    outer loop
      vertex 902.887 75 0
      vertex 918.094 98.6603 0
      vertex 920.004 99.5106 0
    endloop
  endfacet
  facet normal 0 0 -1
    outer loop
      vertex 902.887 75 0
      vertex 920.004 99.5106 0
      vertex 902.317 74.1221 0
    endloop
  endfacet
  facet normal 0 0 -1
    outer loop
      vertex 902.317 74.1221 0
      vertex 920.004 99.5106 0
      vertex 922.049 99.9452 0
    endloop
  endfacet
  facet normal 0 0 -1
    outer loop
      vertex 902.317 74.1221 0
      vertex 922.049 99.9452 0
      vertex 923.094 99.9452 0
    endloop
  endfacet
  facet normal 0 0 -1
    outer loop
      vertex 902.317 74.1221 0
      vertex 1076.91 100 0
      vertex 900.918 72.5686 0
    endloop
  endfacet
  facet normal 0 0 -1
    outer loop
      vertex 923.094 99.9452 0
      vertex 923.094 100 0
      vertex 1076.91 100 0
    endloop
  endfacet
  facet normal 0 0 -1
    outer loop
      vertex 923.094 99.9452 0
      vertex 1076.91 100 0
      vertex 902.317 74.1221 0
    endloop
  endfacet
  facet normal 0 0 -1
    outer loop
      vertex 895.272 70.0548 0
      vertex 1076.91 100 0
      vertex 1076.91 99.9452 0
    endloop
  endfacet
  facet normal 0 0 -1
    outer loop
      vertex 895.272 70.0548 0
      vertex 1076.91 99.9452 0
      vertex 1077.95 99.9452 0
    endloop
  endfacet
  facet normal 0 0 -1
    outer loop
      vertex 895.272 70.0548 0
      vertex 1077.95 99.9452 0
      vertex 1080 99.5106 0
    endloop
  endfacet
  facet normal 0 0 -1
    outer loop
      vertex 895.272 70.0548 0
      vertex 1080 99.5106 0
      vertex 1081.91 98.6603 0
    endloop
  endfacet
  facet normal 0 0 -1
    outer loop
      vertex 895.272 70.0548 0
      vertex 1081.91 98.6603 0
      vertex 1083.6 97.4314 0
    endloop
  endfacet
  facet normal 0 0 -1
    outer loop
      vertex 895.272 70.0548 0
      vertex 1083.6 97.4314 0
      vertex 1085 95.8779 0
    endloop
  endfacet
  facet normal 0 0 -1
    outer loop
      vertex 895.272 70.0548 0
      vertex 1085 95.8779 0
      vertex 1085.5 95 0
    endloop
  endfacet
  facet normal 0 0 -1
    outer loop
      vertex 895.272 70.0548 0
      vertex 1085.5 95 0
      vertex 1085.57 95 0
    endloop
  endfacet
  facet normal 0 0 -1
    outer loop
      vertex 895.272 70.0548 0
      vertex 1085.57 95 0
      vertex 1097.11 75 0
    endloop
  endfacet
  facet normal 0 0 -1
    outer loop
      vertex 1110 0 0
      vertex 1200 70 0
      vertex 1200 0 0
    endloop
  endfacet
  facet normal 0 0 -1
    outer loop
      vertex 1110 10 0
      vertex 1200 70 0
      vertex 1110 0 0
    endloop
  endfacet
  facet normal 0 0 -1
    outer loop
      vertex 840 10 0
      vertex 1200 70 0
      vertex 1110 10 0
    endloop
  endfacet
  facet normal 0 0 -1
    outer loop
      vertex 760 10 0
      vertex 1200 70 0
      vertex 840 10 0
    endloop
  endfacet
  facet normal 0 0 -1
    outer loop
      vertex 90 10 0
      vertex 100.918 72.5686 0
      vertex 102.317 74.1221 0
    endloop
  endfacet
  facet normal 0 0 -1
    outer loop
      vertex 760 10 0
      vertex 840 10 0
      vertex 760 0 0
    endloop
  endfacet
  facet normal 0 0 -1
    outer loop
      vertex 440 10 0
      vertex 1200 70 0
      vertex 760 10 0
    endloop
  endfacet
  facet normal 0 0 -1
    outer loop
      vertex 90 10 0
      vertex 95.2718 70.0548 0
      vertex 97.3167 70.4894 0
    endloop
  endfacet
  facet normal 0 0 -1
    outer loop
      vertex 360 10 0
      vertex 1200 70 0
      vertex 440 10 0
    endloop
  endfacet
  facet normal 0 0 -1
    outer loop
      vertex 90 10 0
      vertex 97.3167 70.4894 0
      vertex 99.2265 71.3397 0
    endloop
  endfacet
  facet normal 0 0 -1
    outer loop
      vertex 360 10 0
      vertex 440 10 0
      vertex 360 0 0
    endloop
  endfacet
  facet normal 0 0 -1
    outer loop
      vertex 90 10 0
      vertex 94.2265 70 0
      vertex 95.2718 70.0548 0
    endloop
  endfacet
  facet normal 0 0 -1
    outer loop
      vertex 90 0 0
      vertex 0 70 0
      vertex 90 10 0
    endloop
  endfacet
  facet normal 0 0 -1
    outer loop
      vertex 440 0 0
      vertex 360 0 0
      vertex 440 10 0
    endloop
  endfacet
  facet normal 0 0 -1
    outer loop
      vertex 90 10 0
      vertex 99.2265 71.3397 0
      vertex 100.918 72.5686 0
    endloop
  endfacet
  facet normal 0 0 -1
    outer loop
      vertex 840 0 0
      vertex 760 0 0
      vertex 840 10 0
    endloop
  endfacet
  facet normal 0 0 -1
    outer loop
      vertex 90 10 0
      vertex 102.317 74.1221 0
      vertex 102.823 75 0
    endloop
  endfacet
  facet normal 0 0 -1
    outer loop
      vertex 90 10 0
      vertex 102.823 75 0
      vertex 102.887 75 0
    endloop
  endfacet
  facet normal 0 0 -1
    outer loop
      vertex 90 10 0
      vertex 102.887 75 0
      vertex 114.434 95 0
    endloop
  endfacet
  facet normal 0 0 -1
    outer loop
      vertex 90 10 0
      vertex 114.434 95 0
      vertex 114.497 95 0
    endloop
  endfacet
  facet normal 0 0 -1
    outer loop
      vertex 90 10 0
      vertex 114.497 95 0
      vertex 115.004 95.8779 0
    endloop
  endfacet
  facet normal 0 0 -1
    outer loop
      vertex 90 10 0
      vertex 115.004 95.8779 0
      vertex 116.403 97.4314 0
    endloop
  endfacet
  facet normal 0 0 -1
    outer loop
      vertex 90 10 0
      vertex 116.403 97.4314 0
      vertex 118.094 98.6603 0
    endloop
  endfacet
  facet normal 0 0 -1
    outer loop
      vertex 90 10 0
      vertex 118.094 98.6603 0
      vertex 120.004 99.5106 0
    endloop
  endfacet
  facet normal 0 0 -1
    outer loop
      vertex 90 10 0
      vertex 120.004 99.5106 0
      vertex 122.049 99.9452 0
    endloop
  endfacet
  facet normal 0 0 -1
    outer loop
      vertex 90 10 0
      vertex 122.049 99.9452 0
      vertex 123.094 99.9452 0
    endloop
  endfacet
  facet normal 0 0 -1
    outer loop
      vertex 90 10 0
      vertex 123.094 99.9452 0
      vertex 276.906 100 0
    endloop
  endfacet
  facet normal 0 0 -1
    outer loop
      vertex 90 10 0
      vertex 276.906 100 0
      vertex 276.906 99.9452 0
    endloop
  endfacet
  facet normal 0 0 -1
    outer loop
      vertex 90 10 0
      vertex 276.906 99.9452 0
      vertex 277.951 99.9452 0
    endloop
  endfacet
  facet normal 0 0 -1
    outer loop
      vertex 90 10 0
      vertex 277.951 99.9452 0
      vertex 279.996 99.5106 0
    endloop
  endfacet
  facet normal 0 0 -1
    outer loop
      vertex 90 10 0
      vertex 279.996 99.5106 0
      vertex 281.906 98.6603 0
    endloop
  endfacet
  facet normal 0 0 -1
    outer loop
      vertex 90 10 0
      vertex 281.906 98.6603 0
      vertex 283.597 97.4314 0
    endloop
  endfacet
  facet normal 0 0 -1
    outer loop
      vertex 90 10 0
      vertex 283.597 97.4314 0
      vertex 284.996 95.8779 0
    endloop
  endfacet
  facet normal 0 0 -1
    outer loop
      vertex 90 10 0
      vertex 284.996 95.8779 0
      vertex 285.503 95 0
    endloop
  endfacet
  facet normal 0 0 -1
    outer loop
      vertex 90 10 0
      vertex 285.503 95 0
      vertex 285.566 95 0
    endloop
  endfacet
  facet normal 0 0 -1
    outer loop
      vertex 90 10 0
      vertex 285.566 95 0
      vertex 297.113 75 0
    endloop
  endfacet
  facet normal 0 0 -1
    outer loop
      vertex 90 10 0
      vertex 297.113 75 0
      vertex 297.177 75 0
    endloop
  endfacet
  facet normal 0 0 -1
    outer loop
      vertex 90 10 0
      vertex 297.177 75 0
      vertex 297.683 74.1221 0
    endloop
  endfacet
  facet normal 0 0 -1
    outer loop
      vertex 90 10 0
      vertex 297.683 74.1221 0
      vertex 299.082 72.5686 0
    endloop
  endfacet
  facet normal 0 0 -1
    outer loop
      vertex 90 10 0
      vertex 299.082 72.5686 0
      vertex 300.774 71.3397 0
    endloop
  endfacet
  facet normal 0 0 -1
    outer loop
      vertex 90 10 0
      vertex 300.774 71.3397 0
      vertex 302.683 70.4894 0
    endloop
  endfacet
  facet normal 0 0 -1
    outer loop
      vertex 90 10 0
      vertex 302.683 70.4894 0
      vertex 304.728 70.0548 0
    endloop
  endfacet
  facet normal 0 0 -1
    outer loop
      vertex 90 10 0
      vertex 304.728 70.0548 0
      vertex 305.774 70.0548 0
    endloop
  endfacet
  facet normal 0 0 -1
    outer loop
      vertex 90 10 0
      vertex 305.774 70.0548 0
      vertex 305.774 70 0
    endloop
  endfacet
  facet normal 0 0 -1
    outer loop
      vertex 90 10 0
      vertex 305.774 70 0
      vertex 494.226 70 0
    endloop
  endfacet
  facet normal 0 0 -1
    outer loop
      vertex 90 10 0
      vertex 494.226 70 0
      vertex 495.272 70.0548 0
    endloop
  endfacet
  facet normal 0 0 -1
    outer loop
      vertex 495.272 70.0548 0
      vertex 676.906 100 0
      vertex 676.906 99.9452 0
    endloop
  endfacet
  facet normal 0 0 -1
    outer loop
      vertex 495.272 70.0548 0
      vertex 676.906 99.9452 0
      vertex 677.951 99.9452 0
    endloop
  endfacet
  facet normal 0 0 -1
    outer loop
      vertex 495.272 70.0548 0
      vertex 677.951 99.9452 0
      vertex 679.996 99.5106 0
    endloop
  endfacet
  facet normal 0 0 -1
    outer loop
      vertex 495.272 70.0548 0
      vertex 679.996 99.5106 0
      vertex 681.906 98.6603 0
    endloop
  endfacet
  facet normal 0 0 -1
    outer loop
      vertex 495.272 70.0548 0
      vertex 681.906 98.6603 0
      vertex 683.597 97.4314 0
    endloop
  endfacet
  facet normal 0 0 -1
    outer loop
      vertex 90 10 0
      vertex 495.272 70.0548 0
      vertex 683.597 97.4314 0
    endloop
  endfacet
  facet normal 0 0 -1
    outer loop
      vertex 90 10 0
      vertex 683.597 97.4314 0
      vertex 684.996 95.8779 0
    endloop
  endfacet
  facet normal 0 0 -1
    outer loop
      vertex 90 10 0
      vertex 684.996 95.8779 0
      vertex 685.503 95 0
    endloop
  endfacet
  facet normal 0 0 -1
    outer loop
      vertex 90 10 0
      vertex 685.503 95 0
      vertex 685.566 95 0
    endloop
  endfacet
  facet normal 0 0 -1
    outer loop
      vertex 90 10 0
      vertex 685.566 95 0
      vertex 697.113 75 0
    endloop
  endfacet
  facet normal 0 0 -1
    outer loop
      vertex 90 10 0
      vertex 697.113 75 0
      vertex 697.177 75 0
    endloop
  endfacet
  facet normal 0 0 -1
    outer loop
      vertex 90 10 0
      vertex 697.177 75 0
      vertex 697.683 74.1221 0
    endloop
  endfacet
  facet normal 0 0 -1
    outer loop
      vertex 90 10 0
      vertex 697.683 74.1221 0
      vertex 699.082 72.5686 0
    endloop
  endfacet
  facet normal 0 0 -1
    outer loop
      vertex 90 10 0
      vertex 699.082 72.5686 0
      vertex 700.774 71.3397 0
    endloop
  endfacet
  facet normal 0 0 -1
    outer loop
      vertex 90 10 0
      vertex 700.774 71.3397 0
      vertex 702.683 70.4894 0
    endloop
  endfacet
  facet normal 0 0 -1
    outer loop
      vertex 90 10 0
      vertex 702.683 70.4894 0
      vertex 704.728 70.0548 0
    endloop
  endfacet
  facet normal 0 0 -1
    outer loop
      vertex 90 10 0
      vertex 704.728 70.0548 0
      vertex 705.774 70.0548 0
    endloop
  endfacet
  facet normal 0 0 -1
    outer loop
      vertex 90 10 0
      vertex 705.774 70.0548 0
      vertex 705.774 70 0
    endloop
  endfacet
  facet normal 0 0 -1
    outer loop
      vertex 90 10 0
      vertex 705.774 70 0
      vertex 894.226 70 0
    endloop
  endfacet
  facet normal 0 0 -1
    outer loop
      vertex 90 10 0
      vertex 894.226 70 0
      vertex 895.272 70.0548 0
    endloop
  endfacet
  facet normal 0 0 -1
    outer loop
      vertex 90 10 0
      vertex 895.272 70.0548 0
      vertex 1097.11 75 0
    endloop
  endfacet
  facet normal 0 0 -1
    outer loop
      vertex 90 10 0
      vertex 1097.11 75 0
      vertex 1097.18 75 0
    endloop
  endfacet
  facet normal 0 0 -1
    outer loop
      vertex 90 10 0
      vertex 1097.18 75 0
      vertex 1097.68 74.1221 0
    endloop
  endfacet
  facet normal 0 0 -1
    outer loop
      vertex 90 10 0
      vertex 1097.68 74.1221 0
      vertex 1099.08 72.5686 0
    endloop
  endfacet
  facet normal 0 0 -1
    outer loop
      vertex 90 10 0
      vertex 1099.08 72.5686 0
      vertex 1100.77 71.3397 0
    endloop
  endfacet
  facet normal 0 0 -1
    outer loop
      vertex 90 10 0
      vertex 1100.77 71.3397 0
      vertex 1102.68 70.4894 0
    endloop
  endfacet
  facet normal 0 0 -1
    outer loop
      vertex 90 10 0
      vertex 1102.68 70.4894 0
      vertex 1104.73 70.0548 0
    endloop
  endfacet
  facet normal 0 0 -1
    outer loop
      vertex 90 10 0
      vertex 1104.73 70.0548 0
      vertex 1105.77 70.0548 0
    endloop
  endfacet
  facet normal 0 0 -1
    outer loop
      vertex 90 10 0
      vertex 1105.77 70.0548 0
      vertex 1105.77 70 0
    endloop
  endfacet
  facet normal 0 0 -1
    outer loop
      vertex 90 10 0
      vertex 1105.77 70 0
      vertex 1200 70 0
    endloop
  endfacet
  facet normal 0 0 -1
    outer loop
      vertex 90 10 0
      vertex 1200 70 0
      vertex 360 10 0
    endloop
  endfacet
  facet normal 0 1 0
    outer loop
      vertex 10 70 10
      vertex 10 70 18
      vertex 28 70 18
    endloop
  endfacet
  facet normal 0 1 0
    outer loop
      vertex 28 70 18
      vertex 28 70 28
      vertex 94.2265 70 28
    endloop
  endfacet
  facet normal 0 1 0
    outer loop
      vertex 28 70 18
      vertex 94.2265 70 28
      vertex 10 70 10
    endloop
  endfacet
  facet normal 0 1 0
    outer loop
      vertex 10 70 10
      vertex 94.2265 70 28
      vertex 94.2265 70 0
    endloop
  endfacet
  facet normal 0 1 0
    outer loop
      vertex 10 70 10
      vertex 94.2265 70 0
      vertex 0 70 10
    endloop
  endfacet
  facet normal 0 1 0
    outer loop
      vertex 94.2265 70 0
      vertex 0 70 0
      vertex 0 70 10
    endloop
  endfacet
  facet normal 0 0 1
    outer loop
      vertex 10 0 10
      vertex 10 70 10
      vertex 0 70 10
    endloop
  endfacet
  facet normal 0 0 1
    outer loop
      vertex 0 0 10
      vertex 10 0 10
      vertex 0 70 10
    endloop
  endfacet
  facet normal -1 0 0
    outer loop
      vertex 10 40 14
      vertex 10 40 18
      vertex 10 70 18
    endloop
  endfacet
  facet normal -1 0 0
    outer loop
      vertex 10 40 14
      vertex 10 70 18
      vertex 10 70 10
    endloop
  endfacet
  facet normal -1 0 0
    outer loop
      vertex 10 40 14
      vertex 10 70 10
      vertex 10 0 14
    endloop
  endfacet
  facet normal -1 0 0
    outer loop
      vertex 10 70 10
      vertex 10 0 10
      vertex 10 0 14
    endloop
  endfacet
  facet normal 0 0 1
    outer loop
      vertex 100 0 14
      vertex 100 40 14
      vertex 10 40 14
    endloop
  endfacet
  facet normal 0 0 1
    outer loop
      vertex 10 0 14
      vertex 100 0 14
      vertex 10 40 14
    endloop
  endfacet
  facet normal -1 0 0
    outer loop
      vertex 100 28 28
      vertex 100 28 23
      vertex 100 0 28
    endloop
  endfacet
  facet normal -1 0 0
    outer loop
      vertex 100 40 14
      vertex 100 28 23
      vertex 100 40 23
    endloop
  endfacet
  facet normal -1 0 0
    outer loop
      vertex 100 0 28
      vertex 100 28 23
      vertex 100 40 14
    endloop
  endfacet
  facet normal -1 0 0
    outer loop
      vertex 100 0 28
      vertex 100 40 14
      vertex 100 0 14
    endloop
  endfacet
  facet normal 0 0 1
    outer loop
      vertex 100 28 28
      vertex 100 0 28
      vertex 350 0 28
    endloop
  endfacet
  facet normal 0 0 1
    outer loop
      vertex 350 28 28
      vertex 100 28 28
      vertex 350 0 28
    endloop
  endfacet
  facet normal 1 0 0
    outer loop
      vertex 350 40 14
      vertex 350 40 23
      vertex 350 28 23
    endloop
  endfacet
  facet normal 1 0 0
    outer loop
      vertex 350 0 28
      vertex 350 40 14
      vertex 350 28 23
    endloop
  endfacet
  facet normal 1 0 0
    outer loop
      vertex 350 28 28
      vertex 350 0 28
      vertex 350 28 23
    endloop
  endfacet
  facet normal 1 0 0
    outer loop
      vertex 350 0 28
      vertex 350 0 14
      vertex 350 40 14
    endloop
  endfacet
  facet normal 0 0 1
    outer loop
      vertex 450 0 14
      vertex 450 40 14
      vertex 350 40 14
    endloop
  endfacet
  facet normal 0 0 1
    outer loop
      vertex 350 0 14
      vertex 450 0 14
      vertex 350 40 14
    endloop
  endfacet
  facet normal -1 0 0
    outer loop
      vertex 450 28 28
      vertex 450 28 23
      vertex 450 0 28
    endloop
  endfacet
  facet normal -1 0 0
    outer loop
      vertex 450 40 14
      vertex 450 28 23
      vertex 450 40 23
    endloop
  endfacet
  facet normal -1 0 0
    outer loop
      vertex 450 0 28
      vertex 450 28 23
      vertex 450 40 14
    endloop
  endfacet
  facet normal -1 0 0
    outer loop
      vertex 450 0 28
      vertex 450 40 14
      vertex 450 0 14
    endloop
  endfacet
  facet normal 0 0 1
    outer loop
      vertex 450 28 28
      vertex 450 0 28
      vertex 750 0 28
    endloop
  endfacet
  facet normal 0 0 1
    outer loop
      vertex 750 28 28
      vertex 450 28 28
      vertex 750 0 28
    endloop
  endfacet
  facet normal 1 0 0
    outer loop
      vertex 750 40 14
      vertex 750 40 23
      vertex 750 28 23
    endloop
  endfacet
  facet normal 1 0 0
    outer loop
      vertex 750 0 28
      vertex 750 40 14
      vertex 750 28 23
    endloop
  endfacet
  facet normal 1 0 0
    outer loop
      vertex 750 28 28
      vertex 750 0 28
      vertex 750 28 23
    endloop
  endfacet
  facet normal 1 0 0
    outer loop
      vertex 750 0 28
      vertex 750 0 14
      vertex 750 40 14
    endloop
  endfacet
  facet normal 0 0 1
    outer loop
      vertex 850 0 14
      vertex 850 40 14
      vertex 750 40 14
    endloop
  endfacet
  facet normal 0 0 1
    outer loop
      vertex 750 0 14
      vertex 850 0 14
      vertex 750 40 14
    endloop
  endfacet
  facet normal -1 0 0
    outer loop
      vertex 850 28 28
      vertex 850 28 23
      vertex 850 0 28
    endloop
  endfacet
  facet normal -1 0 0
    outer loop
      vertex 850 40 14
      vertex 850 28 23
      vertex 850 40 23
    endloop
  endfacet
  facet normal -1 0 0
    outer loop
      vertex 850 0 28
      vertex 850 28 23
      vertex 850 40 14
    endloop
  endfacet
  facet normal -1 0 0
    outer loop
      vertex 850 0 28
      vertex 850 40 14
      vertex 850 0 14
    endloop
  endfacet
  facet normal 0 0 1
    outer loop
      vertex 850 28 28
      vertex 850 0 28
      vertex 1100 0 28
    endloop
  endfacet
  facet normal 0 0 1
    outer loop
      vertex 1100 28 28
      vertex 850 28 28
      vertex 1100 0 28
    endloop
  endfacet
  facet normal 1 0 0
    outer loop
      vertex 1100 40 14
      vertex 1100 40 23
      vertex 1100 28 23
    endloop
  endfacet
  facet normal 1 0 0
    outer loop
      vertex 1100 0 28
      vertex 1100 40 14
      vertex 1100 28 23
    endloop
  endfacet
  facet normal 1 0 0
    outer loop
      vertex 1100 28 28
      vertex 1100 0 28
      vertex 1100 28 23
    endloop
  endfacet
  facet normal 1 0 0
    outer loop
      vertex 1100 0 28
      vertex 1100 0 14
      vertex 1100 40 14
    endloop
  endfacet
  facet normal 0 0 1
    outer loop
      vertex 1190 0 14
      vertex 1190 40 14
      vertex 1100 40 14
    endloop
  endfacet
  facet normal 0 0 1
    outer loop
      vertex 1100 0 14
      vertex 1190 0 14
      vertex 1100 40 14
    endloop
  endfacet
  facet normal 1 0 0
    outer loop
      vertex 1190 70 10
      vertex 1190 70 18
      vertex 1190 40 18
    endloop
  endfacet
  facet normal 1 0 0
    outer loop
      vertex 1190 0 14
      vertex 1190 70 10
      vertex 1190 40 14
    endloop
  endfacet
  facet normal 1 0 0
    outer loop
      vertex 1190 40 14
      vertex 1190 70 10
      vertex 1190 40 18
    endloop
  endfacet
  facet normal 1 0 0
    outer loop
      vertex 1190 0 10
      vertex 1190 70 10
      vertex 1190 0 14
    endloop
  endfacet
  facet normal 0 0 1
    outer loop
      vertex 1200 0 10
      vertex 1200 70 10
      vertex 1190 70 10
    endloop
  endfacet
  facet normal 0 0 1
    outer loop
      vertex 1190 0 10
      vertex 1200 0 10
      vertex 1190 70 10
    endloop
  endfacet
  facet normal 1 0 0
    outer loop
      vertex 1200 0 10
      vertex 1200 0 0
      vertex 1200 70 0
    endloop
  endfacet
  facet normal 1 0 0
    outer loop
      vertex 1200 70 10
      vertex 1200 0 10
      vertex 1200 70 0
    endloop
  endfacet
  facet normal -1 0 0
    outer loop
      vertex 1110 10 7
      vertex 1110 10 0
      vertex 1110 0 7
    endloop
  endfacet
  facet normal -1 0 0
    outer loop
      vertex 1110 0 7
      vertex 1110 10 0
      vertex 1110 0 0
    endloop
  endfacet
  facet normal 0 0 -1
    outer loop
      vertex 1110 10 7
      vertex 1110 0 7
      vertex 840 10 7
    endloop
  endfacet
  facet normal 0 0 -1
    outer loop
      vertex 840 10 7
      vertex 1110 0 7
      vertex 840 0 7
    endloop
  endfacet
  facet normal 1 0 0
    outer loop
      vertex 840 10 0
      vertex 840 10 7
      vertex 840 0 7
    endloop
  endfacet
  facet normal 1 0 0
    outer loop
      vertex 840 0 0
      vertex 840 10 0
      vertex 840 0 7
    endloop
  endfacet
  facet normal -1 0 0
    outer loop
      vertex 760 10 7
      vertex 760 10 0
      vertex 760 0 7
    endloop
  endfacet
  facet normal -1 0 0
    outer loop
      vertex 760 0 7
      vertex 760 10 0
      vertex 760 0 0
    endloop
  endfacet
  facet normal 0 0 -1
    outer loop
      vertex 760 10 7
      vertex 760 0 7
      vertex 440 10 7
    endloop
  endfacet
  facet normal 0 0 -1
    outer loop
      vertex 440 10 7
      vertex 760 0 7
      vertex 440 0 7
    endloop
  endfacet
  facet normal 1 0 0
    outer loop
      vertex 440 10 0
      vertex 440 10 7
      vertex 440 0 7
    endloop
  endfacet
  facet normal 1 0 0
    outer loop
      vertex 440 0 0
      vertex 440 10 0
      vertex 440 0 7
    endloop
  endfacet
  facet normal -1 0 0
    outer loop
      vertex 360 10 7
      vertex 360 10 0
      vertex 360 0 7
    endloop
  endfacet
  facet normal -1 0 0
    outer loop
      vertex 360 0 7
      vertex 360 10 0
      vertex 360 0 0
    endloop
  endfacet
  facet normal 0 0 -1
    outer loop
      vertex 360 10 7
      vertex 360 0 7
      vertex 90 10 7
    endloop
  endfacet
  facet normal 0 0 -1
    outer loop
      vertex 90 10 7
      vertex 360 0 7
      vertex 90 0 7
    endloop
  endfacet
  facet normal 1 0 0
    outer loop
      vertex 90 10 0
      vertex 90 10 7
      vertex 90 0 7
    endloop
  endfacet
  facet normal 1 0 0
    outer loop
      vertex 90 0 0
      vertex 90 10 0
      vertex 90 0 7
    endloop
  endfacet
  facet normal 0 -1 0
    outer loop
      vertex 360 10 0
      vertex 360 10 7
      vertex 90 10 7
    endloop
  endfacet
  facet normal 0 -1 0
    outer loop
      vertex 90 10 0
      vertex 360 10 0
      vertex 90 10 7
    endloop
  endfacet
  facet normal 0 -1 0
    outer loop
      vertex 760 10 0
      vertex 760 10 7
      vertex 440 10 7
    endloop
  endfacet
  facet normal 0 -1 0
    outer loop
      vertex 440 10 0
      vertex 760 10 0
      vertex 440 10 7
    endloop
  endfacet
  facet normal 0 -1 0
    outer loop
      vertex 1110 10 0
      vertex 1110 10 7
      vertex 840 10 7
    endloop
  endfacet
  facet normal 0 -1 0
    outer loop
      vertex 840 10 0
      vertex 1110 10 0
      vertex 840 10 7
    endloop
  endfacet
  facet normal 0 1 0
    outer loop
      vertex 1172 70 28
      vertex 1172 70 18
      vertex 1105.77 70 28
    endloop
  endfacet
  facet normal 0 1 0
    outer loop
      vertex 1190 70 10
      vertex 1172 70 18
      vertex 1190 70 18
    endloop
  endfacet
  facet normal 0 1 0
    outer loop
      vertex 1105.77 70 28
      vertex 1172 70 18
      vertex 1190 70 10
    endloop
  endfacet
  facet normal 0 1 0
    outer loop
      vertex 1200 70 0
      vertex 1190 70 10
      vertex 1200 70 10
    endloop
  endfacet
  facet normal 0 1 0
    outer loop
      vertex 1105.77 70 28
      vertex 1190 70 10
      vertex 1200 70 0
    endloop
  endfacet
  facet normal 0 1 0
    outer loop
      vertex 1105.77 70 28
      vertex 1200 70 0
      vertex 1105.77 70 0
    endloop
  endfacet
  facet normal 1 0 0
    outer loop
      vertex 1105.77 70 28
      vertex 1105.77 70 0
      vertex 1105.77 70.0548 0
    endloop
  endfacet
  facet normal 1 0 0
    outer loop
      vertex 1105.77 70.0548 28
      vertex 1105.77 70 28
      vertex 1105.77 70.0548 0
    endloop
  endfacet
  facet normal 0 1 -1.22461e-16
    outer loop
      vertex 1105.77 70.0548 28
      vertex 1105.77 70.0548 0
      vertex 1104.73 70.0548 28
    endloop
  endfacet
  facet normal 0 1 -1.22461e-16
    outer loop
      vertex 1104.73 70.0548 28
      vertex 1105.77 70.0548 0
      vertex 1104.73 70.0548 0
    endloop
  endfacet
  facet normal 0.207912 0.978148 -1.19785e-16
    outer loop
      vertex 1104.73 70.0548 28
      vertex 1104.73 70.0548 0
      vertex 1102.68 70.4894 28
    endloop
  endfacet
  facet normal 0.207912 0.978148 -1.19785e-16
    outer loop
      vertex 1102.68 70.4894 28
      vertex 1104.73 70.0548 0
      vertex 1102.68 70.4894 0
    endloop
  endfacet
  facet normal 0.406737 0.913545 -1.11873e-16
    outer loop
      vertex 1102.68 70.4894 28
      vertex 1102.68 70.4894 0
      vertex 1100.77 71.3397 28
    endloop
  endfacet
  facet normal 0.406737 0.913545 -1.11873e-16
    outer loop
      vertex 1100.77 71.3397 28
      vertex 1102.68 70.4894 0
      vertex 1100.77 71.3397 0
    endloop
  endfacet
  facet normal 0.587785 0.809017 -9.90727e-17
    outer loop
      vertex 1100.77 71.3397 28
      vertex 1100.77 71.3397 0
      vertex 1099.08 72.5686 28
    endloop
  endfacet
  facet normal 0.587785 0.809017 -9.90727e-17
    outer loop
      vertex 1099.08 72.5686 28
      vertex 1100.77 71.3397 0
      vertex 1099.08 72.5686 0
    endloop
  endfacet
  facet normal 0.743145 0.669131 -8.19422e-17
    outer loop
      vertex 1097.68 74.1221 28
      vertex 1099.08 72.5686 28
      vertex 1099.08 72.5686 0
    endloop
  endfacet
  facet normal 0.743145 0.669131 -8.19422e-17
    outer loop
      vertex 1097.68 74.1221 0
      vertex 1097.68 74.1221 28
      vertex 1099.08 72.5686 0
    endloop
  endfacet
  facet normal 0.866025 0.5 -6.12303e-17
    outer loop
      vertex 1097.18 75 28
      vertex 1097.68 74.1221 28
      vertex 1097.68 74.1221 0
    endloop
  endfacet
  facet normal 0.866025 0.5 -6.12303e-17
    outer loop
      vertex 1097.18 75 0
      vertex 1097.18 75 28
      vertex 1097.68 74.1221 0
    endloop
  endfacet
  facet normal 0 1 -1.22461e-16
    outer loop
      vertex 1097.11 75 0
      vertex 1097.11 75 28
      vertex 1097.18 75 0
    endloop
  endfacet
  facet normal 0 1 -1.22461e-16
    outer loop
      vertex 1097.18 75 0
      vertex 1097.11 75 28
      vertex 1097.18 75 28
    endloop
  endfacet
  facet normal 0.866025 0.5 -1.72253e-16
    outer loop
      vertex 1097.11 75 0
      vertex 1085.57 95 0
      vertex 1085.57 95 28
    endloop
  endfacet
  facet normal 0.866025 0.5 -1.72253e-16
    outer loop
      vertex 1097.11 75 28
      vertex 1097.11 75 0
      vertex 1085.57 95 28
    endloop
  endfacet
  facet normal 2.22045e-16 1 -3.44505e-16
    outer loop
      vertex 1085.5 95 28
      vertex 1085.57 95 28
      vertex 1085.5 95 0
    endloop
  endfacet
  facet normal 2.22045e-16 1 -3.44505e-16
    outer loop
      vertex 1085.5 95 0
      vertex 1085.57 95 28
      vertex 1085.57 95 0
    endloop
  endfacet
  facet normal 0.866025 0.5 -6.12303e-17
    outer loop
      vertex 1085.5 95 0
      vertex 1085 95.8779 0
      vertex 1085 95.8779 28
    endloop
  endfacet
  facet normal 0.866025 0.5 -6.12303e-17
    outer loop
      vertex 1085.5 95 28
      vertex 1085.5 95 0
      vertex 1085 95.8779 28
    endloop
  endfacet
  facet normal 0.743145 0.669131 -8.19422e-17
    outer loop
      vertex 1085 95.8779 0
      vertex 1083.6 97.4314 0
      vertex 1083.6 97.4314 28
    endloop
  endfacet
  facet normal 0.743145 0.669131 -8.19422e-17
    outer loop
      vertex 1085 95.8779 28
      vertex 1085 95.8779 0
      vertex 1083.6 97.4314 28
    endloop
  endfacet
  facet normal 0.587785 0.809017 -9.90727e-17
    outer loop
      vertex 1081.91 98.6603 0
      vertex 1081.91 98.6603 28
      vertex 1083.6 97.4314 0
    endloop
  endfacet
  facet normal 0.587785 0.809017 -9.90727e-17
    outer loop
      vertex 1083.6 97.4314 0
      vertex 1081.91 98.6603 28
      vertex 1083.6 97.4314 28
    endloop
  endfacet
  facet normal 0.406737 0.913545 -1.11873e-16
    outer loop
      vertex 1080 99.5106 0
      vertex 1080 99.5106 28
      vertex 1081.91 98.6603 0
    endloop
  endfacet
  facet normal 0.406737 0.913545 -1.11873e-16
    outer loop
      vertex 1081.91 98.6603 0
      vertex 1080 99.5106 28
      vertex 1081.91 98.6603 28
    endloop
  endfacet
  facet normal 0.207912 0.978148 -1.19785e-16
    outer loop
      vertex 1077.95 99.9452 0
      vertex 1077.95 99.9452 28
      vertex 1080 99.5106 0
    endloop
  endfacet
  facet normal 0.207912 0.978148 -1.19785e-16
    outer loop
      vertex 1080 99.5106 0
      vertex 1077.95 99.9452 28
      vertex 1080 99.5106 28
    endloop
  endfacet
  facet normal 0 1 -1.22461e-16
    outer loop
      vertex 1076.91 99.9452 0
      vertex 1076.91 99.9452 28
      vertex 1077.95 99.9452 0
    endloop
  endfacet
  facet normal 0 1 -1.22461e-16
    outer loop
      vertex 1077.95 99.9452 0
      vertex 1076.91 99.9452 28
      vertex 1077.95 99.9452 28
    endloop
  endfacet
  facet normal 1 0 0
    outer loop
      vertex 1076.91 99.9452 28
      vertex 1076.91 99.9452 0
      vertex 1076.91 100 0
    endloop
  endfacet
  facet normal 1 0 0
    outer loop
      vertex 1076.91 100 28
      vertex 1076.91 99.9452 28
      vertex 1076.91 100 0
    endloop
  endfacet
  facet normal 0 1 -1.22461e-16
    outer loop
      vertex 923.094 100 0
      vertex 923.094 100 28
      vertex 1076.91 100 0
    endloop
  endfacet
  facet normal 0 1 -1.22461e-16
    outer loop
      vertex 1076.91 100 0
      vertex 923.094 100 28
      vertex 1076.91 100 28
    endloop
  endfacet
  facet normal -1 0 0
    outer loop
      vertex 923.094 99.9452 0
      vertex 923.094 99.9452 28
      vertex 923.094 100 0
    endloop
  endfacet
  facet normal -1 0 0
    outer loop
      vertex 923.094 100 0
      vertex 923.094 99.9452 28
      vertex 923.094 100 28
    endloop
  endfacet
  facet normal 0 1 -1.22461e-16
    outer loop
      vertex 922.049 99.9452 0
      vertex 922.049 99.9452 28
      vertex 923.094 99.9452 0
    endloop
  endfacet
  facet normal 0 1 -1.22461e-16
    outer loop
      vertex 923.094 99.9452 0
      vertex 922.049 99.9452 28
      vertex 923.094 99.9452 28
    endloop
  endfacet
  facet normal -0.207912 0.978148 -1.19785e-16
    outer loop
      vertex 920.004 99.5106 0
      vertex 920.004 99.5106 28
      vertex 922.049 99.9452 0
    endloop
  endfacet
  facet normal -0.207912 0.978148 -1.19785e-16
    outer loop
      vertex 922.049 99.9452 0
      vertex 920.004 99.5106 28
      vertex 922.049 99.9452 28
    endloop
  endfacet
  facet normal -0.406737 0.913545 -1.11873e-16
    outer loop
      vertex 918.094 98.6603 0
      vertex 918.094 98.6603 28
      vertex 920.004 99.5106 0
    endloop
  endfacet
  facet normal -0.406737 0.913545 -1.11873e-16
    outer loop
      vertex 920.004 99.5106 0
      vertex 918.094 98.6603 28
      vertex 920.004 99.5106 28
    endloop
  endfacet
  facet normal -0.587785 0.809017 -9.90727e-17
    outer loop
      vertex 916.403 97.4314 0
      vertex 916.403 97.4314 28
      vertex 918.094 98.6603 0
    endloop
  endfacet
  facet normal -0.587785 0.809017 -9.90727e-17
    outer loop
      vertex 918.094 98.6603 0
      vertex 916.403 97.4314 28
      vertex 918.094 98.6603 28
    endloop
  endfacet
  facet normal -0.743145 0.669131 -8.19422e-17
    outer loop
      vertex 915.004 95.8779 0
      vertex 915.004 95.8779 28
      vertex 916.403 97.4314 0
    endloop
  endfacet
  facet normal -0.743145 0.669131 -8.19422e-17
    outer loop
      vertex 916.403 97.4314 0
      vertex 915.004 95.8779 28
      vertex 916.403 97.4314 28
    endloop
  endfacet
  facet normal -0.866025 0.5 -6.12303e-17
    outer loop
      vertex 914.497 95 0
      vertex 914.497 95 28
      vertex 915.004 95.8779 0
    endloop
  endfacet
  facet normal -0.866025 0.5 -6.12303e-17
    outer loop
      vertex 915.004 95.8779 0
      vertex 914.497 95 28
      vertex 915.004 95.8779 28
    endloop
  endfacet
  facet normal 2.22045e-16 1 -3.44505e-16
    outer loop
      vertex 914.434 95 0
      vertex 914.434 95 28
      vertex 914.497 95 0
    endloop
  endfacet
  facet normal 2.22045e-16 1 -3.44505e-16
    outer loop
      vertex 914.497 95 0
      vertex 914.434 95 28
      vertex 914.497 95 28
    endloop
  endfacet
  facet normal -0.866025 0.5 -1.72253e-16
    outer loop
      vertex 902.887 75 28
      vertex 914.434 95 28
      vertex 902.887 75 0
    endloop
  endfacet
  facet normal -0.866025 0.5 -1.72253e-16
    outer loop
      vertex 902.887 75 0
      vertex 914.434 95 28
      vertex 914.434 95 0
    endloop
  endfacet
  facet normal 0 1 -1.22461e-16
    outer loop
      vertex 902.823 75 0
      vertex 902.823 75 28
      vertex 902.887 75 0
    endloop
  endfacet
  facet normal 0 1 -1.22461e-16
    outer loop
      vertex 902.887 75 0
      vertex 902.823 75 28
      vertex 902.887 75 28
    endloop
  endfacet
  facet normal -0.866025 0.5 -6.12303e-17
    outer loop
      vertex 902.823 75 28
      vertex 902.823 75 0
      vertex 902.317 74.1221 28
    endloop
  endfacet
  facet normal -0.866025 0.5 -6.12303e-17
    outer loop
      vertex 902.317 74.1221 28
      vertex 902.823 75 0
      vertex 902.317 74.1221 0
    endloop
  endfacet
  facet normal -0.743145 0.669131 -8.19422e-17
    outer loop
      vertex 902.317 74.1221 28
      vertex 902.317 74.1221 0
      vertex 900.918 72.5686 28
    endloop
  endfacet
  facet normal -0.743145 0.669131 -8.19422e-17
    outer loop
      vertex 900.918 72.5686 28
      vertex 902.317 74.1221 0
      vertex 900.918 72.5686 0
    endloop
  endfacet
  facet normal -0.587785 0.809017 -9.90727e-17
    outer loop
      vertex 900.918 72.5686 28
      vertex 900.918 72.5686 0
      vertex 899.226 71.3397 28
    endloop
  endfacet
  facet normal -0.587785 0.809017 -9.90727e-17
    outer loop
      vertex 899.226 71.3397 28
      vertex 900.918 72.5686 0
      vertex 899.226 71.3397 0
    endloop
  endfacet
  facet normal -0.406737 0.913545 -1.11873e-16
    outer loop
      vertex 899.226 71.3397 28
      vertex 899.226 71.3397 0
      vertex 897.317 70.4894 28
    endloop
  endfacet
  facet normal -0.406737 0.913545 -1.11873e-16
    outer loop
      vertex 897.317 70.4894 28
      vertex 899.226 71.3397 0
      vertex 897.317 70.4894 0
    endloop
  endfacet
  facet normal -0.207912 0.978148 -1.19785e-16
    outer loop
      vertex 897.317 70.4894 28
      vertex 897.317 70.4894 0
      vertex 895.272 70.0548 28
    endloop
  endfacet
  facet normal -0.207912 0.978148 -1.19785e-16
    outer loop
      vertex 895.272 70.0548 28
      vertex 897.317 70.4894 0
      vertex 895.272 70.0548 0
    endloop
  endfacet
  facet normal 0 1 -1.22461e-16
    outer loop
      vertex 895.272 70.0548 28
      vertex 895.272 70.0548 0
      vertex 894.226 70.0548 28
    endloop
  endfacet
  facet normal 0 1 -1.22461e-16
    outer loop
      vertex 894.226 70.0548 28
      vertex 895.272 70.0548 0
      vertex 894.226 70.0548 0
    endloop
  endfacet
  facet normal -1 0 0
    outer loop
      vertex 894.226 70 0
      vertex 894.226 70 28
      vertex 894.226 70.0548 0
    endloop
  endfacet
  facet normal -1 0 0
    outer loop
      vertex 894.226 70.0548 0
      vertex 894.226 70 28
      vertex 894.226 70.0548 28
    endloop
  endfacet
  facet normal 0 1 0
    outer loop
      vertex 786 70 28
      vertex 786 70 23
      vertex 705.774 70 28
    endloop
  endfacet
  facet normal 0 1 0
    outer loop
      vertex 705.774 70 28
      vertex 786 70 23
      vertex 894.226 70 0
    endloop
  endfacet
  facet normal 0 1 0
    outer loop
      vertex 894.226 70 28
      vertex 814 70 23
      vertex 814 70 28
    endloop
  endfacet
  facet normal 0 1 0
    outer loop
      vertex 894.226 70 0
      vertex 814 70 23
      vertex 894.226 70 28
    endloop
  endfacet
  facet normal 0 1 0
    outer loop
      vertex 786 70 23
      vertex 814 70 23
      vertex 894.226 70 0
    endloop
  endfacet
  facet normal 0 1 0
    outer loop
      vertex 705.774 70 28
      vertex 894.226 70 0
      vertex 705.774 70 0
    endloop
  endfacet
  facet normal 1 0 0
    outer loop
      vertex 705.774 70 28
      vertex 705.774 70 0
      vertex 705.774 70.0548 0
    endloop
  endfacet
  facet normal 1 0 0
    outer loop
      vertex 705.774 70.0548 28
      vertex 705.774 70 28
      vertex 705.774 70.0548 0
    endloop
  endfacet
  facet normal 0 1 -1.22461e-16
    outer loop
      vertex 705.774 70.0548 28
      vertex 705.774 70.0548 0
      vertex 704.728 70.0548 28
    endloop
  endfacet
  facet normal 0 1 -1.22461e-16
    outer loop
      vertex 704.728 70.0548 28
      vertex 705.774 70.0548 0
      vertex 704.728 70.0548 0
    endloop
  endfacet
  facet normal 0.207912 0.978148 -1.19785e-16
    outer loop
      vertex 704.728 70.0548 28
      vertex 704.728 70.0548 0
      vertex 702.683 70.4894 28
    endloop
  endfacet
  facet normal 0.207912 0.978148 -1.19785e-16
    outer loop
      vertex 702.683 70.4894 28
      vertex 704.728 70.0548 0
      vertex 702.683 70.4894 0
    endloop
  endfacet
  facet normal 0.406737 0.913545 -1.11873e-16
    outer loop
      vertex 702.683 70.4894 28
      vertex 702.683 70.4894 0
      vertex 700.774 71.3397 28
    endloop
  endfacet
  facet normal 0.406737 0.913545 -1.11873e-16
    outer loop
      vertex 700.774 71.3397 28
      vertex 702.683 70.4894 0
      vertex 700.774 71.3397 0
    endloop
  endfacet
  facet normal 0.587785 0.809017 -9.90727e-17
    outer loop
      vertex 700.774 71.3397 28
      vertex 700.774 71.3397 0
      vertex 699.082 72.5686 28
    endloop
  endfacet
  facet normal 0.587785 0.809017 -9.90727e-17
    outer loop
      vertex 699.082 72.5686 28
      vertex 700.774 71.3397 0
      vertex 699.082 72.5686 0
    endloop
  endfacet
  facet normal 0.743145 0.669131 -8.19422e-17
    outer loop
      vertex 697.683 74.1221 28
      vertex 699.082 72.5686 28
      vertex 699.082 72.5686 0
    endloop
  endfacet
  facet normal 0.743145 0.669131 -8.19422e-17
    outer loop
      vertex 697.683 74.1221 0
      vertex 697.683 74.1221 28
      vertex 699.082 72.5686 0
    endloop
  endfacet
  facet normal 0.866025 0.5 -6.12303e-17
    outer loop
      vertex 697.177 75 28
      vertex 697.683 74.1221 28
      vertex 697.683 74.1221 0
    endloop
  endfacet
  facet normal 0.866025 0.5 -6.12303e-17
    outer loop
      vertex 697.177 75 0
      vertex 697.177 75 28
      vertex 697.683 74.1221 0
    endloop
  endfacet
  facet normal 0 1 -1.22461e-16
    outer loop
      vertex 697.113 75 0
      vertex 697.113 75 28
      vertex 697.177 75 0
    endloop
  endfacet
  facet normal 0 1 -1.22461e-16
    outer loop
      vertex 697.177 75 0
      vertex 697.113 75 28
      vertex 697.177 75 28
    endloop
  endfacet
  facet normal 0.866025 0.5 -1.72253e-16
    outer loop
      vertex 697.113 75 0
      vertex 685.566 95 0
      vertex 685.566 95 28
    endloop
  endfacet
  facet normal 0.866025 0.5 -1.72253e-16
    outer loop
      vertex 697.113 75 28
      vertex 697.113 75 0
      vertex 685.566 95 28
    endloop
  endfacet
  facet normal 2.22045e-16 1 -3.44505e-16
    outer loop
      vertex 685.503 95 28
      vertex 685.566 95 28
      vertex 685.503 95 0
    endloop
  endfacet
  facet normal 2.22045e-16 1 -3.44505e-16
    outer loop
      vertex 685.503 95 0
      vertex 685.566 95 28
      vertex 685.566 95 0
    endloop
  endfacet
  facet normal 0.866025 0.5 -6.12303e-17
    outer loop
      vertex 685.503 95 0
      vertex 684.996 95.8779 0
      vertex 684.996 95.8779 28
    endloop
  endfacet
  facet normal 0.866025 0.5 -6.12303e-17
    outer loop
      vertex 685.503 95 28
      vertex 685.503 95 0
      vertex 684.996 95.8779 28
    endloop
  endfacet
  facet normal 0.743145 0.669131 -8.19422e-17
    outer loop
      vertex 684.996 95.8779 0
      vertex 683.597 97.4314 0
      vertex 683.597 97.4314 28
    endloop
  endfacet
  facet normal 0.743145 0.669131 -8.19422e-17
    outer loop
      vertex 684.996 95.8779 28
      vertex 684.996 95.8779 0
      vertex 683.597 97.4314 28
    endloop
  endfacet
  facet normal 0.587785 0.809017 -9.90727e-17
    outer loop
      vertex 681.906 98.6603 0
      vertex 681.906 98.6603 28
      vertex 683.597 97.4314 0
    endloop
  endfacet
  facet normal 0.587785 0.809017 -9.90727e-17
    outer loop
      vertex 683.597 97.4314 0
      vertex 681.906 98.6603 28
      vertex 683.597 97.4314 28
    endloop
  endfacet
  facet normal 0.406737 0.913545 -1.11873e-16
    outer loop
      vertex 679.996 99.5106 0
      vertex 679.996 99.5106 28
      vertex 681.906 98.6603 0
    endloop
  endfacet
  facet normal 0.406737 0.913545 -1.11873e-16
    outer loop
      vertex 681.906 98.6603 0
      vertex 679.996 99.5106 28
      vertex 681.906 98.6603 28
    endloop
  endfacet
  facet normal 0.207912 0.978148 -1.19785e-16
    outer loop
      vertex 677.951 99.9452 0
      vertex 677.951 99.9452 28
      vertex 679.996 99.5106 0
    endloop
  endfacet
  facet normal 0.207912 0.978148 -1.19785e-16
    outer loop
      vertex 679.996 99.5106 0
      vertex 677.951 99.9452 28
      vertex 679.996 99.5106 28
    endloop
  endfacet
  facet normal 0 1 -1.22461e-16
    outer loop
      vertex 676.906 99.9452 0
      vertex 676.906 99.9452 28
      vertex 677.951 99.9452 0
    endloop
  endfacet
  facet normal 0 1 -1.22461e-16
    outer loop
      vertex 677.951 99.9452 0
      vertex 676.906 99.9452 28
      vertex 677.951 99.9452 28
    endloop
  endfacet
  facet normal 1 0 0
    outer loop
      vertex 676.906 99.9452 28
      vertex 676.906 99.9452 0
      vertex 676.906 100 0
    endloop
  endfacet
  facet normal 1 0 0
    outer loop
      vertex 676.906 100 28
      vertex 676.906 99.9452 28
      vertex 676.906 100 0
    endloop
  endfacet
  facet normal 0 1 -1.22461e-16
    outer loop
      vertex 523.094 100 0
      vertex 523.094 100 28
      vertex 676.906 100 0
    endloop
  endfacet
  facet normal 0 1 -1.22461e-16
    outer loop
      vertex 676.906 100 0
      vertex 523.094 100 28
      vertex 676.906 100 28
    endloop
  endfacet
  facet normal -1 0 0
    outer loop
      vertex 523.094 99.9452 0
      vertex 523.094 99.9452 28
      vertex 523.094 100 0
    endloop
  endfacet
  facet normal -1 0 0
    outer loop
      vertex 523.094 100 0
      vertex 523.094 99.9452 28
      vertex 523.094 100 28
    endloop
  endfacet
  facet normal 0 1 -1.22461e-16
    outer loop
      vertex 522.049 99.9452 0
      vertex 522.049 99.9452 28
      vertex 523.094 99.9452 0
    endloop
  endfacet
  facet normal 0 1 -1.22461e-16
    outer loop
      vertex 523.094 99.9452 0
      vertex 522.049 99.9452 28
      vertex 523.094 99.9452 28
    endloop
  endfacet
  facet normal -0.207912 0.978148 -1.19785e-16
    outer loop
      vertex 520.004 99.5106 0
      vertex 520.004 99.5106 28
      vertex 522.049 99.9452 0
    endloop
  endfacet
  facet normal -0.207912 0.978148 -1.19785e-16
    outer loop
      vertex 522.049 99.9452 0
      vertex 520.004 99.5106 28
      vertex 522.049 99.9452 28
    endloop
  endfacet
  facet normal -0.406737 0.913545 -1.11873e-16
    outer loop
      vertex 518.094 98.6603 0
      vertex 518.094 98.6603 28
      vertex 520.004 99.5106 0
    endloop
  endfacet
  facet normal -0.406737 0.913545 -1.11873e-16
    outer loop
      vertex 520.004 99.5106 0
      vertex 518.094 98.6603 28
      vertex 520.004 99.5106 28
    endloop
  endfacet
  facet normal -0.587785 0.809017 -9.90727e-17
    outer loop
      vertex 516.403 97.4314 0
      vertex 516.403 97.4314 28
      vertex 518.094 98.6603 0
    endloop
  endfacet
  facet normal -0.587785 0.809017 -9.90727e-17
    outer loop
      vertex 518.094 98.6603 0
      vertex 516.403 97.4314 28
      vertex 518.094 98.6603 28
    endloop
  endfacet
  facet normal -0.743145 0.669131 -8.19422e-17
    outer loop
      vertex 515.004 95.8779 0
      vertex 515.004 95.8779 28
      vertex 516.403 97.4314 0
    endloop
  endfacet
  facet normal -0.743145 0.669131 -8.19422e-17
    outer loop
      vertex 516.403 97.4314 0
      vertex 515.004 95.8779 28
      vertex 516.403 97.4314 28
    endloop
  endfacet
  facet normal -0.866025 0.5 -6.12303e-17
    outer loop
      vertex 514.497 95 0
      vertex 514.497 95 28
      vertex 515.004 95.8779 0
    endloop
  endfacet
  facet normal -0.866025 0.5 -6.12303e-17
    outer loop
      vertex 515.004 95.8779 0
      vertex 514.497 95 28
      vertex 515.004 95.8779 28
    endloop
  endfacet
  facet normal 2.22045e-16 1 -3.44505e-16
    outer loop
      vertex 514.434 95 0
      vertex 514.434 95 28
      vertex 514.497 95 0
    endloop
  endfacet
  facet normal 2.22045e-16 1 -3.44505e-16
    outer loop
      vertex 514.497 95 0
      vertex 514.434 95 28
      vertex 514.497 95 28
    endloop
  endfacet
  facet normal -0.866025 0.5 -1.72253e-16
    outer loop
      vertex 502.887 75 28
      vertex 514.434 95 28
      vertex 502.887 75 0
    endloop
  endfacet
  facet normal -0.866025 0.5 -1.72253e-16
    outer loop
      vertex 502.887 75 0
      vertex 514.434 95 28
      vertex 514.434 95 0
    endloop
  endfacet
  facet normal 0 1 -1.22461e-16
    outer loop
      vertex 502.823 75 0
      vertex 502.823 75 28
      vertex 502.887 75 0
    endloop
  endfacet
  facet normal 0 1 -1.22461e-16
    outer loop
      vertex 502.887 75 0
      vertex 502.823 75 28
      vertex 502.887 75 28
    endloop
  endfacet
  facet normal -0.866025 0.5 -6.12303e-17
    outer loop
      vertex 502.823 75 28
      vertex 502.823 75 0
      vertex 502.317 74.1221 28
    endloop
  endfacet
  facet normal -0.866025 0.5 -6.12303e-17
    outer loop
      vertex 502.317 74.1221 28
      vertex 502.823 75 0
      vertex 502.317 74.1221 0
    endloop
  endfacet
  facet normal -0.743145 0.669131 -8.19422e-17
    outer loop
      vertex 502.317 74.1221 28
      vertex 502.317 74.1221 0
      vertex 500.918 72.5686 28
    endloop
  endfacet
  facet normal -0.743145 0.669131 -8.19422e-17
    outer loop
      vertex 500.918 72.5686 28
      vertex 502.317 74.1221 0
      vertex 500.918 72.5686 0
    endloop
  endfacet
  facet normal -0.587785 0.809017 -9.90727e-17
    outer loop
      vertex 500.918 72.5686 28
      vertex 500.918 72.5686 0
      vertex 499.226 71.3397 28
    endloop
  endfacet
  facet normal -0.587785 0.809017 -9.90727e-17
    outer loop
      vertex 499.226 71.3397 28
      vertex 500.918 72.5686 0
      vertex 499.226 71.3397 0
    endloop
  endfacet
  facet normal -0.406737 0.913545 -1.11873e-16
    outer loop
      vertex 499.226 71.3397 28
      vertex 499.226 71.3397 0
      vertex 497.317 70.4894 28
    endloop
  endfacet
  facet normal -0.406737 0.913545 -1.11873e-16
    outer loop
      vertex 497.317 70.4894 28
      vertex 499.226 71.3397 0
      vertex 497.317 70.4894 0
    endloop
  endfacet
  facet normal -0.207912 0.978148 -1.19785e-16
    outer loop
      vertex 497.317 70.4894 28
      vertex 497.317 70.4894 0
      vertex 495.272 70.0548 28
    endloop
  endfacet
  facet normal -0.207912 0.978148 -1.19785e-16
    outer loop
      vertex 495.272 70.0548 28
      vertex 497.317 70.4894 0
      vertex 495.272 70.0548 0
    endloop
  endfacet
  facet normal 0 1 -1.22461e-16
    outer loop
      vertex 495.272 70.0548 28
      vertex 495.272 70.0548 0
      vertex 494.226 70.0548 28
    endloop
  endfacet
  facet normal 0 1 -1.22461e-16
    outer loop
      vertex 494.226 70.0548 28
      vertex 495.272 70.0548 0
      vertex 494.226 70.0548 0
    endloop
  endfacet
  facet normal -1 0 0
    outer loop
      vertex 494.226 70 0
      vertex 494.226 70 28
      vertex 494.226 70.0548 0
    endloop
  endfacet
  facet normal -1 0 0
    outer loop
      vertex 494.226 70.0548 0
      vertex 494.226 70 28
      vertex 494.226 70.0548 28
    endloop
  endfacet
  facet normal 0 1 0
    outer loop
      vertex 386 70 28
      vertex 386 70 23
      vertex 305.774 70 28
    endloop
  endfacet
  facet normal 0 1 0
    outer loop
      vertex 305.774 70 28
      vertex 386 70 23
      vertex 494.226 70 0
    endloop
  endfacet
  facet normal 0 1 0
    outer loop
      vertex 494.226 70 28
      vertex 414 70 23
      vertex 414 70 28
    endloop
  endfacet
  facet normal 0 1 0
    outer loop
      vertex 494.226 70 0
      vertex 414 70 23
      vertex 494.226 70 28
    endloop
  endfacet
  facet normal 0 1 0
    outer loop
      vertex 386 70 23
      vertex 414 70 23
      vertex 494.226 70 0
    endloop
  endfacet
  facet normal 0 1 0
    outer loop
      vertex 305.774 70 28
      vertex 494.226 70 0
      vertex 305.774 70 0
    endloop
  endfacet
  facet normal 1 0 0
    outer loop
      vertex 305.774 70 28
      vertex 305.774 70 0
      vertex 305.774 70.0548 0
    endloop
  endfacet
  facet normal 1 0 0
    outer loop
      vertex 305.774 70.0548 28
      vertex 305.774 70 28
      vertex 305.774 70.0548 0
    endloop
  endfacet
  facet normal 0 1 -1.22461e-16
    outer loop
      vertex 305.774 70.0548 28
      vertex 305.774 70.0548 0
      vertex 304.728 70.0548 28
    endloop
  endfacet
  facet normal 0 1 -1.22461e-16
    outer loop
      vertex 304.728 70.0548 28
      vertex 305.774 70.0548 0
      vertex 304.728 70.0548 0
    endloop
  endfacet
  facet normal 0.207912 0.978148 -1.19785e-16
    outer loop
      vertex 304.728 70.0548 28
      vertex 304.728 70.0548 0
      vertex 302.683 70.4894 28
    endloop
  endfacet
  facet normal 0.207912 0.978148 -1.19785e-16
    outer loop
      vertex 302.683 70.4894 28
      vertex 304.728 70.0548 0
      vertex 302.683 70.4894 0
    endloop
  endfacet
  facet normal 0.406737 0.913545 -1.11873e-16
    outer loop
      vertex 302.683 70.4894 28
      vertex 302.683 70.4894 0
      vertex 300.774 71.3397 28
    endloop
  endfacet
  facet normal 0.406737 0.913545 -1.11873e-16
    outer loop
      vertex 300.774 71.3397 28
      vertex 302.683 70.4894 0
      vertex 300.774 71.3397 0
    endloop
  endfacet
  facet normal 0.587785 0.809017 -9.90727e-17
    outer loop
      vertex 300.774 71.3397 28
      vertex 300.774 71.3397 0
      vertex 299.082 72.5686 28
    endloop
  endfacet
  facet normal 0.587785 0.809017 -9.90727e-17
    outer loop
      vertex 299.082 72.5686 28
      vertex 300.774 71.3397 0
      vertex 299.082 72.5686 0
    endloop
  endfacet
  facet normal 0.743145 0.669131 -8.19422e-17
    outer loop
      vertex 297.683 74.1221 28
      vertex 299.082 72.5686 28
      vertex 299.082 72.5686 0
    endloop
  endfacet
  facet normal 0.743145 0.669131 -8.19422e-17
    outer loop
      vertex 297.683 74.1221 0
      vertex 297.683 74.1221 28
      vertex 299.082 72.5686 0
    endloop
  endfacet
  facet normal 0.866025 0.5 -6.12303e-17
    outer loop
      vertex 297.177 75 28
      vertex 297.683 74.1221 28
      vertex 297.683 74.1221 0
    endloop
  endfacet
  facet normal 0.866025 0.5 -6.12303e-17
    outer loop
      vertex 297.177 75 0
      vertex 297.177 75 28
      vertex 297.683 74.1221 0
    endloop
  endfacet
  facet normal 0 1 -1.22461e-16
    outer loop
      vertex 297.113 75 0
      vertex 297.113 75 28
      vertex 297.177 75 0
    endloop
  endfacet
  facet normal 0 1 -1.22461e-16
    outer loop
      vertex 297.177 75 0
      vertex 297.113 75 28
      vertex 297.177 75 28
    endloop
  endfacet
  facet normal 0.866025 0.5 -1.72253e-16
    outer loop
      vertex 297.113 75 0
      vertex 285.566 95 0
      vertex 285.566 95 28
    endloop
  endfacet
  facet normal 0.866025 0.5 -1.72253e-16
    outer loop
      vertex 297.113 75 28
      vertex 297.113 75 0
      vertex 285.566 95 28
    endloop
  endfacet
  facet normal 2.22045e-16 1 -3.44505e-16
    outer loop
      vertex 285.503 95 28
      vertex 285.566 95 28
      vertex 285.503 95 0
    endloop
  endfacet
  facet normal 2.22045e-16 1 -3.44505e-16
    outer loop
      vertex 285.503 95 0
      vertex 285.566 95 28
      vertex 285.566 95 0
    endloop
  endfacet
  facet normal 0.866025 0.5 -6.12303e-17
    outer loop
      vertex 285.503 95 0
      vertex 284.996 95.8779 0
      vertex 284.996 95.8779 28
    endloop
  endfacet
  facet normal 0.866025 0.5 -6.12303e-17
    outer loop
      vertex 285.503 95 28
      vertex 285.503 95 0
      vertex 284.996 95.8779 28
    endloop
  endfacet
  facet normal 0.743145 0.669131 -8.19422e-17
    outer loop
      vertex 284.996 95.8779 0
      vertex 283.597 97.4314 0
      vertex 283.597 97.4314 28
    endloop
  endfacet
  facet normal 0.743145 0.669131 -8.19422e-17
    outer loop
      vertex 284.996 95.8779 28
      vertex 284.996 95.8779 0
      vertex 283.597 97.4314 28
    endloop
  endfacet
  facet normal 0.587785 0.809017 -9.90727e-17
    outer loop
      vertex 281.906 98.6603 0
      vertex 281.906 98.6603 28
      vertex 283.597 97.4314 0
    endloop
  endfacet
  facet normal 0.587785 0.809017 -9.90727e-17
    outer loop
      vertex 283.597 97.4314 0
      vertex 281.906 98.6603 28
      vertex 283.597 97.4314 28
    endloop
  endfacet
  facet normal 0.406737 0.913545 -1.11873e-16
    outer loop
      vertex 279.996 99.5106 0
      vertex 279.996 99.5106 28
      vertex 281.906 98.6603 0
    endloop
  endfacet
  facet normal 0.406737 0.913545 -1.11873e-16
    outer loop
      vertex 281.906 98.6603 0
      vertex 279.996 99.5106 28
      vertex 281.906 98.6603 28
    endloop
  endfacet
  facet normal 0.207912 0.978148 -1.19785e-16
    outer loop
      vertex 277.951 99.9452 0
      vertex 277.951 99.9452 28
      vertex 279.996 99.5106 0
    endloop
  endfacet
  facet normal 0.207912 0.978148 -1.19785e-16
    outer loop
      vertex 279.996 99.5106 0
      vertex 277.951 99.9452 28
      vertex 279.996 99.5106 28
    endloop
  endfacet
  facet normal 0 1 -1.22461e-16
    outer loop
      vertex 276.906 99.9452 0
      vertex 276.906 99.9452 28
      vertex 277.951 99.9452 0
    endloop
  endfacet
  facet normal 0 1 -1.22461e-16
    outer loop
      vertex 277.951 99.9452 0
      vertex 276.906 99.9452 28
      vertex 277.951 99.9452 28
    endloop
  endfacet
  facet normal 1 0 0
    outer loop
      vertex 276.906 99.9452 28
      vertex 276.906 99.9452 0
      vertex 276.906 100 0
    endloop
  endfacet
  facet normal 1 0 0
    outer loop
      vertex 276.906 100 28
      vertex 276.906 99.9452 28
      vertex 276.906 100 0
    endloop
  endfacet
  facet normal 0 1 -1.22461e-16
    outer loop
      vertex 123.094 100 0
      vertex 123.094 100 28
      vertex 276.906 100 0
    endloop
  endfacet
  facet normal 0 1 -1.22461e-16
    outer loop
      vertex 276.906 100 0
      vertex 123.094 100 28
      vertex 276.906 100 28
    endloop
  endfacet
  facet normal -1 0 0
    outer loop
      vertex 123.094 99.9452 0
      vertex 123.094 99.9452 28
      vertex 123.094 100 0
    endloop
  endfacet
  facet normal -1 0 0
    outer loop
      vertex 123.094 100 0
      vertex 123.094 99.9452 28
      vertex 123.094 100 28
    endloop
  endfacet
  facet normal 0 1 -1.22461e-16
    outer loop
      vertex 122.049 99.9452 0
      vertex 122.049 99.9452 28
      vertex 123.094 99.9452 0
    endloop
  endfacet
  facet normal 0 1 -1.22461e-16
    outer loop
      vertex 123.094 99.9452 0
      vertex 122.049 99.9452 28
      vertex 123.094 99.9452 28
    endloop
  endfacet
  facet normal -0.207912 0.978148 -1.19785e-16
    outer loop
      vertex 120.004 99.5106 0
      vertex 120.004 99.5106 28
      vertex 122.049 99.9452 0
    endloop
  endfacet
  facet normal -0.207912 0.978148 -1.19785e-16
    outer loop
      vertex 122.049 99.9452 0
      vertex 120.004 99.5106 28
      vertex 122.049 99.9452 28
    endloop
  endfacet
  facet normal -0.406737 0.913545 -1.11873e-16
    outer loop
      vertex 118.094 98.6603 0
      vertex 118.094 98.6603 28
      vertex 120.004 99.5106 0
    endloop
  endfacet
  facet normal -0.406737 0.913545 -1.11873e-16
    outer loop
      vertex 120.004 99.5106 0
      vertex 118.094 98.6603 28
      vertex 120.004 99.5106 28
    endloop
  endfacet
  facet normal -0.587785 0.809017 -9.90727e-17
    outer loop
      vertex 116.403 97.4314 0
      vertex 116.403 97.4314 28
      vertex 118.094 98.6603 0
    endloop
  endfacet
  facet normal -0.587785 0.809017 -9.90727e-17
    outer loop
      vertex 118.094 98.6603 0
      vertex 116.403 97.4314 28
      vertex 118.094 98.6603 28
    endloop
  endfacet
  facet normal -0.743145 0.669131 -8.19422e-17
    outer loop
      vertex 115.004 95.8779 0
      vertex 115.004 95.8779 28
      vertex 116.403 97.4314 0
    endloop
  endfacet
  facet normal -0.743145 0.669131 -8.19422e-17
    outer loop
      vertex 116.403 97.4314 0
      vertex 115.004 95.8779 28
      vertex 116.403 97.4314 28
    endloop
  endfacet
  facet normal -0.866025 0.5 -6.12303e-17
    outer loop
      vertex 114.497 95 0
      vertex 114.497 95 28
      vertex 115.004 95.8779 0
    endloop
  endfacet
  facet normal -0.866025 0.5 -6.12303e-17
    outer loop
      vertex 115.004 95.8779 0
      vertex 114.497 95 28
      vertex 115.004 95.8779 28
    endloop
  endfacet
  facet normal 2.22045e-16 1 -3.44505e-16
    outer loop
      vertex 114.434 95 0
      vertex 114.434 95 28
      vertex 114.497 95 0
    endloop
  endfacet
  facet normal 2.22045e-16 1 -3.44505e-16
    outer loop
      vertex 114.497 95 0
      vertex 114.434 95 28
      vertex 114.497 95 28
    endloop
  endfacet
  facet normal -0.866025 0.5 -1.72253e-16
    outer loop
      vertex 102.887 75 28
      vertex 114.434 95 28
      vertex 102.887 75 0
    endloop
  endfacet
  facet normal -0.866025 0.5 -1.72253e-16
    outer loop
      vertex 102.887 75 0
      vertex 114.434 95 28
      vertex 114.434 95 0
    endloop
  endfacet
  facet normal 0 1 -1.22461e-16
    outer loop
      vertex 102.823 75 0
      vertex 102.823 75 28
      vertex 102.887 75 0
    endloop
  endfacet
  facet normal 0 1 -1.22461e-16
    outer loop
      vertex 102.887 75 0
      vertex 102.823 75 28
      vertex 102.887 75 28
    endloop
  endfacet
  facet normal -0.866025 0.5 -6.12303e-17
    outer loop
      vertex 102.823 75 28
      vertex 102.823 75 0
      vertex 102.317 74.1221 28
    endloop
  endfacet
  facet normal -0.866025 0.5 -6.12303e-17
    outer loop
      vertex 102.317 74.1221 28
      vertex 102.823 75 0
      vertex 102.317 74.1221 0
    endloop
  endfacet
  facet normal -0.743145 0.669131 -8.19422e-17
    outer loop
      vertex 102.317 74.1221 28
      vertex 102.317 74.1221 0
      vertex 100.918 72.5686 28
    endloop
  endfacet
  facet normal -0.743145 0.669131 -8.19422e-17
    outer loop
      vertex 100.918 72.5686 28
      vertex 102.317 74.1221 0
      vertex 100.918 72.5686 0
    endloop
  endfacet
  facet normal -0.587785 0.809017 -9.90727e-17
    outer loop
      vertex 100.918 72.5686 28
      vertex 100.918 72.5686 0
      vertex 99.2265 71.3397 28
    endloop
  endfacet
  facet normal -0.587785 0.809017 -9.90727e-17
    outer loop
      vertex 99.2265 71.3397 28
      vertex 100.918 72.5686 0
      vertex 99.2265 71.3397 0
    endloop
  endfacet
  facet normal -0.406737 0.913545 -1.11873e-16
    outer loop
      vertex 99.2265 71.3397 28
      vertex 99.2265 71.3397 0
      vertex 97.3167 70.4894 28
    endloop
  endfacet
  facet normal -0.406737 0.913545 -1.11873e-16
    outer loop
      vertex 97.3167 70.4894 28
      vertex 99.2265 71.3397 0
      vertex 97.3167 70.4894 0
    endloop
  endfacet
  facet normal -0.207912 0.978148 -1.19785e-16
    outer loop
      vertex 97.3167 70.4894 28
      vertex 97.3167 70.4894 0
      vertex 95.2718 70.0548 28
    endloop
  endfacet
  facet normal -0.207912 0.978148 -1.19785e-16
    outer loop
      vertex 95.2718 70.0548 28
      vertex 97.3167 70.4894 0
      vertex 95.2718 70.0548 0
    endloop
  endfacet
  facet normal 0 1 -1.22461e-16
    outer loop
      vertex 95.2718 70.0548 28
      vertex 95.2718 70.0548 0
      vertex 94.2265 70.0548 28
    endloop
  endfacet
  facet normal 0 1 -1.22461e-16
    outer loop
      vertex 94.2265 70.0548 28
      vertex 95.2718 70.0548 0
      vertex 94.2265 70.0548 0
    endloop
  endfacet
  facet normal -1 0 0
    outer loop
      vertex 94.2265 70 0
      vertex 94.2265 70 28
      vertex 94.2265 70.0548 0
    endloop
  endfacet
  facet normal -1 0 0
    outer loop
      vertex 94.2265 70.0548 0
      vertex 94.2265 70 28
      vertex 94.2265 70.0548 28
    endloop
  endfacet
  facet normal 0 0 1
    outer loop
      vertex 28 70 28
      vertex 28 56 28
      vertex 386 56 28
    endloop
  endfacet
  facet normal 0 0 1
    outer loop
      vertex 94.2265 70 28
      vertex 28 70 28
      vertex 386 56 28
    endloop
  endfacet
  facet normal 0 0 1
    outer loop
      vertex 305.774 70 28
      vertex 94.2265 70 28
      vertex 386 56 28
    endloop
  endfacet
  facet normal 0 0 1
    outer loop
      vertex 386 70 28
      vertex 305.774 70 28
      vertex 386 56 28
    endloop
  endfacet
  facet normal 0 0 1
    outer loop
      vertex 304.728 70.0548 28
      vertex 94.2265 70 28
      vertex 305.774 70.0548 28
    endloop
  endfacet
  facet normal 0 0 1
    outer loop
      vertex 95.2718 70.0548 28
      vertex 94.2265 70 28
      vertex 304.728 70.0548 28
    endloop
  endfacet
  facet normal 0 0 1
    outer loop
      vertex 97.3167 70.4894 28
      vertex 302.683 70.4894 28
      vertex 300.774 71.3397 28
    endloop
  endfacet
  facet normal 0 0 1
    outer loop
      vertex 102.823 75 28
      vertex 102.317 74.1221 28
      vertex 102.887 75 28
    endloop
  endfacet
  facet normal 0 0 1
    outer loop
      vertex 97.3167 70.4894 28
      vertex 95.2718 70.0548 28
      vertex 302.683 70.4894 28
    endloop
  endfacet
  facet normal 0 0 1
    outer loop
      vertex 99.2265 71.3397 28
      vertex 299.082 72.5686 28
      vertex 297.683 74.1221 28
    endloop
  endfacet
  facet normal 0 0 1
    outer loop
      vertex 99.2265 71.3397 28
      vertex 297.683 74.1221 28
      vertex 297.177 75 28
    endloop
  endfacet
  facet normal 0 0 1
    outer loop
      vertex 99.2265 71.3397 28
      vertex 97.3167 70.4894 28
      vertex 299.082 72.5686 28
    endloop
  endfacet
  facet normal 0 0 1
    outer loop
      vertex 114.497 95 28
      vertex 276.906 99.9452 28
      vertex 276.906 100 28
    endloop
  endfacet
  facet normal 0 0 1
    outer loop
      vertex 276.906 100 28
      vertex 123.094 100 28
      vertex 123.094 99.9452 28
    endloop
  endfacet
  facet normal 0 0 1
    outer loop
      vertex 118.094 98.6603 28
      vertex 116.403 97.4314 28
      vertex 123.094 99.9452 28
    endloop
  endfacet
  facet normal 0 0 1
    outer loop
      vertex 120.004 99.5106 28
      vertex 118.094 98.6603 28
      vertex 122.049 99.9452 28
    endloop
  endfacet
  facet normal 0 0 1
    outer loop
      vertex 276.906 100 28
      vertex 123.094 99.9452 28
      vertex 116.403 97.4314 28
    endloop
  endfacet
  facet normal 0 0 1
    outer loop
      vertex 276.906 100 28
      vertex 116.403 97.4314 28
      vertex 115.004 95.8779 28
    endloop
  endfacet
  facet normal 0 0 1
    outer loop
      vertex 276.906 100 28
      vertex 115.004 95.8779 28
      vertex 114.497 95 28
    endloop
  endfacet
  facet normal 0 0 1
    outer loop
      vertex 297.113 75 28
      vertex 285.566 95 28
      vertex 102.887 75 28
    endloop
  endfacet
  facet normal 0 0 1
    outer loop
      vertex 99.2265 71.3397 28
      vertex 297.177 75 28
      vertex 297.113 75 28
    endloop
  endfacet
  facet normal 0 0 1
    outer loop
      vertex 297.113 75 28
      vertex 102.887 75 28
      vertex 102.317 74.1221 28
    endloop
  endfacet
  facet normal 0 0 1
    outer loop
      vertex 297.113 75 28
      vertex 102.317 74.1221 28
      vertex 100.918 72.5686 28
    endloop
  endfacet
  facet normal 0 0 1
    outer loop
      vertex 297.113 75 28
      vertex 100.918 72.5686 28
      vertex 99.2265 71.3397 28
    endloop
  endfacet
  facet normal 0 0 1
    outer loop
      vertex 94.2265 70.0548 28
      vertex 94.2265 70 28
      vertex 95.2718 70.0548 28
    endloop
  endfacet
  facet normal 0 0 1
    outer loop
      vertex 300.774 71.3397 28
      vertex 299.082 72.5686 28
      vertex 97.3167 70.4894 28
    endloop
  endfacet
  facet normal 0 0 1
    outer loop
      vertex 304.728 70.0548 28
      vertex 302.683 70.4894 28
      vertex 95.2718 70.0548 28
    endloop
  endfacet
  facet normal 0 0 1
    outer loop
      vertex 305.774 70.0548 28
      vertex 94.2265 70 28
      vertex 305.774 70 28
    endloop
  endfacet
  facet normal 0 0 1
    outer loop
      vertex 123.094 99.9452 28
      vertex 122.049 99.9452 28
      vertex 118.094 98.6603 28
    endloop
  endfacet
  facet normal 0 0 1
    outer loop
      vertex 114.497 95 28
      vertex 277.951 99.9452 28
      vertex 276.906 99.9452 28
    endloop
  endfacet
  facet normal 0 0 1
    outer loop
      vertex 114.497 95 28
      vertex 279.996 99.5106 28
      vertex 277.951 99.9452 28
    endloop
  endfacet
  facet normal 0 0 1
    outer loop
      vertex 114.497 95 28
      vertex 281.906 98.6603 28
      vertex 279.996 99.5106 28
    endloop
  endfacet
  facet normal 0 0 1
    outer loop
      vertex 114.497 95 28
      vertex 283.597 97.4314 28
      vertex 281.906 98.6603 28
    endloop
  endfacet
  facet normal 0 0 1
    outer loop
      vertex 114.497 95 28
      vertex 284.996 95.8779 28
      vertex 283.597 97.4314 28
    endloop
  endfacet
  facet normal 0 0 1
    outer loop
      vertex 114.497 95 28
      vertex 285.503 95 28
      vertex 284.996 95.8779 28
    endloop
  endfacet
  facet normal 0 0 1
    outer loop
      vertex 285.503 95 28
      vertex 102.887 75 28
      vertex 285.566 95 28
    endloop
  endfacet
  facet normal 0 0 1
    outer loop
      vertex 114.497 95 28
      vertex 102.887 75 28
      vertex 285.503 95 28
    endloop
  endfacet
  facet normal 0 0 1
    outer loop
      vertex 114.434 95 28
      vertex 102.887 75 28
      vertex 114.497 95 28
    endloop
  endfacet
  facet normal -1 0 0
    outer loop
      vertex 28 56 23
      vertex 28 56 28
      vertex 28 70 28
    endloop
  endfacet
  facet normal -1 0 0
    outer loop
      vertex 28 56 23
      vertex 28 70 28
      vertex 28 70 18
    endloop
  endfacet
  facet normal -1 0 0
    outer loop
      vertex 28 56 23
      vertex 28 70 18
      vertex 28 40 23
    endloop
  endfacet
  facet normal -1 0 0
    outer loop
      vertex 28 70 18
      vertex 28 40 18
      vertex 28 40 23
    endloop
  endfacet
  facet normal 0 0 1
    outer loop
      vertex 28 40 18
      vertex 28 70 18
      vertex 10 70 18
    endloop
  endfacet
  facet normal 0 0 1
    outer loop
      vertex 10 40 18
      vertex 28 40 18
      vertex 10 70 18
    endloop
  endfacet
  facet normal 0 -1 0
    outer loop
      vertex 100 40 14
      vertex 100 40 23
      vertex 28 40 23
    endloop
  endfacet
  facet normal 0 -1 0
    outer loop
      vertex 10 40 18
      vertex 100 40 14
      vertex 28 40 18
    endloop
  endfacet
  facet normal 0 -1 0
    outer loop
      vertex 28 40 18
      vertex 100 40 14
      vertex 28 40 23
    endloop
  endfacet
  facet normal 0 -1 0
    outer loop
      vertex 10 40 14
      vertex 100 40 14
      vertex 10 40 18
    endloop
  endfacet
  facet normal 0 0 1
    outer loop
      vertex 100 40 23
      vertex 100 28 23
      vertex 350 28 23
    endloop
  endfacet
  facet normal 0 0 1
    outer loop
      vertex 1172 56 23
      vertex 100 40 23
      vertex 350 40 23
    endloop
  endfacet
  facet normal 0 0 1
    outer loop
      vertex 350 40 23
      vertex 100 40 23
      vertex 350 28 23
    endloop
  endfacet
  facet normal 0 0 1
    outer loop
      vertex 386 70 23
      vertex 386 56 23
      vertex 414 70 23
    endloop
  endfacet
  facet normal 0 0 1
    outer loop
      vertex 1172 56 23
      vertex 350 40 23
      vertex 450 40 23
    endloop
  endfacet
  facet normal 0 0 1
    outer loop
      vertex 750 28 23
      vertex 450 40 23
      vertex 450 28 23
    endloop
  endfacet
  facet normal 0 0 1
    outer loop
      vertex 750 40 23
      vertex 450 40 23
      vertex 750 28 23
    endloop
  endfacet
  facet normal 0 0 1
    outer loop
      vertex 1172 56 23
      vertex 450 40 23
      vertex 750 40 23
    endloop
  endfacet
  facet normal 0 0 1
    outer loop
      vertex 1172 56 23
      vertex 750 40 23
      vertex 850 40 23
    endloop
  endfacet
  facet normal 0 0 1
    outer loop
      vertex 1100 28 23
      vertex 850 40 23
      vertex 850 28 23
    endloop
  endfacet
  facet normal 0 0 1
    outer loop
      vertex 1100 40 23
      vertex 850 40 23
      vertex 1100 28 23
    endloop
  endfacet
  facet normal 0 0 1
    outer loop
      vertex 1172 56 23
      vertex 850 40 23
      vertex 1100 40 23
    endloop
  endfacet
  facet normal 0 0 1
    outer loop
      vertex 1172 56 23
      vertex 1100 40 23
      vertex 1172 40 23
    endloop
  endfacet
  facet normal 0 0 1
    outer loop
      vertex 814 56 23
      vertex 100 40 23
      vertex 1172 56 23
    endloop
  endfacet
  facet normal 0 0 1
    outer loop
      vertex 786 56 23
      vertex 100 40 23
      vertex 814 56 23
    endloop
  endfacet
  facet normal 0 0 1
    outer loop
      vertex 786 56 23
      vertex 414 56 23
      vertex 100 40 23
    endloop
  endfacet
  facet normal 0 0 1
    outer loop
      vertex 814 70 23
      vertex 786 56 23
      vertex 814 56 23
    endloop
  endfacet
  facet normal 0 0 1
    outer loop
      vertex 386 56 23
      vertex 100 40 23
      vertex 414 56 23
    endloop
  endfacet
  facet normal 0 0 1
    outer loop
      vertex 386 56 23
      vertex 28 56 23
      vertex 100 40 23
    endloop
  endfacet
  facet normal 0 0 1
    outer loop
      vertex 414 70 23
      vertex 386 56 23
      vertex 414 56 23
    endloop
  endfacet
  facet normal 0 0 1
    outer loop
      vertex 786 70 23
      vertex 786 56 23
      vertex 814 70 23
    endloop
  endfacet
  facet normal 0 0 1
    outer loop
      vertex 28 40 23
      vertex 100 40 23
      vertex 28 56 23
    endloop
  endfacet
  facet normal 0 1 0
    outer loop
      vertex 350 28 28
      vertex 350 28 23
      vertex 100 28 28
    endloop
  endfacet
  facet normal 0 1 0
    outer loop
      vertex 100 28 28
      vertex 350 28 23
      vertex 100 28 23
    endloop
  endfacet
  facet normal 0 -1 0
    outer loop
      vertex 450 40 14
      vertex 450 40 23
      vertex 350 40 23
    endloop
  endfacet
  facet normal 0 -1 0
    outer loop
      vertex 350 40 14
      vertex 450 40 14
      vertex 350 40 23
    endloop
  endfacet
  facet normal 0 1 0
    outer loop
      vertex 750 28 28
      vertex 750 28 23
      vertex 450 28 28
    endloop
  endfacet
  facet normal 0 1 0
    outer loop
      vertex 450 28 28
      vertex 750 28 23
      vertex 450 28 23
    endloop
  endfacet
  facet normal 0 -1 0
    outer loop
      vertex 850 40 14
      vertex 850 40 23
      vertex 750 40 23
    endloop
  endfacet
  facet normal 0 -1 0
    outer loop
      vertex 750 40 14
      vertex 850 40 14
      vertex 750 40 23
    endloop
  endfacet
  facet normal 0 1 0
    outer loop
      vertex 1100 28 28
      vertex 1100 28 23
      vertex 850 28 28
    endloop
  endfacet
  facet normal 0 1 0
    outer loop
      vertex 850 28 28
      vertex 1100 28 23
      vertex 850 28 23
    endloop
  endfacet
  facet normal 0 -1 0
    outer loop
      vertex 1190 40 14
      vertex 1190 40 18
      vertex 1172 40 18
    endloop
  endfacet
  facet normal 0 -1 0
    outer loop
      vertex 1100 40 23
      vertex 1190 40 14
      vertex 1172 40 18
    endloop
  endfacet
  facet normal 0 -1 0
    outer loop
      vertex 1172 40 23
      vertex 1100 40 23
      vertex 1172 40 18
    endloop
  endfacet
  facet normal 0 -1 0
    outer loop
      vertex 1100 40 23
      vertex 1100 40 14
      vertex 1190 40 14
    endloop
  endfacet
  facet normal 0 0 1
    outer loop
      vertex 1190 40 18
      vertex 1190 70 18
      vertex 1172 70 18
    endloop
  endfacet
  facet normal 0 0 1
    outer loop
      vertex 1172 40 18
      vertex 1190 40 18
      vertex 1172 70 18
    endloop
  endfacet
  facet normal 0 0 1
    outer loop
      vertex 814 70 28
      vertex 814 56 28
      vertex 1172 56 28
    endloop
  endfacet
  facet normal 0 0 1
    outer loop
      vertex 894.226 70 28
      vertex 814 70 28
      vertex 1172 56 28
    endloop
  endfacet
  facet normal 0 0 1
    outer loop
      vertex 1105.77 70 28
      vertex 894.226 70 28
      vertex 1172 56 28
    endloop
  endfacet
  facet normal 0 0 1
    outer loop
      vertex 1172 70 28
      vertex 1105.77 70 28
      vertex 1172 56 28
    endloop
  endfacet
  facet normal 0 0 1
    outer loop
      vertex 1104.73 70.0548 28
      vertex 894.226 70 28
      vertex 1105.77 70.0548 28
    endloop
  endfacet
  facet normal 0 0 1
    outer loop
      vertex 895.272 70.0548 28
      vertex 894.226 70 28
      vertex 1104.73 70.0548 28
    endloop
  endfacet
  facet normal 0 0 1
    outer loop
      vertex 902.823 75 28
      vertex 902.317 74.1221 28
      vertex 902.887 75 28
    endloop
  endfacet
  facet normal 0 0 1
    outer loop
      vertex 899.226 71.3397 28
      vertex 1099.08 72.5686 28
      vertex 1097.68 74.1221 28
    endloop
  endfacet
  facet normal 0 0 1
    outer loop
      vertex 897.317 70.4894 28
      vertex 895.272 70.0548 28
      vertex 1102.68 70.4894 28
    endloop
  endfacet
  facet normal 0 0 1
    outer loop
      vertex 900.918 72.5686 28
      vertex 899.226 71.3397 28
      vertex 1097.18 75 28
    endloop
  endfacet
  facet normal 0 0 1
    outer loop
      vertex 914.497 95 28
      vertex 1076.91 99.9452 28
      vertex 1076.91 100 28
    endloop
  endfacet
  facet normal 0 0 1
    outer loop
      vertex 1076.91 100 28
      vertex 923.094 100 28
      vertex 923.094 99.9452 28
    endloop
  endfacet
  facet normal 0 0 1
    outer loop
      vertex 918.094 98.6603 28
      vertex 916.403 97.4314 28
      vertex 923.094 99.9452 28
    endloop
  endfacet
  facet normal 0 0 1
    outer loop
      vertex 920.004 99.5106 28
      vertex 918.094 98.6603 28
      vertex 922.049 99.9452 28
    endloop
  endfacet
  facet normal 0 0 1
    outer loop
      vertex 1076.91 100 28
      vertex 923.094 99.9452 28
      vertex 916.403 97.4314 28
    endloop
  endfacet
  facet normal 0 0 1
    outer loop
      vertex 1076.91 100 28
      vertex 916.403 97.4314 28
      vertex 915.004 95.8779 28
    endloop
  endfacet
  facet normal 0 0 1
    outer loop
      vertex 1076.91 100 28
      vertex 915.004 95.8779 28
      vertex 914.497 95 28
    endloop
  endfacet
  facet normal 0 0 1
    outer loop
      vertex 1097.11 75 28
      vertex 1085.57 95 28
      vertex 902.887 75 28
    endloop
  endfacet
  facet normal 0 0 1
    outer loop
      vertex 900.918 72.5686 28
      vertex 1097.18 75 28
      vertex 1097.11 75 28
    endloop
  endfacet
  facet normal 0 0 1
    outer loop
      vertex 1097.11 75 28
      vertex 902.887 75 28
      vertex 902.317 74.1221 28
    endloop
  endfacet
  facet normal 0 0 1
    outer loop
      vertex 899.226 71.3397 28
      vertex 897.317 70.4894 28
      vertex 1099.08 72.5686 28
    endloop
  endfacet
  facet normal 0 0 1
    outer loop
      vertex 1097.11 75 28
      vertex 902.317 74.1221 28
      vertex 900.918 72.5686 28
    endloop
  endfacet
  facet normal 0 0 1
    outer loop
      vertex 897.317 70.4894 28
      vertex 1102.68 70.4894 28
      vertex 1100.77 71.3397 28
    endloop
  endfacet
  facet normal 0 0 1
    outer loop
      vertex 1097.68 74.1221 28
      vertex 1097.18 75 28
      vertex 899.226 71.3397 28
    endloop
  endfacet
  facet normal 0 0 1
    outer loop
      vertex 894.226 70.0548 28
      vertex 894.226 70 28
      vertex 895.272 70.0548 28
    endloop
  endfacet
  facet normal 0 0 1
    outer loop
      vertex 1100.77 71.3397 28
      vertex 1099.08 72.5686 28
      vertex 897.317 70.4894 28
    endloop
  endfacet
  facet normal 0 0 1
    outer loop
      vertex 1104.73 70.0548 28
      vertex 1102.68 70.4894 28
      vertex 895.272 70.0548 28
    endloop
  endfacet
  facet normal 0 0 1
    outer loop
      vertex 1105.77 70.0548 28
      vertex 894.226 70 28
      vertex 1105.77 70 28
    endloop
  endfacet
  facet normal 0 0 1
    outer loop
      vertex 923.094 99.9452 28
      vertex 922.049 99.9452 28
      vertex 918.094 98.6603 28
    endloop
  endfacet
  facet normal 0 0 1
    outer loop
      vertex 914.497 95 28
      vertex 1077.95 99.9452 28
      vertex 1076.91 99.9452 28
    endloop
  endfacet
  facet normal 0 0 1
    outer loop
      vertex 914.497 95 28
      vertex 1080 99.5106 28
      vertex 1077.95 99.9452 28
    endloop
  endfacet
  facet normal 0 0 1
    outer loop
      vertex 914.497 95 28
      vertex 1081.91 98.6603 28
      vertex 1080 99.5106 28
    endloop
  endfacet
  facet normal 0 0 1
    outer loop
      vertex 914.497 95 28
      vertex 1083.6 97.4314 28
      vertex 1081.91 98.6603 28
    endloop
  endfacet
  facet normal 0 0 1
    outer loop
      vertex 914.497 95 28
      vertex 1085 95.8779 28
      vertex 1083.6 97.4314 28
    endloop
  endfacet
  facet normal 0 0 1
    outer loop
      vertex 914.497 95 28
      vertex 1085.5 95 28
      vertex 1085 95.8779 28
    endloop
  endfacet
  facet normal 0 0 1
    outer loop
      vertex 1085.5 95 28
      vertex 902.887 75 28
      vertex 1085.57 95 28
    endloop
  endfacet
  facet normal 0 0 1
    outer loop
      vertex 914.497 95 28
      vertex 902.887 75 28
      vertex 1085.5 95 28
    endloop
  endfacet
  facet normal 0 0 1
    outer loop
      vertex 914.434 95 28
      vertex 902.887 75 28
      vertex 914.497 95 28
    endloop
  endfacet
  facet normal 1 0 0
    outer loop
      vertex 1172 70 18
      vertex 1172 70 28
      vertex 1172 56 28
    endloop
  endfacet
  facet normal 1 0 0
    outer loop
      vertex 1172 40 23
      vertex 1172 70 18
      vertex 1172 56 23
    endloop
  endfacet
  facet normal 1 0 0
    outer loop
      vertex 1172 56 23
      vertex 1172 70 18
      vertex 1172 56 28
    endloop
  endfacet
  facet normal 1 0 0
    outer loop
      vertex 1172 40 18
      vertex 1172 70 18
      vertex 1172 40 23
    endloop
  endfacet
  facet normal 0 0 1
    outer loop
      vertex 414 70 28
      vertex 414 56 28
      vertex 786 56 28
    endloop
  endfacet
  facet normal 0 0 1
    outer loop
      vertex 494.226 70 28
      vertex 414 70 28
      vertex 786 56 28
    endloop
  endfacet
  facet normal 0 0 1
    outer loop
      vertex 705.774 70 28
      vertex 494.226 70 28
      vertex 786 56 28
    endloop
  endfacet
  facet normal 0 0 1
    outer loop
      vertex 786 70 28
      vertex 705.774 70 28
      vertex 786 56 28
    endloop
  endfacet
  facet normal 0 0 1
    outer loop
      vertex 704.728 70.0548 28
      vertex 494.226 70 28
      vertex 705.774 70.0548 28
    endloop
  endfacet
  facet normal 0 0 1
    outer loop
      vertex 495.272 70.0548 28
      vertex 494.226 70 28
      vertex 704.728 70.0548 28
    endloop
  endfacet
  facet normal 0 0 1
    outer loop
      vertex 502.823 75 28
      vertex 502.317 74.1221 28
      vertex 502.887 75 28
    endloop
  endfacet
  facet normal 0 0 1
    outer loop
      vertex 499.226 71.3397 28
      vertex 699.082 72.5686 28
      vertex 697.683 74.1221 28
    endloop
  endfacet
  facet normal 0 0 1
    outer loop
      vertex 497.317 70.4894 28
      vertex 495.272 70.0548 28
      vertex 702.683 70.4894 28
    endloop
  endfacet
  facet normal 0 0 1
    outer loop
      vertex 500.918 72.5686 28
      vertex 499.226 71.3397 28
      vertex 697.177 75 28
    endloop
  endfacet
  facet normal 0 0 1
    outer loop
      vertex 514.497 95 28
      vertex 676.906 99.9452 28
      vertex 676.906 100 28
    endloop
  endfacet
  facet normal 0 0 1
    outer loop
      vertex 676.906 100 28
      vertex 523.094 100 28
      vertex 523.094 99.9452 28
    endloop
  endfacet
  facet normal 0 0 1
    outer loop
      vertex 518.094 98.6603 28
      vertex 516.403 97.4314 28
      vertex 523.094 99.9452 28
    endloop
  endfacet
  facet normal 0 0 1
    outer loop
      vertex 520.004 99.5106 28
      vertex 518.094 98.6603 28
      vertex 522.049 99.9452 28
    endloop
  endfacet
  facet normal 0 0 1
    outer loop
      vertex 676.906 100 28
      vertex 523.094 99.9452 28
      vertex 516.403 97.4314 28
    endloop
  endfacet
  facet normal 0 0 1
    outer loop
      vertex 676.906 100 28
      vertex 516.403 97.4314 28
      vertex 515.004 95.8779 28
    endloop
  endfacet
  facet normal 0 0 1
    outer loop
      vertex 676.906 100 28
      vertex 515.004 95.8779 28
      vertex 514.497 95 28
    endloop
  endfacet
  facet normal 0 0 1
    outer loop
      vertex 697.113 75 28
      vertex 685.566 95 28
      vertex 502.887 75 28
    endloop
  endfacet
  facet normal 0 0 1
    outer loop
      vertex 500.918 72.5686 28
      vertex 697.177 75 28
      vertex 697.113 75 28
    endloop
  endfacet
  facet normal 0 0 1
    outer loop
      vertex 697.113 75 28
      vertex 502.887 75 28
      vertex 502.317 74.1221 28
    endloop
  endfacet
  facet normal 0 0 1
    outer loop
      vertex 499.226 71.3397 28
      vertex 497.317 70.4894 28
      vertex 699.082 72.5686 28
    endloop
  endfacet
  facet normal 0 0 1
    outer loop
      vertex 697.113 75 28
      vertex 502.317 74.1221 28
      vertex 500.918 72.5686 28
    endloop
  endfacet
  facet normal 0 0 1
    outer loop
      vertex 497.317 70.4894 28
      vertex 702.683 70.4894 28
      vertex 700.774 71.3397 28
    endloop
  endfacet
  facet normal 0 0 1
    outer loop
      vertex 697.683 74.1221 28
      vertex 697.177 75 28
      vertex 499.226 71.3397 28
    endloop
  endfacet
  facet normal 0 0 1
    outer loop
      vertex 494.226 70.0548 28
      vertex 494.226 70 28
      vertex 495.272 70.0548 28
    endloop
  endfacet
  facet normal 0 0 1
    outer loop
      vertex 700.774 71.3397 28
      vertex 699.082 72.5686 28
      vertex 497.317 70.4894 28
    endloop
  endfacet
  facet normal 0 0 1
    outer loop
      vertex 704.728 70.0548 28
      vertex 702.683 70.4894 28
      vertex 495.272 70.0548 28
    endloop
  endfacet
  facet normal 0 0 1
    outer loop
      vertex 705.774 70.0548 28
      vertex 494.226 70 28
      vertex 705.774 70 28
    endloop
  endfacet
  facet normal 0 0 1
    outer loop
      vertex 523.094 99.9452 28
      vertex 522.049 99.9452 28
      vertex 518.094 98.6603 28
    endloop
  endfacet
  facet normal 0 0 1
    outer loop
      vertex 514.497 95 28
      vertex 677.951 99.9452 28
      vertex 676.906 99.9452 28
    endloop
  endfacet
  facet normal 0 0 1
    outer loop
      vertex 514.497 95 28
      vertex 679.996 99.5106 28
      vertex 677.951 99.9452 28
    endloop
  endfacet
  facet normal 0 0 1
    outer loop
      vertex 514.497 95 28
      vertex 681.906 98.6603 28
      vertex 679.996 99.5106 28
    endloop
  endfacet
  facet normal 0 0 1
    outer loop
      vertex 514.497 95 28
      vertex 683.597 97.4314 28
      vertex 681.906 98.6603 28
    endloop
  endfacet
  facet normal 0 0 1
    outer loop
      vertex 514.497 95 28
      vertex 684.996 95.8779 28
      vertex 683.597 97.4314 28
    endloop
  endfacet
  facet normal 0 0 1
    outer loop
      vertex 514.497 95 28
      vertex 685.503 95 28
      vertex 684.996 95.8779 28
    endloop
  endfacet
  facet normal 0 0 1
    outer loop
      vertex 685.503 95 28
      vertex 502.887 75 28
      vertex 685.566 95 28
    endloop
  endfacet
  facet normal 0 0 1
    outer loop
      vertex 514.497 95 28
      vertex 502.887 75 28
      vertex 685.503 95 28
    endloop
  endfacet
  facet normal 0 0 1
    outer loop
      vertex 514.434 95 28
      vertex 502.887 75 28
      vertex 514.497 95 28
    endloop
  endfacet
  facet normal -1 0 0
    outer loop
      vertex 814 70 28
      vertex 814 70 23
      vertex 814 56 28
    endloop
  endfacet
  facet normal -1 0 0
    outer loop
      vertex 814 56 28
      vertex 814 70 23
      vertex 814 56 23
    endloop
  endfacet
  facet normal 1 0 0
    outer loop
      vertex 786 70 23
      vertex 786 70 28
      vertex 786 56 28
    endloop
  endfacet
  facet normal 1 0 0
    outer loop
      vertex 786 56 23
      vertex 786 70 23
      vertex 786 56 28
    endloop
  endfacet
  facet normal -1 0 0
    outer loop
      vertex 414 70 28
      vertex 414 70 23
      vertex 414 56 28
    endloop
  endfacet
  facet normal -1 0 0
    outer loop
      vertex 414 56 28
      vertex 414 70 23
      vertex 414 56 23
    endloop
  endfacet
  facet normal 1 0 0
    outer loop
      vertex 386 70 23
      vertex 386 70 28
      vertex 386 56 28
    endloop
  endfacet
  facet normal 1 0 0
    outer loop
      vertex 386 56 23
      vertex 386 70 23
      vertex 386 56 28
    endloop
  endfacet
  facet normal 0 -1 0
    outer loop
      vertex 386 56 23
      vertex 386 56 28
      vertex 28 56 28
    endloop
  endfacet
  facet normal 0 -1 0
    outer loop
      vertex 28 56 23
      vertex 386 56 23
      vertex 28 56 28
    endloop
  endfacet
  facet normal 0 -1 0
    outer loop
      vertex 786 56 23
      vertex 786 56 28
      vertex 414 56 28
    endloop
  endfacet
  facet normal 0 -1 0
    outer loop
      vertex 414 56 23
      vertex 786 56 23
      vertex 414 56 28
    endloop
  endfacet
  facet normal 0 -1 0
    outer loop
      vertex 1172 56 23
      vertex 1172 56 28
      vertex 814 56 28
    endloop
  endfacet
  facet normal 0 -1 0
    outer loop
      vertex 814 56 23
      vertex 1172 56 23
      vertex 814 56 28
    endloop
  endfacet
endsolid OpenSCAD_Model
