solid OpenSCAD_Model
  facet normal 0 -1 0
    outer loop
      vertex 40 10 14
      vertex 0 10 14
      vertex 310 10 10
    endloop
  endfacet
  facet normal 0 -1 0
    outer loop
      vertex 310 10 10
      vertex 310 10 14
      vertex 270 10 14
    endloop
  endfacet
  facet normal 0 -1 0
    outer loop
      vertex 40 10 18
      vertex 310 10 10
      vertex 270 10 14
    endloop
  endfacet
  facet normal 0 -1 0
    outer loop
      vertex 270 10 18
      vertex 40 10 18
      vertex 270 10 14
    endloop
  endfacet
  facet normal 0 -1 0
    outer loop
      vertex 40 10 18
      vertex 40 10 14
      vertex 310 10 10
    endloop
  endfacet
  facet normal 0 -1 0
    outer loop
      vertex 0 10 14
      vertex 0 10 10
      vertex 310 10 10
    endloop
  endfacet
  facet normal 0 0 -1
    outer loop
      vertex 310 28 10
      vertex 310 10 10
      vertex 0 28 10
    endloop
  endfacet
  facet normal 0 0 -1
    outer loop
      vertex 0 28 10
      vertex 310 10 10
      vertex 0 10 10
    endloop
  endfacet
  facet normal -1 0 0
    outer loop
      vertex 0 10 10
      vertex 0 10 14
      vertex 0 28 10
    endloop
  endfacet
  facet normal -1 0 0
    outer loop
      vertex 0 28 10
      vertex 0 10 14
      vertex 0 92.9289 14
    endloop
  endfacet
  facet normal -1 0 0
    outer loop
      vertex 0 28 10
      vertex 0 92.9289 14
      vertex 0 92.9289 0
    endloop
  endfacet
  facet normal -1 0 0
    outer loop
      vertex 0 28 10
      vertex 0 92.9289 0
      vertex 0 28 0
    endloop
  endfacet
  facet normal 1 0 0
    outer loop
      vertex 310 10 14
      vertex 310 10 10
      vertex 310 28 10
    endloop
  endfacet
  facet normal 1 0 0
    outer loop
      vertex 310 92.9289 0
      vertex 310 10 14
      vertex 310 28 10
    endloop
  endfacet
  facet normal 1 0 0
    outer loop
      vertex 310 28 0
      vertex 310 92.9289 0
      vertex 310 28 10
    endloop
  endfacet
  facet normal 1 0 0
    outer loop
      vertex 310 92.9289 0
      vertex 310 92.9289 14
      vertex 310 10 14
    endloop
  endfacet
  facet normal 0 0 1
    outer loop
      vertex 40 10 14
      vertex 40 100 14
      vertex 7.07107 100 14
    endloop
  endfacet
  facet normal 0 0 1
    outer loop
      vertex 0 10 14
      vertex 40 10 14
      vertex 0 92.9289 14
    endloop
  endfacet
  facet normal 0 0 1
    outer loop
      vertex 7.07107 100 14
      vertex 0 92.9289 14
      vertex 40 10 14
    endloop
  endfacet
  facet normal -1 0 0
    outer loop
      vertex 40 90 28
      vertex 40 90 21
      vertex 40 0 28
    endloop
  endfacet
  facet normal -1 0 0
    outer loop
      vertex 40 100 14
      vertex 40 90 21
      vertex 40 100 21
    endloop
  endfacet
  facet normal -1 0 0
    outer loop
      vertex 40 0 28
      vertex 40 90 21
      vertex 40 100 14
    endloop
  endfacet
  facet normal -1 0 0
    outer loop
      vertex 40 10 18
      vertex 40 100 14
      vertex 40 10 14
    endloop
  endfacet
  facet normal -1 0 0
    outer loop
      vertex 40 0 28
      vertex 40 100 14
      vertex 40 10 18
    endloop
  endfacet
  facet normal -1 0 0
    outer loop
      vertex 40 0 18
      vertex 40 0 28
      vertex 40 10 18
    endloop
  endfacet
  facet normal 0 0 -1
    outer loop
      vertex 270 10 18
      vertex 270 0 18
      vertex 40 10 18
    endloop
  endfacet
  facet normal 0 0 -1
    outer loop
      vertex 40 10 18
      vertex 270 0 18
      vertex 40 0 18
    endloop
  endfacet
  facet normal 1 0 0
    outer loop
      vertex 270 10 18
      vertex 270 10 14
      vertex 270 100 14
    endloop
  endfacet
  facet normal 1 0 0
    outer loop
      vertex 270 90 21
      vertex 270 10 18
      vertex 270 100 21
    endloop
  endfacet
  facet normal 1 0 0
    outer loop
      vertex 270 100 21
      vertex 270 10 18
      vertex 270 100 14
    endloop
  endfacet
  facet normal 1 0 0
    outer loop
      vertex 270 90 28
      vertex 270 10 18
      vertex 270 90 21
    endloop
  endfacet
  facet normal 1 0 0
    outer loop
      vertex 270 0 28
      vertex 270 10 18
      vertex 270 90 28
    endloop
  endfacet
  facet normal 1 0 0
    outer loop
      vertex 270 0 18
      vertex 270 10 18
      vertex 270 0 28
    endloop
  endfacet
  facet normal 0 0 1
    outer loop
      vertex 302.929 100 14
      vertex 310 10 14
      vertex 310 92.9289 14
    endloop
  endfacet
  facet normal 0 0 1
    outer loop
      vertex 302.929 100 14
      vertex 270 100 14
      vertex 310 10 14
    endloop
  endfacet
  facet normal 0 0 1
    outer loop
      vertex 270 100 14
      vertex 270 10 14
      vertex 310 10 14
    endloop
  endfacet
  facet normal 0 -1 0
    outer loop
      vertex 310 28 0
      vertex 310 28 10
      vertex 0 28 10
    endloop
  endfacet
  facet normal 0 -1 0
    outer loop
      vertex 0 28 0
      vertex 310 28 0
      vertex 0 28 10
    endloop
  endfacet
  facet normal 0 0 -1
    outer loop
      vertex 0 28 0
      vertex 0 92.9289 0
      vertex 310 28 0
    endloop
  endfacet
  facet normal 0 0 -1
    outer loop
      vertex 310 28 0
      vertex 0 92.9289 0
      vertex 7.07107 100 0
    endloop
  endfacet
  facet normal 0 0 -1
    outer loop
      vertex 310 28 0
      vertex 7.07107 100 0
      vertex 302.929 100 0
    endloop
  endfacet
  facet normal 0 0 -1
    outer loop
      vertex 310 28 0
      vertex 302.929 100 0
      vertex 310 92.9289 0
    endloop
  endfacet
  facet normal -0.707107 0.707107 0
    outer loop
      vertex 7.07107 100 14
      vertex 7.07107 100 0
      vertex 0 92.9289 14
    endloop
  endfacet
  facet normal -0.707107 0.707107 0
    outer loop
      vertex 0 92.9289 14
      vertex 7.07107 100 0
      vertex 0 92.9289 0
    endloop
  endfacet
  facet normal 0 1 0
    outer loop
      vertex 7.07107 100 0
      vertex 7.07107 100 14
      vertex 302.929 100 0
    endloop
  endfacet
  facet normal 0 1 0
    outer loop
      vertex 302.929 100 0
      vertex 7.07107 100 14
      vertex 40 100 14
    endloop
  endfacet
  facet normal 0 1 0
    outer loop
      vertex 302.929 100 0
      vertex 40 100 14
      vertex 40 100 21
    endloop
  endfacet
  facet normal 0 1 0
    outer loop
      vertex 270 100 14
      vertex 40 100 21
      vertex 270 100 21
    endloop
  endfacet
  facet normal 0 1 0
    outer loop
      vertex 302.929 100 0
      vertex 40 100 21
      vertex 270 100 14
    endloop
  endfacet
  facet normal 0 1 0
    outer loop
      vertex 302.929 100 14
      vertex 302.929 100 0
      vertex 270 100 14
    endloop
  endfacet
  facet normal 0 0 1
    outer loop
      vertex 40 90 28
      vertex 40 0 28
      vertex 270 0 28
    endloop
  endfacet
  facet normal 0 0 1
    outer loop
      vertex 270 90 28
      vertex 40 90 28
      vertex 270 0 28
    endloop
  endfacet
  facet normal 0 -1 0
    outer loop
      vertex 40 0 28
      vertex 40 0 18
      vertex 270 0 18
    endloop
  endfacet
  facet normal 0 -1 0
    outer loop
      vertex 270 0 28
      vertex 40 0 28
      vertex 270 0 18
    endloop
  endfacet
  facet normal 0 0 1
    outer loop
      vertex 270 90 21
      vertex 270 100 21
      vertex 40 100 21
    endloop
  endfacet
  facet normal 0 0 1
    outer loop
      vertex 40 90 21
      vertex 270 90 21
      vertex 40 100 21
    endloop
  endfacet
  facet normal 0 1 0
    outer loop
      vertex 270 90 28
      vertex 270 90 21
      vertex 40 90 28
    endloop
  endfacet
  facet normal 0 1 0
    outer loop
      vertex 40 90 28
      vertex 270 90 21
      vertex 40 90 21
    endloop
  endfacet
  facet normal 0.707107 0.707107 0
    outer loop
      vertex 302.929 100 14
      vertex 310 92.9289 14
      vertex 310 92.9289 0
    endloop
  endfacet
  facet normal 0.707107 0.707107 0
    outer loop
      vertex 302.929 100 0
      vertex 302.929 100 14
      vertex 310 92.9289 0
    endloop
  endfacet
endsolid OpenSCAD_Model
