  0
SECTION
  2
BLOCKS
  0
ENDSEC
  0
SECTION
  2
ENTITIES
  0
LINE
  8
0
 10
0
 11
0
 20
141
 21
143
  0
LINE
  8
0
 10
0
 11
5
 20
143
 21
143
  0
LINE
  8
0
 10
5
 11
5
 20
143
 21
155
  0
LINE
  8
0
 10
5
 11
363
 20
155
 21
155
  0
LINE
  8
0
 10
363
 11
363
 20
155
 21
150
  0
LINE
  8
0
 10
363
 11
391
 20
150
 21
150
  0
LINE
  8
0
 10
391
 11
391
 20
150
 21
155
  0
LINE
  8
0
 10
391
 11
763
 20
155
 21
155
  0
LINE
  8
0
 10
763
 11
763
 20
155
 21
150
  0
LINE
  8
0
 10
763
 11
791
 20
150
 21
150
  0
LINE
  8
0
 10
791
 11
791
 20
150
 21
155
  0
LINE
  8
0
 10
791
 11
1149
 20
155
 21
155
  0
LINE
  8
0
 10
1149
 11
1149
 20
155
 21
143
  0
LINE
  8
0
 10
1149
 11
1154
 20
143
 21
143
  0
LINE
  8
0
 10
1154
 11
1154
 20
143
 21
141
  0
LINE
  8
0
 10
1154
 11
1054
 20
141
 21
141
  0
LINE
  8
0
 10
1054
 11
1054
 20
141
 21
132
  0
LINE
  8
0
 10
1054
 11
827
 20
132
 21
132
  0
LINE
  8
0
 10
827
 11
827
 20
132
 21
141
  0
LINE
  8
0
 10
827
 11
727
 20
141
 21
141
  0
LINE
  8
0
 10
727
 11
727
 20
141
 21
132
  0
LINE
  8
0
 10
727
 11
427
 20
132
 21
132
  0
LINE
  8
0
 10
427
 11
427
 20
132
 21
141
  0
LINE
  8
0
 10
427
 11
327
 20
141
 21
141
  0
LINE
  8
0
 10
327
 11
327
 20
141
 21
132
  0
LINE
  8
0
 10
327
 11
100
 20
132
 21
132
  0
LINE
  8
0
 10
100
 11
100
 20
132
 21
141
  0
LINE
  8
0
 10
100
 11
0
 20
141
 21
141
  0
LINE
  8
0
 10
0
 11
0
 20
219
 21
221
  0
LINE
  8
0
 10
0
 11
5
 20
221
 21
221
  0
LINE
  8
0
 10
5
 11
5
 20
221
 21
233
  0
LINE
  8
0
 10
5
 11
363
 20
233
 21
233
  0
LINE
  8
0
 10
363
 11
363
 20
233
 21
228
  0
LINE
  8
0
 10
363
 11
391
 20
228
 21
228
  0
LINE
  8
0
 10
391
 11
391
 20
228
 21
233
  0
LINE
  8
0
 10
391
 11
763
 20
233
 21
233
  0
LINE
  8
0
 10
763
 11
763
 20
233
 21
228
  0
LINE
  8
0
 10
763
 11
791
 20
228
 21
228
  0
LINE
  8
0
 10
791
 11
791
 20
228
 21
233
  0
LINE
  8
0
 10
791
 11
1149
 20
233
 21
233
  0
LINE
  8
0
 10
1149
 11
1149
 20
233
 21
221
  0
LINE
  8
0
 10
1149
 11
1154
 20
221
 21
221
  0
LINE
  8
0
 10
1154
 11
1154
 20
221
 21
219
  0
LINE
  8
0
 10
1154
 11
1054
 20
219
 21
219
  0
LINE
  8
0
 10
1054
 11
1054
 20
219
 21
210
  0
LINE
  8
0
 10
1054
 11
827
 20
210
 21
210
  0
LINE
  8
0
 10
827
 11
827
 20
210
 21
219
  0
LINE
  8
0
 10
827
 11
727
 20
219
 21
219
  0
LINE
  8
0
 10
727
 11
727
 20
219
 21
210
  0
LINE
  8
0
 10
727
 11
427
 20
210
 21
210
  0
LINE
  8
0
 10
427
 11
427
 20
210
 21
219
  0
LINE
  8
0
 10
427
 11
327
 20
219
 21
219
  0
LINE
  8
0
 10
327
 11
327
 20
219
 21
210
  0
LINE
  8
0
 10
327
 11
100
 20
210
 21
210
  0
LINE
  8
0
 10
100
 11
100
 20
210
 21
219
  0
LINE
  8
0
 10
100
 11
0
 20
219
 21
219
  0
LINE
  8
0
 10
0
 11
0
 20
297
 21
299
  0
LINE
  8
0
 10
0
 11
5
 20
299
 21
299
  0
LINE
  8
0
 10
5
 11
5
 20
299
 21
311
  0
LINE
  8
0
 10
5
 11
363
 20
311
 21
311
  0
LINE
  8
0
 10
363
 11
363
 20
311
 21
306
  0
LINE
  8
0
 10
363
 11
391
 20
306
 21
306
  0
LINE
  8
0
 10
391
 11
391
 20
306
 21
311
  0
LINE
  8
0
 10
391
 11
763
 20
311
 21
311
  0
LINE
  8
0
 10
763
 11
763
 20
311
 21
306
  0
LINE
  8
0
 10
763
 11
791
 20
306
 21
306
  0
LINE
  8
0
 10
791
 11
791
 20
306
 21
311
  0
LINE
  8
0
 10
791
 11
1149
 20
311
 21
311
  0
LINE
  8
0
 10
1149
 11
1149
 20
311
 21
299
  0
LINE
  8
0
 10
1149
 11
1154
 20
299
 21
299
  0
LINE
  8
0
 10
1154
 11
1154
 20
299
 21
297
  0
LINE
  8
0
 10
1154
 11
1054
 20
297
 21
297
  0
LINE
  8
0
 10
1054
 11
1054
 20
297
 21
283
  0
LINE
  8
0
 10
1054
 11
827
 20
283
 21
283
  0
LINE
  8
0
 10
827
 11
827
 20
283
 21
297
  0
LINE
  8
0
 10
827
 11
727
 20
297
 21
297
  0
LINE
  8
0
 10
727
 11
727
 20
297
 21
283
  0
LINE
  8
0
 10
727
 11
427
 20
283
 21
283
  0
LINE
  8
0
 10
427
 11
427
 20
283
 21
297
  0
LINE
  8
0
 10
427
 11
327
 20
297
 21
297
  0
LINE
  8
0
 10
327
 11
327
 20
297
 21
283
  0
LINE
  8
0
 10
327
 11
100
 20
283
 21
283
  0
LINE
  8
0
 10
100
 11
100
 20
283
 21
297
  0
LINE
  8
0
 10
100
 11
0
 20
297
 21
297
  0
LINE
  8
0
 10
0
 11
0
 20
361
 21
377
  0
LINE
  8
0
 10
0
 11
5
 20
377
 21
377
  0
LINE
  8
0
 10
5
 11
5
 20
377
 21
389
  0
LINE
  8
0
 10
5
 11
363
 20
389
 21
389
  0
LINE
  8
0
 10
363
 11
363
 20
389
 21
384
  0
LINE
  8
0
 10
363
 11
391
 20
384
 21
384
  0
LINE
  8
0
 10
391
 11
391
 20
384
 21
389
  0
LINE
  8
0
 10
391
 11
763
 20
389
 21
389
  0
LINE
  8
0
 10
763
 11
763
 20
389
 21
384
  0
LINE
  8
0
 10
763
 11
791
 20
384
 21
384
  0
LINE
  8
0
 10
791
 11
791
 20
384
 21
389
  0
LINE
  8
0
 10
791
 11
1149
 20
389
 21
389
  0
LINE
  8
0
 10
1149
 11
1149
 20
389
 21
377
  0
LINE
  8
0
 10
1149
 11
1154
 20
377
 21
377
  0
LINE
  8
0
 10
1154
 11
1154
 20
377
 21
361
  0
LINE
  8
0
 10
1154
 11
791
 20
361
 21
361
  0
LINE
  8
0
 10
791
 11
791
 20
361
 21
366
  0
LINE
  8
0
 10
791
 11
763
 20
366
 21
366
  0
LINE
  8
0
 10
763
 11
763
 20
366
 21
361
  0
LINE
  8
0
 10
763
 11
391
 20
361
 21
361
  0
LINE
  8
0
 10
391
 11
391
 20
361
 21
366
  0
LINE
  8
0
 10
391
 11
363
 20
366
 21
366
  0
LINE
  8
0
 10
363
 11
363
 20
366
 21
361
  0
LINE
  8
0
 10
363
 11
0
 20
361
 21
361
  0
LINE
  8
0
 10
0
 11
0
 20
439
 21
455
  0
LINE
  8
0
 10
0
 11
5
 20
455
 21
455
  0
LINE
  8
0
 10
5
 11
5
 20
455
 21
467
  0
LINE
  8
0
 10
5
 11
363
 20
467
 21
467
  0
LINE
  8
0
 10
363
 11
363
 20
467
 21
462
  0
LINE
  8
0
 10
363
 11
391
 20
462
 21
462
  0
LINE
  8
0
 10
391
 11
391
 20
462
 21
467
  0
LINE
  8
0
 10
391
 11
763
 20
467
 21
467
  0
LINE
  8
0
 10
763
 11
763
 20
467
 21
462
  0
LINE
  8
0
 10
763
 11
791
 20
462
 21
462
  0
LINE
  8
0
 10
791
 11
791
 20
462
 21
467
  0
LINE
  8
0
 10
791
 11
1149
 20
467
 21
467
  0
LINE
  8
0
 10
1149
 11
1149
 20
467
 21
455
  0
LINE
  8
0
 10
1149
 11
1154
 20
455
 21
455
  0
LINE
  8
0
 10
1154
 11
1154
 20
455
 21
439
  0
LINE
  8
0
 10
1154
 11
791
 20
439
 21
439
  0
LINE
  8
0
 10
791
 11
791
 20
439
 21
444
  0
LINE
  8
0
 10
791
 11
763
 20
444
 21
444
  0
LINE
  8
0
 10
763
 11
763
 20
444
 21
439
  0
LINE
  8
0
 10
763
 11
391
 20
439
 21
439
  0
LINE
  8
0
 10
391
 11
391
 20
439
 21
444
  0
LINE
  8
0
 10
391
 11
363
 20
444
 21
444
  0
LINE
  8
0
 10
363
 11
363
 20
444
 21
439
  0
LINE
  8
0
 10
363
 11
0
 20
439
 21
439
  0
LINE
  8
0
 10
0
 11
0
 20
1323
 21
1352
  0
LINE
  8
0
 10
0
 11
1154
 20
1352
 21
1352
  0
LINE
  8
0
 10
1154
 11
1154
 20
1352
 21
1323
  0
LINE
  8
0
 10
1154
 11
1054
 20
1323
 21
1323
  0
LINE
  8
0
 10
1054
 11
1054
 20
1323
 21
1303
  0
LINE
  8
0
 10
1054
 11
827
 20
1303
 21
1303
  0
LINE
  8
0
 10
827
 11
827
 20
1303
 21
1323
  0
LINE
  8
0
 10
827
 11
727
 20
1323
 21
1323
  0
LINE
  8
0
 10
727
 11
727
 20
1323
 21
1303
  0
LINE
  8
0
 10
727
 11
427
 20
1303
 21
1303
  0
LINE
  8
0
 10
427
 11
427
 20
1303
 21
1323
  0
LINE
  8
0
 10
427
 11
327
 20
1323
 21
1323
  0
LINE
  8
0
 10
327
 11
327
 20
1323
 21
1303
  0
LINE
  8
0
 10
327
 11
100
 20
1303
 21
1303
  0
LINE
  8
0
 10
100
 11
100
 20
1303
 21
1323
  0
LINE
  8
0
 10
100
 11
0
 20
1323
 21
1323
  0
LINE
  8
0
 10
0
 11
0
 20
1422
 21
1451
  0
LINE
  8
0
 10
0
 11
1154
 20
1451
 21
1451
  0
LINE
  8
0
 10
1154
 11
1154
 20
1451
 21
1422
  0
LINE
  8
0
 10
1154
 11
1054
 20
1422
 21
1422
  0
LINE
  8
0
 10
1054
 11
1054
 20
1422
 21
1402
  0
LINE
  8
0
 10
1054
 11
827
 20
1402
 21
1402
  0
LINE
  8
0
 10
827
 11
827
 20
1402
 21
1422
  0
LINE
  8
0
 10
827
 11
727
 20
1422
 21
1422
  0
LINE
  8
0
 10
727
 11
727
 20
1422
 21
1402
  0
LINE
  8
0
 10
727
 11
427
 20
1402
 21
1402
  0
LINE
  8
0
 10
427
 11
427
 20
1402
 21
1422
  0
LINE
  8
0
 10
427
 11
327
 20
1422
 21
1422
  0
LINE
  8
0
 10
327
 11
327
 20
1422
 21
1402
  0
LINE
  8
0
 10
327
 11
100
 20
1402
 21
1402
  0
LINE
  8
0
 10
100
 11
100
 20
1402
 21
1422
  0
LINE
  8
0
 10
100
 11
0
 20
1422
 21
1422
  0
LINE
  8
0
 10
0
 11
0
 20
1521
 21
1550
  0
LINE
  8
0
 10
0
 11
363
 20
1550
 21
1550
  0
LINE
  8
0
 10
363
 11
363
 20
1550
 21
1521
  0
LINE
  8
0
 10
363
 11
327
 20
1521
 21
1521
  0
LINE
  8
0
 10
327
 11
327
 20
1521
 21
1511
  0
LINE
  8
0
 10
327
 11
100
 20
1511
 21
1511
  0
LINE
  8
0
 10
100
 11
100
 20
1511
 21
1521
  0
LINE
  8
0
 10
100
 11
0
 20
1521
 21
1521
  0
LINE
  8
0
 10
0
 11
0
 20
1620
 21
1649
  0
LINE
  8
0
 10
0
 11
363
 20
1649
 21
1649
  0
LINE
  8
0
 10
363
 11
363
 20
1649
 21
1620
  0
LINE
  8
0
 10
363
 11
327
 20
1620
 21
1620
  0
LINE
  8
0
 10
327
 11
327
 20
1620
 21
1610
  0
LINE
  8
0
 10
327
 11
100
 20
1610
 21
1610
  0
LINE
  8
0
 10
100
 11
100
 20
1610
 21
1620
  0
LINE
  8
0
 10
100
 11
0
 20
1620
 21
1620
  0
LINE
  8
0
 10
5
 11
5
 20
1006
 21
1050
  0
LINE
  8
0
 10
5
 11
77
 20
1050
 21
1050
  0
LINE
  8
0
 10
77
 11
77
 20
1050
 21
1055
  0
LINE
  8
0
 10
77
 11
327
 20
1055
 21
1055
  0
LINE
  8
0
 10
327
 11
327
 20
1055
 21
1050
  0
LINE
  8
0
 10
327
 11
363
 20
1050
 21
1050
  0
LINE
  8
0
 10
363
 11
363
 20
1050
 21
1006
  0
LINE
  8
0
 10
363
 11
5
 20
1006
 21
1006
  0
LINE
  8
0
 10
5
 11
5
 20
1105
 21
1149
  0
LINE
  8
0
 10
5
 11
77
 20
1149
 21
1149
  0
LINE
  8
0
 10
77
 11
77
 20
1149
 21
1154
  0
LINE
  8
0
 10
77
 11
327
 20
1154
 21
1154
  0
LINE
  8
0
 10
327
 11
327
 20
1154
 21
1149
  0
LINE
  8
0
 10
327
 11
363
 20
1149
 21
1149
  0
LINE
  8
0
 10
363
 11
363
 20
1149
 21
1105
  0
LINE
  8
0
 10
363
 11
5
 20
1105
 21
1105
  0
LINE
  8
0
 10
5
 11
5
 20
1204
 21
1248
  0
LINE
  8
0
 10
5
 11
77
 20
1248
 21
1248
  0
LINE
  8
0
 10
77
 11
77
 20
1248
 21
1253
  0
LINE
  8
0
 10
77
 11
327
 20
1253
 21
1253
  0
LINE
  8
0
 10
327
 11
327
 20
1253
 21
1248
  0
LINE
  8
0
 10
327
 11
427
 20
1248
 21
1248
  0
LINE
  8
0
 10
427
 11
427
 20
1248
 21
1253
  0
LINE
  8
0
 10
427
 11
727
 20
1253
 21
1253
  0
LINE
  8
0
 10
727
 11
727
 20
1253
 21
1248
  0
LINE
  8
0
 10
727
 11
827
 20
1248
 21
1248
  0
LINE
  8
0
 10
827
 11
827
 20
1248
 21
1253
  0
LINE
  8
0
 10
827
 11
1077
 20
1253
 21
1253
  0
LINE
  8
0
 10
1077
 11
1077
 20
1253
 21
1248
  0
LINE
  8
0
 10
1077
 11
1149
 20
1248
 21
1248
  0
LINE
  8
0
 10
1149
 11
1149
 20
1248
 21
1204
  0
LINE
  8
0
 10
1149
 11
5
 20
1204
 21
1204
  0
LINE
  8
0
 10
12.1
 11
12.1
 20
0
 21
49
  0
LINE
  8
0
 10
12.1
 11
28.1
 20
49
 21
49
  0
LINE
  8
0
 10
28.1
 11
28.1
 20
49
 21
20
  0
LINE
  8
0
 10
28.1
 11
14.1
 20
20
 21
20
  0
LINE
  8
0
 10
14.1
 11
14.1
 20
20
 21
0
  0
LINE
  8
0
 10
14.1
 11
12.1
 20
0
 21
0
  0
LINE
  8
0
 10
33.1
 11
33.1
 20
0
 21
44
  0
LINE
  8
0
 10
33.1
 11
45.1
 20
44
 21
44
  0
LINE
  8
0
 10
45.1
 11
45.1
 20
44
 21
49
  0
LINE
  8
0
 10
45.1
 11
61.1
 20
49
 21
49
  0
LINE
  8
0
 10
61.1
 11
61.1
 20
49
 21
20
  0
LINE
  8
0
 10
61.1
 11
47.1
 20
20
 21
20
  0
LINE
  8
0
 10
47.1
 11
47.1
 20
20
 21
0
  0
LINE
  8
0
 10
47.1
 11
33.1
 20
0
 21
0
  0
LINE
  8
0
 10
66.1
 11
66.1
 20
0
 21
44
  0
LINE
  8
0
 10
66.1
 11
78.1
 20
44
 21
44
  0
LINE
  8
0
 10
78.1
 11
78.1
 20
44
 21
49
  0
LINE
  8
0
 10
78.1
 11
94.1
 20
49
 21
49
  0
LINE
  8
0
 10
94.1
 11
94.1
 20
49
 21
20
  0
LINE
  8
0
 10
94.1
 11
80.1
 20
20
 21
20
  0
LINE
  8
0
 10
80.1
 11
80.1
 20
20
 21
0
  0
LINE
  8
0
 10
80.1
 11
66.1
 20
0
 21
0
  0
LINE
  8
0
 10
99.1
 11
99.1
 20
0
 21
49
  0
LINE
  8
0
 10
99.1
 11
127.1
 20
49
 21
49
  0
LINE
  8
0
 10
127.1
 11
127.1
 20
49
 21
20
  0
LINE
  8
0
 10
127.1
 11
113.1
 20
20
 21
20
  0
LINE
  8
0
 10
113.1
 11
113.1
 20
20
 21
0
  0
LINE
  8
0
 10
113.1
 11
99.1
 20
0
 21
0
  0
LINE
  8
0
 10
132.1
 11
132.1
 20
0
 21
49
  0
LINE
  8
0
 10
132.1
 11
160.1
 20
49
 21
49
  0
LINE
  8
0
 10
160.1
 11
160.1
 20
49
 21
10
  0
LINE
  8
0
 10
160.1
 11
155.1
 20
10
 21
10
  0
LINE
  8
0
 10
155.1
 11
155.1
 20
10
 21
0
  0
LINE
  8
0
 10
155.1
 11
132.1
 20
0
 21
0
  0
LINE
  8
0
 10
165.1
 11
165.1
 20
0
 21
49
  0
LINE
  8
0
 10
165.1
 11
193.1
 20
49
 21
49
  0
LINE
  8
0
 10
193.1
 11
193.1
 20
49
 21
10
  0
LINE
  8
0
 10
193.1
 11
188.1
 20
10
 21
10
  0
LINE
  8
0
 10
188.1
 11
188.1
 20
10
 21
0
  0
LINE
  8
0
 10
188.1
 11
165.1
 20
0
 21
0
  0
LINE
  8
0
 10
198.1
 11
198.1
 20
0
 21
49
  0
LINE
  8
0
 10
198.1
 11
226.1
 20
49
 21
49
  0
LINE
  8
0
 10
226.1
 11
226.1
 20
49
 21
10
  0
LINE
  8
0
 10
226.1
 11
221.1
 20
10
 21
10
  0
LINE
  8
0
 10
221.1
 11
221.1
 20
10
 21
0
  0
LINE
  8
0
 10
221.1
 11
198.1
 20
0
 21
0
  0
LINE
  8
0
 10
231.1
 11
231.1
 20
0
 21
49
  0
LINE
  8
0
 10
231.1
 11
259.1
 20
49
 21
49
  0
LINE
  8
0
 10
259.1
 11
259.1
 20
49
 21
10
  0
LINE
  8
0
 10
259.1
 11
254.1
 20
10
 21
10
  0
LINE
  8
0
 10
254.1
 11
254.1
 20
10
 21
0
  0
LINE
  8
0
 10
254.1
 11
231.1
 20
0
 21
0
  0
LINE
  8
0
 10
264.1
 11
264.1
 20
0
 21
49
  0
LINE
  8
0
 10
264.1
 11
292.1
 20
49
 21
49
  0
LINE
  8
0
 10
292.1
 11
292.1
 20
49
 21
10
  0
LINE
  8
0
 10
292.1
 11
287.1
 20
10
 21
10
  0
LINE
  8
0
 10
287.1
 11
287.1
 20
10
 21
0
  0
LINE
  8
0
 10
287.1
 11
264.1
 20
0
 21
0
  0
LINE
  8
0
 10
297.1
 11
297.1
 20
0
 21
49
  0
LINE
  8
0
 10
297.1
 11
325.1
 20
49
 21
49
  0
LINE
  8
0
 10
325.1
 11
325.1
 20
49
 21
10
  0
LINE
  8
0
 10
325.1
 11
320.1
 20
10
 21
10
  0
LINE
  8
0
 10
320.1
 11
320.1
 20
10
 21
0
  0
LINE
  8
0
 10
320.1
 11
297.1
 20
0
 21
0
  0
LINE
  8
0
 10
330.1
 11
330.1
 20
0
 21
44
  0
LINE
  8
0
 10
330.1
 11
342.1
 20
44
 21
44
  0
LINE
  8
0
 10
342.1
 11
342.1
 20
44
 21
49
  0
LINE
  8
0
 10
342.1
 11
358.1
 20
49
 21
49
  0
LINE
  8
0
 10
358.1
 11
358.1
 20
49
 21
20
  0
LINE
  8
0
 10
358.1
 11
344.1
 20
20
 21
20
  0
LINE
  8
0
 10
344.1
 11
344.1
 20
20
 21
0
  0
LINE
  8
0
 10
344.1
 11
330.1
 20
0
 21
0
  0
LINE
  8
0
 10
368.1
 11
368.1
 20
0
 21
44
  0
LINE
  8
0
 10
368.1
 11
375.1
 20
44
 21
44
  0
LINE
  8
0
 10
375.1
 11
375.1
 20
44
 21
49
  0
LINE
  8
0
 10
375.1
 11
386.1
 20
49
 21
49
  0
LINE
  8
0
 10
386.1
 11
386.1
 20
49
 21
20
  0
LINE
  8
0
 10
386.1
 11
377.1
 20
20
 21
20
  0
LINE
  8
0
 10
377.1
 11
377.1
 20
20
 21
0
  0
LINE
  8
0
 10
377.1
 11
368.1
 20
0
 21
0
  0
LINE
  8
0
 10
391
 11
391
 20
1006
 21
1050
  0
LINE
  8
0
 10
391
 11
427
 20
1050
 21
1050
  0
LINE
  8
0
 10
427
 11
427
 20
1050
 21
1055
  0
LINE
  8
0
 10
427
 11
727
 20
1055
 21
1055
  0
LINE
  8
0
 10
727
 11
727
 20
1055
 21
1050
  0
LINE
  8
0
 10
727
 11
763
 20
1050
 21
1050
  0
LINE
  8
0
 10
763
 11
763
 20
1050
 21
1006
  0
LINE
  8
0
 10
763
 11
391
 20
1006
 21
1006
  0
LINE
  8
0
 10
391
 11
391
 20
1105
 21
1149
  0
LINE
  8
0
 10
391
 11
427
 20
1149
 21
1149
  0
LINE
  8
0
 10
427
 11
427
 20
1149
 21
1154
  0
LINE
  8
0
 10
427
 11
727
 20
1154
 21
1154
  0
LINE
  8
0
 10
727
 11
727
 20
1154
 21
1149
  0
LINE
  8
0
 10
727
 11
763
 20
1149
 21
1149
  0
LINE
  8
0
 10
763
 11
763
 20
1149
 21
1105
  0
LINE
  8
0
 10
763
 11
391
 20
1105
 21
1105
  0
LINE
  8
0
 10
391
 11
391
 20
1521
 21
1550
  0
LINE
  8
0
 10
391
 11
763
 20
1550
 21
1550
  0
LINE
  8
0
 10
763
 11
763
 20
1550
 21
1521
  0
LINE
  8
0
 10
763
 11
727
 20
1521
 21
1521
  0
LINE
  8
0
 10
727
 11
727
 20
1521
 21
1511
  0
LINE
  8
0
 10
727
 11
427
 20
1511
 21
1511
  0
LINE
  8
0
 10
427
 11
427
 20
1511
 21
1521
  0
LINE
  8
0
 10
427
 11
391
 20
1521
 21
1521
  0
LINE
  8
0
 10
391
 11
391
 20
1620
 21
1649
  0
LINE
  8
0
 10
391
 11
763
 20
1649
 21
1649
  0
LINE
  8
0
 10
763
 11
763
 20
1649
 21
1620
  0
LINE
  8
0
 10
763
 11
727
 20
1620
 21
1620
  0
LINE
  8
0
 10
727
 11
727
 20
1620
 21
1610
  0
LINE
  8
0
 10
727
 11
427
 20
1610
 21
1610
  0
LINE
  8
0
 10
427
 11
427
 20
1610
 21
1620
  0
LINE
  8
0
 10
427
 11
391
 20
1620
 21
1620
  0
LINE
  8
0
 10
396.1
 11
396.1
 20
0
 21
44
  0
LINE
  8
0
 10
396.1
 11
408.1
 20
44
 21
44
  0
LINE
  8
0
 10
408.1
 11
408.1
 20
44
 21
49
  0
LINE
  8
0
 10
408.1
 11
424.1
 20
49
 21
49
  0
LINE
  8
0
 10
424.1
 11
424.1
 20
49
 21
20
  0
LINE
  8
0
 10
424.1
 11
410.1
 20
20
 21
20
  0
LINE
  8
0
 10
410.1
 11
410.1
 20
20
 21
0
  0
LINE
  8
0
 10
410.1
 11
396.1
 20
0
 21
0
  0
LINE
  8
0
 10
429.1
 11
429.1
 20
0
 21
49
  0
LINE
  8
0
 10
429.1
 11
457.1
 20
49
 21
49
  0
LINE
  8
0
 10
457.1
 11
457.1
 20
49
 21
10
  0
LINE
  8
0
 10
457.1
 11
452.1
 20
10
 21
10
  0
LINE
  8
0
 10
452.1
 11
452.1
 20
10
 21
0
  0
LINE
  8
0
 10
452.1
 11
429.1
 20
0
 21
0
  0
LINE
  8
0
 10
462.1
 11
462.1
 20
0
 21
49
  0
LINE
  8
0
 10
462.1
 11
490.1
 20
49
 21
49
  0
LINE
  8
0
 10
490.1
 11
490.1
 20
49
 21
10
  0
LINE
  8
0
 10
490.1
 11
485.1
 20
10
 21
10
  0
LINE
  8
0
 10
485.1
 11
485.1
 20
10
 21
0
  0
LINE
  8
0
 10
485.1
 11
462.1
 20
0
 21
0
  0
LINE
  8
0
 10
495.1
 11
495.1
 20
0
 21
49
  0
LINE
  8
0
 10
495.1
 11
523.1
 20
49
 21
49
  0
LINE
  8
0
 10
523.1
 11
523.1
 20
49
 21
10
  0
LINE
  8
0
 10
523.1
 11
518.1
 20
10
 21
10
  0
LINE
  8
0
 10
518.1
 11
518.1
 20
10
 21
0
  0
LINE
  8
0
 10
518.1
 11
495.1
 20
0
 21
0
  0
LINE
  8
0
 10
528.1
 11
528.1
 20
0
 21
49
  0
LINE
  8
0
 10
528.1
 11
556.1
 20
49
 21
49
  0
LINE
  8
0
 10
556.1
 11
556.1
 20
49
 21
10
  0
LINE
  8
0
 10
556.1
 11
551.1
 20
10
 21
10
  0
LINE
  8
0
 10
551.1
 11
551.1
 20
10
 21
0
  0
LINE
  8
0
 10
551.1
 11
528.1
 20
0
 21
0
  0
LINE
  8
0
 10
561.1
 11
561.1
 20
0
 21
49
  0
LINE
  8
0
 10
561.1
 11
589.1
 20
49
 21
49
  0
LINE
  8
0
 10
589.1
 11
589.1
 20
49
 21
10
  0
LINE
  8
0
 10
589.1
 11
584.1
 20
10
 21
10
  0
LINE
  8
0
 10
584.1
 11
584.1
 20
10
 21
0
  0
LINE
  8
0
 10
584.1
 11
561.1
 20
0
 21
0
  0
LINE
  8
0
 10
594.1
 11
594.1
 20
0
 21
49
  0
LINE
  8
0
 10
594.1
 11
622.1
 20
49
 21
49
  0
LINE
  8
0
 10
622.1
 11
622.1
 20
49
 21
10
  0
LINE
  8
0
 10
622.1
 11
617.1
 20
10
 21
10
  0
LINE
  8
0
 10
617.1
 11
617.1
 20
10
 21
0
  0
LINE
  8
0
 10
617.1
 11
594.1
 20
0
 21
0
  0
LINE
  8
0
 10
627.1
 11
627.1
 20
0
 21
49
  0
LINE
  8
0
 10
627.1
 11
655.1
 20
49
 21
49
  0
LINE
  8
0
 10
655.1
 11
655.1
 20
49
 21
10
  0
LINE
  8
0
 10
655.1
 11
650.1
 20
10
 21
10
  0
LINE
  8
0
 10
650.1
 11
650.1
 20
10
 21
0
  0
LINE
  8
0
 10
650.1
 11
627.1
 20
0
 21
0
  0
LINE
  8
0
 10
660.1
 11
660.1
 20
0
 21
49
  0
LINE
  8
0
 10
660.1
 11
688.1
 20
49
 21
49
  0
LINE
  8
0
 10
688.1
 11
688.1
 20
49
 21
10
  0
LINE
  8
0
 10
688.1
 11
683.1
 20
10
 21
10
  0
LINE
  8
0
 10
683.1
 11
683.1
 20
10
 21
0
  0
LINE
  8
0
 10
683.1
 11
660.1
 20
0
 21
0
  0
LINE
  8
0
 10
693.1
 11
693.1
 20
0
 21
49
  0
LINE
  8
0
 10
693.1
 11
721.1
 20
49
 21
49
  0
LINE
  8
0
 10
721.1
 11
721.1
 20
49
 21
10
  0
LINE
  8
0
 10
721.1
 11
716.1
 20
10
 21
10
  0
LINE
  8
0
 10
716.1
 11
716.1
 20
10
 21
0
  0
LINE
  8
0
 10
716.1
 11
693.1
 20
0
 21
0
  0
LINE
  8
0
 10
726.1
 11
726.1
 20
0
 21
49
  0
LINE
  8
0
 10
726.1
 11
754.1
 20
49
 21
49
  0
LINE
  8
0
 10
754.1
 11
754.1
 20
49
 21
10
  0
LINE
  8
0
 10
754.1
 11
749.1
 20
10
 21
10
  0
LINE
  8
0
 10
749.1
 11
749.1
 20
10
 21
0
  0
LINE
  8
0
 10
749.1
 11
726.1
 20
0
 21
0
  0
LINE
  8
0
 10
759.1
 11
759.1
 20
0
 21
44
  0
LINE
  8
0
 10
759.1
 11
771.1
 20
44
 21
44
  0
LINE
  8
0
 10
771.1
 11
771.1
 20
44
 21
49
  0
LINE
  8
0
 10
771.1
 11
787.1
 20
49
 21
49
  0
LINE
  8
0
 10
787.1
 11
787.1
 20
49
 21
20
  0
LINE
  8
0
 10
787.1
 11
773.1
 20
20
 21
20
  0
LINE
  8
0
 10
773.1
 11
773.1
 20
20
 21
0
  0
LINE
  8
0
 10
773.1
 11
759.1
 20
0
 21
0
  0
LINE
  8
0
 10
791
 11
791
 20
1006
 21
1050
  0
LINE
  8
0
 10
791
 11
827
 20
1050
 21
1050
  0
LINE
  8
0
 10
827
 11
827
 20
1050
 21
1055
  0
LINE
  8
0
 10
827
 11
1077
 20
1055
 21
1055
  0
LINE
  8
0
 10
1077
 11
1077
 20
1055
 21
1050
  0
LINE
  8
0
 10
1077
 11
1149
 20
1050
 21
1050
  0
LINE
  8
0
 10
1149
 11
1149
 20
1050
 21
1006
  0
LINE
  8
0
 10
1149
 11
791
 20
1006
 21
1006
  0
LINE
  8
0
 10
791
 11
791
 20
1105
 21
1149
  0
LINE
  8
0
 10
791
 11
827
 20
1149
 21
1149
  0
LINE
  8
0
 10
827
 11
827
 20
1149
 21
1154
  0
LINE
  8
0
 10
827
 11
1077
 20
1154
 21
1154
  0
LINE
  8
0
 10
1077
 11
1077
 20
1154
 21
1149
  0
LINE
  8
0
 10
1077
 11
1149
 20
1149
 21
1149
  0
LINE
  8
0
 10
1149
 11
1149
 20
1149
 21
1105
  0
LINE
  8
0
 10
1149
 11
791
 20
1105
 21
1105
  0
LINE
  8
0
 10
791
 11
791
 20
1521
 21
1550
  0
LINE
  8
0
 10
791
 11
1154
 20
1550
 21
1550
  0
LINE
  8
0
 10
1154
 11
1154
 20
1550
 21
1521
  0
LINE
  8
0
 10
1154
 11
1054
 20
1521
 21
1521
  0
LINE
  8
0
 10
1054
 11
1054
 20
1521
 21
1511
  0
LINE
  8
0
 10
1054
 11
827
 20
1511
 21
1511
  0
LINE
  8
0
 10
827
 11
827
 20
1511
 21
1521
  0
LINE
  8
0
 10
827
 11
791
 20
1521
 21
1521
  0
LINE
  8
0
 10
791
 11
791
 20
1620
 21
1649
  0
LINE
  8
0
 10
791
 11
1154
 20
1649
 21
1649
  0
LINE
  8
0
 10
1154
 11
1154
 20
1649
 21
1620
  0
LINE
  8
0
 10
1154
 11
1054
 20
1620
 21
1620
  0
LINE
  8
0
 10
1054
 11
1054
 20
1620
 21
1610
  0
LINE
  8
0
 10
1054
 11
827
 20
1610
 21
1610
  0
LINE
  8
0
 10
827
 11
827
 20
1610
 21
1620
  0
LINE
  8
0
 10
827
 11
791
 20
1620
 21
1620
  0
LINE
  8
0
 10
792.1
 11
792.1
 20
0
 21
44
  0
LINE
  8
0
 10
792.1
 11
804.1
 20
44
 21
44
  0
LINE
  8
0
 10
804.1
 11
804.1
 20
44
 21
49
  0
LINE
  8
0
 10
804.1
 11
820.1
 20
49
 21
49
  0
LINE
  8
0
 10
820.1
 11
820.1
 20
49
 21
20
  0
LINE
  8
0
 10
820.1
 11
806.1
 20
20
 21
20
  0
LINE
  8
0
 10
806.1
 11
806.1
 20
20
 21
0
  0
LINE
  8
0
 10
806.1
 11
792.1
 20
0
 21
0
  0
LINE
  8
0
 10
825.1
 11
825.1
 20
0
 21
44
  0
LINE
  8
0
 10
825.1
 11
837.1
 20
44
 21
44
  0
LINE
  8
0
 10
837.1
 11
837.1
 20
44
 21
49
  0
LINE
  8
0
 10
837.1
 11
853.1
 20
49
 21
49
  0
LINE
  8
0
 10
853.1
 11
853.1
 20
49
 21
20
  0
LINE
  8
0
 10
853.1
 11
839.1
 20
20
 21
20
  0
LINE
  8
0
 10
839.1
 11
839.1
 20
20
 21
0
  0
LINE
  8
0
 10
839.1
 11
825.1
 20
0
 21
0
  0
LINE
  8
0
 10
858.1
 11
858.1
 20
0
 21
49
  0
LINE
  8
0
 10
858.1
 11
886.1
 20
49
 21
49
  0
LINE
  8
0
 10
886.1
 11
886.1
 20
49
 21
10
  0
LINE
  8
0
 10
886.1
 11
881.1
 20
10
 21
10
  0
LINE
  8
0
 10
881.1
 11
881.1
 20
10
 21
0
  0
LINE
  8
0
 10
881.1
 11
858.1
 20
0
 21
0
  0
LINE
  8
0
 10
891.1
 11
891.1
 20
0
 21
49
  0
LINE
  8
0
 10
891.1
 11
919.1
 20
49
 21
49
  0
LINE
  8
0
 10
919.1
 11
919.1
 20
49
 21
10
  0
LINE
  8
0
 10
919.1
 11
914.1
 20
10
 21
10
  0
LINE
  8
0
 10
914.1
 11
914.1
 20
10
 21
0
  0
LINE
  8
0
 10
914.1
 11
891.1
 20
0
 21
0
  0
LINE
  8
0
 10
924.1
 11
924.1
 20
0
 21
49
  0
LINE
  8
0
 10
924.1
 11
952.1
 20
49
 21
49
  0
LINE
  8
0
 10
952.1
 11
952.1
 20
49
 21
10
  0
LINE
  8
0
 10
952.1
 11
947.1
 20
10
 21
10
  0
LINE
  8
0
 10
947.1
 11
947.1
 20
10
 21
0
  0
LINE
  8
0
 10
947.1
 11
924.1
 20
0
 21
0
  0
LINE
  8
0
 10
957.1
 11
957.1
 20
0
 21
49
  0
LINE
  8
0
 10
957.1
 11
985.1
 20
49
 21
49
  0
LINE
  8
0
 10
985.1
 11
985.1
 20
49
 21
10
  0
LINE
  8
0
 10
985.1
 11
980.1
 20
10
 21
10
  0
LINE
  8
0
 10
980.1
 11
980.1
 20
10
 21
0
  0
LINE
  8
0
 10
980.1
 11
957.1
 20
0
 21
0
  0
LINE
  8
0
 10
990.1
 11
990.1
 20
0
 21
49
  0
LINE
  8
0
 10
990.1
 11
1018.1
 20
49
 21
49
  0
LINE
  8
0
 10
1018.1
 11
1018.1
 20
49
 21
10
  0
LINE
  8
0
 10
1018.1
 11
1013.1
 20
10
 21
10
  0
LINE
  8
0
 10
1013.1
 11
1013.1
 20
10
 21
0
  0
LINE
  8
0
 10
1013.1
 11
990.1
 20
0
 21
0
  0
LINE
  8
0
 10
1023.1
 11
1023.1
 20
0
 21
49
  0
LINE
  8
0
 10
1023.1
 11
1051.1
 20
49
 21
49
  0
LINE
  8
0
 10
1051.1
 11
1051.1
 20
49
 21
10
  0
LINE
  8
0
 10
1051.1
 11
1046.1
 20
10
 21
10
  0
LINE
  8
0
 10
1046.1
 11
1046.1
 20
10
 21
0
  0
LINE
  8
0
 10
1046.1
 11
1023.1
 20
0
 21
0
  0
LINE
  8
0
 10
1056.1
 11
1056.1
 20
0
 21
49
  0
LINE
  8
0
 10
1056.1
 11
1084.1
 20
49
 21
49
  0
LINE
  8
0
 10
1084.1
 11
1084.1
 20
49
 21
20
  0
LINE
  8
0
 10
1084.1
 11
1070.1
 20
20
 21
20
  0
LINE
  8
0
 10
1070.1
 11
1070.1
 20
20
 21
0
  0
LINE
  8
0
 10
1070.1
 11
1056.1
 20
0
 21
0
  0
LINE
  8
0
 10
1089.1
 11
1089.1
 20
0
 21
44
  0
LINE
  8
0
 10
1089.1
 11
1101.1
 20
44
 21
44
  0
LINE
  8
0
 10
1101.1
 11
1101.1
 20
44
 21
49
  0
LINE
  8
0
 10
1101.1
 11
1117.1
 20
49
 21
49
  0
LINE
  8
0
 10
1117.1
 11
1117.1
 20
49
 21
20
  0
LINE
  8
0
 10
1117.1
 11
1103.1
 20
20
 21
20
  0
LINE
  8
0
 10
1103.1
 11
1103.1
 20
20
 21
0
  0
LINE
  8
0
 10
1103.1
 11
1089.1
 20
0
 21
0
  0
LINE
  8
0
 10
1122.1
 11
1122.1
 20
0
 21
44
  0
LINE
  8
0
 10
1122.1
 11
1134.1
 20
44
 21
44
  0
LINE
  8
0
 10
1134.1
 11
1134.1
 20
44
 21
49
  0
LINE
  8
0
 10
1134.1
 11
1150.1
 20
49
 21
49
  0
LINE
  8
0
 10
1150.1
 11
1150.1
 20
49
 21
20
  0
LINE
  8
0
 10
1150.1
 11
1136.1
 20
20
 21
20
  0
LINE
  8
0
 10
1136.1
 11
1136.1
 20
20
 21
0
  0
LINE
  8
0
 10
1136.1
 11
1122.1
 20
0
 21
0
  0
ENDSEC
  0
SECTION
  2
OBJECTS
  0
DICTIONARY
  0
ENDSEC
  0
EOF
