  0
SECTION
  2
BLOCKS
  0
ENDSEC
  0
SECTION
  2
ENTITIES
  0
LINE
  8
0
 10
0
 11
0
 20
270
 21
284
  0
LINE
  8
0
 10
0
 11
310
 20
284
 21
284
  0
LINE
  8
0
 10
310
 11
310
 20
284
 21
270
  0
LINE
  8
0
 10
310
 11
270
 20
270
 21
270
  0
LINE
  8
0
 10
270
 11
270
 20
270
 21
256
  0
LINE
  8
0
 10
270
 11
40
 20
256
 21
256
  0
LINE
  8
0
 10
40
 11
40
 20
256
 21
270
  0
LINE
  8
0
 10
40
 11
0
 20
270
 21
270
  0
LINE
  8
0
 10
0
 11
0
 20
348
 21
362
  0
LINE
  8
0
 10
0
 11
310
 20
362
 21
362
  0
LINE
  8
0
 10
310
 11
310
 20
362
 21
348
  0
LINE
  8
0
 10
310
 11
270
 20
348
 21
348
  0
LINE
  8
0
 10
270
 11
270
 20
348
 21
334
  0
LINE
  8
0
 10
270
 11
40
 20
334
 21
334
  0
LINE
  8
0
 10
40
 11
40
 20
334
 21
348
  0
LINE
  8
0
 10
40
 11
0
 20
348
 21
348
  0
LINE
  8
0
 10
0
 11
0
 20
426
 21
440
  0
LINE
  8
0
 10
0
 11
310
 20
440
 21
440
  0
LINE
  8
0
 10
310
 11
310
 20
440
 21
426
  0
LINE
  8
0
 10
310
 11
270
 20
426
 21
426
  0
LINE
  8
0
 10
270
 11
270
 20
426
 21
412
  0
LINE
  8
0
 10
270
 11
40
 20
412
 21
412
  0
LINE
  8
0
 10
40
 11
40
 20
412
 21
426
  0
LINE
  8
0
 10
40
 11
0
 20
426
 21
426
  0
LINE
  8
0
 10
0
 11
0
 20
504
 21
513
  0
LINE
  8
0
 10
0
 11
310
 20
513
 21
513
  0
LINE
  8
0
 10
310
 11
310
 20
513
 21
504
  0
LINE
  8
0
 10
310
 11
270
 20
504
 21
504
  0
LINE
  8
0
 10
270
 11
270
 20
504
 21
490
  0
LINE
  8
0
 10
270
 11
40
 20
490
 21
490
  0
LINE
  8
0
 10
40
 11
40
 20
490
 21
504
  0
LINE
  8
0
 10
40
 11
0
 20
504
 21
504
  0
LINE
  8
0
 10
0
 11
0
 20
582
 21
591
  0
LINE
  8
0
 10
0
 11
310
 20
591
 21
591
  0
LINE
  8
0
 10
310
 11
310
 20
591
 21
582
  0
LINE
  8
0
 10
310
 11
270
 20
582
 21
582
  0
LINE
  8
0
 10
270
 11
270
 20
582
 21
568
  0
LINE
  8
0
 10
270
 11
40
 20
568
 21
568
  0
LINE
  8
0
 10
40
 11
40
 20
568
 21
582
  0
LINE
  8
0
 10
40
 11
0
 20
582
 21
582
  0
LINE
  8
0
 10
0
 11
0
 20
660
 21
669
  0
LINE
  8
0
 10
0
 11
310
 20
669
 21
669
  0
LINE
  8
0
 10
310
 11
310
 20
669
 21
660
  0
LINE
  8
0
 10
310
 11
270
 20
660
 21
660
  0
LINE
  8
0
 10
270
 11
270
 20
660
 21
646
  0
LINE
  8
0
 10
270
 11
40
 20
646
 21
646
  0
LINE
  8
0
 10
40
 11
40
 20
646
 21
660
  0
LINE
  8
0
 10
40
 11
0
 20
660
 21
660
  0
LINE
  8
0
 10
0
 11
0
 20
738
 21
752
  0
LINE
  8
0
 10
0
 11
310
 20
752
 21
752
  0
LINE
  8
0
 10
310
 11
310
 20
752
 21
738
  0
LINE
  8
0
 10
310
 11
270
 20
738
 21
738
  0
LINE
  8
0
 10
270
 11
270
 20
738
 21
724
  0
LINE
  8
0
 10
270
 11
40
 20
724
 21
724
  0
LINE
  8
0
 10
40
 11
40
 20
724
 21
738
  0
LINE
  8
0
 10
40
 11
0
 20
738
 21
738
  0
LINE
  8
0
 10
0
 11
0
 20
816
 21
830
  0
LINE
  8
0
 10
0
 11
310
 20
830
 21
830
  0
LINE
  8
0
 10
310
 11
310
 20
830
 21
816
  0
LINE
  8
0
 10
310
 11
270
 20
816
 21
816
  0
LINE
  8
0
 10
270
 11
270
 20
816
 21
802
  0
LINE
  8
0
 10
270
 11
40
 20
802
 21
802
  0
LINE
  8
0
 10
40
 11
40
 20
802
 21
816
  0
LINE
  8
0
 10
40
 11
0
 20
816
 21
816
  0
LINE
  8
0
 10
0
 11
0
 20
894
 21
908
  0
LINE
  8
0
 10
0
 11
310
 20
908
 21
908
  0
LINE
  8
0
 10
310
 11
310
 20
908
 21
894
  0
LINE
  8
0
 10
310
 11
270
 20
894
 21
894
  0
LINE
  8
0
 10
270
 11
270
 20
894
 21
880
  0
LINE
  8
0
 10
270
 11
40
 20
880
 21
880
  0
LINE
  8
0
 10
40
 11
40
 20
880
 21
894
  0
LINE
  8
0
 10
40
 11
0
 20
894
 21
894
  0
LINE
  8
0
 10
0
 11
0
 20
1115.07
 21
1144
  0
LINE
  8
0
 10
0
 11
310
 20
1144
 21
1144
  0
LINE
  8
0
 10
310
 11
310
 20
1144
 21
1115.07
  0
LINE
  8
0
 10
310
 11
302.929
 20
1115.07
 21
1108
  0
LINE
  8
0
 10
302.929
 11
7.071
 20
1108
 21
1108
  0
LINE
  8
0
 10
7.071
 11
0
 20
1108
 21
1115.07
  0
LINE
  8
0
 10
0
 11
0
 20
1172
 21
1200.93
  0
LINE
  8
0
 10
0
 11
7.071
 20
1200.93
 21
1208
  0
LINE
  8
0
 10
7.071
 11
302.929
 20
1208
 21
1208
  0
LINE
  8
0
 10
302.929
 11
310
 20
1208
 21
1200.93
  0
LINE
  8
0
 10
310
 11
310
 20
1200.93
 21
1172
  0
LINE
  8
0
 10
310
 11
0
 20
1172
 21
1172
  0
LINE
  8
0
 10
0
 11
0
 20
1265.07
 21
1294
  0
LINE
  8
0
 10
0
 11
310
 20
1294
 21
1294
  0
LINE
  8
0
 10
310
 11
310
 20
1294
 21
1265.07
  0
LINE
  8
0
 10
310
 11
302.929
 20
1265.07
 21
1258
  0
LINE
  8
0
 10
302.929
 11
7.071
 20
1258
 21
1258
  0
LINE
  8
0
 10
7.071
 11
0
 20
1258
 21
1265.07
  0
LINE
  8
0
 10
0
 11
0
 20
1322
 21
1350.93
  0
LINE
  8
0
 10
0
 11
7.071
 20
1350.93
 21
1358
  0
LINE
  8
0
 10
7.071
 11
302.929
 20
1358
 21
1358
  0
LINE
  8
0
 10
302.929
 11
310
 20
1358
 21
1350.93
  0
LINE
  8
0
 10
310
 11
310
 20
1350.93
 21
1322
  0
LINE
  8
0
 10
310
 11
0
 20
1322
 21
1322
  0
LINE
  8
0
 10
0
 11
0
 20
1415.07
 21
1500.93
  0
LINE
  8
0
 10
0
 11
7.071
 20
1500.93
 21
1508
  0
LINE
  8
0
 10
7.071
 11
302.929
 20
1508
 21
1508
  0
LINE
  8
0
 10
302.929
 11
310
 20
1508
 21
1500.93
  0
LINE
  8
0
 10
310
 11
310
 20
1500.93
 21
1415.07
  0
LINE
  8
0
 10
310
 11
302.929
 20
1415.07
 21
1408
  0
LINE
  8
0
 10
302.929
 11
7.071
 20
1408
 21
1408
  0
LINE
  8
0
 10
7.071
 11
0
 20
1408
 21
1415.07
  0
LINE
  8
0
 10
0.1
 11
0.1
 20
6.971
 21
36
  0
LINE
  8
0
 10
0.1
 11
5.1
 20
36
 21
36
  0
LINE
  8
0
 10
5.1
 11
5.1
 20
36
 21
64
  0
LINE
  8
0
 10
5.1
 11
0.1
 20
64
 21
64
  0
LINE
  8
0
 10
0.1
 11
0.1
 20
64
 21
93.029
  0
LINE
  8
0
 10
0.1
 11
14.1
 20
93.029
 21
93.029
  0
LINE
  8
0
 10
14.1
 11
14.1
 20
93.029
 21
6.971
  0
LINE
  8
0
 10
14.1
 11
0.1
 20
6.971
 21
6.971
  0
LINE
  8
0
 10
4.071
 11
4.071
 20
972
 21
986
  0
LINE
  8
0
 10
4.071
 11
305.929
 20
986
 21
986
  0
LINE
  8
0
 10
305.929
 11
305.929
 20
986
 21
972
  0
LINE
  8
0
 10
305.929
 11
270
 20
972
 21
972
  0
LINE
  8
0
 10
270
 11
270
 20
972
 21
958
  0
LINE
  8
0
 10
270
 11
40
 20
958
 21
958
  0
LINE
  8
0
 10
40
 11
40
 20
958
 21
972
  0
LINE
  8
0
 10
40
 11
4.071
 20
972
 21
972
  0
LINE
  8
0
 10
6.971
 11
6.971
 20
192
 21
206
  0
LINE
  8
0
 10
6.971
 11
303.029
 20
206
 21
206
  0
LINE
  8
0
 10
303.029
 11
303.029
 20
206
 21
192
  0
LINE
  8
0
 10
303.029
 11
270
 20
192
 21
192
  0
LINE
  8
0
 10
270
 11
270
 20
192
 21
178
  0
LINE
  8
0
 10
270
 11
40
 20
178
 21
178
  0
LINE
  8
0
 10
40
 11
40
 20
178
 21
192
  0
LINE
  8
0
 10
40
 11
6.971
 20
192
 21
192
  0
LINE
  8
0
 10
33.1
 11
33.1
 20
0
 21
36
  0
LINE
  8
0
 10
33.1
 11
38.1
 20
36
 21
36
  0
LINE
  8
0
 10
38.1
 11
38.1
 20
36
 21
64
  0
LINE
  8
0
 10
38.1
 11
33.1
 20
64
 21
64
  0
LINE
  8
0
 10
33.1
 11
33.1
 20
64
 21
100
  0
LINE
  8
0
 10
33.1
 11
47.1
 20
100
 21
100
  0
LINE
  8
0
 10
47.1
 11
47.1
 20
100
 21
0
  0
LINE
  8
0
 10
47.1
 11
33.1
 20
0
 21
0
  0
LINE
  8
0
 10
40
 11
40
 20
1558
 21
1658
  0
LINE
  8
0
 10
40
 11
270
 20
1658
 21
1658
  0
LINE
  8
0
 10
270
 11
270
 20
1658
 21
1558
  0
LINE
  8
0
 10
270
 11
40
 20
1558
 21
1558
  0
LINE
  8
0
 10
40
 11
40
 20
1708
 21
1808
  0
LINE
  8
0
 10
40
 11
270
 20
1808
 21
1808
  0
LINE
  8
0
 10
270
 11
270
 20
1808
 21
1708
  0
LINE
  8
0
 10
270
 11
40
 20
1708
 21
1708
  0
LINE
  8
0
 10
40
 11
40
 20
1858
 21
1958
  0
LINE
  8
0
 10
40
 11
270
 20
1958
 21
1958
  0
LINE
  8
0
 10
270
 11
270
 20
1958
 21
1858
  0
LINE
  8
0
 10
270
 11
40
 20
1858
 21
1858
  0
LINE
  8
0
 10
40
 11
40
 20
2008
 21
2108
  0
LINE
  8
0
 10
40
 11
270
 20
2108
 21
2108
  0
LINE
  8
0
 10
270
 11
270
 20
2108
 21
2008
  0
LINE
  8
0
 10
270
 11
40
 20
2008
 21
2008
  0
LINE
  8
0
 10
66.1
 11
66.1
 20
0
 21
36
  0
LINE
  8
0
 10
66.1
 11
71.1
 20
36
 21
36
  0
LINE
  8
0
 10
71.1
 11
71.1
 20
36
 21
64
  0
LINE
  8
0
 10
71.1
 11
66.1
 20
64
 21
64
  0
LINE
  8
0
 10
66.1
 11
66.1
 20
64
 21
100
  0
LINE
  8
0
 10
66.1
 11
94.1
 20
100
 21
100
  0
LINE
  8
0
 10
94.1
 11
94.1
 20
100
 21
0
  0
LINE
  8
0
 10
94.1
 11
66.1
 20
0
 21
0
  0
LINE
  8
0
 10
99.1
 11
99.1
 20
0
 21
36
  0
LINE
  8
0
 10
99.1
 11
104.1
 20
36
 21
36
  0
LINE
  8
0
 10
104.1
 11
104.1
 20
36
 21
64
  0
LINE
  8
0
 10
104.1
 11
99.1
 20
64
 21
64
  0
LINE
  8
0
 10
99.1
 11
99.1
 20
64
 21
100
  0
LINE
  8
0
 10
99.1
 11
127.1
 20
100
 21
100
  0
LINE
  8
0
 10
127.1
 11
127.1
 20
100
 21
0
  0
LINE
  8
0
 10
127.1
 11
99.1
 20
0
 21
0
  0
LINE
  8
0
 10
132.1
 11
132.1
 20
0
 21
36
  0
LINE
  8
0
 10
132.1
 11
137.1
 20
36
 21
36
  0
LINE
  8
0
 10
137.1
 11
137.1
 20
36
 21
64
  0
LINE
  8
0
 10
137.1
 11
132.1
 20
64
 21
64
  0
LINE
  8
0
 10
132.1
 11
132.1
 20
64
 21
100
  0
LINE
  8
0
 10
132.1
 11
160.1
 20
100
 21
100
  0
LINE
  8
0
 10
160.1
 11
160.1
 20
100
 21
0
  0
LINE
  8
0
 10
160.1
 11
132.1
 20
0
 21
0
  0
LINE
  8
0
 10
165.1
 11
165.1
 20
0
 21
36
  0
LINE
  8
0
 10
165.1
 11
170.1
 20
36
 21
36
  0
LINE
  8
0
 10
170.1
 11
170.1
 20
36
 21
64
  0
LINE
  8
0
 10
170.1
 11
165.1
 20
64
 21
64
  0
LINE
  8
0
 10
165.1
 11
165.1
 20
64
 21
100
  0
LINE
  8
0
 10
165.1
 11
193.1
 20
100
 21
100
  0
LINE
  8
0
 10
193.1
 11
193.1
 20
100
 21
0
  0
LINE
  8
0
 10
193.1
 11
165.1
 20
0
 21
0
  0
LINE
  8
0
 10
198.1
 11
198.1
 20
0
 21
36
  0
LINE
  8
0
 10
198.1
 11
203.1
 20
36
 21
36
  0
LINE
  8
0
 10
203.1
 11
203.1
 20
36
 21
64
  0
LINE
  8
0
 10
203.1
 11
198.1
 20
64
 21
64
  0
LINE
  8
0
 10
198.1
 11
198.1
 20
64
 21
100
  0
LINE
  8
0
 10
198.1
 11
226.1
 20
100
 21
100
  0
LINE
  8
0
 10
226.1
 11
226.1
 20
100
 21
0
  0
LINE
  8
0
 10
226.1
 11
198.1
 20
0
 21
0
  0
LINE
  8
0
 10
231.1
 11
231.1
 20
0
 21
36
  0
LINE
  8
0
 10
231.1
 11
236.1
 20
36
 21
36
  0
LINE
  8
0
 10
236.1
 11
236.1
 20
36
 21
64
  0
LINE
  8
0
 10
236.1
 11
231.1
 20
64
 21
64
  0
LINE
  8
0
 10
231.1
 11
231.1
 20
64
 21
100
  0
LINE
  8
0
 10
231.1
 11
259.1
 20
100
 21
100
  0
LINE
  8
0
 10
259.1
 11
259.1
 20
100
 21
0
  0
LINE
  8
0
 10
259.1
 11
231.1
 20
0
 21
0
  0
LINE
  8
0
 10
264.1
 11
264.1
 20
0
 21
36
  0
LINE
  8
0
 10
264.1
 11
269.1
 20
36
 21
36
  0
LINE
  8
0
 10
269.1
 11
269.1
 20
36
 21
64
  0
LINE
  8
0
 10
269.1
 11
264.1
 20
64
 21
64
  0
LINE
  8
0
 10
264.1
 11
264.1
 20
64
 21
100
  0
LINE
  8
0
 10
264.1
 11
292.1
 20
100
 21
100
  0
LINE
  8
0
 10
292.1
 11
292.1
 20
100
 21
0
  0
LINE
  8
0
 10
292.1
 11
264.1
 20
0
 21
0
  0
LINE
  8
0
 10
297.1
 11
297.1
 20
0
 21
36
  0
LINE
  8
0
 10
297.1
 11
302.1
 20
36
 21
36
  0
LINE
  8
0
 10
302.1
 11
302.1
 20
36
 21
64
  0
LINE
  8
0
 10
302.1
 11
297.1
 20
64
 21
64
  0
LINE
  8
0
 10
297.1
 11
297.1
 20
64
 21
100
  0
LINE
  8
0
 10
297.1
 11
311.1
 20
100
 21
100
  0
LINE
  8
0
 10
311.1
 11
311.1
 20
100
 21
0
  0
LINE
  8
0
 10
311.1
 11
297.1
 20
0
 21
0
  0
ENDSEC
  0
SECTION
  2
OBJECTS
  0
DICTIONARY
  0
ENDSEC
  0
EOF
