  0
SECTION
  2
BLOCKS
  0
ENDSEC
  0
SECTION
  2
ENTITIES
  0
LINE
  8
0
 10
0
 11
0
 20
127
 21
155
  0
LINE
  8
0
 10
0
 11
296
 20
155
 21
155
  0
LINE
  8
0
 10
296
 11
296
 20
155
 21
127
  0
LINE
  8
0
 10
296
 11
0
 20
127
 21
127
  0
LINE
  8
0
 10
0
 11
0
 20
205
 21
233
  0
LINE
  8
0
 10
0
 11
296
 20
233
 21
233
  0
LINE
  8
0
 10
296
 11
296
 20
233
 21
205
  0
LINE
  8
0
 10
296
 11
0
 20
205
 21
205
  0
LINE
  8
0
 10
0
 11
0
 20
283
 21
311
  0
LINE
  8
0
 10
0
 11
296
 20
311
 21
311
  0
LINE
  8
0
 10
296
 11
296
 20
311
 21
283
  0
LINE
  8
0
 10
296
 11
0
 20
283
 21
283
  0
LINE
  8
0
 10
0
 11
0
 20
361
 21
389
  0
LINE
  8
0
 10
0
 11
296
 20
389
 21
389
  0
LINE
  8
0
 10
296
 11
296
 20
389
 21
361
  0
LINE
  8
0
 10
296
 11
0
 20
361
 21
361
  0
LINE
  8
0
 10
0
 11
0
 20
439
 21
467
  0
LINE
  8
0
 10
0
 11
296
 20
467
 21
467
  0
LINE
  8
0
 10
296
 11
296
 20
467
 21
439
  0
LINE
  8
0
 10
296
 11
0
 20
439
 21
439
  0
LINE
  8
0
 10
0
 11
0
 20
1006
 21
1055
  0
LINE
  8
0
 10
0
 11
296
 20
1055
 21
1055
  0
LINE
  8
0
 10
296
 11
296
 20
1055
 21
1006
  0
LINE
  8
0
 10
296
 11
0
 20
1006
 21
1006
  0
LINE
  8
0
 10
0
 11
0
 20
1105
 21
1154
  0
LINE
  8
0
 10
0
 11
296
 20
1154
 21
1154
  0
LINE
  8
0
 10
296
 11
296
 20
1154
 21
1105
  0
LINE
  8
0
 10
296
 11
0
 20
1105
 21
1105
  0
LINE
  8
0
 10
0
 11
0
 20
1204
 21
1253
  0
LINE
  8
0
 10
0
 11
296
 20
1253
 21
1253
  0
LINE
  8
0
 10
296
 11
296
 20
1253
 21
1204
  0
LINE
  8
0
 10
296
 11
0
 20
1204
 21
1204
  0
LINE
  8
0
 10
0
 11
0
 20
1303
 21
1352
  0
LINE
  8
0
 10
0
 11
296
 20
1352
 21
1352
  0
LINE
  8
0
 10
296
 11
296
 20
1352
 21
1303
  0
LINE
  8
0
 10
296
 11
0
 20
1303
 21
1303
  0
LINE
  8
0
 10
0
 11
0
 20
1402
 21
1451
  0
LINE
  8
0
 10
0
 11
296
 20
1451
 21
1451
  0
LINE
  8
0
 10
296
 11
296
 20
1451
 21
1402
  0
LINE
  8
0
 10
296
 11
0
 20
1402
 21
1402
  0
LINE
  8
0
 10
0
 11
0
 20
1501
 21
1550
  0
LINE
  8
0
 10
0
 11
296
 20
1550
 21
1550
  0
LINE
  8
0
 10
296
 11
296
 20
1550
 21
1501
  0
LINE
  8
0
 10
296
 11
0
 20
1501
 21
1501
  0
LINE
  8
0
 10
0
 11
0
 20
1600
 21
1649
  0
LINE
  8
0
 10
0
 11
296
 20
1649
 21
1649
  0
LINE
  8
0
 10
296
 11
296
 20
1649
 21
1600
  0
LINE
  8
0
 10
296
 11
0
 20
1600
 21
1600
  0
LINE
  8
0
 10
0.1
 11
0.1
 20
0
 21
49
  0
LINE
  8
0
 10
0.1
 11
28.1
 20
49
 21
49
  0
LINE
  8
0
 10
28.1
 11
28.1
 20
49
 21
0
  0
LINE
  8
0
 10
28.1
 11
0.1
 20
0
 21
0
  0
LINE
  8
0
 10
33.1
 11
33.1
 20
0
 21
49
  0
LINE
  8
0
 10
33.1
 11
61.1
 20
49
 21
49
  0
LINE
  8
0
 10
61.1
 11
61.1
 20
49
 21
0
  0
LINE
  8
0
 10
61.1
 11
33.1
 20
0
 21
0
  0
LINE
  8
0
 10
66.1
 11
66.1
 20
0
 21
49
  0
LINE
  8
0
 10
66.1
 11
94.1
 20
49
 21
49
  0
LINE
  8
0
 10
94.1
 11
94.1
 20
49
 21
0
  0
LINE
  8
0
 10
94.1
 11
66.1
 20
0
 21
0
  0
LINE
  8
0
 10
99.1
 11
99.1
 20
0
 21
49
  0
LINE
  8
0
 10
99.1
 11
127.1
 20
49
 21
49
  0
LINE
  8
0
 10
127.1
 11
127.1
 20
49
 21
0
  0
LINE
  8
0
 10
127.1
 11
99.1
 20
0
 21
0
  0
LINE
  8
0
 10
132.1
 11
132.1
 20
0
 21
49
  0
LINE
  8
0
 10
132.1
 11
160.1
 20
49
 21
49
  0
LINE
  8
0
 10
160.1
 11
160.1
 20
49
 21
0
  0
LINE
  8
0
 10
160.1
 11
132.1
 20
0
 21
0
  0
LINE
  8
0
 10
165.1
 11
165.1
 20
0
 21
49
  0
LINE
  8
0
 10
165.1
 11
193.1
 20
49
 21
49
  0
LINE
  8
0
 10
193.1
 11
193.1
 20
49
 21
0
  0
LINE
  8
0
 10
193.1
 11
165.1
 20
0
 21
0
  0
LINE
  8
0
 10
198.1
 11
198.1
 20
0
 21
49
  0
LINE
  8
0
 10
198.1
 11
226.1
 20
49
 21
49
  0
LINE
  8
0
 10
226.1
 11
226.1
 20
49
 21
0
  0
LINE
  8
0
 10
226.1
 11
198.1
 20
0
 21
0
  0
LINE
  8
0
 10
231.1
 11
231.1
 20
0
 21
49
  0
LINE
  8
0
 10
231.1
 11
259.1
 20
49
 21
49
  0
LINE
  8
0
 10
259.1
 11
259.1
 20
49
 21
0
  0
LINE
  8
0
 10
259.1
 11
231.1
 20
0
 21
0
  0
LINE
  8
0
 10
264.1
 11
264.1
 20
0
 21
49
  0
LINE
  8
0
 10
264.1
 11
292.1
 20
49
 21
49
  0
LINE
  8
0
 10
292.1
 11
292.1
 20
49
 21
0
  0
LINE
  8
0
 10
292.1
 11
264.1
 20
0
 21
0
  0
ENDSEC
  0
SECTION
  2
OBJECTS
  0
DICTIONARY
  0
ENDSEC
  0
EOF
