  0
SECTION
  2
BLOCKS
  0
ENDSEC
  0
SECTION
  2
ENTITIES
  0
LINE
  8
0
 10
0
 11
0
 20
7.071
 21
268.929
  0
LINE
  8
0
 10
0
 11
7.071
 20
268.929
 21
276
  0
LINE
  8
0
 10
7.071
 11
166.929
 20
276
 21
276
  0
LINE
  8
0
 10
166.929
 11
174
 20
276
 21
268.929
  0
LINE
  8
0
 10
174
 11
174
 20
268.929
 21
7.071
  0
LINE
  8
0
 10
174
 11
166.929
 20
7.071
 21
0
  0
LINE
  8
0
 10
166.929
 11
7.071
 20
0
 21
0
  0
LINE
  8
0
 10
7.071
 11
0
 20
0
 21
7.071
  0
LINE
  8
0
 10
0
 11
0
 20
507.071
 21
742.929
  0
LINE
  8
0
 10
0
 11
7.071
 20
742.929
 21
750
  0
LINE
  8
0
 10
7.071
 11
192.929
 20
750
 21
750
  0
LINE
  8
0
 10
192.929
 11
200
 20
750
 21
742.929
  0
LINE
  8
0
 10
200
 11
200
 20
742.929
 21
507.071
  0
LINE
  8
0
 10
200
 11
192.929
 20
507.071
 21
500
  0
LINE
  8
0
 10
192.929
 11
7.071
 20
500
 21
500
  0
LINE
  8
0
 10
7.071
 11
0
 20
500
 21
507.071
  0
LINE
  8
0
 10
204
 11
204
 20
7.071
 21
268.929
  0
LINE
  8
0
 10
204
 11
211.071
 20
268.929
 21
276
  0
LINE
  8
0
 10
211.071
 11
370.929
 20
276
 21
276
  0
LINE
  8
0
 10
370.929
 11
378
 20
276
 21
268.929
  0
LINE
  8
0
 10
378
 11
378
 20
268.929
 21
7.071
  0
LINE
  8
0
 10
378
 11
370.929
 20
7.071
 21
0
  0
LINE
  8
0
 10
370.929
 11
211.071
 20
0
 21
0
  0
LINE
  8
0
 10
211.071
 11
204
 20
0
 21
7.071
  0
LINE
  8
0
 10
230
 11
230
 20
507.071
 21
742.929
  0
LINE
  8
0
 10
230
 11
237.071
 20
742.929
 21
750
  0
LINE
  8
0
 10
237.071
 11
422.929
 20
750
 21
750
  0
LINE
  8
0
 10
422.929
 11
430
 20
750
 21
742.929
  0
LINE
  8
0
 10
430
 11
430
 20
742.929
 21
507.071
  0
LINE
  8
0
 10
430
 11
422.929
 20
507.071
 21
500
  0
LINE
  8
0
 10
422.929
 11
237.071
 20
500
 21
500
  0
LINE
  8
0
 10
237.071
 11
230
 20
500
 21
507.071
  0
LINE
  8
0
 10
1000
 11
1000
 20
507.071
 21
742.929
  0
LINE
  8
0
 10
1000
 11
1007.07
 20
742.929
 21
750
  0
LINE
  8
0
 10
1007.07
 11
1212.93
 20
750
 21
750
  0
LINE
  8
0
 10
1212.93
 11
1220
 20
750
 21
742.929
  0
LINE
  8
0
 10
1220
 11
1220
 20
742.929
 21
507.071
  0
LINE
  8
0
 10
1220
 11
1212.93
 20
507.071
 21
500
  0
LINE
  8
0
 10
1212.93
 11
1007.07
 20
500
 21
500
  0
LINE
  8
0
 10
1007.07
 11
1000
 20
500
 21
507.071
  0
ENDSEC
  0
SECTION
  2
OBJECTS
  0
DICTIONARY
  0
ENDSEC
  0
EOF
