solid OpenSCAD_Model
  facet normal -1 0 0
    outer loop
      vertex 0 0 0
      vertex 0 0 10
      vertex 0 100 0
    endloop
  endfacet
  facet normal -1 0 0
    outer loop
      vertex 0 100 0
      vertex 0 0 10
      vertex 0 100 10
    endloop
  endfacet
  facet normal 0 -1 0
    outer loop
      vertex 0 0 10
      vertex 0 0 0
      vertex 90 0 0
    endloop
  endfacet
  facet normal 0 -1 0
    outer loop
      vertex 310 0 7
      vertex 0 0 10
      vertex 90 0 7
    endloop
  endfacet
  facet normal 0 -1 0
    outer loop
      vertex 90 0 7
      vertex 0 0 10
      vertex 90 0 0
    endloop
  endfacet
  facet normal 0 -1 0
    outer loop
      vertex 390 0 10
      vertex 10 0 10
      vertex 310 0 7
    endloop
  endfacet
  facet normal 0 -1 0
    outer loop
      vertex 400 0 0
      vertex 310 0 7
      vertex 310 0 0
    endloop
  endfacet
  facet normal 0 -1 0
    outer loop
      vertex 400 0 10
      vertex 310 0 7
      vertex 400 0 0
    endloop
  endfacet
  facet normal 0 -1 0
    outer loop
      vertex 10 0 10
      vertex 0 0 10
      vertex 310 0 7
    endloop
  endfacet
  facet normal 0 -1 0
    outer loop
      vertex 400 0 10
      vertex 390 0 10
      vertex 310 0 7
    endloop
  endfacet
  facet normal 0 -1 0
    outer loop
      vertex 300 0 28
      vertex 100 0 14
      vertex 300 0 14
    endloop
  endfacet
  facet normal 0 -1 0
    outer loop
      vertex 390 0 14
      vertex 10 0 10
      vertex 390 0 10
    endloop
  endfacet
  facet normal 0 -1 0
    outer loop
      vertex 300 0 14
      vertex 10 0 10
      vertex 390 0 14
    endloop
  endfacet
  facet normal 0 -1 0
    outer loop
      vertex 100 0 28
      vertex 100 0 14
      vertex 300 0 28
    endloop
  endfacet
  facet normal 0 -1 0
    outer loop
      vertex 100 0 14
      vertex 10 0 10
      vertex 300 0 14
    endloop
  endfacet
  facet normal 0 -1 0
    outer loop
      vertex 10 0 14
      vertex 10 0 10
      vertex 100 0 14
    endloop
  endfacet
  facet normal 0 0 -1
    outer loop
      vertex 0 0 0
      vertex 0 100 0
      vertex 90 0 0
    endloop
  endfacet
  facet normal 0 0 -1
    outer loop
      vertex 90 10 0
      vertex 0 100 0
      vertex 94.2265 100 0
    endloop
  endfacet
  facet normal 0 0 -1
    outer loop
      vertex 276.906 70 0
      vertex 276.906 70.0548 0
      vertex 277.951 70.0548 0
    endloop
  endfacet
  facet normal 0 0 -1
    outer loop
      vertex 281.906 71.3397 0
      vertex 400 100 0
      vertex 279.996 70.4894 0
    endloop
  endfacet
  facet normal 0 0 -1
    outer loop
      vertex 283.597 72.5686 0
      vertex 400 100 0
      vertex 281.906 71.3397 0
    endloop
  endfacet
  facet normal 0 0 -1
    outer loop
      vertex 284.996 74.1221 0
      vertex 285.503 75 0
      vertex 285.566 75 0
    endloop
  endfacet
  facet normal 0 0 -1
    outer loop
      vertex 297.113 95 0
      vertex 297.177 95 0
      vertex 285.566 75 0
    endloop
  endfacet
  facet normal 0 0 -1
    outer loop
      vertex 297.177 95 0
      vertex 297.683 95.8779 0
      vertex 299.082 97.4314 0
    endloop
  endfacet
  facet normal 0 0 -1
    outer loop
      vertex 297.177 95 0
      vertex 299.082 97.4314 0
      vertex 285.566 75 0
    endloop
  endfacet
  facet normal 0 0 -1
    outer loop
      vertex 285.566 75 0
      vertex 299.082 97.4314 0
      vertex 300.774 98.6603 0
    endloop
  endfacet
  facet normal 0 0 -1
    outer loop
      vertex 285.566 75 0
      vertex 300.774 98.6603 0
      vertex 302.683 99.5106 0
    endloop
  endfacet
  facet normal 0 0 -1
    outer loop
      vertex 285.566 75 0
      vertex 302.683 99.5106 0
      vertex 284.996 74.1221 0
    endloop
  endfacet
  facet normal 0 0 -1
    outer loop
      vertex 284.996 74.1221 0
      vertex 302.683 99.5106 0
      vertex 304.728 99.9452 0
    endloop
  endfacet
  facet normal 0 0 -1
    outer loop
      vertex 284.996 74.1221 0
      vertex 304.728 99.9452 0
      vertex 305.774 99.9452 0
    endloop
  endfacet
  facet normal 0 0 -1
    outer loop
      vertex 284.996 74.1221 0
      vertex 400 100 0
      vertex 283.597 72.5686 0
    endloop
  endfacet
  facet normal 0 0 -1
    outer loop
      vertex 305.774 99.9452 0
      vertex 305.774 100 0
      vertex 400 100 0
    endloop
  endfacet
  facet normal 0 0 -1
    outer loop
      vertex 305.774 99.9452 0
      vertex 400 100 0
      vertex 284.996 74.1221 0
    endloop
  endfacet
  facet normal 0 0 -1
    outer loop
      vertex 310 0 0
      vertex 400 100 0
      vertex 400 0 0
    endloop
  endfacet
  facet normal 0 0 -1
    outer loop
      vertex 310 10 0
      vertex 400 100 0
      vertex 310 0 0
    endloop
  endfacet
  facet normal 0 0 -1
    outer loop
      vertex 90 0 0
      vertex 0 100 0
      vertex 90 10 0
    endloop
  endfacet
  facet normal 0 0 -1
    outer loop
      vertex 90 10 0
      vertex 94.2265 100 0
      vertex 94.2265 99.9452 0
    endloop
  endfacet
  facet normal 0 0 -1
    outer loop
      vertex 90 10 0
      vertex 94.2265 99.9452 0
      vertex 95.2718 99.9452 0
    endloop
  endfacet
  facet normal 0 0 -1
    outer loop
      vertex 90 10 0
      vertex 95.2718 99.9452 0
      vertex 97.3167 99.5106 0
    endloop
  endfacet
  facet normal 0 0 -1
    outer loop
      vertex 90 10 0
      vertex 97.3167 99.5106 0
      vertex 99.2265 98.6603 0
    endloop
  endfacet
  facet normal 0 0 -1
    outer loop
      vertex 90 10 0
      vertex 99.2265 98.6603 0
      vertex 100.918 97.4314 0
    endloop
  endfacet
  facet normal 0 0 -1
    outer loop
      vertex 90 10 0
      vertex 100.918 97.4314 0
      vertex 102.317 95.8779 0
    endloop
  endfacet
  facet normal 0 0 -1
    outer loop
      vertex 90 10 0
      vertex 102.317 95.8779 0
      vertex 102.823 95 0
    endloop
  endfacet
  facet normal 0 0 -1
    outer loop
      vertex 90 10 0
      vertex 102.823 95 0
      vertex 102.887 95 0
    endloop
  endfacet
  facet normal 0 0 -1
    outer loop
      vertex 90 10 0
      vertex 102.887 95 0
      vertex 114.434 75 0
    endloop
  endfacet
  facet normal 0 0 -1
    outer loop
      vertex 90 10 0
      vertex 114.434 75 0
      vertex 114.497 75 0
    endloop
  endfacet
  facet normal 0 0 -1
    outer loop
      vertex 90 10 0
      vertex 114.497 75 0
      vertex 115.004 74.1221 0
    endloop
  endfacet
  facet normal 0 0 -1
    outer loop
      vertex 90 10 0
      vertex 115.004 74.1221 0
      vertex 116.403 72.5686 0
    endloop
  endfacet
  facet normal 0 0 -1
    outer loop
      vertex 90 10 0
      vertex 116.403 72.5686 0
      vertex 118.094 71.3397 0
    endloop
  endfacet
  facet normal 0 0 -1
    outer loop
      vertex 90 10 0
      vertex 118.094 71.3397 0
      vertex 120.004 70.4894 0
    endloop
  endfacet
  facet normal 0 0 -1
    outer loop
      vertex 90 10 0
      vertex 120.004 70.4894 0
      vertex 122.049 70.0548 0
    endloop
  endfacet
  facet normal 0 0 -1
    outer loop
      vertex 90 10 0
      vertex 122.049 70.0548 0
      vertex 123.094 70.0548 0
    endloop
  endfacet
  facet normal 0 0 -1
    outer loop
      vertex 90 10 0
      vertex 123.094 70.0548 0
      vertex 123.094 70 0
    endloop
  endfacet
  facet normal 0 0 -1
    outer loop
      vertex 90 10 0
      vertex 123.094 70 0
      vertex 276.906 70 0
    endloop
  endfacet
  facet normal 0 0 -1
    outer loop
      vertex 90 10 0
      vertex 276.906 70 0
      vertex 277.951 70.0548 0
    endloop
  endfacet
  facet normal 0 0 -1
    outer loop
      vertex 90 10 0
      vertex 277.951 70.0548 0
      vertex 279.996 70.4894 0
    endloop
  endfacet
  facet normal 0 0 -1
    outer loop
      vertex 90 10 0
      vertex 279.996 70.4894 0
      vertex 400 100 0
    endloop
  endfacet
  facet normal 0 0 -1
    outer loop
      vertex 90 10 0
      vertex 400 100 0
      vertex 310 10 0
    endloop
  endfacet
  facet normal 0 1 -1.22461e-16
    outer loop
      vertex 0 100 0
      vertex 0 100 10
      vertex 94.2265 100 0
    endloop
  endfacet
  facet normal 0 1 -1.22461e-16
    outer loop
      vertex 94.2265 100 0
      vertex 0 100 10
      vertex 10 100 10
    endloop
  endfacet
  facet normal 0 1 -1.22461e-16
    outer loop
      vertex 94.2265 100 0
      vertex 10 100 10
      vertex 10 100 18
    endloop
  endfacet
  facet normal 0 1 -1.22461e-16
    outer loop
      vertex 94.2265 100 0
      vertex 10 100 18
      vertex 28 100 18
    endloop
  endfacet
  facet normal 0 1 -1.22461e-16
    outer loop
      vertex 94.2265 100 0
      vertex 28 100 18
      vertex 28 100 28
    endloop
  endfacet
  facet normal 0 1 -1.22461e-16
    outer loop
      vertex 94.2265 100 0
      vertex 28 100 28
      vertex 94.2265 100 28
    endloop
  endfacet
  facet normal 0 0 1
    outer loop
      vertex 10 0 10
      vertex 10 100 10
      vertex 0 100 10
    endloop
  endfacet
  facet normal 0 0 1
    outer loop
      vertex 0 0 10
      vertex 10 0 10
      vertex 0 100 10
    endloop
  endfacet
  facet normal -1 0 0
    outer loop
      vertex 10 40 14
      vertex 10 40 18
      vertex 10 100 18
    endloop
  endfacet
  facet normal -1 0 0
    outer loop
      vertex 10 40 14
      vertex 10 100 18
      vertex 10 100 10
    endloop
  endfacet
  facet normal -1 0 0
    outer loop
      vertex 10 40 14
      vertex 10 100 10
      vertex 10 0 14
    endloop
  endfacet
  facet normal -1 0 0
    outer loop
      vertex 10 100 10
      vertex 10 0 10
      vertex 10 0 14
    endloop
  endfacet
  facet normal 0 0 1
    outer loop
      vertex 100 0 14
      vertex 100 40 14
      vertex 10 40 14
    endloop
  endfacet
  facet normal 0 0 1
    outer loop
      vertex 10 0 14
      vertex 100 0 14
      vertex 10 40 14
    endloop
  endfacet
  facet normal -1 0 0
    outer loop
      vertex 100 28 28
      vertex 100 28 23
      vertex 100 0 28
    endloop
  endfacet
  facet normal -1 0 0
    outer loop
      vertex 100 40 14
      vertex 100 28 23
      vertex 100 40 23
    endloop
  endfacet
  facet normal -1 0 0
    outer loop
      vertex 100 0 28
      vertex 100 28 23
      vertex 100 40 14
    endloop
  endfacet
  facet normal -1 0 0
    outer loop
      vertex 100 0 28
      vertex 100 40 14
      vertex 100 0 14
    endloop
  endfacet
  facet normal 0 0 1
    outer loop
      vertex 100 28 28
      vertex 100 0 28
      vertex 300 0 28
    endloop
  endfacet
  facet normal 0 0 1
    outer loop
      vertex 300 28 28
      vertex 100 28 28
      vertex 300 0 28
    endloop
  endfacet
  facet normal 1 0 0
    outer loop
      vertex 300 40 14
      vertex 300 40 23
      vertex 300 28 23
    endloop
  endfacet
  facet normal 1 0 0
    outer loop
      vertex 300 0 28
      vertex 300 40 14
      vertex 300 28 23
    endloop
  endfacet
  facet normal 1 0 0
    outer loop
      vertex 300 28 28
      vertex 300 0 28
      vertex 300 28 23
    endloop
  endfacet
  facet normal 1 0 0
    outer loop
      vertex 300 0 28
      vertex 300 0 14
      vertex 300 40 14
    endloop
  endfacet
  facet normal 0 0 1
    outer loop
      vertex 390 0 14
      vertex 390 40 14
      vertex 300 40 14
    endloop
  endfacet
  facet normal 0 0 1
    outer loop
      vertex 300 0 14
      vertex 390 0 14
      vertex 300 40 14
    endloop
  endfacet
  facet normal 1 0 0
    outer loop
      vertex 390 100 10
      vertex 390 100 18
      vertex 390 40 18
    endloop
  endfacet
  facet normal 1 0 0
    outer loop
      vertex 390 0 14
      vertex 390 100 10
      vertex 390 40 14
    endloop
  endfacet
  facet normal 1 0 0
    outer loop
      vertex 390 40 14
      vertex 390 100 10
      vertex 390 40 18
    endloop
  endfacet
  facet normal 1 0 0
    outer loop
      vertex 390 0 10
      vertex 390 100 10
      vertex 390 0 14
    endloop
  endfacet
  facet normal 0 0 1
    outer loop
      vertex 400 0 10
      vertex 400 100 10
      vertex 390 100 10
    endloop
  endfacet
  facet normal 0 0 1
    outer loop
      vertex 390 0 10
      vertex 400 0 10
      vertex 390 100 10
    endloop
  endfacet
  facet normal 1 0 0
    outer loop
      vertex 400 0 10
      vertex 400 0 0
      vertex 400 100 0
    endloop
  endfacet
  facet normal 1 0 0
    outer loop
      vertex 400 100 10
      vertex 400 0 10
      vertex 400 100 0
    endloop
  endfacet
  facet normal -1 0 0
    outer loop
      vertex 310 10 7
      vertex 310 10 0
      vertex 310 0 7
    endloop
  endfacet
  facet normal -1 0 0
    outer loop
      vertex 310 0 7
      vertex 310 10 0
      vertex 310 0 0
    endloop
  endfacet
  facet normal 0 0 -1
    outer loop
      vertex 310 10 7
      vertex 310 0 7
      vertex 90 10 7
    endloop
  endfacet
  facet normal 0 0 -1
    outer loop
      vertex 90 10 7
      vertex 310 0 7
      vertex 90 0 7
    endloop
  endfacet
  facet normal 1 0 0
    outer loop
      vertex 90 10 0
      vertex 90 10 7
      vertex 90 0 7
    endloop
  endfacet
  facet normal 1 0 0
    outer loop
      vertex 90 0 0
      vertex 90 10 0
      vertex 90 0 7
    endloop
  endfacet
  facet normal 0 -1 0
    outer loop
      vertex 310 10 0
      vertex 310 10 7
      vertex 90 10 7
    endloop
  endfacet
  facet normal 0 -1 0
    outer loop
      vertex 90 10 0
      vertex 310 10 0
      vertex 90 10 7
    endloop
  endfacet
  facet normal 0 1 -1.22461e-16
    outer loop
      vertex 305.774 100 0
      vertex 305.774 100 28
      vertex 400 100 0
    endloop
  endfacet
  facet normal 0 1 -1.22461e-16
    outer loop
      vertex 372 100 18
      vertex 305.774 100 28
      vertex 372 100 28
    endloop
  endfacet
  facet normal 0 1 -1.22461e-16
    outer loop
      vertex 400 100 0
      vertex 305.774 100 28
      vertex 372 100 18
    endloop
  endfacet
  facet normal 0 1 -1.22461e-16
    outer loop
      vertex 400 100 0
      vertex 372 100 18
      vertex 390 100 10
    endloop
  endfacet
  facet normal 0 1 -1.22461e-16
    outer loop
      vertex 400 100 10
      vertex 400 100 0
      vertex 390 100 10
    endloop
  endfacet
  facet normal 0 1 -1.22461e-16
    outer loop
      vertex 390 100 18
      vertex 390 100 10
      vertex 372 100 18
    endloop
  endfacet
  facet normal -1 0 0
    outer loop
      vertex 305.774 100 28
      vertex 305.774 100 0
      vertex 305.774 99.9452 28
    endloop
  endfacet
  facet normal -1 0 0
    outer loop
      vertex 305.774 99.9452 28
      vertex 305.774 100 0
      vertex 305.774 99.9452 0
    endloop
  endfacet
  facet normal 0 1 -2.44921e-16
    outer loop
      vertex 304.728 99.9452 0
      vertex 304.728 99.9452 28
      vertex 305.774 99.9452 0
    endloop
  endfacet
  facet normal 0 1 -2.44921e-16
    outer loop
      vertex 305.774 99.9452 0
      vertex 304.728 99.9452 28
      vertex 305.774 99.9452 28
    endloop
  endfacet
  facet normal -0.207912 0.978148 -2.39569e-16
    outer loop
      vertex 302.683 99.5106 0
      vertex 302.683 99.5106 28
      vertex 304.728 99.9452 0
    endloop
  endfacet
  facet normal -0.207912 0.978148 -2.39569e-16
    outer loop
      vertex 304.728 99.9452 0
      vertex 302.683 99.5106 28
      vertex 304.728 99.9452 28
    endloop
  endfacet
  facet normal -0.406737 0.913545 -2.23747e-16
    outer loop
      vertex 300.774 98.6603 0
      vertex 300.774 98.6603 28
      vertex 302.683 99.5106 0
    endloop
  endfacet
  facet normal -0.406737 0.913545 -2.23747e-16
    outer loop
      vertex 302.683 99.5106 0
      vertex 300.774 98.6603 28
      vertex 302.683 99.5106 28
    endloop
  endfacet
  facet normal -0.587785 0.809017 -1.98145e-16
    outer loop
      vertex 299.082 97.4314 0
      vertex 299.082 97.4314 28
      vertex 300.774 98.6603 0
    endloop
  endfacet
  facet normal -0.587785 0.809017 -1.98145e-16
    outer loop
      vertex 300.774 98.6603 0
      vertex 299.082 97.4314 28
      vertex 300.774 98.6603 28
    endloop
  endfacet
  facet normal -0.743145 0.669131 -1.63884e-16
    outer loop
      vertex 297.683 95.8779 0
      vertex 297.683 95.8779 28
      vertex 299.082 97.4314 0
    endloop
  endfacet
  facet normal -0.743145 0.669131 -1.63884e-16
    outer loop
      vertex 299.082 97.4314 0
      vertex 297.683 95.8779 28
      vertex 299.082 97.4314 28
    endloop
  endfacet
  facet normal -0.866025 0.5 -1.22461e-16
    outer loop
      vertex 297.177 95 0
      vertex 297.177 95 28
      vertex 297.683 95.8779 0
    endloop
  endfacet
  facet normal -0.866025 0.5 -1.22461e-16
    outer loop
      vertex 297.683 95.8779 0
      vertex 297.177 95 28
      vertex 297.683 95.8779 28
    endloop
  endfacet
  facet normal 0 1 -2.44921e-16
    outer loop
      vertex 297.177 95 0
      vertex 297.113 95 0
      vertex 297.177 95 28
    endloop
  endfacet
  facet normal 0 1 -2.44921e-16
    outer loop
      vertex 297.177 95 28
      vertex 297.113 95 0
      vertex 297.113 95 28
    endloop
  endfacet
  facet normal -0.866025 0.5 -2.33483e-16
    outer loop
      vertex 297.113 95 28
      vertex 297.113 95 0
      vertex 285.566 75 28
    endloop
  endfacet
  facet normal -0.866025 0.5 -2.33483e-16
    outer loop
      vertex 285.566 75 28
      vertex 297.113 95 0
      vertex 285.566 75 0
    endloop
  endfacet
  facet normal -2.22045e-16 1 -4.66966e-16
    outer loop
      vertex 285.566 75 28
      vertex 285.566 75 0
      vertex 285.503 75 28
    endloop
  endfacet
  facet normal -2.22045e-16 1 -4.66966e-16
    outer loop
      vertex 285.503 75 28
      vertex 285.566 75 0
      vertex 285.503 75 0
    endloop
  endfacet
  facet normal -0.866025 0.5 -1.22461e-16
    outer loop
      vertex 285.503 75 28
      vertex 285.503 75 0
      vertex 284.996 74.1221 28
    endloop
  endfacet
  facet normal -0.866025 0.5 -1.22461e-16
    outer loop
      vertex 284.996 74.1221 28
      vertex 285.503 75 0
      vertex 284.996 74.1221 0
    endloop
  endfacet
  facet normal -0.743145 0.669131 -1.63884e-16
    outer loop
      vertex 284.996 74.1221 28
      vertex 284.996 74.1221 0
      vertex 283.597 72.5686 28
    endloop
  endfacet
  facet normal -0.743145 0.669131 -1.63884e-16
    outer loop
      vertex 283.597 72.5686 28
      vertex 284.996 74.1221 0
      vertex 283.597 72.5686 0
    endloop
  endfacet
  facet normal -0.587785 0.809017 -1.98145e-16
    outer loop
      vertex 283.597 72.5686 28
      vertex 283.597 72.5686 0
      vertex 281.906 71.3397 28
    endloop
  endfacet
  facet normal -0.587785 0.809017 -1.98145e-16
    outer loop
      vertex 281.906 71.3397 28
      vertex 283.597 72.5686 0
      vertex 281.906 71.3397 0
    endloop
  endfacet
  facet normal -0.406737 0.913545 -2.23747e-16
    outer loop
      vertex 281.906 71.3397 28
      vertex 281.906 71.3397 0
      vertex 279.996 70.4894 28
    endloop
  endfacet
  facet normal -0.406737 0.913545 -2.23747e-16
    outer loop
      vertex 279.996 70.4894 28
      vertex 281.906 71.3397 0
      vertex 279.996 70.4894 0
    endloop
  endfacet
  facet normal -0.207912 0.978148 -2.39569e-16
    outer loop
      vertex 279.996 70.4894 28
      vertex 279.996 70.4894 0
      vertex 277.951 70.0548 28
    endloop
  endfacet
  facet normal -0.207912 0.978148 -2.39569e-16
    outer loop
      vertex 277.951 70.0548 28
      vertex 279.996 70.4894 0
      vertex 277.951 70.0548 0
    endloop
  endfacet
  facet normal 0 1 -2.44921e-16
    outer loop
      vertex 277.951 70.0548 28
      vertex 277.951 70.0548 0
      vertex 276.906 70.0548 28
    endloop
  endfacet
  facet normal 0 1 -2.44921e-16
    outer loop
      vertex 276.906 70.0548 28
      vertex 277.951 70.0548 0
      vertex 276.906 70.0548 0
    endloop
  endfacet
  facet normal -1 0 0
    outer loop
      vertex 276.906 70 28
      vertex 276.906 70.0548 28
      vertex 276.906 70 14
    endloop
  endfacet
  facet normal -1 0 0
    outer loop
      vertex 276.906 70 14
      vertex 276.906 70.0548 28
      vertex 276.906 70.0548 0
    endloop
  endfacet
  facet normal -1 0 0
    outer loop
      vertex 276.906 70 14
      vertex 276.906 70.0548 0
      vertex 276.906 70 0
    endloop
  endfacet
  facet normal 0 1 0
    outer loop
      vertex 276.906 70 14
      vertex 276.906 70 0
      vertex 123.094 70 14
    endloop
  endfacet
  facet normal 0 1 0
    outer loop
      vertex 123.094 70 14
      vertex 276.906 70 0
      vertex 123.094 70 0
    endloop
  endfacet
  facet normal 1 0 0
    outer loop
      vertex 123.094 70.0548 0
      vertex 123.094 70.0548 28
      vertex 123.094 70 28
    endloop
  endfacet
  facet normal 1 0 0
    outer loop
      vertex 123.094 70 0
      vertex 123.094 70.0548 0
      vertex 123.094 70 14
    endloop
  endfacet
  facet normal 1 0 0
    outer loop
      vertex 123.094 70 14
      vertex 123.094 70.0548 0
      vertex 123.094 70 28
    endloop
  endfacet
  facet normal 0 1 -2.44921e-16
    outer loop
      vertex 123.094 70.0548 28
      vertex 123.094 70.0548 0
      vertex 122.049 70.0548 28
    endloop
  endfacet
  facet normal 0 1 -2.44921e-16
    outer loop
      vertex 122.049 70.0548 28
      vertex 123.094 70.0548 0
      vertex 122.049 70.0548 0
    endloop
  endfacet
  facet normal 0.207912 0.978148 -2.39569e-16
    outer loop
      vertex 122.049 70.0548 28
      vertex 122.049 70.0548 0
      vertex 120.004 70.4894 28
    endloop
  endfacet
  facet normal 0.207912 0.978148 -2.39569e-16
    outer loop
      vertex 120.004 70.4894 28
      vertex 122.049 70.0548 0
      vertex 120.004 70.4894 0
    endloop
  endfacet
  facet normal 0.406737 0.913545 -2.23747e-16
    outer loop
      vertex 120.004 70.4894 28
      vertex 120.004 70.4894 0
      vertex 118.094 71.3397 28
    endloop
  endfacet
  facet normal 0.406737 0.913545 -2.23747e-16
    outer loop
      vertex 118.094 71.3397 28
      vertex 120.004 70.4894 0
      vertex 118.094 71.3397 0
    endloop
  endfacet
  facet normal 0.587785 0.809017 -1.98145e-16
    outer loop
      vertex 118.094 71.3397 28
      vertex 118.094 71.3397 0
      vertex 116.403 72.5686 28
    endloop
  endfacet
  facet normal 0.587785 0.809017 -1.98145e-16
    outer loop
      vertex 116.403 72.5686 28
      vertex 118.094 71.3397 0
      vertex 116.403 72.5686 0
    endloop
  endfacet
  facet normal 0.743145 0.669131 -1.63884e-16
    outer loop
      vertex 115.004 74.1221 28
      vertex 116.403 72.5686 28
      vertex 116.403 72.5686 0
    endloop
  endfacet
  facet normal 0.743145 0.669131 -1.63884e-16
    outer loop
      vertex 115.004 74.1221 0
      vertex 115.004 74.1221 28
      vertex 116.403 72.5686 0
    endloop
  endfacet
  facet normal 0.866025 0.5 -1.22461e-16
    outer loop
      vertex 115.004 74.1221 28
      vertex 115.004 74.1221 0
      vertex 114.497 75 0
    endloop
  endfacet
  facet normal 0.866025 0.5 -1.22461e-16
    outer loop
      vertex 114.497 75 28
      vertex 115.004 74.1221 28
      vertex 114.497 75 0
    endloop
  endfacet
  facet normal -2.22045e-16 1 -4.66966e-16
    outer loop
      vertex 114.497 75 28
      vertex 114.497 75 0
      vertex 114.434 75 28
    endloop
  endfacet
  facet normal -2.22045e-16 1 -4.66966e-16
    outer loop
      vertex 114.434 75 28
      vertex 114.497 75 0
      vertex 114.434 75 0
    endloop
  endfacet
  facet normal 0.866025 0.5 -2.33483e-16
    outer loop
      vertex 102.887 95 28
      vertex 114.434 75 28
      vertex 114.434 75 0
    endloop
  endfacet
  facet normal 0.866025 0.5 -2.33483e-16
    outer loop
      vertex 102.887 95 0
      vertex 102.887 95 28
      vertex 114.434 75 0
    endloop
  endfacet
  facet normal 0 1 -2.44921e-16
    outer loop
      vertex 102.887 95 28
      vertex 102.887 95 0
      vertex 102.823 95 28
    endloop
  endfacet
  facet normal 0 1 -2.44921e-16
    outer loop
      vertex 102.823 95 28
      vertex 102.887 95 0
      vertex 102.823 95 0
    endloop
  endfacet
  facet normal 0.866025 0.5 -1.22461e-16
    outer loop
      vertex 102.823 95 0
      vertex 102.317 95.8779 0
      vertex 102.317 95.8779 28
    endloop
  endfacet
  facet normal 0.866025 0.5 -1.22461e-16
    outer loop
      vertex 102.823 95 28
      vertex 102.823 95 0
      vertex 102.317 95.8779 28
    endloop
  endfacet
  facet normal 0.743145 0.669131 -1.63884e-16
    outer loop
      vertex 102.317 95.8779 0
      vertex 100.918 97.4314 0
      vertex 100.918 97.4314 28
    endloop
  endfacet
  facet normal 0.743145 0.669131 -1.63884e-16
    outer loop
      vertex 102.317 95.8779 28
      vertex 102.317 95.8779 0
      vertex 100.918 97.4314 28
    endloop
  endfacet
  facet normal 0.587785 0.809017 -1.98145e-16
    outer loop
      vertex 99.2265 98.6603 0
      vertex 99.2265 98.6603 28
      vertex 100.918 97.4314 0
    endloop
  endfacet
  facet normal 0.587785 0.809017 -1.98145e-16
    outer loop
      vertex 100.918 97.4314 0
      vertex 99.2265 98.6603 28
      vertex 100.918 97.4314 28
    endloop
  endfacet
  facet normal 0.406737 0.913545 -2.23747e-16
    outer loop
      vertex 97.3167 99.5106 0
      vertex 97.3167 99.5106 28
      vertex 99.2265 98.6603 0
    endloop
  endfacet
  facet normal 0.406737 0.913545 -2.23747e-16
    outer loop
      vertex 99.2265 98.6603 0
      vertex 97.3167 99.5106 28
      vertex 99.2265 98.6603 28
    endloop
  endfacet
  facet normal 0.207912 0.978148 -2.39569e-16
    outer loop
      vertex 95.2718 99.9452 0
      vertex 95.2718 99.9452 28
      vertex 97.3167 99.5106 0
    endloop
  endfacet
  facet normal 0.207912 0.978148 -2.39569e-16
    outer loop
      vertex 97.3167 99.5106 0
      vertex 95.2718 99.9452 28
      vertex 97.3167 99.5106 28
    endloop
  endfacet
  facet normal 0 1 -2.44921e-16
    outer loop
      vertex 94.2265 99.9452 0
      vertex 94.2265 99.9452 28
      vertex 95.2718 99.9452 0
    endloop
  endfacet
  facet normal 0 1 -2.44921e-16
    outer loop
      vertex 95.2718 99.9452 0
      vertex 94.2265 99.9452 28
      vertex 95.2718 99.9452 28
    endloop
  endfacet
  facet normal 1 0 0
    outer loop
      vertex 94.2265 100 0
      vertex 94.2265 100 28
      vertex 94.2265 99.9452 28
    endloop
  endfacet
  facet normal 1 0 0
    outer loop
      vertex 94.2265 99.9452 0
      vertex 94.2265 100 0
      vertex 94.2265 99.9452 28
    endloop
  endfacet
  facet normal 0 0 1
    outer loop
      vertex 123.094 70 28
      vertex 28 56 28
      vertex 372 56 28
    endloop
  endfacet
  facet normal 0 0 1
    outer loop
      vertex 372 100 28
      vertex 305.774 100 28
      vertex 372 56 28
    endloop
  endfacet
  facet normal 0 0 1
    outer loop
      vertex 305.774 100 28
      vertex 305.774 99.9452 28
      vertex 372 56 28
    endloop
  endfacet
  facet normal 0 0 1
    outer loop
      vertex 305.774 99.9452 28
      vertex 304.728 99.9452 28
      vertex 372 56 28
    endloop
  endfacet
  facet normal 0 0 1
    outer loop
      vertex 304.728 99.9452 28
      vertex 302.683 99.5106 28
      vertex 372 56 28
    endloop
  endfacet
  facet normal 0 0 1
    outer loop
      vertex 302.683 99.5106 28
      vertex 300.774 98.6603 28
      vertex 372 56 28
    endloop
  endfacet
  facet normal 0 0 1
    outer loop
      vertex 300.774 98.6603 28
      vertex 299.082 97.4314 28
      vertex 372 56 28
    endloop
  endfacet
  facet normal 0 0 1
    outer loop
      vertex 299.082 97.4314 28
      vertex 297.683 95.8779 28
      vertex 372 56 28
    endloop
  endfacet
  facet normal 0 0 1
    outer loop
      vertex 297.683 95.8779 28
      vertex 297.177 95 28
      vertex 372 56 28
    endloop
  endfacet
  facet normal 0 0 1
    outer loop
      vertex 97.3167 99.5106 28
      vertex 94.2265 99.9452 28
      vertex 28 100 28
    endloop
  endfacet
  facet normal 0 0 1
    outer loop
      vertex 297.177 95 28
      vertex 297.113 95 28
      vertex 372 56 28
    endloop
  endfacet
  facet normal 0 0 1
    outer loop
      vertex 97.3167 99.5106 28
      vertex 95.2718 99.9452 28
      vertex 94.2265 99.9452 28
    endloop
  endfacet
  facet normal 0 0 1
    outer loop
      vertex 297.113 95 28
      vertex 285.566 75 28
      vertex 372 56 28
    endloop
  endfacet
  facet normal 0 0 1
    outer loop
      vertex 102.823 95 28
      vertex 102.317 95.8779 28
      vertex 28 100 28
    endloop
  endfacet
  facet normal 0 0 1
    outer loop
      vertex 285.566 75 28
      vertex 285.503 75 28
      vertex 372 56 28
    endloop
  endfacet
  facet normal 0 0 1
    outer loop
      vertex 285.503 75 28
      vertex 284.996 74.1221 28
      vertex 372 56 28
    endloop
  endfacet
  facet normal 0 0 1
    outer loop
      vertex 284.996 74.1221 28
      vertex 283.597 72.5686 28
      vertex 372 56 28
    endloop
  endfacet
  facet normal 0 0 1
    outer loop
      vertex 99.2265 98.6603 28
      vertex 97.3167 99.5106 28
      vertex 28 100 28
    endloop
  endfacet
  facet normal 0 0 1
    outer loop
      vertex 283.597 72.5686 28
      vertex 281.906 71.3397 28
      vertex 372 56 28
    endloop
  endfacet
  facet normal 0 0 1
    outer loop
      vertex 281.906 71.3397 28
      vertex 279.996 70.4894 28
      vertex 372 56 28
    endloop
  endfacet
  facet normal 0 0 1
    outer loop
      vertex 279.996 70.4894 28
      vertex 277.951 70.0548 28
      vertex 372 56 28
    endloop
  endfacet
  facet normal 0 0 1
    outer loop
      vertex 277.951 70.0548 28
      vertex 276.906 70.0548 28
      vertex 372 56 28
    endloop
  endfacet
  facet normal 0 0 1
    outer loop
      vertex 276.906 70.0548 28
      vertex 276.906 70 28
      vertex 372 56 28
    endloop
  endfacet
  facet normal 0 0 1
    outer loop
      vertex 122.049 70.0548 28
      vertex 28 56 28
      vertex 123.094 70 28
    endloop
  endfacet
  facet normal 0 0 1
    outer loop
      vertex 120.004 70.4894 28
      vertex 28 56 28
      vertex 122.049 70.0548 28
    endloop
  endfacet
  facet normal 0 0 1
    outer loop
      vertex 118.094 71.3397 28
      vertex 116.403 72.5686 28
      vertex 28 100 28
    endloop
  endfacet
  facet normal 0 0 1
    outer loop
      vertex 28 100 28
      vertex 28 56 28
      vertex 120.004 70.4894 28
    endloop
  endfacet
  facet normal 0 0 1
    outer loop
      vertex 120.004 70.4894 28
      vertex 118.094 71.3397 28
      vertex 28 100 28
    endloop
  endfacet
  facet normal 0 0 1
    outer loop
      vertex 123.094 70.0548 28
      vertex 122.049 70.0548 28
      vertex 123.094 70 28
    endloop
  endfacet
  facet normal 0 0 1
    outer loop
      vertex 28 100 28
      vertex 116.403 72.5686 28
      vertex 115.004 74.1221 28
    endloop
  endfacet
  facet normal 0 0 1
    outer loop
      vertex 114.434 75 28
      vertex 115.004 74.1221 28
      vertex 114.497 75 28
    endloop
  endfacet
  facet normal 0 0 1
    outer loop
      vertex 28 100 28
      vertex 115.004 74.1221 28
      vertex 114.434 75 28
    endloop
  endfacet
  facet normal 0 0 1
    outer loop
      vertex 100.918 97.4314 28
      vertex 28 100 28
      vertex 102.317 95.8779 28
    endloop
  endfacet
  facet normal 0 0 1
    outer loop
      vertex 99.2265 98.6603 28
      vertex 28 100 28
      vertex 100.918 97.4314 28
    endloop
  endfacet
  facet normal 0 0 1
    outer loop
      vertex 94.2265 99.9452 28
      vertex 94.2265 100 28
      vertex 28 100 28
    endloop
  endfacet
  facet normal 0 0 1
    outer loop
      vertex 276.906 70 28
      vertex 123.094 70 28
      vertex 372 56 28
    endloop
  endfacet
  facet normal 0 0 1
    outer loop
      vertex 114.434 75 28
      vertex 102.823 95 28
      vertex 28 100 28
    endloop
  endfacet
  facet normal 0 0 1
    outer loop
      vertex 114.434 75 28
      vertex 102.887 95 28
      vertex 102.823 95 28
    endloop
  endfacet
  facet normal -1 0 0
    outer loop
      vertex 28 56 23
      vertex 28 56 28
      vertex 28 100 28
    endloop
  endfacet
  facet normal -1 0 0
    outer loop
      vertex 28 56 23
      vertex 28 100 28
      vertex 28 100 18
    endloop
  endfacet
  facet normal -1 0 0
    outer loop
      vertex 28 56 23
      vertex 28 100 18
      vertex 28 40 23
    endloop
  endfacet
  facet normal -1 0 0
    outer loop
      vertex 28 100 18
      vertex 28 40 18
      vertex 28 40 23
    endloop
  endfacet
  facet normal 0 0 1
    outer loop
      vertex 28 40 18
      vertex 28 100 18
      vertex 10 100 18
    endloop
  endfacet
  facet normal 0 0 1
    outer loop
      vertex 10 40 18
      vertex 28 40 18
      vertex 10 100 18
    endloop
  endfacet
  facet normal 0 -1 0
    outer loop
      vertex 100 40 14
      vertex 100 40 23
      vertex 28 40 23
    endloop
  endfacet
  facet normal 0 -1 0
    outer loop
      vertex 10 40 18
      vertex 100 40 14
      vertex 28 40 18
    endloop
  endfacet
  facet normal 0 -1 0
    outer loop
      vertex 28 40 18
      vertex 100 40 14
      vertex 28 40 23
    endloop
  endfacet
  facet normal 0 -1 0
    outer loop
      vertex 10 40 14
      vertex 100 40 14
      vertex 10 40 18
    endloop
  endfacet
  facet normal 0 0 1
    outer loop
      vertex 100 40 23
      vertex 100 28 23
      vertex 300 28 23
    endloop
  endfacet
  facet normal 0 0 1
    outer loop
      vertex 372 56 23
      vertex 100 40 23
      vertex 300 40 23
    endloop
  endfacet
  facet normal 0 0 1
    outer loop
      vertex 300 40 23
      vertex 100 40 23
      vertex 300 28 23
    endloop
  endfacet
  facet normal 0 0 1
    outer loop
      vertex 372 56 23
      vertex 300 40 23
      vertex 372 40 23
    endloop
  endfacet
  facet normal 0 0 1
    outer loop
      vertex 28 56 23
      vertex 100 40 23
      vertex 372 56 23
    endloop
  endfacet
  facet normal 0 0 1
    outer loop
      vertex 28 40 23
      vertex 100 40 23
      vertex 28 56 23
    endloop
  endfacet
  facet normal 0 1 0
    outer loop
      vertex 300 28 28
      vertex 300 28 23
      vertex 100 28 28
    endloop
  endfacet
  facet normal 0 1 0
    outer loop
      vertex 100 28 28
      vertex 300 28 23
      vertex 100 28 23
    endloop
  endfacet
  facet normal 0 -1 0
    outer loop
      vertex 390 40 14
      vertex 390 40 18
      vertex 372 40 18
    endloop
  endfacet
  facet normal 0 -1 0
    outer loop
      vertex 300 40 23
      vertex 390 40 14
      vertex 372 40 18
    endloop
  endfacet
  facet normal 0 -1 0
    outer loop
      vertex 372 40 23
      vertex 300 40 23
      vertex 372 40 18
    endloop
  endfacet
  facet normal 0 -1 0
    outer loop
      vertex 300 40 23
      vertex 300 40 14
      vertex 390 40 14
    endloop
  endfacet
  facet normal 0 0 1
    outer loop
      vertex 390 40 18
      vertex 390 100 18
      vertex 372 100 18
    endloop
  endfacet
  facet normal 0 0 1
    outer loop
      vertex 372 40 18
      vertex 390 40 18
      vertex 372 100 18
    endloop
  endfacet
  facet normal 1 0 0
    outer loop
      vertex 372 100 18
      vertex 372 100 28
      vertex 372 56 28
    endloop
  endfacet
  facet normal 1 0 0
    outer loop
      vertex 372 40 23
      vertex 372 100 18
      vertex 372 56 23
    endloop
  endfacet
  facet normal 1 0 0
    outer loop
      vertex 372 56 23
      vertex 372 100 18
      vertex 372 56 28
    endloop
  endfacet
  facet normal 1 0 0
    outer loop
      vertex 372 40 18
      vertex 372 100 18
      vertex 372 40 23
    endloop
  endfacet
  facet normal 0 1 -2.44921e-16
    outer loop
      vertex 276.906 70 28
      vertex 276.906 70 14
      vertex 123.094 70 28
    endloop
  endfacet
  facet normal 0 1 -2.44921e-16
    outer loop
      vertex 123.094 70 28
      vertex 276.906 70 14
      vertex 123.094 70 14
    endloop
  endfacet
  facet normal 0 -1 0
    outer loop
      vertex 372 56 23
      vertex 372 56 28
      vertex 28 56 28
    endloop
  endfacet
  facet normal 0 -1 0
    outer loop
      vertex 28 56 23
      vertex 372 56 23
      vertex 28 56 28
    endloop
  endfacet
endsolid OpenSCAD_Model
