  0
SECTION
  2
BLOCKS
  0
ENDSEC
  0
SECTION
  2
ENTITIES
  0
LINE
  8
0
 10
0
 11
0
 20
127
 21
155
  0
LINE
  8
0
 10
0
 11
354
 20
155
 21
155
  0
LINE
  8
0
 10
354
 11
354
 20
155
 21
127
  0
LINE
  8
0
 10
354
 11
0
 20
127
 21
127
  0
LINE
  8
0
 10
0
 11
0
 20
205
 21
233
  0
LINE
  8
0
 10
0
 11
354
 20
233
 21
233
  0
LINE
  8
0
 10
354
 11
354
 20
233
 21
205
  0
LINE
  8
0
 10
354
 11
0
 20
205
 21
205
  0
LINE
  8
0
 10
0
 11
0
 20
1006
 21
1025
  0
LINE
  8
0
 10
0
 11
71.226
 20
1025
 21
1025
  0
LINE
  8
0
 10
71.226
 11
71.226
 20
1025
 21
1025.06
  0
LINE
  8
0
 10
71.226
 11
72.272
 20
1025.06
 21
1025.06
  0
LINE
  8
0
 10
72.272
 11
74.317
 20
1025.06
 21
1025.49
  0
LINE
  8
0
 10
74.317
 11
76.226
 20
1025.49
 21
1026.34
  0
LINE
  8
0
 10
76.226
 11
77.918
 20
1026.34
 21
1027.57
  0
LINE
  8
0
 10
77.918
 11
79.317
 20
1027.57
 21
1029.12
  0
LINE
  8
0
 10
79.317
 11
79.823
 20
1029.12
 21
1030
  0
LINE
  8
0
 10
79.823
 11
79.887
 20
1030
 21
1030
  0
LINE
  8
0
 10
79.887
 11
91.434
 20
1030
 21
1050
  0
LINE
  8
0
 10
91.434
 11
91.497
 20
1050
 21
1050
  0
LINE
  8
0
 10
91.497
 11
92.004
 20
1050
 21
1050.88
  0
LINE
  8
0
 10
92.004
 11
93.403
 20
1050.88
 21
1052.43
  0
LINE
  8
0
 10
93.403
 11
95.094
 20
1052.43
 21
1053.66
  0
LINE
  8
0
 10
95.094
 11
97.004
 20
1053.66
 21
1054.51
  0
LINE
  8
0
 10
97.004
 11
99.049
 20
1054.51
 21
1054.94
  0
LINE
  8
0
 10
99.049
 11
100.094
 20
1054.94
 21
1054.94
  0
LINE
  8
0
 10
100.094
 11
100.094
 20
1054.94
 21
1055
  0
LINE
  8
0
 10
100.094
 11
253.906
 20
1055
 21
1055
  0
LINE
  8
0
 10
253.906
 11
253.906
 20
1055
 21
1054.94
  0
LINE
  8
0
 10
253.906
 11
254.951
 20
1054.94
 21
1054.94
  0
LINE
  8
0
 10
254.951
 11
256.996
 20
1054.94
 21
1054.51
  0
LINE
  8
0
 10
256.996
 11
258.906
 20
1054.51
 21
1053.66
  0
LINE
  8
0
 10
258.906
 11
260.597
 20
1053.66
 21
1052.43
  0
LINE
  8
0
 10
260.597
 11
261.996
 20
1052.43
 21
1050.88
  0
LINE
  8
0
 10
261.996
 11
262.503
 20
1050.88
 21
1050
  0
LINE
  8
0
 10
262.503
 11
262.566
 20
1050
 21
1050
  0
LINE
  8
0
 10
262.566
 11
274.113
 20
1050
 21
1030
  0
LINE
  8
0
 10
274.113
 11
274.177
 20
1030
 21
1030
  0
LINE
  8
0
 10
274.177
 11
274.683
 20
1030
 21
1029.12
  0
LINE
  8
0
 10
274.683
 11
276.082
 20
1029.12
 21
1027.57
  0
LINE
  8
0
 10
276.082
 11
277.774
 20
1027.57
 21
1026.34
  0
LINE
  8
0
 10
277.774
 11
279.683
 20
1026.34
 21
1025.49
  0
LINE
  8
0
 10
279.683
 11
281.728
 20
1025.49
 21
1025.06
  0
LINE
  8
0
 10
281.728
 11
282.774
 20
1025.06
 21
1025.06
  0
LINE
  8
0
 10
282.774
 11
282.774
 20
1025.06
 21
1025
  0
LINE
  8
0
 10
282.774
 11
354
 20
1025
 21
1025
  0
LINE
  8
0
 10
354
 11
354
 20
1025
 21
1006
  0
LINE
  8
0
 10
354
 11
0
 20
1006
 21
1006
  0
LINE
  8
0
 10
0
 11
0
 20
1105
 21
1124
  0
LINE
  8
0
 10
0
 11
71.226
 20
1124
 21
1124
  0
LINE
  8
0
 10
71.226
 11
71.226
 20
1124
 21
1124.06
  0
LINE
  8
0
 10
71.226
 11
72.272
 20
1124.06
 21
1124.06
  0
LINE
  8
0
 10
72.272
 11
74.317
 20
1124.06
 21
1124.49
  0
LINE
  8
0
 10
74.317
 11
76.226
 20
1124.49
 21
1125.34
  0
LINE
  8
0
 10
76.226
 11
77.918
 20
1125.34
 21
1126.57
  0
LINE
  8
0
 10
77.918
 11
79.317
 20
1126.57
 21
1128.12
  0
LINE
  8
0
 10
79.317
 11
79.823
 20
1128.12
 21
1129
  0
LINE
  8
0
 10
79.823
 11
79.887
 20
1129
 21
1129
  0
LINE
  8
0
 10
79.887
 11
91.434
 20
1129
 21
1149
  0
LINE
  8
0
 10
91.434
 11
91.497
 20
1149
 21
1149
  0
LINE
  8
0
 10
91.497
 11
92.004
 20
1149
 21
1149.88
  0
LINE
  8
0
 10
92.004
 11
93.403
 20
1149.88
 21
1151.43
  0
LINE
  8
0
 10
93.403
 11
95.094
 20
1151.43
 21
1152.66
  0
LINE
  8
0
 10
95.094
 11
97.004
 20
1152.66
 21
1153.51
  0
LINE
  8
0
 10
97.004
 11
99.049
 20
1153.51
 21
1153.94
  0
LINE
  8
0
 10
99.049
 11
100.094
 20
1153.94
 21
1153.94
  0
LINE
  8
0
 10
100.094
 11
100.094
 20
1153.94
 21
1154
  0
LINE
  8
0
 10
100.094
 11
253.906
 20
1154
 21
1154
  0
LINE
  8
0
 10
253.906
 11
253.906
 20
1154
 21
1153.94
  0
LINE
  8
0
 10
253.906
 11
254.951
 20
1153.94
 21
1153.94
  0
LINE
  8
0
 10
254.951
 11
256.996
 20
1153.94
 21
1153.51
  0
LINE
  8
0
 10
256.996
 11
258.906
 20
1153.51
 21
1152.66
  0
LINE
  8
0
 10
258.906
 11
260.597
 20
1152.66
 21
1151.43
  0
LINE
  8
0
 10
260.597
 11
261.996
 20
1151.43
 21
1149.88
  0
LINE
  8
0
 10
261.996
 11
262.503
 20
1149.88
 21
1149
  0
LINE
  8
0
 10
262.503
 11
262.566
 20
1149
 21
1149
  0
LINE
  8
0
 10
262.566
 11
274.113
 20
1149
 21
1129
  0
LINE
  8
0
 10
274.113
 11
274.177
 20
1129
 21
1129
  0
LINE
  8
0
 10
274.177
 11
274.683
 20
1129
 21
1128.12
  0
LINE
  8
0
 10
274.683
 11
276.082
 20
1128.12
 21
1126.57
  0
LINE
  8
0
 10
276.082
 11
277.774
 20
1126.57
 21
1125.34
  0
LINE
  8
0
 10
277.774
 11
279.683
 20
1125.34
 21
1124.49
  0
LINE
  8
0
 10
279.683
 11
281.728
 20
1124.49
 21
1124.06
  0
LINE
  8
0
 10
281.728
 11
282.774
 20
1124.06
 21
1124.06
  0
LINE
  8
0
 10
282.774
 11
282.774
 20
1124.06
 21
1124
  0
LINE
  8
0
 10
282.774
 11
354
 20
1124
 21
1124
  0
LINE
  8
0
 10
354
 11
354
 20
1124
 21
1105
  0
LINE
  8
0
 10
354
 11
0
 20
1105
 21
1105
  0
LINE
  8
0
 10
0
 11
0
 20
1204
 21
1223
  0
LINE
  8
0
 10
0
 11
71.226
 20
1223
 21
1223
  0
LINE
  8
0
 10
71.226
 11
71.226
 20
1223
 21
1223.06
  0
LINE
  8
0
 10
71.226
 11
72.272
 20
1223.06
 21
1223.06
  0
LINE
  8
0
 10
72.272
 11
74.317
 20
1223.06
 21
1223.49
  0
LINE
  8
0
 10
74.317
 11
76.226
 20
1223.49
 21
1224.34
  0
LINE
  8
0
 10
76.226
 11
77.918
 20
1224.34
 21
1225.57
  0
LINE
  8
0
 10
77.918
 11
79.317
 20
1225.57
 21
1227.12
  0
LINE
  8
0
 10
79.317
 11
79.823
 20
1227.12
 21
1228
  0
LINE
  8
0
 10
79.823
 11
79.887
 20
1228
 21
1228
  0
LINE
  8
0
 10
79.887
 11
91.434
 20
1228
 21
1248
  0
LINE
  8
0
 10
91.434
 11
91.497
 20
1248
 21
1248
  0
LINE
  8
0
 10
91.497
 11
92.004
 20
1248
 21
1248.88
  0
LINE
  8
0
 10
92.004
 11
93.403
 20
1248.88
 21
1250.43
  0
LINE
  8
0
 10
93.403
 11
95.094
 20
1250.43
 21
1251.66
  0
LINE
  8
0
 10
95.094
 11
97.004
 20
1251.66
 21
1252.51
  0
LINE
  8
0
 10
97.004
 11
99.049
 20
1252.51
 21
1252.94
  0
LINE
  8
0
 10
99.049
 11
100.094
 20
1252.94
 21
1252.94
  0
LINE
  8
0
 10
100.094
 11
100.094
 20
1252.94
 21
1253
  0
LINE
  8
0
 10
100.094
 11
253.906
 20
1253
 21
1253
  0
LINE
  8
0
 10
253.906
 11
253.906
 20
1253
 21
1252.94
  0
LINE
  8
0
 10
253.906
 11
254.951
 20
1252.94
 21
1252.94
  0
LINE
  8
0
 10
254.951
 11
256.996
 20
1252.94
 21
1252.51
  0
LINE
  8
0
 10
256.996
 11
258.906
 20
1252.51
 21
1251.66
  0
LINE
  8
0
 10
258.906
 11
260.597
 20
1251.66
 21
1250.43
  0
LINE
  8
0
 10
260.597
 11
261.996
 20
1250.43
 21
1248.88
  0
LINE
  8
0
 10
261.996
 11
262.503
 20
1248.88
 21
1248
  0
LINE
  8
0
 10
262.503
 11
262.566
 20
1248
 21
1248
  0
LINE
  8
0
 10
262.566
 11
274.113
 20
1248
 21
1228
  0
LINE
  8
0
 10
274.113
 11
274.177
 20
1228
 21
1228
  0
LINE
  8
0
 10
274.177
 11
274.683
 20
1228
 21
1227.12
  0
LINE
  8
0
 10
274.683
 11
276.082
 20
1227.12
 21
1225.57
  0
LINE
  8
0
 10
276.082
 11
277.774
 20
1225.57
 21
1224.34
  0
LINE
  8
0
 10
277.774
 11
279.683
 20
1224.34
 21
1223.49
  0
LINE
  8
0
 10
279.683
 11
281.728
 20
1223.49
 21
1223.06
  0
LINE
  8
0
 10
281.728
 11
282.774
 20
1223.06
 21
1223.06
  0
LINE
  8
0
 10
282.774
 11
282.774
 20
1223.06
 21
1223
  0
LINE
  8
0
 10
282.774
 11
354
 20
1223
 21
1223
  0
LINE
  8
0
 10
354
 11
354
 20
1223
 21
1204
  0
LINE
  8
0
 10
354
 11
0
 20
1204
 21
1204
  0
LINE
  8
0
 10
0
 11
0
 20
1303
 21
1322
  0
LINE
  8
0
 10
0
 11
71.226
 20
1322
 21
1322
  0
LINE
  8
0
 10
71.226
 11
71.226
 20
1322
 21
1322.06
  0
LINE
  8
0
 10
71.226
 11
72.272
 20
1322.06
 21
1322.06
  0
LINE
  8
0
 10
72.272
 11
74.317
 20
1322.06
 21
1322.49
  0
LINE
  8
0
 10
74.317
 11
76.226
 20
1322.49
 21
1323.34
  0
LINE
  8
0
 10
76.226
 11
77.918
 20
1323.34
 21
1324.57
  0
LINE
  8
0
 10
77.918
 11
79.317
 20
1324.57
 21
1326.12
  0
LINE
  8
0
 10
79.317
 11
79.823
 20
1326.12
 21
1327
  0
LINE
  8
0
 10
79.823
 11
79.887
 20
1327
 21
1327
  0
LINE
  8
0
 10
79.887
 11
91.434
 20
1327
 21
1347
  0
LINE
  8
0
 10
91.434
 11
91.497
 20
1347
 21
1347
  0
LINE
  8
0
 10
91.497
 11
92.004
 20
1347
 21
1347.88
  0
LINE
  8
0
 10
92.004
 11
93.403
 20
1347.88
 21
1349.43
  0
LINE
  8
0
 10
93.403
 11
95.094
 20
1349.43
 21
1350.66
  0
LINE
  8
0
 10
95.094
 11
97.004
 20
1350.66
 21
1351.51
  0
LINE
  8
0
 10
97.004
 11
99.049
 20
1351.51
 21
1351.94
  0
LINE
  8
0
 10
99.049
 11
100.094
 20
1351.94
 21
1351.94
  0
LINE
  8
0
 10
100.094
 11
100.094
 20
1351.94
 21
1352
  0
LINE
  8
0
 10
100.094
 11
253.906
 20
1352
 21
1352
  0
LINE
  8
0
 10
253.906
 11
253.906
 20
1352
 21
1351.94
  0
LINE
  8
0
 10
253.906
 11
254.951
 20
1351.94
 21
1351.94
  0
LINE
  8
0
 10
254.951
 11
256.996
 20
1351.94
 21
1351.51
  0
LINE
  8
0
 10
256.996
 11
258.906
 20
1351.51
 21
1350.66
  0
LINE
  8
0
 10
258.906
 11
260.597
 20
1350.66
 21
1349.43
  0
LINE
  8
0
 10
260.597
 11
261.996
 20
1349.43
 21
1347.88
  0
LINE
  8
0
 10
261.996
 11
262.503
 20
1347.88
 21
1347
  0
LINE
  8
0
 10
262.503
 11
262.566
 20
1347
 21
1347
  0
LINE
  8
0
 10
262.566
 11
274.113
 20
1347
 21
1327
  0
LINE
  8
0
 10
274.113
 11
274.177
 20
1327
 21
1327
  0
LINE
  8
0
 10
274.177
 11
274.683
 20
1327
 21
1326.12
  0
LINE
  8
0
 10
274.683
 11
276.082
 20
1326.12
 21
1324.57
  0
LINE
  8
0
 10
276.082
 11
277.774
 20
1324.57
 21
1323.34
  0
LINE
  8
0
 10
277.774
 11
279.683
 20
1323.34
 21
1322.49
  0
LINE
  8
0
 10
279.683
 11
281.728
 20
1322.49
 21
1322.06
  0
LINE
  8
0
 10
281.728
 11
282.774
 20
1322.06
 21
1322.06
  0
LINE
  8
0
 10
282.774
 11
282.774
 20
1322.06
 21
1322
  0
LINE
  8
0
 10
282.774
 11
354
 20
1322
 21
1322
  0
LINE
  8
0
 10
354
 11
354
 20
1322
 21
1303
  0
LINE
  8
0
 10
354
 11
0
 20
1303
 21
1303
  0
LINE
  8
0
 10
0
 11
0
 20
1402
 21
1421
  0
LINE
  8
0
 10
0
 11
71.226
 20
1421
 21
1421
  0
LINE
  8
0
 10
71.226
 11
71.226
 20
1421
 21
1421.06
  0
LINE
  8
0
 10
71.226
 11
72.272
 20
1421.06
 21
1421.06
  0
LINE
  8
0
 10
72.272
 11
74.317
 20
1421.06
 21
1421.49
  0
LINE
  8
0
 10
74.317
 11
76.226
 20
1421.49
 21
1422.34
  0
LINE
  8
0
 10
76.226
 11
77.918
 20
1422.34
 21
1423.57
  0
LINE
  8
0
 10
77.918
 11
79.317
 20
1423.57
 21
1425.12
  0
LINE
  8
0
 10
79.317
 11
79.823
 20
1425.12
 21
1426
  0
LINE
  8
0
 10
79.823
 11
79.887
 20
1426
 21
1426
  0
LINE
  8
0
 10
79.887
 11
91.434
 20
1426
 21
1446
  0
LINE
  8
0
 10
91.434
 11
91.497
 20
1446
 21
1446
  0
LINE
  8
0
 10
91.497
 11
92.004
 20
1446
 21
1446.88
  0
LINE
  8
0
 10
92.004
 11
93.403
 20
1446.88
 21
1448.43
  0
LINE
  8
0
 10
93.403
 11
95.094
 20
1448.43
 21
1449.66
  0
LINE
  8
0
 10
95.094
 11
97.004
 20
1449.66
 21
1450.51
  0
LINE
  8
0
 10
97.004
 11
99.049
 20
1450.51
 21
1450.94
  0
LINE
  8
0
 10
99.049
 11
100.094
 20
1450.94
 21
1450.94
  0
LINE
  8
0
 10
100.094
 11
100.094
 20
1450.94
 21
1451
  0
LINE
  8
0
 10
100.094
 11
253.906
 20
1451
 21
1451
  0
LINE
  8
0
 10
253.906
 11
253.906
 20
1451
 21
1450.94
  0
LINE
  8
0
 10
253.906
 11
254.951
 20
1450.94
 21
1450.94
  0
LINE
  8
0
 10
254.951
 11
256.996
 20
1450.94
 21
1450.51
  0
LINE
  8
0
 10
256.996
 11
258.906
 20
1450.51
 21
1449.66
  0
LINE
  8
0
 10
258.906
 11
260.597
 20
1449.66
 21
1448.43
  0
LINE
  8
0
 10
260.597
 11
261.996
 20
1448.43
 21
1446.88
  0
LINE
  8
0
 10
261.996
 11
262.503
 20
1446.88
 21
1446
  0
LINE
  8
0
 10
262.503
 11
262.566
 20
1446
 21
1446
  0
LINE
  8
0
 10
262.566
 11
274.113
 20
1446
 21
1426
  0
LINE
  8
0
 10
274.113
 11
274.177
 20
1426
 21
1426
  0
LINE
  8
0
 10
274.177
 11
274.683
 20
1426
 21
1425.12
  0
LINE
  8
0
 10
274.683
 11
276.082
 20
1425.12
 21
1423.57
  0
LINE
  8
0
 10
276.082
 11
277.774
 20
1423.57
 21
1422.34
  0
LINE
  8
0
 10
277.774
 11
279.683
 20
1422.34
 21
1421.49
  0
LINE
  8
0
 10
279.683
 11
281.728
 20
1421.49
 21
1421.06
  0
LINE
  8
0
 10
281.728
 11
282.774
 20
1421.06
 21
1421.06
  0
LINE
  8
0
 10
282.774
 11
282.774
 20
1421.06
 21
1421
  0
LINE
  8
0
 10
282.774
 11
354
 20
1421
 21
1421
  0
LINE
  8
0
 10
354
 11
354
 20
1421
 21
1402
  0
LINE
  8
0
 10
354
 11
0
 20
1402
 21
1402
  0
LINE
  8
0
 10
0
 11
0
 20
1501
 21
1520
  0
LINE
  8
0
 10
0
 11
71.226
 20
1520
 21
1520
  0
LINE
  8
0
 10
71.226
 11
71.226
 20
1520
 21
1520.06
  0
LINE
  8
0
 10
71.226
 11
72.272
 20
1520.06
 21
1520.06
  0
LINE
  8
0
 10
72.272
 11
74.317
 20
1520.06
 21
1520.49
  0
LINE
  8
0
 10
74.317
 11
76.226
 20
1520.49
 21
1521.34
  0
LINE
  8
0
 10
76.226
 11
77.918
 20
1521.34
 21
1522.57
  0
LINE
  8
0
 10
77.918
 11
79.317
 20
1522.57
 21
1524.12
  0
LINE
  8
0
 10
79.317
 11
79.823
 20
1524.12
 21
1525
  0
LINE
  8
0
 10
79.823
 11
79.887
 20
1525
 21
1525
  0
LINE
  8
0
 10
79.887
 11
91.434
 20
1525
 21
1545
  0
LINE
  8
0
 10
91.434
 11
91.497
 20
1545
 21
1545
  0
LINE
  8
0
 10
91.497
 11
92.004
 20
1545
 21
1545.88
  0
LINE
  8
0
 10
92.004
 11
93.403
 20
1545.88
 21
1547.43
  0
LINE
  8
0
 10
93.403
 11
95.094
 20
1547.43
 21
1548.66
  0
LINE
  8
0
 10
95.094
 11
97.004
 20
1548.66
 21
1549.51
  0
LINE
  8
0
 10
97.004
 11
99.049
 20
1549.51
 21
1549.94
  0
LINE
  8
0
 10
99.049
 11
100.094
 20
1549.94
 21
1549.94
  0
LINE
  8
0
 10
100.094
 11
100.094
 20
1549.94
 21
1550
  0
LINE
  8
0
 10
100.094
 11
253.906
 20
1550
 21
1550
  0
LINE
  8
0
 10
253.906
 11
253.906
 20
1550
 21
1549.94
  0
LINE
  8
0
 10
253.906
 11
254.951
 20
1549.94
 21
1549.94
  0
LINE
  8
0
 10
254.951
 11
256.996
 20
1549.94
 21
1549.51
  0
LINE
  8
0
 10
256.996
 11
258.906
 20
1549.51
 21
1548.66
  0
LINE
  8
0
 10
258.906
 11
260.597
 20
1548.66
 21
1547.43
  0
LINE
  8
0
 10
260.597
 11
261.996
 20
1547.43
 21
1545.88
  0
LINE
  8
0
 10
261.996
 11
262.503
 20
1545.88
 21
1545
  0
LINE
  8
0
 10
262.503
 11
262.566
 20
1545
 21
1545
  0
LINE
  8
0
 10
262.566
 11
274.113
 20
1545
 21
1525
  0
LINE
  8
0
 10
274.113
 11
274.177
 20
1525
 21
1525
  0
LINE
  8
0
 10
274.177
 11
274.683
 20
1525
 21
1524.12
  0
LINE
  8
0
 10
274.683
 11
276.082
 20
1524.12
 21
1522.57
  0
LINE
  8
0
 10
276.082
 11
277.774
 20
1522.57
 21
1521.34
  0
LINE
  8
0
 10
277.774
 11
279.683
 20
1521.34
 21
1520.49
  0
LINE
  8
0
 10
279.683
 11
281.728
 20
1520.49
 21
1520.06
  0
LINE
  8
0
 10
281.728
 11
282.774
 20
1520.06
 21
1520.06
  0
LINE
  8
0
 10
282.774
 11
282.774
 20
1520.06
 21
1520
  0
LINE
  8
0
 10
282.774
 11
354
 20
1520
 21
1520
  0
LINE
  8
0
 10
354
 11
354
 20
1520
 21
1501
  0
LINE
  8
0
 10
354
 11
0
 20
1501
 21
1501
  0
LINE
  8
0
 10
0
 11
0
 20
1600
 21
1619
  0
LINE
  8
0
 10
0
 11
71.226
 20
1619
 21
1619
  0
LINE
  8
0
 10
71.226
 11
71.226
 20
1619
 21
1619.06
  0
LINE
  8
0
 10
71.226
 11
72.272
 20
1619.06
 21
1619.06
  0
LINE
  8
0
 10
72.272
 11
74.317
 20
1619.06
 21
1619.49
  0
LINE
  8
0
 10
74.317
 11
76.226
 20
1619.49
 21
1620.34
  0
LINE
  8
0
 10
76.226
 11
77.918
 20
1620.34
 21
1621.57
  0
LINE
  8
0
 10
77.918
 11
79.317
 20
1621.57
 21
1623.12
  0
LINE
  8
0
 10
79.317
 11
79.823
 20
1623.12
 21
1624
  0
LINE
  8
0
 10
79.823
 11
79.887
 20
1624
 21
1624
  0
LINE
  8
0
 10
79.887
 11
91.434
 20
1624
 21
1644
  0
LINE
  8
0
 10
91.434
 11
91.497
 20
1644
 21
1644
  0
LINE
  8
0
 10
91.497
 11
92.004
 20
1644
 21
1644.88
  0
LINE
  8
0
 10
92.004
 11
93.403
 20
1644.88
 21
1646.43
  0
LINE
  8
0
 10
93.403
 11
95.094
 20
1646.43
 21
1647.66
  0
LINE
  8
0
 10
95.094
 11
97.004
 20
1647.66
 21
1648.51
  0
LINE
  8
0
 10
97.004
 11
99.049
 20
1648.51
 21
1648.94
  0
LINE
  8
0
 10
99.049
 11
100.094
 20
1648.94
 21
1648.94
  0
LINE
  8
0
 10
100.094
 11
100.094
 20
1648.94
 21
1649
  0
LINE
  8
0
 10
100.094
 11
253.906
 20
1649
 21
1649
  0
LINE
  8
0
 10
253.906
 11
253.906
 20
1649
 21
1648.94
  0
LINE
  8
0
 10
253.906
 11
254.951
 20
1648.94
 21
1648.94
  0
LINE
  8
0
 10
254.951
 11
256.996
 20
1648.94
 21
1648.51
  0
LINE
  8
0
 10
256.996
 11
258.906
 20
1648.51
 21
1647.66
  0
LINE
  8
0
 10
258.906
 11
260.597
 20
1647.66
 21
1646.43
  0
LINE
  8
0
 10
260.597
 11
261.996
 20
1646.43
 21
1644.88
  0
LINE
  8
0
 10
261.996
 11
262.503
 20
1644.88
 21
1644
  0
LINE
  8
0
 10
262.503
 11
262.566
 20
1644
 21
1644
  0
LINE
  8
0
 10
262.566
 11
274.113
 20
1644
 21
1624
  0
LINE
  8
0
 10
274.113
 11
274.177
 20
1624
 21
1624
  0
LINE
  8
0
 10
274.177
 11
274.683
 20
1624
 21
1623.12
  0
LINE
  8
0
 10
274.683
 11
276.082
 20
1623.12
 21
1621.57
  0
LINE
  8
0
 10
276.082
 11
277.774
 20
1621.57
 21
1620.34
  0
LINE
  8
0
 10
277.774
 11
279.683
 20
1620.34
 21
1619.49
  0
LINE
  8
0
 10
279.683
 11
281.728
 20
1619.49
 21
1619.06
  0
LINE
  8
0
 10
281.728
 11
282.774
 20
1619.06
 21
1619.06
  0
LINE
  8
0
 10
282.774
 11
282.774
 20
1619.06
 21
1619
  0
LINE
  8
0
 10
282.774
 11
354
 20
1619
 21
1619
  0
LINE
  8
0
 10
354
 11
354
 20
1619
 21
1600
  0
LINE
  8
0
 10
354
 11
0
 20
1600
 21
1600
  0
LINE
  8
0
 10
0.1
 11
0.1
 20
0
 21
19
  0
LINE
  8
0
 10
0.1
 11
28.1
 20
19
 21
19
  0
LINE
  8
0
 10
28.1
 11
28.1
 20
19
 21
0
  0
LINE
  8
0
 10
28.1
 11
0.1
 20
0
 21
0
  0
LINE
  8
0
 10
33.1
 11
33.1
 20
0
 21
19
  0
LINE
  8
0
 10
33.1
 11
61.1
 20
19
 21
19
  0
LINE
  8
0
 10
61.1
 11
61.1
 20
19
 21
0
  0
LINE
  8
0
 10
61.1
 11
33.1
 20
0
 21
0
  0
LINE
  8
0
 10
66.1
 11
66.1
 20
0
 21
19
  0
LINE
  8
0
 10
66.1
 11
94.1
 20
19
 21
19
  0
LINE
  8
0
 10
94.1
 11
94.1
 20
19
 21
0
  0
LINE
  8
0
 10
94.1
 11
66.1
 20
0
 21
0
  0
LINE
  8
0
 10
75.463
 11
75.463
 20
283
 21
311
  0
LINE
  8
0
 10
75.463
 11
278.537
 20
311
 21
311
  0
LINE
  8
0
 10
278.537
 11
278.537
 20
311
 21
283
  0
LINE
  8
0
 10
278.537
 11
75.463
 20
283
 21
283
  0
LINE
  8
0
 10
83.351
 11
83.351
 20
361
 21
389
  0
LINE
  8
0
 10
83.351
 11
270.649
 20
389
 21
389
  0
LINE
  8
0
 10
270.649
 11
270.649
 20
389
 21
361
  0
LINE
  8
0
 10
270.649
 11
83.351
 20
361
 21
361
  0
LINE
  8
0
 10
89.124
 11
89.124
 20
439
 21
467
  0
LINE
  8
0
 10
89.124
 11
264.876
 20
467
 21
467
  0
LINE
  8
0
 10
264.876
 11
264.876
 20
467
 21
439
  0
LINE
  8
0
 10
264.876
 11
89.124
 20
439
 21
439
  0
LINE
  8
0
 10
99.1
 11
99.1
 20
0
 21
48.945
  0
LINE
  8
0
 10
99.1
 11
127.1
 20
48.945
 21
48.945
  0
LINE
  8
0
 10
127.1
 11
127.1
 20
48.945
 21
0
  0
LINE
  8
0
 10
127.1
 11
99.1
 20
0
 21
0
  0
LINE
  8
0
 10
132.1
 11
132.1
 20
0
 21
49
  0
LINE
  8
0
 10
132.1
 11
160.1
 20
49
 21
49
  0
LINE
  8
0
 10
160.1
 11
160.1
 20
49
 21
0
  0
LINE
  8
0
 10
160.1
 11
132.1
 20
0
 21
0
  0
LINE
  8
0
 10
165.1
 11
165.1
 20
0
 21
49
  0
LINE
  8
0
 10
165.1
 11
193.1
 20
49
 21
49
  0
LINE
  8
0
 10
193.1
 11
193.1
 20
49
 21
0
  0
LINE
  8
0
 10
193.1
 11
165.1
 20
0
 21
0
  0
LINE
  8
0
 10
198.1
 11
198.1
 20
0
 21
49
  0
LINE
  8
0
 10
198.1
 11
226.1
 20
49
 21
49
  0
LINE
  8
0
 10
226.1
 11
226.1
 20
49
 21
0
  0
LINE
  8
0
 10
226.1
 11
198.1
 20
0
 21
0
  0
LINE
  8
0
 10
231.1
 11
231.1
 20
0
 21
49
  0
LINE
  8
0
 10
231.1
 11
259.1
 20
49
 21
49
  0
LINE
  8
0
 10
259.1
 11
259.1
 20
49
 21
0
  0
LINE
  8
0
 10
259.1
 11
231.1
 20
0
 21
0
  0
LINE
  8
0
 10
264.1
 11
264.1
 20
0
 21
41.343
  0
LINE
  8
0
 10
264.1
 11
292.1
 20
41.343
 21
41.343
  0
LINE
  8
0
 10
292.1
 11
292.1
 20
41.343
 21
0
  0
LINE
  8
0
 10
292.1
 11
264.1
 20
0
 21
0
  0
LINE
  8
0
 10
297.1
 11
297.1
 20
0
 21
19
  0
LINE
  8
0
 10
297.1
 11
325.1
 20
19
 21
19
  0
LINE
  8
0
 10
325.1
 11
325.1
 20
19
 21
0
  0
LINE
  8
0
 10
325.1
 11
297.1
 20
0
 21
0
  0
LINE
  8
0
 10
330.1
 11
330.1
 20
0
 21
19
  0
LINE
  8
0
 10
330.1
 11
358.1
 20
19
 21
19
  0
LINE
  8
0
 10
358.1
 11
358.1
 20
19
 21
0
  0
LINE
  8
0
 10
358.1
 11
330.1
 20
0
 21
0
  0
ENDSEC
  0
SECTION
  2
OBJECTS
  0
DICTIONARY
  0
ENDSEC
  0
EOF
