  0
SECTION
  2
BLOCKS
  0
ENDSEC
  0
SECTION
  2
ENTITIES
  0
LINE
  8
0
 10
0
 11
0
 20
348
 21
352
  0
LINE
  8
0
 10
0
 11
310
 20
352
 21
352
  0
LINE
  8
0
 10
310
 11
310
 20
352
 21
348
  0
LINE
  8
0
 10
310
 11
270
 20
348
 21
348
  0
LINE
  8
0
 10
270
 11
270
 20
348
 21
334
  0
LINE
  8
0
 10
270
 11
40
 20
334
 21
334
  0
LINE
  8
0
 10
40
 11
40
 20
334
 21
348
  0
LINE
  8
0
 10
40
 11
0
 20
348
 21
348
  0
LINE
  8
0
 10
0
 11
0
 20
426
 21
440
  0
LINE
  8
0
 10
0
 11
310
 20
440
 21
440
  0
LINE
  8
0
 10
310
 11
310
 20
440
 21
426
  0
LINE
  8
0
 10
310
 11
270
 20
426
 21
426
  0
LINE
  8
0
 10
270
 11
270
 20
426
 21
412
  0
LINE
  8
0
 10
270
 11
40
 20
412
 21
412
  0
LINE
  8
0
 10
40
 11
40
 20
412
 21
426
  0
LINE
  8
0
 10
40
 11
0
 20
426
 21
426
  0
LINE
  8
0
 10
0
 11
0
 20
504
 21
518
  0
LINE
  8
0
 10
0
 11
310
 20
518
 21
518
  0
LINE
  8
0
 10
310
 11
310
 20
518
 21
504
  0
LINE
  8
0
 10
310
 11
270
 20
504
 21
504
  0
LINE
  8
0
 10
270
 11
270
 20
504
 21
490
  0
LINE
  8
0
 10
270
 11
40
 20
490
 21
490
  0
LINE
  8
0
 10
40
 11
40
 20
490
 21
504
  0
LINE
  8
0
 10
40
 11
0
 20
504
 21
504
  0
LINE
  8
0
 10
0
 11
0
 20
582
 21
596
  0
LINE
  8
0
 10
0
 11
310
 20
596
 21
596
  0
LINE
  8
0
 10
310
 11
310
 20
596
 21
582
  0
LINE
  8
0
 10
310
 11
270
 20
582
 21
582
  0
LINE
  8
0
 10
270
 11
270
 20
582
 21
568
  0
LINE
  8
0
 10
270
 11
40
 20
568
 21
568
  0
LINE
  8
0
 10
40
 11
40
 20
568
 21
582
  0
LINE
  8
0
 10
40
 11
0
 20
582
 21
582
  0
LINE
  8
0
 10
0
 11
0
 20
660
 21
674
  0
LINE
  8
0
 10
0
 11
310
 20
674
 21
674
  0
LINE
  8
0
 10
310
 11
310
 20
674
 21
660
  0
LINE
  8
0
 10
310
 11
270
 20
660
 21
660
  0
LINE
  8
0
 10
270
 11
270
 20
660
 21
646
  0
LINE
  8
0
 10
270
 11
40
 20
646
 21
646
  0
LINE
  8
0
 10
40
 11
40
 20
646
 21
660
  0
LINE
  8
0
 10
40
 11
0
 20
660
 21
660
  0
LINE
  8
0
 10
0
 11
0
 20
738
 21
752
  0
LINE
  8
0
 10
0
 11
310
 20
752
 21
752
  0
LINE
  8
0
 10
310
 11
310
 20
752
 21
738
  0
LINE
  8
0
 10
310
 11
270
 20
738
 21
738
  0
LINE
  8
0
 10
270
 11
270
 20
738
 21
724
  0
LINE
  8
0
 10
270
 11
40
 20
724
 21
724
  0
LINE
  8
0
 10
40
 11
40
 20
724
 21
738
  0
LINE
  8
0
 10
40
 11
0
 20
738
 21
738
  0
LINE
  8
0
 10
0
 11
0
 20
816
 21
830
  0
LINE
  8
0
 10
0
 11
310
 20
830
 21
830
  0
LINE
  8
0
 10
310
 11
310
 20
830
 21
816
  0
LINE
  8
0
 10
310
 11
270
 20
816
 21
816
  0
LINE
  8
0
 10
270
 11
270
 20
816
 21
802
  0
LINE
  8
0
 10
270
 11
40
 20
802
 21
802
  0
LINE
  8
0
 10
40
 11
40
 20
802
 21
816
  0
LINE
  8
0
 10
40
 11
0
 20
816
 21
816
  0
LINE
  8
0
 10
0
 11
0
 20
894
 21
908
  0
LINE
  8
0
 10
0
 11
310
 20
908
 21
908
  0
LINE
  8
0
 10
310
 11
310
 20
908
 21
894
  0
LINE
  8
0
 10
310
 11
270
 20
894
 21
894
  0
LINE
  8
0
 10
270
 11
270
 20
894
 21
880
  0
LINE
  8
0
 10
270
 11
40
 20
880
 21
880
  0
LINE
  8
0
 10
40
 11
40
 20
880
 21
894
  0
LINE
  8
0
 10
40
 11
0
 20
894
 21
894
  0
LINE
  8
0
 10
0
 11
0
 20
1136
 21
1200.93
  0
LINE
  8
0
 10
0
 11
7.071
 20
1200.93
 21
1208
  0
LINE
  8
0
 10
7.071
 11
302.929
 20
1208
 21
1208
  0
LINE
  8
0
 10
302.929
 11
310
 20
1208
 21
1200.93
  0
LINE
  8
0
 10
310
 11
310
 20
1200.93
 21
1136
  0
LINE
  8
0
 10
310
 11
0
 20
1136
 21
1136
  0
LINE
  8
0
 10
0
 11
0
 20
1286
 21
1350.93
  0
LINE
  8
0
 10
0
 11
7.071
 20
1350.93
 21
1358
  0
LINE
  8
0
 10
7.071
 11
302.929
 20
1358
 21
1358
  0
LINE
  8
0
 10
302.929
 11
310
 20
1358
 21
1350.93
  0
LINE
  8
0
 10
310
 11
310
 20
1350.93
 21
1286
  0
LINE
  8
0
 10
310
 11
0
 20
1286
 21
1286
  0
LINE
  8
0
 10
0
 11
0
 20
1436
 21
1500.93
  0
LINE
  8
0
 10
0
 11
7.071
 20
1500.93
 21
1508
  0
LINE
  8
0
 10
7.071
 11
302.929
 20
1508
 21
1508
  0
LINE
  8
0
 10
302.929
 11
310
 20
1508
 21
1500.93
  0
LINE
  8
0
 10
310
 11
310
 20
1500.93
 21
1436
  0
LINE
  8
0
 10
310
 11
0
 20
1436
 21
1436
  0
LINE
  8
0
 10
0.1
 11
0.1
 20
28
 21
93.029
  0
LINE
  8
0
 10
0.1
 11
14.1
 20
93.029
 21
93.029
  0
LINE
  8
0
 10
14.1
 11
14.1
 20
93.029
 21
10
  0
LINE
  8
0
 10
14.1
 11
10.1
 20
10
 21
10
  0
LINE
  8
0
 10
10.1
 11
10.1
 20
10
 21
28
  0
LINE
  8
0
 10
10.1
 11
0.1
 20
28
 21
28
  0
LINE
  8
0
 10
4.071
 11
4.071
 20
972
 21
986
  0
LINE
  8
0
 10
4.071
 11
305.929
 20
986
 21
986
  0
LINE
  8
0
 10
305.929
 11
305.929
 20
986
 21
972
  0
LINE
  8
0
 10
305.929
 11
270
 20
972
 21
972
  0
LINE
  8
0
 10
270
 11
270
 20
972
 21
958
  0
LINE
  8
0
 10
270
 11
40
 20
958
 21
958
  0
LINE
  8
0
 10
40
 11
40
 20
958
 21
972
  0
LINE
  8
0
 10
40
 11
4.071
 20
972
 21
972
  0
LINE
  8
0
 10
33.1
 11
33.1
 20
28
 21
100
  0
LINE
  8
0
 10
33.1
 11
47.1
 20
100
 21
100
  0
LINE
  8
0
 10
47.1
 11
47.1
 20
100
 21
10
  0
LINE
  8
0
 10
47.1
 11
43.1
 20
10
 21
10
  0
LINE
  8
0
 10
43.1
 11
43.1
 20
10
 21
28
  0
LINE
  8
0
 10
43.1
 11
33.1
 20
28
 21
28
  0
LINE
  8
0
 10
40
 11
40
 20
178
 21
188
  0
LINE
  8
0
 10
40
 11
270
 20
188
 21
188
  0
LINE
  8
0
 10
270
 11
270
 20
188
 21
178
  0
LINE
  8
0
 10
270
 11
40
 20
178
 21
178
  0
LINE
  8
0
 10
40
 11
40
 20
256
 21
266
  0
LINE
  8
0
 10
40
 11
270
 20
266
 21
266
  0
LINE
  8
0
 10
270
 11
270
 20
266
 21
256
  0
LINE
  8
0
 10
270
 11
40
 20
256
 21
256
  0
LINE
  8
0
 10
40
 11
40
 20
1568
 21
1658
  0
LINE
  8
0
 10
40
 11
270
 20
1658
 21
1658
  0
LINE
  8
0
 10
270
 11
270
 20
1658
 21
1568
  0
LINE
  8
0
 10
270
 11
40
 20
1568
 21
1568
  0
LINE
  8
0
 10
40
 11
40
 20
1708
 21
1808
  0
LINE
  8
0
 10
40
 11
270
 20
1808
 21
1808
  0
LINE
  8
0
 10
270
 11
270
 20
1808
 21
1708
  0
LINE
  8
0
 10
270
 11
40
 20
1708
 21
1708
  0
LINE
  8
0
 10
40
 11
40
 20
1858
 21
1958
  0
LINE
  8
0
 10
40
 11
270
 20
1958
 21
1958
  0
LINE
  8
0
 10
270
 11
270
 20
1958
 21
1858
  0
LINE
  8
0
 10
270
 11
40
 20
1858
 21
1858
  0
LINE
  8
0
 10
40
 11
40
 20
2008
 21
2108
  0
LINE
  8
0
 10
40
 11
270
 20
2108
 21
2108
  0
LINE
  8
0
 10
270
 11
270
 20
2108
 21
2008
  0
LINE
  8
0
 10
270
 11
40
 20
2008
 21
2008
  0
LINE
  8
0
 10
66.1
 11
66.1
 20
28
 21
100
  0
LINE
  8
0
 10
66.1
 11
94.1
 20
100
 21
100
  0
LINE
  8
0
 10
94.1
 11
94.1
 20
100
 21
0
  0
LINE
  8
0
 10
94.1
 11
84.1
 20
0
 21
0
  0
LINE
  8
0
 10
84.1
 11
84.1
 20
0
 21
10
  0
LINE
  8
0
 10
84.1
 11
76.1
 20
10
 21
10
  0
LINE
  8
0
 10
76.1
 11
76.1
 20
10
 21
28
  0
LINE
  8
0
 10
76.1
 11
66.1
 20
28
 21
28
  0
LINE
  8
0
 10
99.1
 11
99.1
 20
28
 21
100
  0
LINE
  8
0
 10
99.1
 11
127.1
 20
100
 21
100
  0
LINE
  8
0
 10
127.1
 11
127.1
 20
100
 21
0
  0
LINE
  8
0
 10
127.1
 11
117.1
 20
0
 21
0
  0
LINE
  8
0
 10
117.1
 11
117.1
 20
0
 21
10
  0
LINE
  8
0
 10
117.1
 11
109.1
 20
10
 21
10
  0
LINE
  8
0
 10
109.1
 11
109.1
 20
10
 21
28
  0
LINE
  8
0
 10
109.1
 11
99.1
 20
28
 21
28
  0
LINE
  8
0
 10
132.1
 11
132.1
 20
28
 21
100
  0
LINE
  8
0
 10
132.1
 11
160.1
 20
100
 21
100
  0
LINE
  8
0
 10
160.1
 11
160.1
 20
100
 21
0
  0
LINE
  8
0
 10
160.1
 11
150.1
 20
0
 21
0
  0
LINE
  8
0
 10
150.1
 11
150.1
 20
0
 21
10
  0
LINE
  8
0
 10
150.1
 11
142.1
 20
10
 21
10
  0
LINE
  8
0
 10
142.1
 11
142.1
 20
10
 21
28
  0
LINE
  8
0
 10
142.1
 11
132.1
 20
28
 21
28
  0
LINE
  8
0
 10
165.1
 11
165.1
 20
28
 21
100
  0
LINE
  8
0
 10
165.1
 11
193.1
 20
100
 21
100
  0
LINE
  8
0
 10
193.1
 11
193.1
 20
100
 21
0
  0
LINE
  8
0
 10
193.1
 11
183.1
 20
0
 21
0
  0
LINE
  8
0
 10
183.1
 11
183.1
 20
0
 21
10
  0
LINE
  8
0
 10
183.1
 11
175.1
 20
10
 21
10
  0
LINE
  8
0
 10
175.1
 11
175.1
 20
10
 21
28
  0
LINE
  8
0
 10
175.1
 11
165.1
 20
28
 21
28
  0
LINE
  8
0
 10
198.1
 11
198.1
 20
28
 21
100
  0
LINE
  8
0
 10
198.1
 11
226.1
 20
100
 21
100
  0
LINE
  8
0
 10
226.1
 11
226.1
 20
100
 21
0
  0
LINE
  8
0
 10
226.1
 11
216.1
 20
0
 21
0
  0
LINE
  8
0
 10
216.1
 11
216.1
 20
0
 21
10
  0
LINE
  8
0
 10
216.1
 11
208.1
 20
10
 21
10
  0
LINE
  8
0
 10
208.1
 11
208.1
 20
10
 21
28
  0
LINE
  8
0
 10
208.1
 11
198.1
 20
28
 21
28
  0
LINE
  8
0
 10
231.1
 11
231.1
 20
28
 21
100
  0
LINE
  8
0
 10
231.1
 11
259.1
 20
100
 21
100
  0
LINE
  8
0
 10
259.1
 11
259.1
 20
100
 21
0
  0
LINE
  8
0
 10
259.1
 11
249.1
 20
0
 21
0
  0
LINE
  8
0
 10
249.1
 11
249.1
 20
0
 21
10
  0
LINE
  8
0
 10
249.1
 11
241.1
 20
10
 21
10
  0
LINE
  8
0
 10
241.1
 11
241.1
 20
10
 21
28
  0
LINE
  8
0
 10
241.1
 11
231.1
 20
28
 21
28
  0
LINE
  8
0
 10
264.1
 11
264.1
 20
28
 21
100
  0
LINE
  8
0
 10
264.1
 11
292.1
 20
100
 21
100
  0
LINE
  8
0
 10
292.1
 11
292.1
 20
100
 21
0
  0
LINE
  8
0
 10
292.1
 11
282.1
 20
0
 21
0
  0
LINE
  8
0
 10
282.1
 11
282.1
 20
0
 21
10
  0
LINE
  8
0
 10
282.1
 11
274.1
 20
10
 21
10
  0
LINE
  8
0
 10
274.1
 11
274.1
 20
10
 21
28
  0
LINE
  8
0
 10
274.1
 11
264.1
 20
28
 21
28
  0
LINE
  8
0
 10
297.1
 11
297.1
 20
28
 21
100
  0
LINE
  8
0
 10
297.1
 11
311.1
 20
100
 21
100
  0
LINE
  8
0
 10
311.1
 11
311.1
 20
100
 21
10
  0
LINE
  8
0
 10
311.1
 11
307.1
 20
10
 21
10
  0
LINE
  8
0
 10
307.1
 11
307.1
 20
10
 21
28
  0
LINE
  8
0
 10
307.1
 11
297.1
 20
28
 21
28
  0
ENDSEC
  0
SECTION
  2
OBJECTS
  0
DICTIONARY
  0
ENDSEC
  0
EOF
