  0
SECTION
  2
BLOCKS
  0
ENDSEC
  0
SECTION
  2
ENTITIES
  0
LINE
  8
0
 10
0
 11
0
 20
141
 21
143
  0
LINE
  8
0
 10
0
 11
5
 20
143
 21
143
  0
LINE
  8
0
 10
5
 11
5
 20
143
 21
155
  0
LINE
  8
0
 10
5
 11
349
 20
155
 21
155
  0
LINE
  8
0
 10
349
 11
349
 20
155
 21
143
  0
LINE
  8
0
 10
349
 11
354
 20
143
 21
143
  0
LINE
  8
0
 10
354
 11
354
 20
143
 21
141
  0
LINE
  8
0
 10
354
 11
254
 20
141
 21
141
  0
LINE
  8
0
 10
254
 11
254
 20
141
 21
132
  0
LINE
  8
0
 10
254
 11
100
 20
132
 21
132
  0
LINE
  8
0
 10
100
 11
100
 20
132
 21
141
  0
LINE
  8
0
 10
100
 11
0
 20
141
 21
141
  0
LINE
  8
0
 10
0
 11
0
 20
219
 21
221
  0
LINE
  8
0
 10
0
 11
5
 20
221
 21
221
  0
LINE
  8
0
 10
5
 11
5
 20
221
 21
233
  0
LINE
  8
0
 10
5
 11
349
 20
233
 21
233
  0
LINE
  8
0
 10
349
 11
349
 20
233
 21
221
  0
LINE
  8
0
 10
349
 11
354
 20
221
 21
221
  0
LINE
  8
0
 10
354
 11
354
 20
221
 21
219
  0
LINE
  8
0
 10
354
 11
254
 20
219
 21
219
  0
LINE
  8
0
 10
254
 11
254
 20
219
 21
210
  0
LINE
  8
0
 10
254
 11
100
 20
210
 21
210
  0
LINE
  8
0
 10
100
 11
100
 20
210
 21
219
  0
LINE
  8
0
 10
100
 11
0
 20
219
 21
219
  0
LINE
  8
0
 10
0
 11
0
 20
297
 21
299
  0
LINE
  8
0
 10
0
 11
5
 20
299
 21
299
  0
LINE
  8
0
 10
5
 11
5
 20
299
 21
311
  0
LINE
  8
0
 10
5
 11
349
 20
311
 21
311
  0
LINE
  8
0
 10
349
 11
349
 20
311
 21
299
  0
LINE
  8
0
 10
349
 11
354
 20
299
 21
299
  0
LINE
  8
0
 10
354
 11
354
 20
299
 21
297
  0
LINE
  8
0
 10
354
 11
254
 20
297
 21
297
  0
LINE
  8
0
 10
254
 11
254
 20
297
 21
283
  0
LINE
  8
0
 10
254
 11
100
 20
283
 21
283
  0
LINE
  8
0
 10
100
 11
100
 20
283
 21
297
  0
LINE
  8
0
 10
100
 11
0
 20
297
 21
297
  0
LINE
  8
0
 10
0
 11
0
 20
361
 21
377
  0
LINE
  8
0
 10
0
 11
5
 20
377
 21
377
  0
LINE
  8
0
 10
5
 11
5
 20
377
 21
389
  0
LINE
  8
0
 10
5
 11
349
 20
389
 21
389
  0
LINE
  8
0
 10
349
 11
349
 20
389
 21
377
  0
LINE
  8
0
 10
349
 11
354
 20
377
 21
377
  0
LINE
  8
0
 10
354
 11
354
 20
377
 21
361
  0
LINE
  8
0
 10
354
 11
0
 20
361
 21
361
  0
LINE
  8
0
 10
0
 11
0
 20
439
 21
455
  0
LINE
  8
0
 10
0
 11
5
 20
455
 21
455
  0
LINE
  8
0
 10
5
 11
5
 20
455
 21
467
  0
LINE
  8
0
 10
5
 11
349
 20
467
 21
467
  0
LINE
  8
0
 10
349
 11
349
 20
467
 21
455
  0
LINE
  8
0
 10
349
 11
354
 20
455
 21
455
  0
LINE
  8
0
 10
354
 11
354
 20
455
 21
439
  0
LINE
  8
0
 10
354
 11
0
 20
439
 21
439
  0
LINE
  8
0
 10
0
 11
0
 20
1323
 21
1352
  0
LINE
  8
0
 10
0
 11
354
 20
1352
 21
1352
  0
LINE
  8
0
 10
354
 11
354
 20
1352
 21
1323
  0
LINE
  8
0
 10
354
 11
254
 20
1323
 21
1323
  0
LINE
  8
0
 10
254
 11
254
 20
1323
 21
1303
  0
LINE
  8
0
 10
254
 11
100
 20
1303
 21
1303
  0
LINE
  8
0
 10
100
 11
100
 20
1303
 21
1323
  0
LINE
  8
0
 10
100
 11
0
 20
1323
 21
1323
  0
LINE
  8
0
 10
0
 11
0
 20
1422
 21
1451
  0
LINE
  8
0
 10
0
 11
354
 20
1451
 21
1451
  0
LINE
  8
0
 10
354
 11
354
 20
1451
 21
1422
  0
LINE
  8
0
 10
354
 11
254
 20
1422
 21
1422
  0
LINE
  8
0
 10
254
 11
254
 20
1422
 21
1402
  0
LINE
  8
0
 10
254
 11
100
 20
1402
 21
1402
  0
LINE
  8
0
 10
100
 11
100
 20
1402
 21
1422
  0
LINE
  8
0
 10
100
 11
0
 20
1422
 21
1422
  0
LINE
  8
0
 10
0
 11
0
 20
1521
 21
1550
  0
LINE
  8
0
 10
0
 11
354
 20
1550
 21
1550
  0
LINE
  8
0
 10
354
 11
354
 20
1550
 21
1521
  0
LINE
  8
0
 10
354
 11
254
 20
1521
 21
1521
  0
LINE
  8
0
 10
254
 11
254
 20
1521
 21
1511
  0
LINE
  8
0
 10
254
 11
100
 20
1511
 21
1511
  0
LINE
  8
0
 10
100
 11
100
 20
1511
 21
1521
  0
LINE
  8
0
 10
100
 11
0
 20
1521
 21
1521
  0
LINE
  8
0
 10
0
 11
0
 20
1620
 21
1649
  0
LINE
  8
0
 10
0
 11
354
 20
1649
 21
1649
  0
LINE
  8
0
 10
354
 11
354
 20
1649
 21
1620
  0
LINE
  8
0
 10
354
 11
254
 20
1620
 21
1620
  0
LINE
  8
0
 10
254
 11
254
 20
1620
 21
1610
  0
LINE
  8
0
 10
254
 11
100
 20
1610
 21
1610
  0
LINE
  8
0
 10
100
 11
100
 20
1610
 21
1620
  0
LINE
  8
0
 10
100
 11
0
 20
1620
 21
1620
  0
LINE
  8
0
 10
5
 11
5
 20
1006
 21
1050
  0
LINE
  8
0
 10
5
 11
77
 20
1050
 21
1050
  0
LINE
  8
0
 10
77
 11
77
 20
1050
 21
1055
  0
LINE
  8
0
 10
77
 11
277
 20
1055
 21
1055
  0
LINE
  8
0
 10
277
 11
277
 20
1055
 21
1050
  0
LINE
  8
0
 10
277
 11
349
 20
1050
 21
1050
  0
LINE
  8
0
 10
349
 11
349
 20
1050
 21
1006
  0
LINE
  8
0
 10
349
 11
5
 20
1006
 21
1006
  0
LINE
  8
0
 10
5
 11
5
 20
1105
 21
1149
  0
LINE
  8
0
 10
5
 11
77
 20
1149
 21
1149
  0
LINE
  8
0
 10
77
 11
77
 20
1149
 21
1154
  0
LINE
  8
0
 10
77
 11
277
 20
1154
 21
1154
  0
LINE
  8
0
 10
277
 11
277
 20
1154
 21
1149
  0
LINE
  8
0
 10
277
 11
349
 20
1149
 21
1149
  0
LINE
  8
0
 10
349
 11
349
 20
1149
 21
1105
  0
LINE
  8
0
 10
349
 11
5
 20
1105
 21
1105
  0
LINE
  8
0
 10
5
 11
5
 20
1204
 21
1248
  0
LINE
  8
0
 10
5
 11
77
 20
1248
 21
1248
  0
LINE
  8
0
 10
77
 11
77
 20
1248
 21
1253
  0
LINE
  8
0
 10
77
 11
277
 20
1253
 21
1253
  0
LINE
  8
0
 10
277
 11
277
 20
1253
 21
1248
  0
LINE
  8
0
 10
277
 11
349
 20
1248
 21
1248
  0
LINE
  8
0
 10
349
 11
349
 20
1248
 21
1204
  0
LINE
  8
0
 10
349
 11
5
 20
1204
 21
1204
  0
LINE
  8
0
 10
12.1
 11
12.1
 20
0
 21
49
  0
LINE
  8
0
 10
12.1
 11
28.1
 20
49
 21
49
  0
LINE
  8
0
 10
28.1
 11
28.1
 20
49
 21
20
  0
LINE
  8
0
 10
28.1
 11
14.1
 20
20
 21
20
  0
LINE
  8
0
 10
14.1
 11
14.1
 20
20
 21
0
  0
LINE
  8
0
 10
14.1
 11
12.1
 20
0
 21
0
  0
LINE
  8
0
 10
33.1
 11
33.1
 20
0
 21
44
  0
LINE
  8
0
 10
33.1
 11
45.1
 20
44
 21
44
  0
LINE
  8
0
 10
45.1
 11
45.1
 20
44
 21
49
  0
LINE
  8
0
 10
45.1
 11
61.1
 20
49
 21
49
  0
LINE
  8
0
 10
61.1
 11
61.1
 20
49
 21
20
  0
LINE
  8
0
 10
61.1
 11
47.1
 20
20
 21
20
  0
LINE
  8
0
 10
47.1
 11
47.1
 20
20
 21
0
  0
LINE
  8
0
 10
47.1
 11
33.1
 20
0
 21
0
  0
LINE
  8
0
 10
66.1
 11
66.1
 20
0
 21
44
  0
LINE
  8
0
 10
66.1
 11
78.1
 20
44
 21
44
  0
LINE
  8
0
 10
78.1
 11
78.1
 20
44
 21
49
  0
LINE
  8
0
 10
78.1
 11
94.1
 20
49
 21
49
  0
LINE
  8
0
 10
94.1
 11
94.1
 20
49
 21
20
  0
LINE
  8
0
 10
94.1
 11
80.1
 20
20
 21
20
  0
LINE
  8
0
 10
80.1
 11
80.1
 20
20
 21
0
  0
LINE
  8
0
 10
80.1
 11
66.1
 20
0
 21
0
  0
LINE
  8
0
 10
99.1
 11
99.1
 20
0
 21
49
  0
LINE
  8
0
 10
99.1
 11
127.1
 20
49
 21
49
  0
LINE
  8
0
 10
127.1
 11
127.1
 20
49
 21
20
  0
LINE
  8
0
 10
127.1
 11
113.1
 20
20
 21
20
  0
LINE
  8
0
 10
113.1
 11
113.1
 20
20
 21
0
  0
LINE
  8
0
 10
113.1
 11
99.1
 20
0
 21
0
  0
LINE
  8
0
 10
132.1
 11
132.1
 20
0
 21
49
  0
LINE
  8
0
 10
132.1
 11
160.1
 20
49
 21
49
  0
LINE
  8
0
 10
160.1
 11
160.1
 20
49
 21
10
  0
LINE
  8
0
 10
160.1
 11
155.1
 20
10
 21
10
  0
LINE
  8
0
 10
155.1
 11
155.1
 20
10
 21
0
  0
LINE
  8
0
 10
155.1
 11
132.1
 20
0
 21
0
  0
LINE
  8
0
 10
165.1
 11
165.1
 20
0
 21
49
  0
LINE
  8
0
 10
165.1
 11
193.1
 20
49
 21
49
  0
LINE
  8
0
 10
193.1
 11
193.1
 20
49
 21
10
  0
LINE
  8
0
 10
193.1
 11
188.1
 20
10
 21
10
  0
LINE
  8
0
 10
188.1
 11
188.1
 20
10
 21
0
  0
LINE
  8
0
 10
188.1
 11
165.1
 20
0
 21
0
  0
LINE
  8
0
 10
198.1
 11
198.1
 20
0
 21
49
  0
LINE
  8
0
 10
198.1
 11
226.1
 20
49
 21
49
  0
LINE
  8
0
 10
226.1
 11
226.1
 20
49
 21
10
  0
LINE
  8
0
 10
226.1
 11
221.1
 20
10
 21
10
  0
LINE
  8
0
 10
221.1
 11
221.1
 20
10
 21
0
  0
LINE
  8
0
 10
221.1
 11
198.1
 20
0
 21
0
  0
LINE
  8
0
 10
231.1
 11
231.1
 20
0
 21
49
  0
LINE
  8
0
 10
231.1
 11
259.1
 20
49
 21
49
  0
LINE
  8
0
 10
259.1
 11
259.1
 20
49
 21
10
  0
LINE
  8
0
 10
259.1
 11
254.1
 20
10
 21
10
  0
LINE
  8
0
 10
254.1
 11
254.1
 20
10
 21
0
  0
LINE
  8
0
 10
254.1
 11
231.1
 20
0
 21
0
  0
LINE
  8
0
 10
264.1
 11
264.1
 20
0
 21
49
  0
LINE
  8
0
 10
264.1
 11
292.1
 20
49
 21
49
  0
LINE
  8
0
 10
292.1
 11
292.1
 20
49
 21
20
  0
LINE
  8
0
 10
292.1
 11
278.1
 20
20
 21
20
  0
LINE
  8
0
 10
278.1
 11
278.1
 20
20
 21
0
  0
LINE
  8
0
 10
278.1
 11
264.1
 20
0
 21
0
  0
LINE
  8
0
 10
297.1
 11
297.1
 20
0
 21
44
  0
LINE
  8
0
 10
297.1
 11
309.1
 20
44
 21
44
  0
LINE
  8
0
 10
309.1
 11
309.1
 20
44
 21
49
  0
LINE
  8
0
 10
309.1
 11
325.1
 20
49
 21
49
  0
LINE
  8
0
 10
325.1
 11
325.1
 20
49
 21
20
  0
LINE
  8
0
 10
325.1
 11
311.1
 20
20
 21
20
  0
LINE
  8
0
 10
311.1
 11
311.1
 20
20
 21
0
  0
LINE
  8
0
 10
311.1
 11
297.1
 20
0
 21
0
  0
LINE
  8
0
 10
330.1
 11
330.1
 20
0
 21
44
  0
LINE
  8
0
 10
330.1
 11
342.1
 20
44
 21
44
  0
LINE
  8
0
 10
342.1
 11
342.1
 20
44
 21
49
  0
LINE
  8
0
 10
342.1
 11
358.1
 20
49
 21
49
  0
LINE
  8
0
 10
358.1
 11
358.1
 20
49
 21
20
  0
LINE
  8
0
 10
358.1
 11
344.1
 20
20
 21
20
  0
LINE
  8
0
 10
344.1
 11
344.1
 20
20
 21
0
  0
LINE
  8
0
 10
344.1
 11
330.1
 20
0
 21
0
  0
ENDSEC
  0
SECTION
  2
OBJECTS
  0
DICTIONARY
  0
ENDSEC
  0
EOF
