solid OpenSCAD_Model
  facet normal -1 0 0
    outer loop
      vertex 0 0 12
      vertex 0 0 14
      vertex 0 49 12
    endloop
  endfacet
  facet normal -1 0 0
    outer loop
      vertex 0 49 12
      vertex 0 0 14
      vertex 0 20 14
    endloop
  endfacet
  facet normal -1 0 0
    outer loop
      vertex 0 49 12
      vertex 0 20 14
      vertex 0 20 28
    endloop
  endfacet
  facet normal -1 0 0
    outer loop
      vertex 0 49 12
      vertex 0 20 28
      vertex 0 49 28
    endloop
  endfacet
  facet normal 0 -1 0
    outer loop
      vertex 349 0 12
      vertex 354 0 12
      vertex 0 0 14
    endloop
  endfacet
  facet normal 0 -1 0
    outer loop
      vertex 0 0 14
      vertex 0 0 12
      vertex 5 0 12
    endloop
  endfacet
  facet normal 0 -1 0
    outer loop
      vertex 349 0 0
      vertex 0 0 14
      vertex 5 0 12
    endloop
  endfacet
  facet normal 0 -1 0
    outer loop
      vertex 5 0 0
      vertex 349 0 0
      vertex 5 0 12
    endloop
  endfacet
  facet normal 0 -1 0
    outer loop
      vertex 349 0 0
      vertex 349 0 12
      vertex 0 0 14
    endloop
  endfacet
  facet normal 0 -1 0
    outer loop
      vertex 354 0 12
      vertex 254 0 14
      vertex 100 0 14
    endloop
  endfacet
  facet normal 0 -1 0
    outer loop
      vertex 354 0 12
      vertex 354 0 14
      vertex 254 0 14
    endloop
  endfacet
  facet normal 0 -1 0
    outer loop
      vertex 354 0 12
      vertex 100 0 14
      vertex 0 0 14
    endloop
  endfacet
  facet normal 0 -1 0
    outer loop
      vertex 254 0 14
      vertex 254 0 23
      vertex 100 0 14
    endloop
  endfacet
  facet normal 0 -1 0
    outer loop
      vertex 100 0 23
      vertex 100 0 14
      vertex 254 0 23
    endloop
  endfacet
  facet normal 0 0 -1
    outer loop
      vertex 77 49 12
      vertex 77 44 12
      vertex 0 49 12
    endloop
  endfacet
  facet normal 0 0 -1
    outer loop
      vertex 0 49 12
      vertex 77 44 12
      vertex 5 44 12
    endloop
  endfacet
  facet normal 0 0 -1
    outer loop
      vertex 0 49 12
      vertex 5 44 12
      vertex 5 0 12
    endloop
  endfacet
  facet normal 0 0 -1
    outer loop
      vertex 0 49 12
      vertex 5 0 12
      vertex 0 0 12
    endloop
  endfacet
  facet normal 0 1 0
    outer loop
      vertex 0 49 12
      vertex 0 49 28
      vertex 77 49 12
    endloop
  endfacet
  facet normal 0 1 0
    outer loop
      vertex 77 49 12
      vertex 0 49 28
      vertex 354 49 28
    endloop
  endfacet
  facet normal 0 1 0
    outer loop
      vertex 277 49 12
      vertex 354 49 28
      vertex 354 49 12
    endloop
  endfacet
  facet normal 0 1 0
    outer loop
      vertex 77 49 12
      vertex 354 49 28
      vertex 277 49 12
    endloop
  endfacet
  facet normal 0 1 0
    outer loop
      vertex 277 49 12
      vertex 277 49 0
      vertex 77 49 12
    endloop
  endfacet
  facet normal 0 1 0
    outer loop
      vertex 77 49 12
      vertex 277 49 0
      vertex 77 49 0
    endloop
  endfacet
  facet normal 0 0 1
    outer loop
      vertex 254 20 28
      vertex 354 20 28
      vertex 0 49 28
    endloop
  endfacet
  facet normal 0 0 1
    outer loop
      vertex 0 49 28
      vertex 0 20 28
      vertex 100 20 28
    endloop
  endfacet
  facet normal 0 0 1
    outer loop
      vertex 254 10 28
      vertex 0 49 28
      vertex 100 20 28
    endloop
  endfacet
  facet normal 0 0 1
    outer loop
      vertex 100 10 28
      vertex 254 10 28
      vertex 100 20 28
    endloop
  endfacet
  facet normal 0 0 1
    outer loop
      vertex 254 10 28
      vertex 254 20 28
      vertex 0 49 28
    endloop
  endfacet
  facet normal 0 0 1
    outer loop
      vertex 354 20 28
      vertex 354 49 28
      vertex 0 49 28
    endloop
  endfacet
  facet normal 0 -1 0
    outer loop
      vertex 100 20 14
      vertex 100 20 28
      vertex 0 20 28
    endloop
  endfacet
  facet normal 0 -1 0
    outer loop
      vertex 0 20 14
      vertex 100 20 14
      vertex 0 20 28
    endloop
  endfacet
  facet normal 0 0 1
    outer loop
      vertex 100 0 14
      vertex 100 20 14
      vertex 0 20 14
    endloop
  endfacet
  facet normal 0 0 1
    outer loop
      vertex 0 0 14
      vertex 100 0 14
      vertex 0 20 14
    endloop
  endfacet
  facet normal -1 0 0
    outer loop
      vertex 100 10 23
      vertex 100 10 28
      vertex 100 20 28
    endloop
  endfacet
  facet normal -1 0 0
    outer loop
      vertex 100 10 23
      vertex 100 20 28
      vertex 100 20 14
    endloop
  endfacet
  facet normal -1 0 0
    outer loop
      vertex 100 10 23
      vertex 100 20 14
      vertex 100 0 23
    endloop
  endfacet
  facet normal -1 0 0
    outer loop
      vertex 100 20 14
      vertex 100 0 14
      vertex 100 0 23
    endloop
  endfacet
  facet normal 0 0 1
    outer loop
      vertex 254 0 23
      vertex 254 10 23
      vertex 100 10 23
    endloop
  endfacet
  facet normal 0 0 1
    outer loop
      vertex 100 0 23
      vertex 254 0 23
      vertex 100 10 23
    endloop
  endfacet
  facet normal 1 0 0
    outer loop
      vertex 254 20 14
      vertex 254 20 28
      vertex 254 10 28
    endloop
  endfacet
  facet normal 1 0 0
    outer loop
      vertex 254 0 23
      vertex 254 20 14
      vertex 254 10 23
    endloop
  endfacet
  facet normal 1 0 0
    outer loop
      vertex 254 10 23
      vertex 254 20 14
      vertex 254 10 28
    endloop
  endfacet
  facet normal 1 0 0
    outer loop
      vertex 254 0 14
      vertex 254 20 14
      vertex 254 0 23
    endloop
  endfacet
  facet normal 0 0 1
    outer loop
      vertex 354 0 14
      vertex 354 20 14
      vertex 254 20 14
    endloop
  endfacet
  facet normal 0 0 1
    outer loop
      vertex 254 0 14
      vertex 354 0 14
      vertex 254 20 14
    endloop
  endfacet
  facet normal 1 0 0
    outer loop
      vertex 354 0 14
      vertex 354 0 12
      vertex 354 49 12
    endloop
  endfacet
  facet normal 1 0 0
    outer loop
      vertex 354 20 14
      vertex 354 0 14
      vertex 354 49 12
    endloop
  endfacet
  facet normal 1 0 0
    outer loop
      vertex 354 49 28
      vertex 354 20 14
      vertex 354 49 12
    endloop
  endfacet
  facet normal 1 0 0
    outer loop
      vertex 354 20 28
      vertex 354 20 14
      vertex 354 49 28
    endloop
  endfacet
  facet normal 0 0 -1
    outer loop
      vertex 277 44 12
      vertex 277 49 12
      vertex 349 44 12
    endloop
  endfacet
  facet normal 0 0 -1
    outer loop
      vertex 354 49 12
      vertex 354 0 12
      vertex 349 44 12
    endloop
  endfacet
  facet normal 0 0 -1
    outer loop
      vertex 354 49 12
      vertex 349 44 12
      vertex 277 49 12
    endloop
  endfacet
  facet normal 0 0 -1
    outer loop
      vertex 349 44 12
      vertex 354 0 12
      vertex 349 0 12
    endloop
  endfacet
  facet normal 1 0 0
    outer loop
      vertex 349 44 0
      vertex 349 44 12
      vertex 349 0 12
    endloop
  endfacet
  facet normal 1 0 0
    outer loop
      vertex 349 0 0
      vertex 349 44 0
      vertex 349 0 12
    endloop
  endfacet
  facet normal 0 0 -1
    outer loop
      vertex 5 0 0
      vertex 5 44 0
      vertex 349 0 0
    endloop
  endfacet
  facet normal 0 0 -1
    outer loop
      vertex 349 0 0
      vertex 5 44 0
      vertex 77 44 0
    endloop
  endfacet
  facet normal 0 0 -1
    outer loop
      vertex 349 0 0
      vertex 77 44 0
      vertex 77 49 0
    endloop
  endfacet
  facet normal 0 0 -1
    outer loop
      vertex 277 44 0
      vertex 77 49 0
      vertex 277 49 0
    endloop
  endfacet
  facet normal 0 0 -1
    outer loop
      vertex 349 0 0
      vertex 77 49 0
      vertex 277 44 0
    endloop
  endfacet
  facet normal 0 0 -1
    outer loop
      vertex 349 44 0
      vertex 349 0 0
      vertex 277 44 0
    endloop
  endfacet
  facet normal -1 0 0
    outer loop
      vertex 5 44 12
      vertex 5 44 0
      vertex 5 0 12
    endloop
  endfacet
  facet normal -1 0 0
    outer loop
      vertex 5 0 12
      vertex 5 44 0
      vertex 5 0 0
    endloop
  endfacet
  facet normal 0 1 0
    outer loop
      vertex 77 44 12
      vertex 77 44 0
      vertex 5 44 12
    endloop
  endfacet
  facet normal 0 1 0
    outer loop
      vertex 5 44 12
      vertex 77 44 0
      vertex 5 44 0
    endloop
  endfacet
  facet normal -1 0 0
    outer loop
      vertex 77 49 12
      vertex 77 49 0
      vertex 77 44 12
    endloop
  endfacet
  facet normal -1 0 0
    outer loop
      vertex 77 44 12
      vertex 77 49 0
      vertex 77 44 0
    endloop
  endfacet
  facet normal 1 0 0
    outer loop
      vertex 277 49 0
      vertex 277 49 12
      vertex 277 44 12
    endloop
  endfacet
  facet normal 1 0 0
    outer loop
      vertex 277 44 0
      vertex 277 49 0
      vertex 277 44 12
    endloop
  endfacet
  facet normal 0 -1 0
    outer loop
      vertex 354 20 14
      vertex 354 20 28
      vertex 254 20 28
    endloop
  endfacet
  facet normal 0 -1 0
    outer loop
      vertex 254 20 14
      vertex 354 20 14
      vertex 254 20 28
    endloop
  endfacet
  facet normal 0 -1 0
    outer loop
      vertex 254 10 23
      vertex 254 10 28
      vertex 100 10 28
    endloop
  endfacet
  facet normal 0 -1 0
    outer loop
      vertex 100 10 23
      vertex 254 10 23
      vertex 100 10 28
    endloop
  endfacet
  facet normal 0 1 0
    outer loop
      vertex 349 44 12
      vertex 349 44 0
      vertex 277 44 12
    endloop
  endfacet
  facet normal 0 1 0
    outer loop
      vertex 277 44 12
      vertex 349 44 0
      vertex 277 44 0
    endloop
  endfacet
endsolid OpenSCAD_Model
