solid OpenSCAD_Model
  facet normal -1 0 0
    outer loop
      vertex 0 7.07107 0
      vertex 0 7.07107 14
      vertex 0 36 0
    endloop
  endfacet
  facet normal -1 0 0
    outer loop
      vertex 0 36 5
      vertex 0 7.07107 14
      vertex 0 92.9289 14
    endloop
  endfacet
  facet normal -1 0 0
    outer loop
      vertex 0 64 0
      vertex 0 92.9289 14
      vertex 0 92.9289 0
    endloop
  endfacet
  facet normal -1 0 0
    outer loop
      vertex 0 64 5
      vertex 0 92.9289 14
      vertex 0 64 0
    endloop
  endfacet
  facet normal -1 0 0
    outer loop
      vertex 0 36 0
      vertex 0 7.07107 14
      vertex 0 36 5
    endloop
  endfacet
  facet normal -1 0 0
    outer loop
      vertex 0 36 5
      vertex 0 92.9289 14
      vertex 0 64 5
    endloop
  endfacet
  facet normal -0.707107 -0.707107 0
    outer loop
      vertex 7.07107 5.55112e-16 0
      vertex 7.07107 5.55112e-16 14
      vertex 0 7.07107 14
    endloop
  endfacet
  facet normal -0.707107 -0.707107 0
    outer loop
      vertex 0 7.07107 0
      vertex 7.07107 5.55112e-16 0
      vertex 0 7.07107 14
    endloop
  endfacet
  facet normal 0 0 -1
    outer loop
      vertex 0 7.07107 0
      vertex 0 36 0
      vertex 7.07107 5.55112e-16 0
    endloop
  endfacet
  facet normal 0 0 -1
    outer loop
      vertex 10 10 0
      vertex 0 36 0
      vertex 295 36 0
    endloop
  endfacet
  facet normal 0 0 -1
    outer loop
      vertex 10 90 0
      vertex 0 64 0
      vertex 0 92.9289 0
    endloop
  endfacet
  facet normal 0 0 -1
    outer loop
      vertex 286 10 0
      vertex 288.929 1.01498e-15 0
      vertex 286 0 0
    endloop
  endfacet
  facet normal 0 0 -1
    outer loop
      vertex 295 64 0
      vertex 0 64 0
      vertex 10 90 0
    endloop
  endfacet
  facet normal 0 0 -1
    outer loop
      vertex 286 90 0
      vertex 295 64 0
      vertex 10 90 0
    endloop
  endfacet
  facet normal 0 0 -1
    outer loop
      vertex 286 10 0
      vertex 296 7.07107 0
      vertex 288.929 1.01498e-15 0
    endloop
  endfacet
  facet normal 0 0 -1
    outer loop
      vertex 295 64 0
      vertex 286 90 0
      vertex 286 100 0
    endloop
  endfacet
  facet normal 0 0 -1
    outer loop
      vertex 295 64 0
      vertex 286 100 0
      vertex 288.929 100 0
    endloop
  endfacet
  facet normal 0 0 -1
    outer loop
      vertex 295 64 0
      vertex 288.929 100 0
      vertex 296 92.9289 0
    endloop
  endfacet
  facet normal 0 0 -1
    outer loop
      vertex 295 64 0
      vertex 296 92.9289 0
      vertex 295 36 0
    endloop
  endfacet
  facet normal 0 0 -1
    outer loop
      vertex 295 36 0
      vertex 296 92.9289 0
      vertex 296 7.07107 0
    endloop
  endfacet
  facet normal 0 0 -1
    outer loop
      vertex 10 10 0
      vertex 295 36 0
      vertex 286 10 0
    endloop
  endfacet
  facet normal 0 0 -1
    outer loop
      vertex 295 36 0
      vertex 296 7.07107 0
      vertex 286 10 0
    endloop
  endfacet
  facet normal 0 0 -1
    outer loop
      vertex 7.07107 5.55112e-16 0
      vertex 0 36 0
      vertex 10 10 0
    endloop
  endfacet
  facet normal 0 0 -1
    outer loop
      vertex 10 0 0
      vertex 7.07107 5.55112e-16 0
      vertex 10 10 0
    endloop
  endfacet
  facet normal 0 0 -1
    outer loop
      vertex 7.07107 5.55112e-16 0
      vertex 10 0 0
      vertex 7.07107 0 0
    endloop
  endfacet
  facet normal 0 0 -1
    outer loop
      vertex 10 90 0
      vertex 0 92.9289 0
      vertex 7.07107 100 0
    endloop
  endfacet
  facet normal 0 0 -1
    outer loop
      vertex 10 90 0
      vertex 7.07107 100 0
      vertex 10 100 0
    endloop
  endfacet
  facet normal 0 0 -1
    outer loop
      vertex 288.929 1.01498e-15 0
      vertex 288.929 0 0
      vertex 286 0 0
    endloop
  endfacet
  facet normal 0 1 0
    outer loop
      vertex 295 36 5
      vertex 295 36 0
      vertex 0 36 5
    endloop
  endfacet
  facet normal 0 1 0
    outer loop
      vertex 0 36 5
      vertex 295 36 0
      vertex 0 36 0
    endloop
  endfacet
  facet normal 0 0 -1
    outer loop
      vertex 295 64 5
      vertex 295 36 5
      vertex 0 64 5
    endloop
  endfacet
  facet normal 0 0 -1
    outer loop
      vertex 0 64 5
      vertex 295 36 5
      vertex 0 36 5
    endloop
  endfacet
  facet normal 0 -1 0
    outer loop
      vertex 295 64 0
      vertex 295 64 5
      vertex 0 64 5
    endloop
  endfacet
  facet normal 0 -1 0
    outer loop
      vertex 0 64 0
      vertex 295 64 0
      vertex 0 64 5
    endloop
  endfacet
  facet normal -0.707107 0.707107 0
    outer loop
      vertex 7.07107 100 14
      vertex 7.07107 100 0
      vertex 0 92.9289 14
    endloop
  endfacet
  facet normal -0.707107 0.707107 0
    outer loop
      vertex 0 92.9289 14
      vertex 7.07107 100 0
      vertex 0 92.9289 0
    endloop
  endfacet
  facet normal 0 0 1
    outer loop
      vertex 7.07107 5.55112e-16 14
      vertex 7.07107 0 14
      vertex 20 0 14
    endloop
  endfacet
  facet normal 0 0 1
    outer loop
      vertex 20 100 14
      vertex 7.07107 5.55112e-16 14
      vertex 20 0 14
    endloop
  endfacet
  facet normal 0 0 1
    outer loop
      vertex 7.07107 100 14
      vertex 0 92.9289 14
      vertex 0 7.07107 14
    endloop
  endfacet
  facet normal 0 0 1
    outer loop
      vertex 0 7.07107 14
      vertex 20 100 14
      vertex 7.07107 100 14
    endloop
  endfacet
  facet normal 0 0 1
    outer loop
      vertex 0 7.07107 14
      vertex 7.07107 5.55112e-16 14
      vertex 20 100 14
    endloop
  endfacet
  facet normal -0.707107 0.707107 0
    outer loop
      vertex 7.07107 5.55112e-16 14
      vertex 7.07107 5.55112e-16 0
      vertex 7.07107 0 14
    endloop
  endfacet
  facet normal -0.707107 0.707107 0
    outer loop
      vertex 7.07107 0 14
      vertex 7.07107 5.55112e-16 0
      vertex 7.07107 0 0
    endloop
  endfacet
  facet normal 0 -1 0
    outer loop
      vertex 7.07107 0 14
      vertex 7.07107 0 0
      vertex 10 0 0
    endloop
  endfacet
  facet normal 0 -1 0
    outer loop
      vertex 286 0 5
      vertex 7.07107 0 14
      vertex 10 0 5
    endloop
  endfacet
  facet normal 0 -1 0
    outer loop
      vertex 10 0 5
      vertex 7.07107 0 14
      vertex 10 0 0
    endloop
  endfacet
  facet normal 0 -1 0
    outer loop
      vertex 276 0 14
      vertex 20 0 14
      vertex 286 0 5
    endloop
  endfacet
  facet normal 0 -1 0
    outer loop
      vertex 288.929 0 0
      vertex 286 0 5
      vertex 286 0 0
    endloop
  endfacet
  facet normal 0 -1 0
    outer loop
      vertex 288.929 0 14
      vertex 286 0 5
      vertex 288.929 0 0
    endloop
  endfacet
  facet normal 0 -1 0
    outer loop
      vertex 20 0 14
      vertex 7.07107 0 14
      vertex 286 0 5
    endloop
  endfacet
  facet normal 0 -1 0
    outer loop
      vertex 288.929 0 14
      vertex 276 0 14
      vertex 286 0 5
    endloop
  endfacet
  facet normal 0 -1 0
    outer loop
      vertex 276 0 28
      vertex 20 0 14
      vertex 276 0 14
    endloop
  endfacet
  facet normal 0 -1 0
    outer loop
      vertex 20 0 28
      vertex 20 0 14
      vertex 276 0 28
    endloop
  endfacet
  facet normal 1 0 0
    outer loop
      vertex 10 10 0
      vertex 10 10 5
      vertex 10 0 5
    endloop
  endfacet
  facet normal 1 0 0
    outer loop
      vertex 10 0 0
      vertex 10 10 0
      vertex 10 0 5
    endloop
  endfacet
  facet normal 0 -1 0
    outer loop
      vertex 286 10 0
      vertex 286 10 5
      vertex 10 10 5
    endloop
  endfacet
  facet normal 0 -1 0
    outer loop
      vertex 10 10 0
      vertex 286 10 0
      vertex 10 10 5
    endloop
  endfacet
  facet normal -1 0 0
    outer loop
      vertex 286 10 5
      vertex 286 10 0
      vertex 286 0 5
    endloop
  endfacet
  facet normal -1 0 0
    outer loop
      vertex 286 0 5
      vertex 286 10 0
      vertex 286 0 0
    endloop
  endfacet
  facet normal 0.707107 0.707107 0
    outer loop
      vertex 288.929 1.01498e-15 14
      vertex 288.929 0 14
      vertex 288.929 0 0
    endloop
  endfacet
  facet normal 0.707107 0.707107 0
    outer loop
      vertex 288.929 1.01498e-15 0
      vertex 288.929 1.01498e-15 14
      vertex 288.929 0 0
    endloop
  endfacet
  facet normal 0.707107 -0.707107 0
    outer loop
      vertex 296 7.07107 0
      vertex 296 7.07107 14
      vertex 288.929 1.01498e-15 14
    endloop
  endfacet
  facet normal 0.707107 -0.707107 0
    outer loop
      vertex 288.929 1.01498e-15 0
      vertex 296 7.07107 0
      vertex 288.929 1.01498e-15 14
    endloop
  endfacet
  facet normal 1 0 0
    outer loop
      vertex 296 7.07107 14
      vertex 296 7.07107 0
      vertex 296 92.9289 0
    endloop
  endfacet
  facet normal 1 0 0
    outer loop
      vertex 296 92.9289 14
      vertex 296 7.07107 14
      vertex 296 92.9289 0
    endloop
  endfacet
  facet normal 0.707107 0.707107 0
    outer loop
      vertex 288.929 100 14
      vertex 296 92.9289 14
      vertex 296 92.9289 0
    endloop
  endfacet
  facet normal 0.707107 0.707107 0
    outer loop
      vertex 288.929 100 0
      vertex 288.929 100 14
      vertex 296 92.9289 0
    endloop
  endfacet
  facet normal 0 1 0
    outer loop
      vertex 7.07107 100 0
      vertex 7.07107 100 14
      vertex 10 100 0
    endloop
  endfacet
  facet normal 0 1 0
    outer loop
      vertex 10 100 5
      vertex 7.07107 100 14
      vertex 20 100 14
    endloop
  endfacet
  facet normal 0 1 0
    outer loop
      vertex 20 100 14
      vertex 20 100 28
      vertex 276 100 28
    endloop
  endfacet
  facet normal 0 1 0
    outer loop
      vertex 286 100 0
      vertex 288.929 100 14
      vertex 288.929 100 0
    endloop
  endfacet
  facet normal 0 1 0
    outer loop
      vertex 286 100 5
      vertex 288.929 100 14
      vertex 286 100 0
    endloop
  endfacet
  facet normal 0 1 0
    outer loop
      vertex 10 100 0
      vertex 7.07107 100 14
      vertex 10 100 5
    endloop
  endfacet
  facet normal 0 1 0
    outer loop
      vertex 10 100 5
      vertex 20 100 14
      vertex 276 100 28
    endloop
  endfacet
  facet normal 0 1 0
    outer loop
      vertex 10 100 5
      vertex 276 100 28
      vertex 276 100 14
    endloop
  endfacet
  facet normal 0 1 0
    outer loop
      vertex 10 100 5
      vertex 276 100 14
      vertex 288.929 100 14
    endloop
  endfacet
  facet normal 0 1 0
    outer loop
      vertex 10 100 5
      vertex 288.929 100 14
      vertex 286 100 5
    endloop
  endfacet
  facet normal -1 0 0
    outer loop
      vertex 286 100 5
      vertex 286 100 0
      vertex 286 90 5
    endloop
  endfacet
  facet normal -1 0 0
    outer loop
      vertex 286 90 5
      vertex 286 100 0
      vertex 286 90 0
    endloop
  endfacet
  facet normal 0 1 0
    outer loop
      vertex 286 90 5
      vertex 286 90 0
      vertex 10 90 5
    endloop
  endfacet
  facet normal 0 1 0
    outer loop
      vertex 10 90 5
      vertex 286 90 0
      vertex 10 90 0
    endloop
  endfacet
  facet normal 1 0 0
    outer loop
      vertex 10 100 0
      vertex 10 100 5
      vertex 10 90 5
    endloop
  endfacet
  facet normal 1 0 0
    outer loop
      vertex 10 90 0
      vertex 10 100 0
      vertex 10 90 5
    endloop
  endfacet
  facet normal -1 0 0
    outer loop
      vertex 295 64 5
      vertex 295 64 0
      vertex 295 36 5
    endloop
  endfacet
  facet normal -1 0 0
    outer loop
      vertex 295 36 5
      vertex 295 64 0
      vertex 295 36 0
    endloop
  endfacet
  facet normal -1 0 0
    outer loop
      vertex 20 100 28
      vertex 20 100 14
      vertex 20 0 28
    endloop
  endfacet
  facet normal -1 0 0
    outer loop
      vertex 20 0 28
      vertex 20 100 14
      vertex 20 0 14
    endloop
  endfacet
  facet normal 0 0 1
    outer loop
      vertex 20 100 28
      vertex 20 0 28
      vertex 276 0 28
    endloop
  endfacet
  facet normal 0 0 1
    outer loop
      vertex 276 100 28
      vertex 20 100 28
      vertex 276 0 28
    endloop
  endfacet
  facet normal 1 0 0
    outer loop
      vertex 276 100 14
      vertex 276 100 28
      vertex 276 0 28
    endloop
  endfacet
  facet normal 1 0 0
    outer loop
      vertex 276 0 14
      vertex 276 100 14
      vertex 276 0 28
    endloop
  endfacet
  facet normal 0 0 1
    outer loop
      vertex 296 92.9289 14
      vertex 288.929 1.01498e-15 14
      vertex 296 7.07107 14
    endloop
  endfacet
  facet normal 0 0 1
    outer loop
      vertex 288.929 0 14
      vertex 288.929 1.01498e-15 14
      vertex 276 0 14
    endloop
  endfacet
  facet normal 0 0 1
    outer loop
      vertex 288.929 100 14
      vertex 288.929 1.01498e-15 14
      vertex 296 92.9289 14
    endloop
  endfacet
  facet normal 0 0 1
    outer loop
      vertex 276 100 14
      vertex 288.929 1.01498e-15 14
      vertex 288.929 100 14
    endloop
  endfacet
  facet normal 0 0 1
    outer loop
      vertex 276 0 14
      vertex 288.929 1.01498e-15 14
      vertex 276 100 14
    endloop
  endfacet
  facet normal 0 0 -1
    outer loop
      vertex 286 10 5
      vertex 286 0 5
      vertex 10 10 5
    endloop
  endfacet
  facet normal 0 0 -1
    outer loop
      vertex 10 10 5
      vertex 286 0 5
      vertex 10 0 5
    endloop
  endfacet
  facet normal 0 0 -1
    outer loop
      vertex 286 100 5
      vertex 286 90 5
      vertex 10 100 5
    endloop
  endfacet
  facet normal 0 0 -1
    outer loop
      vertex 10 100 5
      vertex 286 90 5
      vertex 10 90 5
    endloop
  endfacet
endsolid OpenSCAD_Model
