  0
SECTION
  2
BLOCKS
  0
ENDSEC
  0
SECTION
  2
ENTITIES
  0
LINE
  8
0
 10
0
 11
0
 20
127
 21
141
  0
LINE
  8
0
 10
0
 11
100
 20
141
 21
141
  0
LINE
  8
0
 10
100
 11
100
 20
141
 21
150
  0
LINE
  8
0
 10
100
 11
254
 20
150
 21
150
  0
LINE
  8
0
 10
254
 11
254
 20
150
 21
141
  0
LINE
  8
0
 10
254
 11
354
 20
141
 21
141
  0
LINE
  8
0
 10
354
 11
354
 20
141
 21
127
  0
LINE
  8
0
 10
354
 11
0
 20
127
 21
127
  0
LINE
  8
0
 10
0
 11
0
 20
205
 21
219
  0
LINE
  8
0
 10
0
 11
100
 20
219
 21
219
  0
LINE
  8
0
 10
100
 11
100
 20
219
 21
228
  0
LINE
  8
0
 10
100
 11
254
 20
228
 21
228
  0
LINE
  8
0
 10
254
 11
254
 20
228
 21
219
  0
LINE
  8
0
 10
254
 11
354
 20
219
 21
219
  0
LINE
  8
0
 10
354
 11
354
 20
219
 21
205
  0
LINE
  8
0
 10
354
 11
0
 20
205
 21
205
  0
LINE
  8
0
 10
0
 11
0
 20
283
 21
297
  0
LINE
  8
0
 10
0
 11
100
 20
297
 21
297
  0
LINE
  8
0
 10
100
 11
100
 20
297
 21
311
  0
LINE
  8
0
 10
100
 11
254
 20
311
 21
311
  0
LINE
  8
0
 10
254
 11
254
 20
311
 21
297
  0
LINE
  8
0
 10
254
 11
354
 20
297
 21
297
  0
LINE
  8
0
 10
354
 11
354
 20
297
 21
283
  0
LINE
  8
0
 10
354
 11
0
 20
283
 21
283
  0
LINE
  8
0
 10
0
 11
0
 20
361
 21
377
  0
LINE
  8
0
 10
0
 11
5
 20
377
 21
377
  0
LINE
  8
0
 10
5
 11
5
 20
377
 21
389
  0
LINE
  8
0
 10
5
 11
349
 20
389
 21
389
  0
LINE
  8
0
 10
349
 11
349
 20
389
 21
377
  0
LINE
  8
0
 10
349
 11
354
 20
377
 21
377
  0
LINE
  8
0
 10
354
 11
354
 20
377
 21
361
  0
LINE
  8
0
 10
354
 11
0
 20
361
 21
361
  0
LINE
  8
0
 10
0
 11
0
 20
439
 21
455
  0
LINE
  8
0
 10
0
 11
5
 20
455
 21
455
  0
LINE
  8
0
 10
5
 11
5
 20
455
 21
467
  0
LINE
  8
0
 10
5
 11
349
 20
467
 21
467
  0
LINE
  8
0
 10
349
 11
349
 20
467
 21
455
  0
LINE
  8
0
 10
349
 11
354
 20
455
 21
455
  0
LINE
  8
0
 10
354
 11
354
 20
455
 21
439
  0
LINE
  8
0
 10
354
 11
0
 20
439
 21
439
  0
LINE
  8
0
 10
0
 11
0
 20
1303
 21
1352
  0
LINE
  8
0
 10
0
 11
354
 20
1352
 21
1352
  0
LINE
  8
0
 10
354
 11
354
 20
1352
 21
1303
  0
LINE
  8
0
 10
354
 11
0
 20
1303
 21
1303
  0
LINE
  8
0
 10
0
 11
0
 20
1402
 21
1451
  0
LINE
  8
0
 10
0
 11
354
 20
1451
 21
1451
  0
LINE
  8
0
 10
354
 11
354
 20
1451
 21
1402
  0
LINE
  8
0
 10
354
 11
0
 20
1402
 21
1402
  0
LINE
  8
0
 10
0
 11
0
 20
1501
 21
1550
  0
LINE
  8
0
 10
0
 11
354
 20
1550
 21
1550
  0
LINE
  8
0
 10
354
 11
354
 20
1550
 21
1501
  0
LINE
  8
0
 10
354
 11
0
 20
1501
 21
1501
  0
LINE
  8
0
 10
0
 11
0
 20
1600
 21
1649
  0
LINE
  8
0
 10
0
 11
354
 20
1649
 21
1649
  0
LINE
  8
0
 10
354
 11
354
 20
1649
 21
1600
  0
LINE
  8
0
 10
354
 11
0
 20
1600
 21
1600
  0
LINE
  8
0
 10
5
 11
5
 20
1026
 21
1050
  0
LINE
  8
0
 10
5
 11
77
 20
1050
 21
1050
  0
LINE
  8
0
 10
77
 11
77
 20
1050
 21
1055
  0
LINE
  8
0
 10
77
 11
277
 20
1055
 21
1055
  0
LINE
  8
0
 10
277
 11
277
 20
1055
 21
1050
  0
LINE
  8
0
 10
277
 11
349
 20
1050
 21
1050
  0
LINE
  8
0
 10
349
 11
349
 20
1050
 21
1026
  0
LINE
  8
0
 10
349
 11
254
 20
1026
 21
1026
  0
LINE
  8
0
 10
254
 11
254
 20
1026
 21
1016
  0
LINE
  8
0
 10
254
 11
100
 20
1016
 21
1016
  0
LINE
  8
0
 10
100
 11
100
 20
1016
 21
1026
  0
LINE
  8
0
 10
100
 11
5
 20
1026
 21
1026
  0
LINE
  8
0
 10
5
 11
5
 20
1125
 21
1149
  0
LINE
  8
0
 10
5
 11
77
 20
1149
 21
1149
  0
LINE
  8
0
 10
77
 11
77
 20
1149
 21
1154
  0
LINE
  8
0
 10
77
 11
277
 20
1154
 21
1154
  0
LINE
  8
0
 10
277
 11
277
 20
1154
 21
1149
  0
LINE
  8
0
 10
277
 11
349
 20
1149
 21
1149
  0
LINE
  8
0
 10
349
 11
349
 20
1149
 21
1125
  0
LINE
  8
0
 10
349
 11
254
 20
1125
 21
1125
  0
LINE
  8
0
 10
254
 11
254
 20
1125
 21
1115
  0
LINE
  8
0
 10
254
 11
100
 20
1115
 21
1115
  0
LINE
  8
0
 10
100
 11
100
 20
1115
 21
1125
  0
LINE
  8
0
 10
100
 11
5
 20
1125
 21
1125
  0
LINE
  8
0
 10
5
 11
5
 20
1224
 21
1248
  0
LINE
  8
0
 10
5
 11
77
 20
1248
 21
1248
  0
LINE
  8
0
 10
77
 11
77
 20
1248
 21
1253
  0
LINE
  8
0
 10
77
 11
277
 20
1253
 21
1253
  0
LINE
  8
0
 10
277
 11
277
 20
1253
 21
1248
  0
LINE
  8
0
 10
277
 11
349
 20
1248
 21
1248
  0
LINE
  8
0
 10
349
 11
349
 20
1248
 21
1224
  0
LINE
  8
0
 10
349
 11
254
 20
1224
 21
1224
  0
LINE
  8
0
 10
254
 11
254
 20
1224
 21
1204
  0
LINE
  8
0
 10
254
 11
100
 20
1204
 21
1204
  0
LINE
  8
0
 10
100
 11
100
 20
1204
 21
1224
  0
LINE
  8
0
 10
100
 11
5
 20
1224
 21
1224
  0
LINE
  8
0
 10
12.1
 11
12.1
 20
20
 21
49
  0
LINE
  8
0
 10
12.1
 11
28.1
 20
49
 21
49
  0
LINE
  8
0
 10
28.1
 11
28.1
 20
49
 21
0
  0
LINE
  8
0
 10
28.1
 11
14.1
 20
0
 21
0
  0
LINE
  8
0
 10
14.1
 11
14.1
 20
0
 21
20
  0
LINE
  8
0
 10
14.1
 11
12.1
 20
20
 21
20
  0
LINE
  8
0
 10
33.1
 11
33.1
 20
20
 21
44
  0
LINE
  8
0
 10
33.1
 11
45.1
 20
44
 21
44
  0
LINE
  8
0
 10
45.1
 11
45.1
 20
44
 21
49
  0
LINE
  8
0
 10
45.1
 11
61.1
 20
49
 21
49
  0
LINE
  8
0
 10
61.1
 11
61.1
 20
49
 21
0
  0
LINE
  8
0
 10
61.1
 11
47.1
 20
0
 21
0
  0
LINE
  8
0
 10
47.1
 11
47.1
 20
0
 21
20
  0
LINE
  8
0
 10
47.1
 11
33.1
 20
20
 21
20
  0
LINE
  8
0
 10
66.1
 11
66.1
 20
20
 21
44
  0
LINE
  8
0
 10
66.1
 11
78.1
 20
44
 21
44
  0
LINE
  8
0
 10
78.1
 11
78.1
 20
44
 21
49
  0
LINE
  8
0
 10
78.1
 11
94.1
 20
49
 21
49
  0
LINE
  8
0
 10
94.1
 11
94.1
 20
49
 21
0
  0
LINE
  8
0
 10
94.1
 11
80.1
 20
0
 21
0
  0
LINE
  8
0
 10
80.1
 11
80.1
 20
0
 21
20
  0
LINE
  8
0
 10
80.1
 11
66.1
 20
20
 21
20
  0
LINE
  8
0
 10
99.1
 11
99.1
 20
20
 21
49
  0
LINE
  8
0
 10
99.1
 11
127.1
 20
49
 21
49
  0
LINE
  8
0
 10
127.1
 11
127.1
 20
49
 21
0
  0
LINE
  8
0
 10
127.1
 11
113.1
 20
0
 21
0
  0
LINE
  8
0
 10
113.1
 11
113.1
 20
0
 21
20
  0
LINE
  8
0
 10
113.1
 11
99.1
 20
20
 21
20
  0
LINE
  8
0
 10
132.1
 11
132.1
 20
10
 21
49
  0
LINE
  8
0
 10
132.1
 11
160.1
 20
49
 21
49
  0
LINE
  8
0
 10
160.1
 11
160.1
 20
49
 21
0
  0
LINE
  8
0
 10
160.1
 11
137.1
 20
0
 21
0
  0
LINE
  8
0
 10
137.1
 11
137.1
 20
0
 21
10
  0
LINE
  8
0
 10
137.1
 11
132.1
 20
10
 21
10
  0
LINE
  8
0
 10
165.1
 11
165.1
 20
10
 21
49
  0
LINE
  8
0
 10
165.1
 11
193.1
 20
49
 21
49
  0
LINE
  8
0
 10
193.1
 11
193.1
 20
49
 21
0
  0
LINE
  8
0
 10
193.1
 11
170.1
 20
0
 21
0
  0
LINE
  8
0
 10
170.1
 11
170.1
 20
0
 21
10
  0
LINE
  8
0
 10
170.1
 11
165.1
 20
10
 21
10
  0
LINE
  8
0
 10
198.1
 11
198.1
 20
10
 21
49
  0
LINE
  8
0
 10
198.1
 11
226.1
 20
49
 21
49
  0
LINE
  8
0
 10
226.1
 11
226.1
 20
49
 21
0
  0
LINE
  8
0
 10
226.1
 11
203.1
 20
0
 21
0
  0
LINE
  8
0
 10
203.1
 11
203.1
 20
0
 21
10
  0
LINE
  8
0
 10
203.1
 11
198.1
 20
10
 21
10
  0
LINE
  8
0
 10
231.1
 11
231.1
 20
10
 21
49
  0
LINE
  8
0
 10
231.1
 11
259.1
 20
49
 21
49
  0
LINE
  8
0
 10
259.1
 11
259.1
 20
49
 21
0
  0
LINE
  8
0
 10
259.1
 11
236.1
 20
0
 21
0
  0
LINE
  8
0
 10
236.1
 11
236.1
 20
0
 21
10
  0
LINE
  8
0
 10
236.1
 11
231.1
 20
10
 21
10
  0
LINE
  8
0
 10
264.1
 11
264.1
 20
20
 21
49
  0
LINE
  8
0
 10
264.1
 11
292.1
 20
49
 21
49
  0
LINE
  8
0
 10
292.1
 11
292.1
 20
49
 21
0
  0
LINE
  8
0
 10
292.1
 11
278.1
 20
0
 21
0
  0
LINE
  8
0
 10
278.1
 11
278.1
 20
0
 21
20
  0
LINE
  8
0
 10
278.1
 11
264.1
 20
20
 21
20
  0
LINE
  8
0
 10
297.1
 11
297.1
 20
20
 21
44
  0
LINE
  8
0
 10
297.1
 11
309.1
 20
44
 21
44
  0
LINE
  8
0
 10
309.1
 11
309.1
 20
44
 21
49
  0
LINE
  8
0
 10
309.1
 11
325.1
 20
49
 21
49
  0
LINE
  8
0
 10
325.1
 11
325.1
 20
49
 21
0
  0
LINE
  8
0
 10
325.1
 11
311.1
 20
0
 21
0
  0
LINE
  8
0
 10
311.1
 11
311.1
 20
0
 21
20
  0
LINE
  8
0
 10
311.1
 11
297.1
 20
20
 21
20
  0
LINE
  8
0
 10
330.1
 11
330.1
 20
20
 21
44
  0
LINE
  8
0
 10
330.1
 11
342.1
 20
44
 21
44
  0
LINE
  8
0
 10
342.1
 11
342.1
 20
44
 21
49
  0
LINE
  8
0
 10
342.1
 11
358.1
 20
49
 21
49
  0
LINE
  8
0
 10
358.1
 11
358.1
 20
49
 21
0
  0
LINE
  8
0
 10
358.1
 11
344.1
 20
0
 21
0
  0
LINE
  8
0
 10
344.1
 11
344.1
 20
0
 21
20
  0
LINE
  8
0
 10
344.1
 11
330.1
 20
20
 21
20
  0
ENDSEC
  0
SECTION
  2
OBJECTS
  0
DICTIONARY
  0
ENDSEC
  0
EOF
